G04 #@! TF.GenerationSoftware,KiCad,Pcbnew,(6.0.1)*
G04 #@! TF.CreationDate,2022-06-15T10:22:57-03:00*
G04 #@! TF.ProjectId,Pi-Hat,50692d48-6174-42e6-9b69-6361645f7063,rev?*
G04 #@! TF.SameCoordinates,Original*
G04 #@! TF.FileFunction,Paste,Top*
G04 #@! TF.FilePolarity,Positive*
%FSLAX46Y46*%
G04 Gerber Fmt 4.6, Leading zero omitted, Abs format (unit mm)*
G04 Created by KiCad (PCBNEW (6.0.1)) date 2022-06-15 10:22:57*
%MOMM*%
%LPD*%
G01*
G04 APERTURE LIST*
G04 #@! TA.AperFunction,Profile*
%ADD10C,0.100000*%
G04 #@! TD*
%ADD11R,0.800000X0.800000*%
%ADD12R,1.500000X1.000000*%
%ADD13R,1.000000X1.500000*%
%ADD14R,1.505000X0.802000*%
%ADD15R,1.400000X1.000000*%
G04 APERTURE END LIST*
D10*
X78546356Y-63817611D02*
X78546356Y-113817611D01*
X81546356Y-60817611D02*
G75*
G03*
X78546356Y-63817611I0J-3000000D01*
G01*
X140546356Y-60817611D02*
X81546356Y-60817611D01*
X143546356Y-63817611D02*
G75*
G03*
X140546356Y-60817611I-3000000J0D01*
G01*
X143546356Y-113817611D02*
X143546356Y-63817611D01*
X78546356Y-113817611D02*
G75*
G03*
X81546356Y-116817611I3000000J0D01*
G01*
X81546356Y-116817611D02*
X140546356Y-116817611D01*
X140546356Y-116817611D02*
G75*
G03*
X143546351Y-113822847I0J3000000D01*
G01*
D11*
X83376000Y-72644000D03*
X85026000Y-72644000D03*
X83376000Y-70104000D03*
X85026000Y-70104000D03*
D12*
X142240000Y-79085000D03*
X142240000Y-80935000D03*
D13*
X94706000Y-105791000D03*
X96556000Y-105791000D03*
D12*
X142240000Y-86650000D03*
X142240000Y-84800000D03*
X90182500Y-106510000D03*
X90182500Y-104310000D03*
X110248500Y-97239000D03*
X110248500Y-95039000D03*
X105410000Y-106238400D03*
X105410000Y-104038400D03*
X90157500Y-96690000D03*
X90157500Y-98890000D03*
D13*
X106510000Y-97777500D03*
X104310000Y-97777500D03*
D12*
X90182500Y-102700000D03*
X90182500Y-100500000D03*
X87350600Y-74218800D03*
X87350600Y-76418800D03*
X87363500Y-68877000D03*
X87363500Y-71077000D03*
D14*
X101557500Y-103505000D03*
X101557500Y-102235000D03*
X101557500Y-100965000D03*
X101557500Y-99695000D03*
X96562500Y-99695000D03*
X96562500Y-100965000D03*
X96562500Y-102235000D03*
X96562500Y-103505000D03*
D15*
X107780000Y-101915000D03*
X107780000Y-100015000D03*
X105580000Y-100965000D03*
X91905000Y-74610000D03*
X91905000Y-72710000D03*
X89705000Y-73660000D03*
X91905000Y-70800000D03*
X91905000Y-68900000D03*
X89705000Y-69850000D03*
M02*
