G04 #@! TF.GenerationSoftware,KiCad,Pcbnew,(6.0.1)*
G04 #@! TF.CreationDate,2022-06-15T10:22:57-03:00*
G04 #@! TF.ProjectId,Pi-Hat,50692d48-6174-42e6-9b69-6361645f7063,rev?*
G04 #@! TF.SameCoordinates,Original*
G04 #@! TF.FileFunction,Other,Comment*
%FSLAX46Y46*%
G04 Gerber Fmt 4.6, Leading zero omitted, Abs format (unit mm)*
G04 Created by KiCad (PCBNEW (6.0.1)) date 2022-06-15 10:22:57*
%MOMM*%
%LPD*%
G01*
G04 APERTURE LIST*
%ADD10C,0.300000*%
G04 #@! TA.AperFunction,Profile*
%ADD11C,0.100000*%
G04 #@! TD*
G04 APERTURE END LIST*
D10*
X150327942Y-60135657D02*
X150542228Y-60207085D01*
X150613657Y-60278514D01*
X150685085Y-60421371D01*
X150685085Y-60635657D01*
X150613657Y-60778514D01*
X150542228Y-60849942D01*
X150399371Y-60921371D01*
X149827942Y-60921371D01*
X149827942Y-59421371D01*
X150327942Y-59421371D01*
X150470800Y-59492800D01*
X150542228Y-59564228D01*
X150613657Y-59707085D01*
X150613657Y-59849942D01*
X150542228Y-59992800D01*
X150470800Y-60064228D01*
X150327942Y-60135657D01*
X149827942Y-60135657D01*
X151542228Y-60921371D02*
X151399371Y-60849942D01*
X151327942Y-60778514D01*
X151256514Y-60635657D01*
X151256514Y-60207085D01*
X151327942Y-60064228D01*
X151399371Y-59992800D01*
X151542228Y-59921371D01*
X151756514Y-59921371D01*
X151899371Y-59992800D01*
X151970800Y-60064228D01*
X152042228Y-60207085D01*
X152042228Y-60635657D01*
X151970800Y-60778514D01*
X151899371Y-60849942D01*
X151756514Y-60921371D01*
X151542228Y-60921371D01*
X152613657Y-60849942D02*
X152756514Y-60921371D01*
X153042228Y-60921371D01*
X153185085Y-60849942D01*
X153256514Y-60707085D01*
X153256514Y-60635657D01*
X153185085Y-60492800D01*
X153042228Y-60421371D01*
X152827942Y-60421371D01*
X152685085Y-60349942D01*
X152613657Y-60207085D01*
X152613657Y-60135657D01*
X152685085Y-59992800D01*
X152827942Y-59921371D01*
X153042228Y-59921371D01*
X153185085Y-59992800D01*
X153685085Y-59921371D02*
X154256514Y-59921371D01*
X153899371Y-59421371D02*
X153899371Y-60707085D01*
X153970800Y-60849942D01*
X154113657Y-60921371D01*
X154256514Y-60921371D01*
X154970800Y-60921371D02*
X154827942Y-60849942D01*
X154756514Y-60778514D01*
X154685085Y-60635657D01*
X154685085Y-60207085D01*
X154756514Y-60064228D01*
X154827942Y-59992800D01*
X154970800Y-59921371D01*
X155185085Y-59921371D01*
X155327942Y-59992800D01*
X155399371Y-60064228D01*
X155470800Y-60207085D01*
X155470800Y-60635657D01*
X155399371Y-60778514D01*
X155327942Y-60849942D01*
X155185085Y-60921371D01*
X154970800Y-60921371D01*
X156113657Y-59921371D02*
X156113657Y-60921371D01*
X156113657Y-60064228D02*
X156185085Y-59992800D01*
X156327942Y-59921371D01*
X156542228Y-59921371D01*
X156685085Y-59992800D01*
X156756514Y-60135657D01*
X156756514Y-60921371D01*
X158613657Y-59421371D02*
X158613657Y-60635657D01*
X158685085Y-60778514D01*
X158756514Y-60849942D01*
X158899371Y-60921371D01*
X159185085Y-60921371D01*
X159327942Y-60849942D01*
X159399371Y-60778514D01*
X159470800Y-60635657D01*
X159470800Y-59421371D01*
X160185085Y-59921371D02*
X160185085Y-60921371D01*
X160185085Y-60064228D02*
X160256514Y-59992800D01*
X160399371Y-59921371D01*
X160613657Y-59921371D01*
X160756514Y-59992800D01*
X160827942Y-60135657D01*
X160827942Y-60921371D01*
X161542228Y-60921371D02*
X161542228Y-59921371D01*
X161542228Y-59421371D02*
X161470800Y-59492800D01*
X161542228Y-59564228D01*
X161613657Y-59492800D01*
X161542228Y-59421371D01*
X161542228Y-59564228D01*
X162113657Y-59921371D02*
X162470800Y-60921371D01*
X162827942Y-59921371D01*
X163970800Y-60849942D02*
X163827942Y-60921371D01*
X163542228Y-60921371D01*
X163399371Y-60849942D01*
X163327942Y-60707085D01*
X163327942Y-60135657D01*
X163399371Y-59992800D01*
X163542228Y-59921371D01*
X163827942Y-59921371D01*
X163970800Y-59992800D01*
X164042228Y-60135657D01*
X164042228Y-60278514D01*
X163327942Y-60421371D01*
X164685085Y-60921371D02*
X164685085Y-59921371D01*
X164685085Y-60207085D02*
X164756514Y-60064228D01*
X164827942Y-59992800D01*
X164970800Y-59921371D01*
X165113657Y-59921371D01*
X165542228Y-60849942D02*
X165685085Y-60921371D01*
X165970800Y-60921371D01*
X166113657Y-60849942D01*
X166185085Y-60707085D01*
X166185085Y-60635657D01*
X166113657Y-60492800D01*
X165970800Y-60421371D01*
X165756514Y-60421371D01*
X165613657Y-60349942D01*
X165542228Y-60207085D01*
X165542228Y-60135657D01*
X165613657Y-59992800D01*
X165756514Y-59921371D01*
X165970800Y-59921371D01*
X166113657Y-59992800D01*
X166827942Y-60921371D02*
X166827942Y-59921371D01*
X166827942Y-59421371D02*
X166756514Y-59492800D01*
X166827942Y-59564228D01*
X166899371Y-59492800D01*
X166827942Y-59421371D01*
X166827942Y-59564228D01*
X167327942Y-59921371D02*
X167899371Y-59921371D01*
X167542228Y-59421371D02*
X167542228Y-60707085D01*
X167613657Y-60849942D01*
X167756514Y-60921371D01*
X167899371Y-60921371D01*
X168256514Y-59921371D02*
X168613657Y-60921371D01*
X168970800Y-59921371D02*
X168613657Y-60921371D01*
X168470800Y-61278514D01*
X168399371Y-61349942D01*
X168256514Y-61421371D01*
X170685085Y-60921371D02*
X170685085Y-59421371D01*
X171256514Y-59421371D01*
X171399371Y-59492800D01*
X171470800Y-59564228D01*
X171542228Y-59707085D01*
X171542228Y-59921371D01*
X171470800Y-60064228D01*
X171399371Y-60135657D01*
X171256514Y-60207085D01*
X170685085Y-60207085D01*
X173256514Y-59349942D02*
X171970800Y-61278514D01*
X173756514Y-60921371D02*
X173756514Y-59421371D01*
X174613657Y-60921371D01*
X174613657Y-59421371D01*
X176470800Y-60135657D02*
X176970800Y-60135657D01*
X177185085Y-60921371D02*
X176470800Y-60921371D01*
X176470800Y-59421371D01*
X177185085Y-59421371D01*
X177613657Y-59421371D02*
X178113657Y-60921371D01*
X178613657Y-59421371D01*
X179113657Y-60349942D02*
X180256514Y-60349942D01*
X180970800Y-60921371D02*
X180970800Y-59421371D01*
X181542228Y-59421371D01*
X181685085Y-59492800D01*
X181756514Y-59564228D01*
X181827942Y-59707085D01*
X181827942Y-59921371D01*
X181756514Y-60064228D01*
X181685085Y-60135657D01*
X181542228Y-60207085D01*
X180970800Y-60207085D01*
X182470800Y-60921371D02*
X182470800Y-59921371D01*
X182470800Y-59421371D02*
X182399371Y-59492800D01*
X182470800Y-59564228D01*
X182542228Y-59492800D01*
X182470800Y-59421371D01*
X182470800Y-59564228D01*
X183185085Y-60921371D02*
X183185085Y-59421371D01*
X183185085Y-60135657D02*
X184042228Y-60135657D01*
X184042228Y-60921371D02*
X184042228Y-59421371D01*
X185399371Y-60921371D02*
X185399371Y-60135657D01*
X185327942Y-59992800D01*
X185185085Y-59921371D01*
X184899371Y-59921371D01*
X184756514Y-59992800D01*
X185399371Y-60849942D02*
X185256514Y-60921371D01*
X184899371Y-60921371D01*
X184756514Y-60849942D01*
X184685085Y-60707085D01*
X184685085Y-60564228D01*
X184756514Y-60421371D01*
X184899371Y-60349942D01*
X185256514Y-60349942D01*
X185399371Y-60278514D01*
X185899371Y-59921371D02*
X186470800Y-59921371D01*
X186113657Y-59421371D02*
X186113657Y-60707085D01*
X186185085Y-60849942D01*
X186327942Y-60921371D01*
X186470800Y-60921371D01*
X188970800Y-60921371D02*
X188470800Y-60207085D01*
X188113657Y-60921371D02*
X188113657Y-59421371D01*
X188685085Y-59421371D01*
X188827942Y-59492800D01*
X188899371Y-59564228D01*
X188970800Y-59707085D01*
X188970800Y-59921371D01*
X188899371Y-60064228D01*
X188827942Y-60135657D01*
X188685085Y-60207085D01*
X188113657Y-60207085D01*
X190185085Y-60849942D02*
X190042228Y-60921371D01*
X189756514Y-60921371D01*
X189613657Y-60849942D01*
X189542228Y-60707085D01*
X189542228Y-60135657D01*
X189613657Y-59992800D01*
X189756514Y-59921371D01*
X190042228Y-59921371D01*
X190185085Y-59992800D01*
X190256514Y-60135657D01*
X190256514Y-60278514D01*
X189542228Y-60421371D01*
X190756514Y-59921371D02*
X191113657Y-60921371D01*
X191470800Y-59921371D01*
X193113657Y-60492800D02*
X193827942Y-60492800D01*
X192970800Y-60921371D02*
X193470800Y-59421371D01*
X193970800Y-60921371D01*
X149756514Y-64394228D02*
X149827942Y-64322800D01*
X149970800Y-64251371D01*
X150327942Y-64251371D01*
X150470800Y-64322800D01*
X150542228Y-64394228D01*
X150613657Y-64537085D01*
X150613657Y-64679942D01*
X150542228Y-64894228D01*
X149685085Y-65751371D01*
X150613657Y-65751371D01*
X153113657Y-65751371D02*
X152399371Y-65751371D01*
X152399371Y-64251371D01*
X154256514Y-65751371D02*
X154256514Y-64965657D01*
X154185085Y-64822800D01*
X154042228Y-64751371D01*
X153756514Y-64751371D01*
X153613657Y-64822800D01*
X154256514Y-65679942D02*
X154113657Y-65751371D01*
X153756514Y-65751371D01*
X153613657Y-65679942D01*
X153542228Y-65537085D01*
X153542228Y-65394228D01*
X153613657Y-65251371D01*
X153756514Y-65179942D01*
X154113657Y-65179942D01*
X154256514Y-65108514D01*
X154827942Y-64751371D02*
X155185085Y-65751371D01*
X155542228Y-64751371D02*
X155185085Y-65751371D01*
X155042228Y-66108514D01*
X154970800Y-66179942D01*
X154827942Y-66251371D01*
X156685085Y-65679942D02*
X156542228Y-65751371D01*
X156256514Y-65751371D01*
X156113657Y-65679942D01*
X156042228Y-65537085D01*
X156042228Y-64965657D01*
X156113657Y-64822800D01*
X156256514Y-64751371D01*
X156542228Y-64751371D01*
X156685085Y-64822800D01*
X156756514Y-64965657D01*
X156756514Y-65108514D01*
X156042228Y-65251371D01*
X157399371Y-65751371D02*
X157399371Y-64751371D01*
X157399371Y-65037085D02*
X157470800Y-64894228D01*
X157542228Y-64822800D01*
X157685085Y-64751371D01*
X157827942Y-64751371D01*
X158256514Y-65679942D02*
X158399371Y-65751371D01*
X158685085Y-65751371D01*
X158827942Y-65679942D01*
X158899371Y-65537085D01*
X158899371Y-65465657D01*
X158827942Y-65322800D01*
X158685085Y-65251371D01*
X158470800Y-65251371D01*
X158327942Y-65179942D01*
X158256514Y-65037085D01*
X158256514Y-64965657D01*
X158327942Y-64822800D01*
X158470800Y-64751371D01*
X158685085Y-64751371D01*
X158827942Y-64822800D01*
X161185085Y-64965657D02*
X160685085Y-64965657D01*
X160685085Y-65751371D02*
X160685085Y-64251371D01*
X161399371Y-64251371D01*
X162827942Y-65751371D02*
X162327942Y-65037085D01*
X161970800Y-65751371D02*
X161970800Y-64251371D01*
X162542228Y-64251371D01*
X162685085Y-64322800D01*
X162756514Y-64394228D01*
X162827942Y-64537085D01*
X162827942Y-64751371D01*
X162756514Y-64894228D01*
X162685085Y-64965657D01*
X162542228Y-65037085D01*
X161970800Y-65037085D01*
X163470800Y-65179942D02*
X164613657Y-65179942D01*
X165970800Y-64751371D02*
X165970800Y-65751371D01*
X165613657Y-64179942D02*
X165256514Y-65251371D01*
X166185085Y-65251371D01*
X150113657Y-66666371D02*
X150256514Y-66666371D01*
X150399371Y-66737800D01*
X150470800Y-66809228D01*
X150542228Y-66952085D01*
X150613657Y-67237800D01*
X150613657Y-67594942D01*
X150542228Y-67880657D01*
X150470800Y-68023514D01*
X150399371Y-68094942D01*
X150256514Y-68166371D01*
X150113657Y-68166371D01*
X149970800Y-68094942D01*
X149899371Y-68023514D01*
X149827942Y-67880657D01*
X149756514Y-67594942D01*
X149756514Y-67237800D01*
X149827942Y-66952085D01*
X149899371Y-66809228D01*
X149970800Y-66737800D01*
X150113657Y-66666371D01*
X151256514Y-68023514D02*
X151327942Y-68094942D01*
X151256514Y-68166371D01*
X151185085Y-68094942D01*
X151256514Y-68023514D01*
X151256514Y-68166371D01*
X152256514Y-66666371D02*
X152399371Y-66666371D01*
X152542228Y-66737800D01*
X152613657Y-66809228D01*
X152685085Y-66952085D01*
X152756514Y-67237800D01*
X152756514Y-67594942D01*
X152685085Y-67880657D01*
X152613657Y-68023514D01*
X152542228Y-68094942D01*
X152399371Y-68166371D01*
X152256514Y-68166371D01*
X152113657Y-68094942D01*
X152042228Y-68023514D01*
X151970800Y-67880657D01*
X151899371Y-67594942D01*
X151899371Y-67237800D01*
X151970800Y-66952085D01*
X152042228Y-66809228D01*
X152113657Y-66737800D01*
X152256514Y-66666371D01*
X154042228Y-66666371D02*
X153756514Y-66666371D01*
X153613657Y-66737800D01*
X153542228Y-66809228D01*
X153399371Y-67023514D01*
X153327942Y-67309228D01*
X153327942Y-67880657D01*
X153399371Y-68023514D01*
X153470800Y-68094942D01*
X153613657Y-68166371D01*
X153899371Y-68166371D01*
X154042228Y-68094942D01*
X154113657Y-68023514D01*
X154185085Y-67880657D01*
X154185085Y-67523514D01*
X154113657Y-67380657D01*
X154042228Y-67309228D01*
X153899371Y-67237800D01*
X153613657Y-67237800D01*
X153470800Y-67309228D01*
X153399371Y-67380657D01*
X153327942Y-67523514D01*
X154685085Y-66666371D02*
X155613657Y-66666371D01*
X155113657Y-67237800D01*
X155327942Y-67237800D01*
X155470800Y-67309228D01*
X155542228Y-67380657D01*
X155613657Y-67523514D01*
X155613657Y-67880657D01*
X155542228Y-68023514D01*
X155470800Y-68094942D01*
X155327942Y-68166371D01*
X154899371Y-68166371D01*
X154756514Y-68094942D01*
X154685085Y-68023514D01*
X157399371Y-68166371D02*
X157399371Y-67166371D01*
X157399371Y-66666371D02*
X157327942Y-66737800D01*
X157399371Y-66809228D01*
X157470800Y-66737800D01*
X157399371Y-66666371D01*
X157399371Y-66809228D01*
X158113657Y-67166371D02*
X158113657Y-68166371D01*
X158113657Y-67309228D02*
X158185085Y-67237800D01*
X158327942Y-67166371D01*
X158542228Y-67166371D01*
X158685085Y-67237800D01*
X158756514Y-67380657D01*
X158756514Y-68166371D01*
X160399371Y-67166371D02*
X160970800Y-67166371D01*
X160613657Y-68166371D02*
X160613657Y-66880657D01*
X160685085Y-66737800D01*
X160827942Y-66666371D01*
X160970800Y-66666371D01*
X161470800Y-68166371D02*
X161470800Y-67166371D01*
X161470800Y-66666371D02*
X161399371Y-66737800D01*
X161470800Y-66809228D01*
X161542228Y-66737800D01*
X161470800Y-66666371D01*
X161470800Y-66809228D01*
X162185085Y-67166371D02*
X162185085Y-68166371D01*
X162185085Y-67309228D02*
X162256514Y-67237800D01*
X162399371Y-67166371D01*
X162613657Y-67166371D01*
X162756514Y-67237800D01*
X162827942Y-67380657D01*
X162827942Y-68166371D01*
X163542228Y-68166371D02*
X163542228Y-67166371D01*
X163542228Y-66666371D02*
X163470800Y-66737800D01*
X163542228Y-66809228D01*
X163613657Y-66737800D01*
X163542228Y-66666371D01*
X163542228Y-66809228D01*
X164185085Y-68094942D02*
X164327942Y-68166371D01*
X164613657Y-68166371D01*
X164756514Y-68094942D01*
X164827942Y-67952085D01*
X164827942Y-67880657D01*
X164756514Y-67737800D01*
X164613657Y-67666371D01*
X164399371Y-67666371D01*
X164256514Y-67594942D01*
X164185085Y-67452085D01*
X164185085Y-67380657D01*
X164256514Y-67237800D01*
X164399371Y-67166371D01*
X164613657Y-67166371D01*
X164756514Y-67237800D01*
X165470800Y-68166371D02*
X165470800Y-66666371D01*
X166113657Y-68166371D02*
X166113657Y-67380657D01*
X166042228Y-67237800D01*
X165899371Y-67166371D01*
X165685085Y-67166371D01*
X165542228Y-67237800D01*
X165470800Y-67309228D01*
X167399371Y-68094942D02*
X167256514Y-68166371D01*
X166970800Y-68166371D01*
X166827942Y-68094942D01*
X166756514Y-67952085D01*
X166756514Y-67380657D01*
X166827942Y-67237800D01*
X166970800Y-67166371D01*
X167256514Y-67166371D01*
X167399371Y-67237800D01*
X167470800Y-67380657D01*
X167470800Y-67523514D01*
X166756514Y-67666371D01*
X168756514Y-68166371D02*
X168756514Y-66666371D01*
X168756514Y-68094942D02*
X168613657Y-68166371D01*
X168327942Y-68166371D01*
X168185085Y-68094942D01*
X168113657Y-68023514D01*
X168042228Y-67880657D01*
X168042228Y-67452085D01*
X168113657Y-67309228D01*
X168185085Y-67237800D01*
X168327942Y-67166371D01*
X168613657Y-67166371D01*
X168756514Y-67237800D01*
X170399371Y-67166371D02*
X170970800Y-67166371D01*
X170613657Y-66666371D02*
X170613657Y-67952085D01*
X170685085Y-68094942D01*
X170827942Y-68166371D01*
X170970800Y-68166371D01*
X171470800Y-68166371D02*
X171470800Y-66666371D01*
X172113657Y-68166371D02*
X172113657Y-67380657D01*
X172042228Y-67237800D01*
X171899371Y-67166371D01*
X171685085Y-67166371D01*
X171542228Y-67237800D01*
X171470800Y-67309228D01*
X172827942Y-68166371D02*
X172827942Y-67166371D01*
X172827942Y-66666371D02*
X172756514Y-66737800D01*
X172827942Y-66809228D01*
X172899371Y-66737800D01*
X172827942Y-66666371D01*
X172827942Y-66809228D01*
X174185085Y-68094942D02*
X174042228Y-68166371D01*
X173756514Y-68166371D01*
X173613657Y-68094942D01*
X173542228Y-68023514D01*
X173470800Y-67880657D01*
X173470800Y-67452085D01*
X173542228Y-67309228D01*
X173613657Y-67237800D01*
X173756514Y-67166371D01*
X174042228Y-67166371D01*
X174185085Y-67237800D01*
X174827942Y-68166371D02*
X174827942Y-66666371D01*
X174970800Y-67594942D02*
X175399371Y-68166371D01*
X175399371Y-67166371D02*
X174827942Y-67737800D01*
X176042228Y-67166371D02*
X176042228Y-68166371D01*
X176042228Y-67309228D02*
X176113657Y-67237800D01*
X176256514Y-67166371D01*
X176470800Y-67166371D01*
X176613657Y-67237800D01*
X176685085Y-67380657D01*
X176685085Y-68166371D01*
X177970800Y-68094942D02*
X177827942Y-68166371D01*
X177542228Y-68166371D01*
X177399371Y-68094942D01*
X177327942Y-67952085D01*
X177327942Y-67380657D01*
X177399371Y-67237800D01*
X177542228Y-67166371D01*
X177827942Y-67166371D01*
X177970800Y-67237800D01*
X178042228Y-67380657D01*
X178042228Y-67523514D01*
X177327942Y-67666371D01*
X178613657Y-68094942D02*
X178756514Y-68166371D01*
X179042228Y-68166371D01*
X179185085Y-68094942D01*
X179256514Y-67952085D01*
X179256514Y-67880657D01*
X179185085Y-67737800D01*
X179042228Y-67666371D01*
X178827942Y-67666371D01*
X178685085Y-67594942D01*
X178613657Y-67452085D01*
X178613657Y-67380657D01*
X178685085Y-67237800D01*
X178827942Y-67166371D01*
X179042228Y-67166371D01*
X179185085Y-67237800D01*
X179827942Y-68094942D02*
X179970800Y-68166371D01*
X180256514Y-68166371D01*
X180399371Y-68094942D01*
X180470800Y-67952085D01*
X180470800Y-67880657D01*
X180399371Y-67737800D01*
X180256514Y-67666371D01*
X180042228Y-67666371D01*
X179899371Y-67594942D01*
X179827942Y-67452085D01*
X179827942Y-67380657D01*
X179899371Y-67237800D01*
X180042228Y-67166371D01*
X180256514Y-67166371D01*
X180399371Y-67237800D01*
X150613657Y-70581371D02*
X149756514Y-70581371D01*
X150185085Y-70581371D02*
X150185085Y-69081371D01*
X150042228Y-69295657D01*
X149899371Y-69438514D01*
X149756514Y-69509942D01*
X152613657Y-70581371D02*
X152470800Y-70509942D01*
X152399371Y-70438514D01*
X152327942Y-70295657D01*
X152327942Y-69867085D01*
X152399371Y-69724228D01*
X152470800Y-69652800D01*
X152613657Y-69581371D01*
X152827942Y-69581371D01*
X152970800Y-69652800D01*
X153042228Y-69724228D01*
X153113657Y-69867085D01*
X153113657Y-70295657D01*
X153042228Y-70438514D01*
X152970800Y-70509942D01*
X152827942Y-70581371D01*
X152613657Y-70581371D01*
X153613657Y-69581371D02*
X154399371Y-69581371D01*
X153613657Y-70581371D01*
X154399371Y-70581371D01*
X156756514Y-70509942D02*
X156613657Y-70581371D01*
X156327942Y-70581371D01*
X156185085Y-70509942D01*
X156113657Y-70438514D01*
X156042228Y-70295657D01*
X156042228Y-69867085D01*
X156113657Y-69724228D01*
X156185085Y-69652800D01*
X156327942Y-69581371D01*
X156613657Y-69581371D01*
X156756514Y-69652800D01*
X157613657Y-70581371D02*
X157470800Y-70509942D01*
X157399371Y-70438514D01*
X157327942Y-70295657D01*
X157327942Y-69867085D01*
X157399371Y-69724228D01*
X157470800Y-69652800D01*
X157613657Y-69581371D01*
X157827942Y-69581371D01*
X157970800Y-69652800D01*
X158042228Y-69724228D01*
X158113657Y-69867085D01*
X158113657Y-70295657D01*
X158042228Y-70438514D01*
X157970800Y-70509942D01*
X157827942Y-70581371D01*
X157613657Y-70581371D01*
X158756514Y-69581371D02*
X158756514Y-71081371D01*
X158756514Y-69652800D02*
X158899371Y-69581371D01*
X159185085Y-69581371D01*
X159327942Y-69652800D01*
X159399371Y-69724228D01*
X159470800Y-69867085D01*
X159470800Y-70295657D01*
X159399371Y-70438514D01*
X159327942Y-70509942D01*
X159185085Y-70581371D01*
X158899371Y-70581371D01*
X158756514Y-70509942D01*
X160113657Y-69581371D02*
X160113657Y-71081371D01*
X160113657Y-69652800D02*
X160256514Y-69581371D01*
X160542228Y-69581371D01*
X160685085Y-69652800D01*
X160756514Y-69724228D01*
X160827942Y-69867085D01*
X160827942Y-70295657D01*
X160756514Y-70438514D01*
X160685085Y-70509942D01*
X160542228Y-70581371D01*
X160256514Y-70581371D01*
X160113657Y-70509942D01*
X162042228Y-70509942D02*
X161899371Y-70581371D01*
X161613657Y-70581371D01*
X161470800Y-70509942D01*
X161399371Y-70367085D01*
X161399371Y-69795657D01*
X161470800Y-69652800D01*
X161613657Y-69581371D01*
X161899371Y-69581371D01*
X162042228Y-69652800D01*
X162113657Y-69795657D01*
X162113657Y-69938514D01*
X161399371Y-70081371D01*
X162756514Y-70581371D02*
X162756514Y-69581371D01*
X162756514Y-69867085D02*
X162827942Y-69724228D01*
X162899371Y-69652800D01*
X163042228Y-69581371D01*
X163185085Y-69581371D01*
X149756514Y-72924942D02*
X149970800Y-72996371D01*
X150327942Y-72996371D01*
X150470800Y-72924942D01*
X150542228Y-72853514D01*
X150613657Y-72710657D01*
X150613657Y-72567800D01*
X150542228Y-72424942D01*
X150470800Y-72353514D01*
X150327942Y-72282085D01*
X150042228Y-72210657D01*
X149899371Y-72139228D01*
X149827942Y-72067800D01*
X149756514Y-71924942D01*
X149756514Y-71782085D01*
X149827942Y-71639228D01*
X149899371Y-71567800D01*
X150042228Y-71496371D01*
X150399371Y-71496371D01*
X150613657Y-71567800D01*
X151470800Y-72996371D02*
X151327942Y-72924942D01*
X151256514Y-72853514D01*
X151185085Y-72710657D01*
X151185085Y-72282085D01*
X151256514Y-72139228D01*
X151327942Y-72067800D01*
X151470800Y-71996371D01*
X151685085Y-71996371D01*
X151827942Y-72067800D01*
X151899371Y-72139228D01*
X151970800Y-72282085D01*
X151970800Y-72710657D01*
X151899371Y-72853514D01*
X151827942Y-72924942D01*
X151685085Y-72996371D01*
X151470800Y-72996371D01*
X152827942Y-72996371D02*
X152685085Y-72924942D01*
X152613657Y-72782085D01*
X152613657Y-71496371D01*
X154042228Y-72996371D02*
X154042228Y-71496371D01*
X154042228Y-72924942D02*
X153899371Y-72996371D01*
X153613657Y-72996371D01*
X153470800Y-72924942D01*
X153399371Y-72853514D01*
X153327942Y-72710657D01*
X153327942Y-72282085D01*
X153399371Y-72139228D01*
X153470800Y-72067800D01*
X153613657Y-71996371D01*
X153899371Y-71996371D01*
X154042228Y-72067800D01*
X155327942Y-72924942D02*
X155185085Y-72996371D01*
X154899371Y-72996371D01*
X154756514Y-72924942D01*
X154685085Y-72782085D01*
X154685085Y-72210657D01*
X154756514Y-72067800D01*
X154899371Y-71996371D01*
X155185085Y-71996371D01*
X155327942Y-72067800D01*
X155399371Y-72210657D01*
X155399371Y-72353514D01*
X154685085Y-72496371D01*
X156042228Y-72996371D02*
X156042228Y-71996371D01*
X156042228Y-72282085D02*
X156113657Y-72139228D01*
X156185085Y-72067800D01*
X156327942Y-71996371D01*
X156470800Y-71996371D01*
X156970800Y-72996371D02*
X156970800Y-71996371D01*
X156970800Y-72139228D02*
X157042228Y-72067800D01*
X157185085Y-71996371D01*
X157399371Y-71996371D01*
X157542228Y-72067800D01*
X157613657Y-72210657D01*
X157613657Y-72996371D01*
X157613657Y-72210657D02*
X157685085Y-72067800D01*
X157827942Y-71996371D01*
X158042228Y-71996371D01*
X158185085Y-72067800D01*
X158256514Y-72210657D01*
X158256514Y-72996371D01*
X159613657Y-72996371D02*
X159613657Y-72210657D01*
X159542228Y-72067800D01*
X159399371Y-71996371D01*
X159113657Y-71996371D01*
X158970800Y-72067800D01*
X159613657Y-72924942D02*
X159470800Y-72996371D01*
X159113657Y-72996371D01*
X158970800Y-72924942D01*
X158899371Y-72782085D01*
X158899371Y-72639228D01*
X158970800Y-72496371D01*
X159113657Y-72424942D01*
X159470800Y-72424942D01*
X159613657Y-72353514D01*
X160256514Y-72924942D02*
X160399371Y-72996371D01*
X160685085Y-72996371D01*
X160827942Y-72924942D01*
X160899371Y-72782085D01*
X160899371Y-72710657D01*
X160827942Y-72567800D01*
X160685085Y-72496371D01*
X160470800Y-72496371D01*
X160327942Y-72424942D01*
X160256514Y-72282085D01*
X160256514Y-72210657D01*
X160327942Y-72067800D01*
X160470800Y-71996371D01*
X160685085Y-71996371D01*
X160827942Y-72067800D01*
X161542228Y-72996371D02*
X161542228Y-71496371D01*
X161685085Y-72424942D02*
X162113657Y-72996371D01*
X162113657Y-71996371D02*
X161542228Y-72567800D01*
X163899371Y-72996371D02*
X163899371Y-71496371D01*
X163899371Y-72067800D02*
X164042228Y-71996371D01*
X164327942Y-71996371D01*
X164470800Y-72067800D01*
X164542228Y-72139228D01*
X164613657Y-72282085D01*
X164613657Y-72710657D01*
X164542228Y-72853514D01*
X164470800Y-72924942D01*
X164327942Y-72996371D01*
X164042228Y-72996371D01*
X163899371Y-72924942D01*
X165470800Y-72996371D02*
X165327942Y-72924942D01*
X165256514Y-72853514D01*
X165185085Y-72710657D01*
X165185085Y-72282085D01*
X165256514Y-72139228D01*
X165327942Y-72067800D01*
X165470800Y-71996371D01*
X165685085Y-71996371D01*
X165827942Y-72067800D01*
X165899371Y-72139228D01*
X165970800Y-72282085D01*
X165970800Y-72710657D01*
X165899371Y-72853514D01*
X165827942Y-72924942D01*
X165685085Y-72996371D01*
X165470800Y-72996371D01*
X166399371Y-71996371D02*
X166970800Y-71996371D01*
X166613657Y-71496371D02*
X166613657Y-72782085D01*
X166685085Y-72924942D01*
X166827942Y-72996371D01*
X166970800Y-72996371D01*
X167470800Y-72996371D02*
X167470800Y-71496371D01*
X168113657Y-72996371D02*
X168113657Y-72210657D01*
X168042228Y-72067800D01*
X167899371Y-71996371D01*
X167685085Y-71996371D01*
X167542228Y-72067800D01*
X167470800Y-72139228D01*
X169899371Y-72924942D02*
X170042228Y-72996371D01*
X170327942Y-72996371D01*
X170470800Y-72924942D01*
X170542228Y-72782085D01*
X170542228Y-72710657D01*
X170470800Y-72567800D01*
X170327942Y-72496371D01*
X170113657Y-72496371D01*
X169970800Y-72424942D01*
X169899371Y-72282085D01*
X169899371Y-72210657D01*
X169970800Y-72067800D01*
X170113657Y-71996371D01*
X170327942Y-71996371D01*
X170470800Y-72067800D01*
X171185085Y-72996371D02*
X171185085Y-71996371D01*
X171185085Y-71496371D02*
X171113657Y-71567800D01*
X171185085Y-71639228D01*
X171256514Y-71567800D01*
X171185085Y-71496371D01*
X171185085Y-71639228D01*
X172542228Y-72996371D02*
X172542228Y-71496371D01*
X172542228Y-72924942D02*
X172399371Y-72996371D01*
X172113657Y-72996371D01*
X171970800Y-72924942D01*
X171899371Y-72853514D01*
X171827942Y-72710657D01*
X171827942Y-72282085D01*
X171899371Y-72139228D01*
X171970800Y-72067800D01*
X172113657Y-71996371D01*
X172399371Y-71996371D01*
X172542228Y-72067800D01*
X173827942Y-72924942D02*
X173685085Y-72996371D01*
X173399371Y-72996371D01*
X173256514Y-72924942D01*
X173185085Y-72782085D01*
X173185085Y-72210657D01*
X173256514Y-72067800D01*
X173399371Y-71996371D01*
X173685085Y-71996371D01*
X173827942Y-72067800D01*
X173899371Y-72210657D01*
X173899371Y-72353514D01*
X173185085Y-72496371D01*
X174470800Y-72924942D02*
X174613657Y-72996371D01*
X174899371Y-72996371D01*
X175042228Y-72924942D01*
X175113657Y-72782085D01*
X175113657Y-72710657D01*
X175042228Y-72567800D01*
X174899371Y-72496371D01*
X174685085Y-72496371D01*
X174542228Y-72424942D01*
X174470800Y-72282085D01*
X174470800Y-72210657D01*
X174542228Y-72067800D01*
X174685085Y-71996371D01*
X174899371Y-71996371D01*
X175042228Y-72067800D01*
X177327942Y-73567800D02*
X177256514Y-73496371D01*
X177113657Y-73282085D01*
X177042228Y-73139228D01*
X176970800Y-72924942D01*
X176899371Y-72567800D01*
X176899371Y-72282085D01*
X176970800Y-71924942D01*
X177042228Y-71710657D01*
X177113657Y-71567800D01*
X177256514Y-71353514D01*
X177327942Y-71282085D01*
X178542228Y-71996371D02*
X178542228Y-73210657D01*
X178470800Y-73353514D01*
X178399371Y-73424942D01*
X178256514Y-73496371D01*
X178042228Y-73496371D01*
X177899371Y-73424942D01*
X178542228Y-72924942D02*
X178399371Y-72996371D01*
X178113657Y-72996371D01*
X177970800Y-72924942D01*
X177899371Y-72853514D01*
X177827942Y-72710657D01*
X177827942Y-72282085D01*
X177899371Y-72139228D01*
X177970800Y-72067800D01*
X178113657Y-71996371D01*
X178399371Y-71996371D01*
X178542228Y-72067800D01*
X179256514Y-72996371D02*
X179256514Y-71996371D01*
X179256514Y-72282085D02*
X179327942Y-72139228D01*
X179399371Y-72067800D01*
X179542228Y-71996371D01*
X179685085Y-71996371D01*
X180756514Y-72924942D02*
X180613657Y-72996371D01*
X180327942Y-72996371D01*
X180185085Y-72924942D01*
X180113657Y-72782085D01*
X180113657Y-72210657D01*
X180185085Y-72067800D01*
X180327942Y-71996371D01*
X180613657Y-71996371D01*
X180756514Y-72067800D01*
X180827942Y-72210657D01*
X180827942Y-72353514D01*
X180113657Y-72496371D01*
X182042228Y-72924942D02*
X181899371Y-72996371D01*
X181613657Y-72996371D01*
X181470800Y-72924942D01*
X181399371Y-72782085D01*
X181399371Y-72210657D01*
X181470800Y-72067800D01*
X181613657Y-71996371D01*
X181899371Y-71996371D01*
X182042228Y-72067800D01*
X182113657Y-72210657D01*
X182113657Y-72353514D01*
X181399371Y-72496371D01*
X182756514Y-71996371D02*
X182756514Y-72996371D01*
X182756514Y-72139228D02*
X182827942Y-72067800D01*
X182970800Y-71996371D01*
X183185085Y-71996371D01*
X183327942Y-72067800D01*
X183399371Y-72210657D01*
X183399371Y-72996371D01*
X183970800Y-73567800D02*
X184042228Y-73496371D01*
X184185085Y-73282085D01*
X184256514Y-73139228D01*
X184327942Y-72924942D01*
X184399371Y-72567800D01*
X184399371Y-72282085D01*
X184327942Y-71924942D01*
X184256514Y-71710657D01*
X184185085Y-71567800D01*
X184042228Y-71353514D01*
X183970800Y-71282085D01*
X149756514Y-75339942D02*
X149970800Y-75411371D01*
X150327942Y-75411371D01*
X150470800Y-75339942D01*
X150542228Y-75268514D01*
X150613657Y-75125657D01*
X150613657Y-74982800D01*
X150542228Y-74839942D01*
X150470800Y-74768514D01*
X150327942Y-74697085D01*
X150042228Y-74625657D01*
X149899371Y-74554228D01*
X149827942Y-74482800D01*
X149756514Y-74339942D01*
X149756514Y-74197085D01*
X149827942Y-74054228D01*
X149899371Y-73982800D01*
X150042228Y-73911371D01*
X150399371Y-73911371D01*
X150613657Y-73982800D01*
X151256514Y-75411371D02*
X151256514Y-74411371D01*
X151256514Y-73911371D02*
X151185085Y-73982800D01*
X151256514Y-74054228D01*
X151327942Y-73982800D01*
X151256514Y-73911371D01*
X151256514Y-74054228D01*
X152185085Y-75411371D02*
X152042228Y-75339942D01*
X151970800Y-75197085D01*
X151970800Y-73911371D01*
X152756514Y-75411371D02*
X152756514Y-73911371D01*
X152899371Y-74839942D02*
X153327942Y-75411371D01*
X153327942Y-74411371D02*
X152756514Y-74982800D01*
X153899371Y-75339942D02*
X154042228Y-75411371D01*
X154327942Y-75411371D01*
X154470800Y-75339942D01*
X154542228Y-75197085D01*
X154542228Y-75125657D01*
X154470800Y-74982800D01*
X154327942Y-74911371D01*
X154113657Y-74911371D01*
X153970800Y-74839942D01*
X153899371Y-74697085D01*
X153899371Y-74625657D01*
X153970800Y-74482800D01*
X154113657Y-74411371D01*
X154327942Y-74411371D01*
X154470800Y-74482800D01*
X155827942Y-75339942D02*
X155685085Y-75411371D01*
X155399371Y-75411371D01*
X155256514Y-75339942D01*
X155185085Y-75268514D01*
X155113657Y-75125657D01*
X155113657Y-74697085D01*
X155185085Y-74554228D01*
X155256514Y-74482800D01*
X155399371Y-74411371D01*
X155685085Y-74411371D01*
X155827942Y-74482800D01*
X156470800Y-75411371D02*
X156470800Y-74411371D01*
X156470800Y-74697085D02*
X156542228Y-74554228D01*
X156613657Y-74482800D01*
X156756514Y-74411371D01*
X156899371Y-74411371D01*
X157970800Y-75339942D02*
X157827942Y-75411371D01*
X157542228Y-75411371D01*
X157399371Y-75339942D01*
X157327942Y-75197085D01*
X157327942Y-74625657D01*
X157399371Y-74482800D01*
X157542228Y-74411371D01*
X157827942Y-74411371D01*
X157970800Y-74482800D01*
X158042228Y-74625657D01*
X158042228Y-74768514D01*
X157327942Y-74911371D01*
X159256514Y-75339942D02*
X159113657Y-75411371D01*
X158827942Y-75411371D01*
X158685085Y-75339942D01*
X158613657Y-75197085D01*
X158613657Y-74625657D01*
X158685085Y-74482800D01*
X158827942Y-74411371D01*
X159113657Y-74411371D01*
X159256514Y-74482800D01*
X159327942Y-74625657D01*
X159327942Y-74768514D01*
X158613657Y-74911371D01*
X159970800Y-74411371D02*
X159970800Y-75411371D01*
X159970800Y-74554228D02*
X160042228Y-74482800D01*
X160185085Y-74411371D01*
X160399371Y-74411371D01*
X160542228Y-74482800D01*
X160613657Y-74625657D01*
X160613657Y-75411371D01*
X162256514Y-74411371D02*
X162827942Y-74411371D01*
X162470800Y-75411371D02*
X162470800Y-74125657D01*
X162542228Y-73982800D01*
X162685085Y-73911371D01*
X162827942Y-73911371D01*
X163327942Y-75411371D02*
X163327942Y-74411371D01*
X163327942Y-74697085D02*
X163399371Y-74554228D01*
X163470800Y-74482800D01*
X163613657Y-74411371D01*
X163756514Y-74411371D01*
X164470800Y-75411371D02*
X164327942Y-75339942D01*
X164256514Y-75268514D01*
X164185085Y-75125657D01*
X164185085Y-74697085D01*
X164256514Y-74554228D01*
X164327942Y-74482800D01*
X164470800Y-74411371D01*
X164685085Y-74411371D01*
X164827942Y-74482800D01*
X164899371Y-74554228D01*
X164970800Y-74697085D01*
X164970800Y-75125657D01*
X164899371Y-75268514D01*
X164827942Y-75339942D01*
X164685085Y-75411371D01*
X164470800Y-75411371D01*
X165613657Y-74411371D02*
X165613657Y-75411371D01*
X165613657Y-74554228D02*
X165685085Y-74482800D01*
X165827942Y-74411371D01*
X166042228Y-74411371D01*
X166185085Y-74482800D01*
X166256514Y-74625657D01*
X166256514Y-75411371D01*
X166756514Y-74411371D02*
X167327942Y-74411371D01*
X166970800Y-73911371D02*
X166970800Y-75197085D01*
X167042228Y-75339942D01*
X167185085Y-75411371D01*
X167327942Y-75411371D01*
X168899371Y-75339942D02*
X169042228Y-75411371D01*
X169327942Y-75411371D01*
X169470800Y-75339942D01*
X169542228Y-75197085D01*
X169542228Y-75125657D01*
X169470800Y-74982800D01*
X169327942Y-74911371D01*
X169113657Y-74911371D01*
X168970800Y-74839942D01*
X168899371Y-74697085D01*
X168899371Y-74625657D01*
X168970800Y-74482800D01*
X169113657Y-74411371D01*
X169327942Y-74411371D01*
X169470800Y-74482800D01*
X170185085Y-75411371D02*
X170185085Y-74411371D01*
X170185085Y-73911371D02*
X170113657Y-73982800D01*
X170185085Y-74054228D01*
X170256514Y-73982800D01*
X170185085Y-73911371D01*
X170185085Y-74054228D01*
X171542228Y-75411371D02*
X171542228Y-73911371D01*
X171542228Y-75339942D02*
X171399371Y-75411371D01*
X171113657Y-75411371D01*
X170970800Y-75339942D01*
X170899371Y-75268514D01*
X170827942Y-75125657D01*
X170827942Y-74697085D01*
X170899371Y-74554228D01*
X170970800Y-74482800D01*
X171113657Y-74411371D01*
X171399371Y-74411371D01*
X171542228Y-74482800D01*
X172827942Y-75339942D02*
X172685085Y-75411371D01*
X172399371Y-75411371D01*
X172256514Y-75339942D01*
X172185085Y-75197085D01*
X172185085Y-74625657D01*
X172256514Y-74482800D01*
X172399371Y-74411371D01*
X172685085Y-74411371D01*
X172827942Y-74482800D01*
X172899371Y-74625657D01*
X172899371Y-74768514D01*
X172185085Y-74911371D01*
X175113657Y-75982800D02*
X175042228Y-75911371D01*
X174899371Y-75697085D01*
X174827942Y-75554228D01*
X174756514Y-75339942D01*
X174685085Y-74982800D01*
X174685085Y-74697085D01*
X174756514Y-74339942D01*
X174827942Y-74125657D01*
X174899371Y-73982800D01*
X175042228Y-73768514D01*
X175113657Y-73697085D01*
X175542228Y-74411371D02*
X175827942Y-75411371D01*
X176113657Y-74697085D01*
X176399371Y-75411371D01*
X176685085Y-74411371D01*
X177256514Y-75411371D02*
X177256514Y-73911371D01*
X177899371Y-75411371D02*
X177899371Y-74625657D01*
X177827942Y-74482800D01*
X177685085Y-74411371D01*
X177470800Y-74411371D01*
X177327942Y-74482800D01*
X177256514Y-74554228D01*
X178613657Y-75411371D02*
X178613657Y-74411371D01*
X178613657Y-73911371D02*
X178542228Y-73982800D01*
X178613657Y-74054228D01*
X178685085Y-73982800D01*
X178613657Y-73911371D01*
X178613657Y-74054228D01*
X179113657Y-74411371D02*
X179685085Y-74411371D01*
X179327942Y-73911371D02*
X179327942Y-75197085D01*
X179399371Y-75339942D01*
X179542228Y-75411371D01*
X179685085Y-75411371D01*
X180756514Y-75339942D02*
X180613657Y-75411371D01*
X180327942Y-75411371D01*
X180185085Y-75339942D01*
X180113657Y-75197085D01*
X180113657Y-74625657D01*
X180185085Y-74482800D01*
X180327942Y-74411371D01*
X180613657Y-74411371D01*
X180756514Y-74482800D01*
X180827942Y-74625657D01*
X180827942Y-74768514D01*
X180113657Y-74911371D01*
X181327942Y-75982800D02*
X181399371Y-75911371D01*
X181542228Y-75697085D01*
X181613657Y-75554228D01*
X181685085Y-75339942D01*
X181756514Y-74982800D01*
X181756514Y-74697085D01*
X181685085Y-74339942D01*
X181613657Y-74125657D01*
X181542228Y-73982800D01*
X181399371Y-73768514D01*
X181327942Y-73697085D01*
D11*
X78546356Y-63817611D02*
X78546356Y-113817611D01*
X81546356Y-60817611D02*
G75*
G03*
X78546356Y-63817611I0J-3000000D01*
G01*
X140546356Y-60817611D02*
X81546356Y-60817611D01*
X143546356Y-63817611D02*
G75*
G03*
X140546356Y-60817611I-3000000J0D01*
G01*
X143546356Y-113817611D02*
X143546356Y-63817611D01*
X78546356Y-113817611D02*
G75*
G03*
X81546356Y-116817611I3000000J0D01*
G01*
X81546356Y-116817611D02*
X140546356Y-116817611D01*
X140546356Y-116817611D02*
G75*
G03*
X143546351Y-113822847I0J3000000D01*
G01*
M02*
