M48
; DRILL file {KiCad (6.0.1)} date Wed Jun 15 10:23:12 2022
; FORMAT={-:-/ absolute / inch / decimal}
; #@! TF.CreationDate,2022-06-15T10:23:12-03:00
; #@! TF.GenerationSoftware,Kicad,Pcbnew,(6.0.1)
; #@! TF.FileFunction,Plated,1,2,PTH
FMAT,2
INCH
; #@! TA.AperFunction,Plated,PTH,ViaDrill
T1C0.0120
; #@! TA.AperFunction,Plated,PTH,ComponentDrill
T2C0.0307
; #@! TA.AperFunction,Plated,PTH,ComponentDrill
T3C0.0394
; #@! TA.AperFunction,Plated,PTH,ComponentDrill
T4C0.0591
; #@! TA.AperFunction,Plated,PTH,ComponentDrill
T5C0.1181
; #@! TA.AperFunction,Plated,PTH,ComponentDrill
T6C0.1319
%
G90
G05
T1
X3.285Y-2.805
X3.285Y-2.91
X3.525Y-2.8
X3.525Y-2.95
X3.55Y-4.24
X3.64Y-4.033
X3.6676Y-2.7874
X3.7Y-3.9665
X3.735Y-4.225
X3.74Y-2.845
X3.7711Y-2.8011
X3.775Y-2.74
X3.8Y-3.875
X4.243Y-3.888
X4.625Y-3.125
X4.625Y-3.175
X4.625Y-3.225
X4.625Y-3.275
X4.625Y-3.325
X4.625Y-3.375
X4.625Y-3.425
X4.655Y-3.085
X4.655Y-3.75
X5.6Y-3.075
X5.6Y-3.4445
T2
X3.65Y-3.3248
X3.65Y-3.4248
X3.65Y-3.5248
X3.75Y-3.2748
X3.75Y-3.3748
X3.75Y-3.4748
T3
X3.42Y-2.485
X3.42Y-2.585
X3.52Y-2.485
X3.52Y-2.585
X3.62Y-2.485
X3.62Y-2.585
X3.72Y-2.485
X3.72Y-2.585
X3.82Y-2.485
X3.82Y-2.585
X3.92Y-2.485
X3.92Y-2.585
X4.02Y-2.485
X4.02Y-2.585
X4.1Y-2.8
X4.12Y-2.485
X4.12Y-2.585
X4.2Y-2.8
X4.22Y-2.485
X4.22Y-2.585
X4.3Y-2.8
X4.32Y-2.485
X4.32Y-2.585
X4.4Y-2.8
X4.42Y-2.485
X4.42Y-2.585
X4.5Y-2.8
X4.52Y-2.485
X4.52Y-2.585
X4.6Y-2.8
X4.62Y-2.485
X4.62Y-2.585
X4.7Y-2.8
X4.72Y-2.485
X4.72Y-2.585
X4.8Y-2.8
X4.82Y-2.485
X4.82Y-2.585
X4.9Y-2.8
X4.92Y-2.485
X4.92Y-2.585
X5.0Y-2.8
X5.02Y-2.485
X5.02Y-2.585
X5.12Y-2.485
X5.12Y-2.585
X5.22Y-2.485
X5.22Y-2.585
X5.2504Y-2.9
X5.2504Y-3.0
X5.2504Y-3.1
X5.2504Y-3.2
X5.2504Y-3.3
X5.2504Y-3.4
X5.2504Y-3.5
X5.2504Y-3.6
X5.32Y-2.485
X5.32Y-2.585
X5.35Y-2.9
X5.35Y-3.0
X5.35Y-3.1
X5.35Y-3.2
X5.35Y-3.3
X5.35Y-3.4
X5.35Y-3.5
X5.35Y-3.6
X5.45Y-2.9
X5.45Y-3.0
X5.45Y-3.1
X5.45Y-3.2
X5.45Y-3.3
X5.45Y-3.4
X5.45Y-3.5
X5.45Y-3.6
T4
X3.25Y-3.9
X3.25Y-4.0969
T5
X3.2299Y-4.4614
X3.2302Y-2.5322
X5.513Y-4.461
X5.5134Y-2.5327
T6
X3.4Y-3.2
X3.4Y-3.6
T0
M30
