G04 #@! TF.FileFunction,Drawing*
%FSLAX46Y46*%
G04 Gerber Fmt 4.6, Leading zero omitted, Abs format (unit mm)*
G04 Created by KiCad (PCBNEW 4.0.7+dfsg1-1) date Mon Jul 30 16:18:00 2018*
%MOMM*%
%LPD*%
G01*
G04 APERTURE LIST*
%ADD10C,0.100000*%
%ADD11C,0.300000*%
%ADD12C,0.200000*%
%ADD13C,0.254000*%
%ADD14C,0.150000*%
G04 APERTURE END LIST*
D10*
D11*
X229295144Y-30594571D02*
X229438001Y-30594571D01*
X229580858Y-30666000D01*
X229652287Y-30737429D01*
X229723716Y-30880286D01*
X229795144Y-31166000D01*
X229795144Y-31523143D01*
X229723716Y-31808857D01*
X229652287Y-31951714D01*
X229580858Y-32023143D01*
X229438001Y-32094571D01*
X229295144Y-32094571D01*
X229152287Y-32023143D01*
X229080858Y-31951714D01*
X229009430Y-31808857D01*
X228938001Y-31523143D01*
X228938001Y-31166000D01*
X229009430Y-30880286D01*
X229080858Y-30737429D01*
X229152287Y-30666000D01*
X229295144Y-30594571D01*
X230438001Y-31951714D02*
X230509429Y-32023143D01*
X230438001Y-32094571D01*
X230366572Y-32023143D01*
X230438001Y-31951714D01*
X230438001Y-32094571D01*
X231009430Y-30594571D02*
X231938001Y-30594571D01*
X231438001Y-31166000D01*
X231652287Y-31166000D01*
X231795144Y-31237429D01*
X231866573Y-31308857D01*
X231938001Y-31451714D01*
X231938001Y-31808857D01*
X231866573Y-31951714D01*
X231795144Y-32023143D01*
X231652287Y-32094571D01*
X231223715Y-32094571D01*
X231080858Y-32023143D01*
X231009430Y-31951714D01*
X232866572Y-30594571D02*
X233009429Y-30594571D01*
X233152286Y-30666000D01*
X233223715Y-30737429D01*
X233295144Y-30880286D01*
X233366572Y-31166000D01*
X233366572Y-31523143D01*
X233295144Y-31808857D01*
X233223715Y-31951714D01*
X233152286Y-32023143D01*
X233009429Y-32094571D01*
X232866572Y-32094571D01*
X232723715Y-32023143D01*
X232652286Y-31951714D01*
X232580858Y-31808857D01*
X232509429Y-31523143D01*
X232509429Y-31166000D01*
X232580858Y-30880286D01*
X232652286Y-30737429D01*
X232723715Y-30666000D01*
X232866572Y-30594571D01*
X234295143Y-30594571D02*
X234438000Y-30594571D01*
X234580857Y-30666000D01*
X234652286Y-30737429D01*
X234723715Y-30880286D01*
X234795143Y-31166000D01*
X234795143Y-31523143D01*
X234723715Y-31808857D01*
X234652286Y-31951714D01*
X234580857Y-32023143D01*
X234438000Y-32094571D01*
X234295143Y-32094571D01*
X234152286Y-32023143D01*
X234080857Y-31951714D01*
X234009429Y-31808857D01*
X233938000Y-31523143D01*
X233938000Y-31166000D01*
X234009429Y-30880286D01*
X234080857Y-30737429D01*
X234152286Y-30666000D01*
X234295143Y-30594571D01*
X235723714Y-30594571D02*
X235866571Y-30594571D01*
X236009428Y-30666000D01*
X236080857Y-30737429D01*
X236152286Y-30880286D01*
X236223714Y-31166000D01*
X236223714Y-31523143D01*
X236152286Y-31808857D01*
X236080857Y-31951714D01*
X236009428Y-32023143D01*
X235866571Y-32094571D01*
X235723714Y-32094571D01*
X235580857Y-32023143D01*
X235509428Y-31951714D01*
X235438000Y-31808857D01*
X235366571Y-31523143D01*
X235366571Y-31166000D01*
X235438000Y-30880286D01*
X235509428Y-30737429D01*
X235580857Y-30666000D01*
X235723714Y-30594571D01*
X238009428Y-32094571D02*
X238009428Y-31094571D01*
X238009428Y-30594571D02*
X237937999Y-30666000D01*
X238009428Y-30737429D01*
X238080856Y-30666000D01*
X238009428Y-30594571D01*
X238009428Y-30737429D01*
X238723714Y-31094571D02*
X238723714Y-32094571D01*
X238723714Y-31237429D02*
X238795142Y-31166000D01*
X238938000Y-31094571D01*
X239152285Y-31094571D01*
X239295142Y-31166000D01*
X239366571Y-31308857D01*
X239366571Y-32094571D01*
X230378000Y-32766000D02*
X237998000Y-32766000D01*
X230378000Y-36830000D02*
X230378000Y-30066000D01*
X237998000Y-36830000D02*
X237998000Y-30066000D01*
X237998000Y-32766000D02*
X236871496Y-33352421D01*
X237998000Y-32766000D02*
X236871496Y-32179579D01*
X230378000Y-32766000D02*
X231504504Y-33352421D01*
X230378000Y-32766000D02*
X231504504Y-32179579D01*
X195005144Y-28054571D02*
X195148001Y-28054571D01*
X195290858Y-28126000D01*
X195362287Y-28197429D01*
X195433716Y-28340286D01*
X195505144Y-28626000D01*
X195505144Y-28983143D01*
X195433716Y-29268857D01*
X195362287Y-29411714D01*
X195290858Y-29483143D01*
X195148001Y-29554571D01*
X195005144Y-29554571D01*
X194862287Y-29483143D01*
X194790858Y-29411714D01*
X194719430Y-29268857D01*
X194648001Y-28983143D01*
X194648001Y-28626000D01*
X194719430Y-28340286D01*
X194790858Y-28197429D01*
X194862287Y-28126000D01*
X195005144Y-28054571D01*
X196148001Y-29411714D02*
X196219429Y-29483143D01*
X196148001Y-29554571D01*
X196076572Y-29483143D01*
X196148001Y-29411714D01*
X196148001Y-29554571D01*
X196790858Y-28197429D02*
X196862287Y-28126000D01*
X197005144Y-28054571D01*
X197362287Y-28054571D01*
X197505144Y-28126000D01*
X197576573Y-28197429D01*
X197648001Y-28340286D01*
X197648001Y-28483143D01*
X197576573Y-28697429D01*
X196719430Y-29554571D01*
X197648001Y-29554571D01*
X198576572Y-28054571D02*
X198719429Y-28054571D01*
X198862286Y-28126000D01*
X198933715Y-28197429D01*
X199005144Y-28340286D01*
X199076572Y-28626000D01*
X199076572Y-28983143D01*
X199005144Y-29268857D01*
X198933715Y-29411714D01*
X198862286Y-29483143D01*
X198719429Y-29554571D01*
X198576572Y-29554571D01*
X198433715Y-29483143D01*
X198362286Y-29411714D01*
X198290858Y-29268857D01*
X198219429Y-28983143D01*
X198219429Y-28626000D01*
X198290858Y-28340286D01*
X198362286Y-28197429D01*
X198433715Y-28126000D01*
X198576572Y-28054571D01*
X200005143Y-28054571D02*
X200148000Y-28054571D01*
X200290857Y-28126000D01*
X200362286Y-28197429D01*
X200433715Y-28340286D01*
X200505143Y-28626000D01*
X200505143Y-28983143D01*
X200433715Y-29268857D01*
X200362286Y-29411714D01*
X200290857Y-29483143D01*
X200148000Y-29554571D01*
X200005143Y-29554571D01*
X199862286Y-29483143D01*
X199790857Y-29411714D01*
X199719429Y-29268857D01*
X199648000Y-28983143D01*
X199648000Y-28626000D01*
X199719429Y-28340286D01*
X199790857Y-28197429D01*
X199862286Y-28126000D01*
X200005143Y-28054571D01*
X201433714Y-28054571D02*
X201576571Y-28054571D01*
X201719428Y-28126000D01*
X201790857Y-28197429D01*
X201862286Y-28340286D01*
X201933714Y-28626000D01*
X201933714Y-28983143D01*
X201862286Y-29268857D01*
X201790857Y-29411714D01*
X201719428Y-29483143D01*
X201576571Y-29554571D01*
X201433714Y-29554571D01*
X201290857Y-29483143D01*
X201219428Y-29411714D01*
X201148000Y-29268857D01*
X201076571Y-28983143D01*
X201076571Y-28626000D01*
X201148000Y-28340286D01*
X201219428Y-28197429D01*
X201290857Y-28126000D01*
X201433714Y-28054571D01*
X203719428Y-29554571D02*
X203719428Y-28554571D01*
X203719428Y-28054571D02*
X203647999Y-28126000D01*
X203719428Y-28197429D01*
X203790856Y-28126000D01*
X203719428Y-28054571D01*
X203719428Y-28197429D01*
X204433714Y-28554571D02*
X204433714Y-29554571D01*
X204433714Y-28697429D02*
X204505142Y-28626000D01*
X204648000Y-28554571D01*
X204862285Y-28554571D01*
X205005142Y-28626000D01*
X205076571Y-28768857D01*
X205076571Y-29554571D01*
X197358000Y-30226000D02*
X202438000Y-30226000D01*
X197358000Y-34290000D02*
X197358000Y-27526000D01*
X202438000Y-34290000D02*
X202438000Y-27526000D01*
X202438000Y-30226000D02*
X201311496Y-30812421D01*
X202438000Y-30226000D02*
X201311496Y-29639579D01*
X197358000Y-30226000D02*
X198484504Y-30812421D01*
X197358000Y-30226000D02*
X198484504Y-29639579D01*
X161350144Y-29324571D02*
X161493001Y-29324571D01*
X161635858Y-29396000D01*
X161707287Y-29467429D01*
X161778716Y-29610286D01*
X161850144Y-29896000D01*
X161850144Y-30253143D01*
X161778716Y-30538857D01*
X161707287Y-30681714D01*
X161635858Y-30753143D01*
X161493001Y-30824571D01*
X161350144Y-30824571D01*
X161207287Y-30753143D01*
X161135858Y-30681714D01*
X161064430Y-30538857D01*
X160993001Y-30253143D01*
X160993001Y-29896000D01*
X161064430Y-29610286D01*
X161135858Y-29467429D01*
X161207287Y-29396000D01*
X161350144Y-29324571D01*
X162493001Y-30681714D02*
X162564429Y-30753143D01*
X162493001Y-30824571D01*
X162421572Y-30753143D01*
X162493001Y-30681714D01*
X162493001Y-30824571D01*
X163135858Y-29467429D02*
X163207287Y-29396000D01*
X163350144Y-29324571D01*
X163707287Y-29324571D01*
X163850144Y-29396000D01*
X163921573Y-29467429D01*
X163993001Y-29610286D01*
X163993001Y-29753143D01*
X163921573Y-29967429D01*
X163064430Y-30824571D01*
X163993001Y-30824571D01*
X165350144Y-29324571D02*
X164635858Y-29324571D01*
X164564429Y-30038857D01*
X164635858Y-29967429D01*
X164778715Y-29896000D01*
X165135858Y-29896000D01*
X165278715Y-29967429D01*
X165350144Y-30038857D01*
X165421572Y-30181714D01*
X165421572Y-30538857D01*
X165350144Y-30681714D01*
X165278715Y-30753143D01*
X165135858Y-30824571D01*
X164778715Y-30824571D01*
X164635858Y-30753143D01*
X164564429Y-30681714D01*
X166350143Y-29324571D02*
X166493000Y-29324571D01*
X166635857Y-29396000D01*
X166707286Y-29467429D01*
X166778715Y-29610286D01*
X166850143Y-29896000D01*
X166850143Y-30253143D01*
X166778715Y-30538857D01*
X166707286Y-30681714D01*
X166635857Y-30753143D01*
X166493000Y-30824571D01*
X166350143Y-30824571D01*
X166207286Y-30753143D01*
X166135857Y-30681714D01*
X166064429Y-30538857D01*
X165993000Y-30253143D01*
X165993000Y-29896000D01*
X166064429Y-29610286D01*
X166135857Y-29467429D01*
X166207286Y-29396000D01*
X166350143Y-29324571D01*
X167778714Y-29324571D02*
X167921571Y-29324571D01*
X168064428Y-29396000D01*
X168135857Y-29467429D01*
X168207286Y-29610286D01*
X168278714Y-29896000D01*
X168278714Y-30253143D01*
X168207286Y-30538857D01*
X168135857Y-30681714D01*
X168064428Y-30753143D01*
X167921571Y-30824571D01*
X167778714Y-30824571D01*
X167635857Y-30753143D01*
X167564428Y-30681714D01*
X167493000Y-30538857D01*
X167421571Y-30253143D01*
X167421571Y-29896000D01*
X167493000Y-29610286D01*
X167564428Y-29467429D01*
X167635857Y-29396000D01*
X167778714Y-29324571D01*
X170064428Y-30824571D02*
X170064428Y-29824571D01*
X170064428Y-29324571D02*
X169992999Y-29396000D01*
X170064428Y-29467429D01*
X170135856Y-29396000D01*
X170064428Y-29324571D01*
X170064428Y-29467429D01*
X170778714Y-29824571D02*
X170778714Y-30824571D01*
X170778714Y-29967429D02*
X170850142Y-29896000D01*
X170993000Y-29824571D01*
X171207285Y-29824571D01*
X171350142Y-29896000D01*
X171421571Y-30038857D01*
X171421571Y-30824571D01*
X163068000Y-31496000D02*
X169418000Y-31496000D01*
X163068000Y-35560000D02*
X163068000Y-28796000D01*
X169418000Y-35560000D02*
X169418000Y-28796000D01*
X169418000Y-31496000D02*
X168291496Y-32082421D01*
X169418000Y-31496000D02*
X168291496Y-30909579D01*
X163068000Y-31496000D02*
X164194504Y-32082421D01*
X163068000Y-31496000D02*
X164194504Y-30909579D01*
X127695144Y-29324571D02*
X127838001Y-29324571D01*
X127980858Y-29396000D01*
X128052287Y-29467429D01*
X128123716Y-29610286D01*
X128195144Y-29896000D01*
X128195144Y-30253143D01*
X128123716Y-30538857D01*
X128052287Y-30681714D01*
X127980858Y-30753143D01*
X127838001Y-30824571D01*
X127695144Y-30824571D01*
X127552287Y-30753143D01*
X127480858Y-30681714D01*
X127409430Y-30538857D01*
X127338001Y-30253143D01*
X127338001Y-29896000D01*
X127409430Y-29610286D01*
X127480858Y-29467429D01*
X127552287Y-29396000D01*
X127695144Y-29324571D01*
X128838001Y-30681714D02*
X128909429Y-30753143D01*
X128838001Y-30824571D01*
X128766572Y-30753143D01*
X128838001Y-30681714D01*
X128838001Y-30824571D01*
X129480858Y-29467429D02*
X129552287Y-29396000D01*
X129695144Y-29324571D01*
X130052287Y-29324571D01*
X130195144Y-29396000D01*
X130266573Y-29467429D01*
X130338001Y-29610286D01*
X130338001Y-29753143D01*
X130266573Y-29967429D01*
X129409430Y-30824571D01*
X130338001Y-30824571D01*
X131266572Y-29324571D02*
X131409429Y-29324571D01*
X131552286Y-29396000D01*
X131623715Y-29467429D01*
X131695144Y-29610286D01*
X131766572Y-29896000D01*
X131766572Y-30253143D01*
X131695144Y-30538857D01*
X131623715Y-30681714D01*
X131552286Y-30753143D01*
X131409429Y-30824571D01*
X131266572Y-30824571D01*
X131123715Y-30753143D01*
X131052286Y-30681714D01*
X130980858Y-30538857D01*
X130909429Y-30253143D01*
X130909429Y-29896000D01*
X130980858Y-29610286D01*
X131052286Y-29467429D01*
X131123715Y-29396000D01*
X131266572Y-29324571D01*
X132695143Y-29324571D02*
X132838000Y-29324571D01*
X132980857Y-29396000D01*
X133052286Y-29467429D01*
X133123715Y-29610286D01*
X133195143Y-29896000D01*
X133195143Y-30253143D01*
X133123715Y-30538857D01*
X133052286Y-30681714D01*
X132980857Y-30753143D01*
X132838000Y-30824571D01*
X132695143Y-30824571D01*
X132552286Y-30753143D01*
X132480857Y-30681714D01*
X132409429Y-30538857D01*
X132338000Y-30253143D01*
X132338000Y-29896000D01*
X132409429Y-29610286D01*
X132480857Y-29467429D01*
X132552286Y-29396000D01*
X132695143Y-29324571D01*
X134123714Y-29324571D02*
X134266571Y-29324571D01*
X134409428Y-29396000D01*
X134480857Y-29467429D01*
X134552286Y-29610286D01*
X134623714Y-29896000D01*
X134623714Y-30253143D01*
X134552286Y-30538857D01*
X134480857Y-30681714D01*
X134409428Y-30753143D01*
X134266571Y-30824571D01*
X134123714Y-30824571D01*
X133980857Y-30753143D01*
X133909428Y-30681714D01*
X133838000Y-30538857D01*
X133766571Y-30253143D01*
X133766571Y-29896000D01*
X133838000Y-29610286D01*
X133909428Y-29467429D01*
X133980857Y-29396000D01*
X134123714Y-29324571D01*
X136409428Y-30824571D02*
X136409428Y-29824571D01*
X136409428Y-29324571D02*
X136337999Y-29396000D01*
X136409428Y-29467429D01*
X136480856Y-29396000D01*
X136409428Y-29324571D01*
X136409428Y-29467429D01*
X137123714Y-29824571D02*
X137123714Y-30824571D01*
X137123714Y-29967429D02*
X137195142Y-29896000D01*
X137338000Y-29824571D01*
X137552285Y-29824571D01*
X137695142Y-29896000D01*
X137766571Y-30038857D01*
X137766571Y-30824571D01*
X130048000Y-31496000D02*
X135128000Y-31496000D01*
X130048000Y-35560000D02*
X130048000Y-28796000D01*
X135128000Y-35560000D02*
X135128000Y-28796000D01*
X135128000Y-31496000D02*
X134001496Y-32082421D01*
X135128000Y-31496000D02*
X134001496Y-30909579D01*
X130048000Y-31496000D02*
X131174504Y-32082421D01*
X130048000Y-31496000D02*
X131174504Y-30909579D01*
X94040144Y-29324571D02*
X94183001Y-29324571D01*
X94325858Y-29396000D01*
X94397287Y-29467429D01*
X94468716Y-29610286D01*
X94540144Y-29896000D01*
X94540144Y-30253143D01*
X94468716Y-30538857D01*
X94397287Y-30681714D01*
X94325858Y-30753143D01*
X94183001Y-30824571D01*
X94040144Y-30824571D01*
X93897287Y-30753143D01*
X93825858Y-30681714D01*
X93754430Y-30538857D01*
X93683001Y-30253143D01*
X93683001Y-29896000D01*
X93754430Y-29610286D01*
X93825858Y-29467429D01*
X93897287Y-29396000D01*
X94040144Y-29324571D01*
X95183001Y-30681714D02*
X95254429Y-30753143D01*
X95183001Y-30824571D01*
X95111572Y-30753143D01*
X95183001Y-30681714D01*
X95183001Y-30824571D01*
X95825858Y-29467429D02*
X95897287Y-29396000D01*
X96040144Y-29324571D01*
X96397287Y-29324571D01*
X96540144Y-29396000D01*
X96611573Y-29467429D01*
X96683001Y-29610286D01*
X96683001Y-29753143D01*
X96611573Y-29967429D01*
X95754430Y-30824571D01*
X96683001Y-30824571D01*
X98040144Y-29324571D02*
X97325858Y-29324571D01*
X97254429Y-30038857D01*
X97325858Y-29967429D01*
X97468715Y-29896000D01*
X97825858Y-29896000D01*
X97968715Y-29967429D01*
X98040144Y-30038857D01*
X98111572Y-30181714D01*
X98111572Y-30538857D01*
X98040144Y-30681714D01*
X97968715Y-30753143D01*
X97825858Y-30824571D01*
X97468715Y-30824571D01*
X97325858Y-30753143D01*
X97254429Y-30681714D01*
X99040143Y-29324571D02*
X99183000Y-29324571D01*
X99325857Y-29396000D01*
X99397286Y-29467429D01*
X99468715Y-29610286D01*
X99540143Y-29896000D01*
X99540143Y-30253143D01*
X99468715Y-30538857D01*
X99397286Y-30681714D01*
X99325857Y-30753143D01*
X99183000Y-30824571D01*
X99040143Y-30824571D01*
X98897286Y-30753143D01*
X98825857Y-30681714D01*
X98754429Y-30538857D01*
X98683000Y-30253143D01*
X98683000Y-29896000D01*
X98754429Y-29610286D01*
X98825857Y-29467429D01*
X98897286Y-29396000D01*
X99040143Y-29324571D01*
X100468714Y-29324571D02*
X100611571Y-29324571D01*
X100754428Y-29396000D01*
X100825857Y-29467429D01*
X100897286Y-29610286D01*
X100968714Y-29896000D01*
X100968714Y-30253143D01*
X100897286Y-30538857D01*
X100825857Y-30681714D01*
X100754428Y-30753143D01*
X100611571Y-30824571D01*
X100468714Y-30824571D01*
X100325857Y-30753143D01*
X100254428Y-30681714D01*
X100183000Y-30538857D01*
X100111571Y-30253143D01*
X100111571Y-29896000D01*
X100183000Y-29610286D01*
X100254428Y-29467429D01*
X100325857Y-29396000D01*
X100468714Y-29324571D01*
X102754428Y-30824571D02*
X102754428Y-29824571D01*
X102754428Y-29324571D02*
X102682999Y-29396000D01*
X102754428Y-29467429D01*
X102825856Y-29396000D01*
X102754428Y-29324571D01*
X102754428Y-29467429D01*
X103468714Y-29824571D02*
X103468714Y-30824571D01*
X103468714Y-29967429D02*
X103540142Y-29896000D01*
X103683000Y-29824571D01*
X103897285Y-29824571D01*
X104040142Y-29896000D01*
X104111571Y-30038857D01*
X104111571Y-30824571D01*
X95758000Y-31496000D02*
X102108000Y-31496000D01*
X95758000Y-35560000D02*
X95758000Y-28796000D01*
X102108000Y-35560000D02*
X102108000Y-28796000D01*
X102108000Y-31496000D02*
X100981496Y-32082421D01*
X102108000Y-31496000D02*
X100981496Y-30909579D01*
X95758000Y-31496000D02*
X96884504Y-32082421D01*
X95758000Y-31496000D02*
X96884504Y-30909579D01*
X60385144Y-29324571D02*
X60528001Y-29324571D01*
X60670858Y-29396000D01*
X60742287Y-29467429D01*
X60813716Y-29610286D01*
X60885144Y-29896000D01*
X60885144Y-30253143D01*
X60813716Y-30538857D01*
X60742287Y-30681714D01*
X60670858Y-30753143D01*
X60528001Y-30824571D01*
X60385144Y-30824571D01*
X60242287Y-30753143D01*
X60170858Y-30681714D01*
X60099430Y-30538857D01*
X60028001Y-30253143D01*
X60028001Y-29896000D01*
X60099430Y-29610286D01*
X60170858Y-29467429D01*
X60242287Y-29396000D01*
X60385144Y-29324571D01*
X61528001Y-30681714D02*
X61599429Y-30753143D01*
X61528001Y-30824571D01*
X61456572Y-30753143D01*
X61528001Y-30681714D01*
X61528001Y-30824571D01*
X62170858Y-29467429D02*
X62242287Y-29396000D01*
X62385144Y-29324571D01*
X62742287Y-29324571D01*
X62885144Y-29396000D01*
X62956573Y-29467429D01*
X63028001Y-29610286D01*
X63028001Y-29753143D01*
X62956573Y-29967429D01*
X62099430Y-30824571D01*
X63028001Y-30824571D01*
X63956572Y-29324571D02*
X64099429Y-29324571D01*
X64242286Y-29396000D01*
X64313715Y-29467429D01*
X64385144Y-29610286D01*
X64456572Y-29896000D01*
X64456572Y-30253143D01*
X64385144Y-30538857D01*
X64313715Y-30681714D01*
X64242286Y-30753143D01*
X64099429Y-30824571D01*
X63956572Y-30824571D01*
X63813715Y-30753143D01*
X63742286Y-30681714D01*
X63670858Y-30538857D01*
X63599429Y-30253143D01*
X63599429Y-29896000D01*
X63670858Y-29610286D01*
X63742286Y-29467429D01*
X63813715Y-29396000D01*
X63956572Y-29324571D01*
X65385143Y-29324571D02*
X65528000Y-29324571D01*
X65670857Y-29396000D01*
X65742286Y-29467429D01*
X65813715Y-29610286D01*
X65885143Y-29896000D01*
X65885143Y-30253143D01*
X65813715Y-30538857D01*
X65742286Y-30681714D01*
X65670857Y-30753143D01*
X65528000Y-30824571D01*
X65385143Y-30824571D01*
X65242286Y-30753143D01*
X65170857Y-30681714D01*
X65099429Y-30538857D01*
X65028000Y-30253143D01*
X65028000Y-29896000D01*
X65099429Y-29610286D01*
X65170857Y-29467429D01*
X65242286Y-29396000D01*
X65385143Y-29324571D01*
X66813714Y-29324571D02*
X66956571Y-29324571D01*
X67099428Y-29396000D01*
X67170857Y-29467429D01*
X67242286Y-29610286D01*
X67313714Y-29896000D01*
X67313714Y-30253143D01*
X67242286Y-30538857D01*
X67170857Y-30681714D01*
X67099428Y-30753143D01*
X66956571Y-30824571D01*
X66813714Y-30824571D01*
X66670857Y-30753143D01*
X66599428Y-30681714D01*
X66528000Y-30538857D01*
X66456571Y-30253143D01*
X66456571Y-29896000D01*
X66528000Y-29610286D01*
X66599428Y-29467429D01*
X66670857Y-29396000D01*
X66813714Y-29324571D01*
X69099428Y-30824571D02*
X69099428Y-29824571D01*
X69099428Y-29324571D02*
X69027999Y-29396000D01*
X69099428Y-29467429D01*
X69170856Y-29396000D01*
X69099428Y-29324571D01*
X69099428Y-29467429D01*
X69813714Y-29824571D02*
X69813714Y-30824571D01*
X69813714Y-29967429D02*
X69885142Y-29896000D01*
X70028000Y-29824571D01*
X70242285Y-29824571D01*
X70385142Y-29896000D01*
X70456571Y-30038857D01*
X70456571Y-30824571D01*
X62738000Y-31496000D02*
X67818000Y-31496000D01*
X62738000Y-35560000D02*
X62738000Y-28796000D01*
X67818000Y-35560000D02*
X67818000Y-28796000D01*
X67818000Y-31496000D02*
X66691496Y-32082421D01*
X67818000Y-31496000D02*
X66691496Y-30909579D01*
X62738000Y-31496000D02*
X63864504Y-32082421D01*
X62738000Y-31496000D02*
X63864504Y-30909579D01*
X18856144Y-30086571D02*
X18999001Y-30086571D01*
X19141858Y-30158000D01*
X19213287Y-30229429D01*
X19284716Y-30372286D01*
X19356144Y-30658000D01*
X19356144Y-31015143D01*
X19284716Y-31300857D01*
X19213287Y-31443714D01*
X19141858Y-31515143D01*
X18999001Y-31586571D01*
X18856144Y-31586571D01*
X18713287Y-31515143D01*
X18641858Y-31443714D01*
X18570430Y-31300857D01*
X18499001Y-31015143D01*
X18499001Y-30658000D01*
X18570430Y-30372286D01*
X18641858Y-30229429D01*
X18713287Y-30158000D01*
X18856144Y-30086571D01*
X19999001Y-31443714D02*
X20070429Y-31515143D01*
X19999001Y-31586571D01*
X19927572Y-31515143D01*
X19999001Y-31443714D01*
X19999001Y-31586571D01*
X20927573Y-30729429D02*
X20784715Y-30658000D01*
X20713287Y-30586571D01*
X20641858Y-30443714D01*
X20641858Y-30372286D01*
X20713287Y-30229429D01*
X20784715Y-30158000D01*
X20927573Y-30086571D01*
X21213287Y-30086571D01*
X21356144Y-30158000D01*
X21427573Y-30229429D01*
X21499001Y-30372286D01*
X21499001Y-30443714D01*
X21427573Y-30586571D01*
X21356144Y-30658000D01*
X21213287Y-30729429D01*
X20927573Y-30729429D01*
X20784715Y-30800857D01*
X20713287Y-30872286D01*
X20641858Y-31015143D01*
X20641858Y-31300857D01*
X20713287Y-31443714D01*
X20784715Y-31515143D01*
X20927573Y-31586571D01*
X21213287Y-31586571D01*
X21356144Y-31515143D01*
X21427573Y-31443714D01*
X21499001Y-31300857D01*
X21499001Y-31015143D01*
X21427573Y-30872286D01*
X21356144Y-30800857D01*
X21213287Y-30729429D01*
X21999001Y-30086571D02*
X22999001Y-30086571D01*
X22356144Y-31586571D01*
X23856143Y-30086571D02*
X23999000Y-30086571D01*
X24141857Y-30158000D01*
X24213286Y-30229429D01*
X24284715Y-30372286D01*
X24356143Y-30658000D01*
X24356143Y-31015143D01*
X24284715Y-31300857D01*
X24213286Y-31443714D01*
X24141857Y-31515143D01*
X23999000Y-31586571D01*
X23856143Y-31586571D01*
X23713286Y-31515143D01*
X23641857Y-31443714D01*
X23570429Y-31300857D01*
X23499000Y-31015143D01*
X23499000Y-30658000D01*
X23570429Y-30372286D01*
X23641857Y-30229429D01*
X23713286Y-30158000D01*
X23856143Y-30086571D01*
X25284714Y-30086571D02*
X25427571Y-30086571D01*
X25570428Y-30158000D01*
X25641857Y-30229429D01*
X25713286Y-30372286D01*
X25784714Y-30658000D01*
X25784714Y-31015143D01*
X25713286Y-31300857D01*
X25641857Y-31443714D01*
X25570428Y-31515143D01*
X25427571Y-31586571D01*
X25284714Y-31586571D01*
X25141857Y-31515143D01*
X25070428Y-31443714D01*
X24999000Y-31300857D01*
X24927571Y-31015143D01*
X24927571Y-30658000D01*
X24999000Y-30372286D01*
X25070428Y-30229429D01*
X25141857Y-30158000D01*
X25284714Y-30086571D01*
X27570428Y-31586571D02*
X27570428Y-30586571D01*
X27570428Y-30086571D02*
X27498999Y-30158000D01*
X27570428Y-30229429D01*
X27641856Y-30158000D01*
X27570428Y-30086571D01*
X27570428Y-30229429D01*
X28284714Y-30586571D02*
X28284714Y-31586571D01*
X28284714Y-30729429D02*
X28356142Y-30658000D01*
X28499000Y-30586571D01*
X28713285Y-30586571D01*
X28856142Y-30658000D01*
X28927571Y-30800857D01*
X28927571Y-31586571D01*
X12700000Y-32258000D02*
X34798000Y-32258000D01*
X12700000Y-36830000D02*
X12700000Y-29558000D01*
X34798000Y-36830000D02*
X34798000Y-29558000D01*
X34798000Y-32258000D02*
X33671496Y-32844421D01*
X34798000Y-32258000D02*
X33671496Y-31671579D01*
X12700000Y-32258000D02*
X13826504Y-32844421D01*
X12700000Y-32258000D02*
X13826504Y-31671579D01*
X249265715Y-28308571D02*
X249408572Y-28308571D01*
X249551429Y-28380000D01*
X249622858Y-28451429D01*
X249694287Y-28594286D01*
X249765715Y-28880000D01*
X249765715Y-29237143D01*
X249694287Y-29522857D01*
X249622858Y-29665714D01*
X249551429Y-29737143D01*
X249408572Y-29808571D01*
X249265715Y-29808571D01*
X249122858Y-29737143D01*
X249051429Y-29665714D01*
X248980001Y-29522857D01*
X248908572Y-29237143D01*
X248908572Y-28880000D01*
X248980001Y-28594286D01*
X249051429Y-28451429D01*
X249122858Y-28380000D01*
X249265715Y-28308571D01*
X250408572Y-29665714D02*
X250480000Y-29737143D01*
X250408572Y-29808571D01*
X250337143Y-29737143D01*
X250408572Y-29665714D01*
X250408572Y-29808571D01*
X251908572Y-29808571D02*
X251051429Y-29808571D01*
X251480001Y-29808571D02*
X251480001Y-28308571D01*
X251337144Y-28522857D01*
X251194286Y-28665714D01*
X251051429Y-28737143D01*
X252837143Y-28308571D02*
X252980000Y-28308571D01*
X253122857Y-28380000D01*
X253194286Y-28451429D01*
X253265715Y-28594286D01*
X253337143Y-28880000D01*
X253337143Y-29237143D01*
X253265715Y-29522857D01*
X253194286Y-29665714D01*
X253122857Y-29737143D01*
X252980000Y-29808571D01*
X252837143Y-29808571D01*
X252694286Y-29737143D01*
X252622857Y-29665714D01*
X252551429Y-29522857D01*
X252480000Y-29237143D01*
X252480000Y-28880000D01*
X252551429Y-28594286D01*
X252622857Y-28451429D01*
X252694286Y-28380000D01*
X252837143Y-28308571D01*
X255122857Y-29808571D02*
X255122857Y-28808571D01*
X255122857Y-28308571D02*
X255051428Y-28380000D01*
X255122857Y-28451429D01*
X255194285Y-28380000D01*
X255122857Y-28308571D01*
X255122857Y-28451429D01*
X255837143Y-28808571D02*
X255837143Y-29808571D01*
X255837143Y-28951429D02*
X255908571Y-28880000D01*
X256051429Y-28808571D01*
X256265714Y-28808571D01*
X256408571Y-28880000D01*
X256480000Y-29022857D01*
X256480000Y-29808571D01*
X251460000Y-30480000D02*
X254000000Y-30480000D01*
X251460000Y-34290000D02*
X251460000Y-27780000D01*
X254000000Y-34290000D02*
X254000000Y-27780000D01*
X254000000Y-30480000D02*
X252873496Y-31066421D01*
X254000000Y-30480000D02*
X252873496Y-29893579D01*
X251460000Y-30480000D02*
X252586504Y-31066421D01*
X251460000Y-30480000D02*
X252586504Y-29893579D01*
X262835001Y-100373571D02*
X262835001Y-98873571D01*
X262835001Y-99587857D02*
X263692144Y-99587857D01*
X263692144Y-100373571D02*
X263692144Y-98873571D01*
X264192144Y-99373571D02*
X264763573Y-99373571D01*
X264406430Y-98873571D02*
X264406430Y-100159286D01*
X264477858Y-100302143D01*
X264620716Y-100373571D01*
X264763573Y-100373571D01*
X266692144Y-98873571D02*
X266835001Y-98873571D01*
X266977858Y-98945000D01*
X267049287Y-99016429D01*
X267120716Y-99159286D01*
X267192144Y-99445000D01*
X267192144Y-99802143D01*
X267120716Y-100087857D01*
X267049287Y-100230714D01*
X266977858Y-100302143D01*
X266835001Y-100373571D01*
X266692144Y-100373571D01*
X266549287Y-100302143D01*
X266477858Y-100230714D01*
X266406430Y-100087857D01*
X266335001Y-99802143D01*
X266335001Y-99445000D01*
X266406430Y-99159286D01*
X266477858Y-99016429D01*
X266549287Y-98945000D01*
X266692144Y-98873571D01*
X267835001Y-100230714D02*
X267906429Y-100302143D01*
X267835001Y-100373571D01*
X267763572Y-100302143D01*
X267835001Y-100230714D01*
X267835001Y-100373571D01*
X268406430Y-98873571D02*
X269406430Y-98873571D01*
X268763573Y-100373571D01*
X269835001Y-98873571D02*
X270763572Y-98873571D01*
X270263572Y-99445000D01*
X270477858Y-99445000D01*
X270620715Y-99516429D01*
X270692144Y-99587857D01*
X270763572Y-99730714D01*
X270763572Y-100087857D01*
X270692144Y-100230714D01*
X270620715Y-100302143D01*
X270477858Y-100373571D01*
X270049286Y-100373571D01*
X269906429Y-100302143D01*
X269835001Y-100230714D01*
X271335000Y-98873571D02*
X271335000Y-99159286D01*
X271906429Y-98873571D02*
X271906429Y-99159286D01*
X254405286Y-34968571D02*
X254405286Y-33468571D01*
X254405286Y-34182857D02*
X255262429Y-34182857D01*
X255262429Y-34968571D02*
X255262429Y-33468571D01*
X255762429Y-33968571D02*
X256333858Y-33968571D01*
X255976715Y-33468571D02*
X255976715Y-34754286D01*
X256048143Y-34897143D01*
X256191001Y-34968571D01*
X256333858Y-34968571D01*
X258262429Y-33468571D02*
X258405286Y-33468571D01*
X258548143Y-33540000D01*
X258619572Y-33611429D01*
X258691001Y-33754286D01*
X258762429Y-34040000D01*
X258762429Y-34397143D01*
X258691001Y-34682857D01*
X258619572Y-34825714D01*
X258548143Y-34897143D01*
X258405286Y-34968571D01*
X258262429Y-34968571D01*
X258119572Y-34897143D01*
X258048143Y-34825714D01*
X257976715Y-34682857D01*
X257905286Y-34397143D01*
X257905286Y-34040000D01*
X257976715Y-33754286D01*
X258048143Y-33611429D01*
X258119572Y-33540000D01*
X258262429Y-33468571D01*
X259405286Y-34825714D02*
X259476714Y-34897143D01*
X259405286Y-34968571D01*
X259333857Y-34897143D01*
X259405286Y-34825714D01*
X259405286Y-34968571D01*
X260762429Y-33468571D02*
X260476715Y-33468571D01*
X260333858Y-33540000D01*
X260262429Y-33611429D01*
X260119572Y-33825714D01*
X260048143Y-34111429D01*
X260048143Y-34682857D01*
X260119572Y-34825714D01*
X260191000Y-34897143D01*
X260333858Y-34968571D01*
X260619572Y-34968571D01*
X260762429Y-34897143D01*
X260833858Y-34825714D01*
X260905286Y-34682857D01*
X260905286Y-34325714D01*
X260833858Y-34182857D01*
X260762429Y-34111429D01*
X260619572Y-34040000D01*
X260333858Y-34040000D01*
X260191000Y-34111429D01*
X260119572Y-34182857D01*
X260048143Y-34325714D01*
X261476714Y-33468571D02*
X261476714Y-33754286D01*
X262048143Y-33468571D02*
X262048143Y-33754286D01*
X238530286Y-34968571D02*
X238530286Y-33468571D01*
X238530286Y-34182857D02*
X239387429Y-34182857D01*
X239387429Y-34968571D02*
X239387429Y-33468571D01*
X239887429Y-33968571D02*
X240458858Y-33968571D01*
X240101715Y-33468571D02*
X240101715Y-34754286D01*
X240173143Y-34897143D01*
X240316001Y-34968571D01*
X240458858Y-34968571D01*
X242387429Y-33468571D02*
X242530286Y-33468571D01*
X242673143Y-33540000D01*
X242744572Y-33611429D01*
X242816001Y-33754286D01*
X242887429Y-34040000D01*
X242887429Y-34397143D01*
X242816001Y-34682857D01*
X242744572Y-34825714D01*
X242673143Y-34897143D01*
X242530286Y-34968571D01*
X242387429Y-34968571D01*
X242244572Y-34897143D01*
X242173143Y-34825714D01*
X242101715Y-34682857D01*
X242030286Y-34397143D01*
X242030286Y-34040000D01*
X242101715Y-33754286D01*
X242173143Y-33611429D01*
X242244572Y-33540000D01*
X242387429Y-33468571D01*
X243530286Y-34825714D02*
X243601714Y-34897143D01*
X243530286Y-34968571D01*
X243458857Y-34897143D01*
X243530286Y-34825714D01*
X243530286Y-34968571D01*
X244887429Y-33468571D02*
X244601715Y-33468571D01*
X244458858Y-33540000D01*
X244387429Y-33611429D01*
X244244572Y-33825714D01*
X244173143Y-34111429D01*
X244173143Y-34682857D01*
X244244572Y-34825714D01*
X244316000Y-34897143D01*
X244458858Y-34968571D01*
X244744572Y-34968571D01*
X244887429Y-34897143D01*
X244958858Y-34825714D01*
X245030286Y-34682857D01*
X245030286Y-34325714D01*
X244958858Y-34182857D01*
X244887429Y-34111429D01*
X244744572Y-34040000D01*
X244458858Y-34040000D01*
X244316000Y-34111429D01*
X244244572Y-34182857D01*
X244173143Y-34325714D01*
X245601714Y-33468571D02*
X245601714Y-33754286D01*
X246173143Y-33468571D02*
X246173143Y-33754286D01*
X260295001Y-71798571D02*
X260295001Y-70298571D01*
X260295001Y-71012857D02*
X261152144Y-71012857D01*
X261152144Y-71798571D02*
X261152144Y-70298571D01*
X261652144Y-70798571D02*
X262223573Y-70798571D01*
X261866430Y-70298571D02*
X261866430Y-71584286D01*
X261937858Y-71727143D01*
X262080716Y-71798571D01*
X262223573Y-71798571D01*
X264152144Y-70298571D02*
X264295001Y-70298571D01*
X264437858Y-70370000D01*
X264509287Y-70441429D01*
X264580716Y-70584286D01*
X264652144Y-70870000D01*
X264652144Y-71227143D01*
X264580716Y-71512857D01*
X264509287Y-71655714D01*
X264437858Y-71727143D01*
X264295001Y-71798571D01*
X264152144Y-71798571D01*
X264009287Y-71727143D01*
X263937858Y-71655714D01*
X263866430Y-71512857D01*
X263795001Y-71227143D01*
X263795001Y-70870000D01*
X263866430Y-70584286D01*
X263937858Y-70441429D01*
X264009287Y-70370000D01*
X264152144Y-70298571D01*
X265295001Y-71655714D02*
X265366429Y-71727143D01*
X265295001Y-71798571D01*
X265223572Y-71727143D01*
X265295001Y-71655714D01*
X265295001Y-71798571D01*
X266652144Y-70798571D02*
X266652144Y-71798571D01*
X266295001Y-70227143D02*
X265937858Y-71298571D01*
X266866430Y-71298571D01*
X268152144Y-70298571D02*
X267437858Y-70298571D01*
X267366429Y-71012857D01*
X267437858Y-70941429D01*
X267580715Y-70870000D01*
X267937858Y-70870000D01*
X268080715Y-70941429D01*
X268152144Y-71012857D01*
X268223572Y-71155714D01*
X268223572Y-71512857D01*
X268152144Y-71655714D01*
X268080715Y-71727143D01*
X267937858Y-71798571D01*
X267580715Y-71798571D01*
X267437858Y-71727143D01*
X267366429Y-71655714D01*
X268795000Y-70298571D02*
X268795000Y-70584286D01*
X269366429Y-70298571D02*
X269366429Y-70584286D01*
X262835001Y-126408571D02*
X262835001Y-124908571D01*
X262835001Y-125622857D02*
X263692144Y-125622857D01*
X263692144Y-126408571D02*
X263692144Y-124908571D01*
X264192144Y-125408571D02*
X264763573Y-125408571D01*
X264406430Y-124908571D02*
X264406430Y-126194286D01*
X264477858Y-126337143D01*
X264620716Y-126408571D01*
X264763573Y-126408571D01*
X266692144Y-124908571D02*
X266835001Y-124908571D01*
X266977858Y-124980000D01*
X267049287Y-125051429D01*
X267120716Y-125194286D01*
X267192144Y-125480000D01*
X267192144Y-125837143D01*
X267120716Y-126122857D01*
X267049287Y-126265714D01*
X266977858Y-126337143D01*
X266835001Y-126408571D01*
X266692144Y-126408571D01*
X266549287Y-126337143D01*
X266477858Y-126265714D01*
X266406430Y-126122857D01*
X266335001Y-125837143D01*
X266335001Y-125480000D01*
X266406430Y-125194286D01*
X266477858Y-125051429D01*
X266549287Y-124980000D01*
X266692144Y-124908571D01*
X267835001Y-126265714D02*
X267906429Y-126337143D01*
X267835001Y-126408571D01*
X267763572Y-126337143D01*
X267835001Y-126265714D01*
X267835001Y-126408571D01*
X268406430Y-124908571D02*
X269406430Y-124908571D01*
X268763573Y-126408571D01*
X269835001Y-124908571D02*
X270763572Y-124908571D01*
X270263572Y-125480000D01*
X270477858Y-125480000D01*
X270620715Y-125551429D01*
X270692144Y-125622857D01*
X270763572Y-125765714D01*
X270763572Y-126122857D01*
X270692144Y-126265714D01*
X270620715Y-126337143D01*
X270477858Y-126408571D01*
X270049286Y-126408571D01*
X269906429Y-126337143D01*
X269835001Y-126265714D01*
X271335000Y-124908571D02*
X271335000Y-125194286D01*
X271906429Y-124908571D02*
X271906429Y-125194286D01*
X203018001Y-33698571D02*
X203018001Y-32198571D01*
X203018001Y-32912857D02*
X203875144Y-32912857D01*
X203875144Y-33698571D02*
X203875144Y-32198571D01*
X204375144Y-32698571D02*
X204946573Y-32698571D01*
X204589430Y-32198571D02*
X204589430Y-33484286D01*
X204660858Y-33627143D01*
X204803716Y-33698571D01*
X204946573Y-33698571D01*
X206875144Y-32198571D02*
X207018001Y-32198571D01*
X207160858Y-32270000D01*
X207232287Y-32341429D01*
X207303716Y-32484286D01*
X207375144Y-32770000D01*
X207375144Y-33127143D01*
X207303716Y-33412857D01*
X207232287Y-33555714D01*
X207160858Y-33627143D01*
X207018001Y-33698571D01*
X206875144Y-33698571D01*
X206732287Y-33627143D01*
X206660858Y-33555714D01*
X206589430Y-33412857D01*
X206518001Y-33127143D01*
X206518001Y-32770000D01*
X206589430Y-32484286D01*
X206660858Y-32341429D01*
X206732287Y-32270000D01*
X206875144Y-32198571D01*
X208018001Y-33555714D02*
X208089429Y-33627143D01*
X208018001Y-33698571D01*
X207946572Y-33627143D01*
X208018001Y-33555714D01*
X208018001Y-33698571D01*
X208589430Y-32198571D02*
X209518001Y-32198571D01*
X209018001Y-32770000D01*
X209232287Y-32770000D01*
X209375144Y-32841429D01*
X209446573Y-32912857D01*
X209518001Y-33055714D01*
X209518001Y-33412857D01*
X209446573Y-33555714D01*
X209375144Y-33627143D01*
X209232287Y-33698571D01*
X208803715Y-33698571D01*
X208660858Y-33627143D01*
X208589430Y-33555714D01*
X210875144Y-32198571D02*
X210160858Y-32198571D01*
X210089429Y-32912857D01*
X210160858Y-32841429D01*
X210303715Y-32770000D01*
X210660858Y-32770000D01*
X210803715Y-32841429D01*
X210875144Y-32912857D01*
X210946572Y-33055714D01*
X210946572Y-33412857D01*
X210875144Y-33555714D01*
X210803715Y-33627143D01*
X210660858Y-33698571D01*
X210303715Y-33698571D01*
X210160858Y-33627143D01*
X210089429Y-33555714D01*
X211518000Y-32198571D02*
X211518000Y-32484286D01*
X212089429Y-32198571D02*
X212089429Y-32484286D01*
X169998001Y-33571571D02*
X169998001Y-32071571D01*
X169998001Y-32785857D02*
X170855144Y-32785857D01*
X170855144Y-33571571D02*
X170855144Y-32071571D01*
X171355144Y-32571571D02*
X171926573Y-32571571D01*
X171569430Y-32071571D02*
X171569430Y-33357286D01*
X171640858Y-33500143D01*
X171783716Y-33571571D01*
X171926573Y-33571571D01*
X173855144Y-32071571D02*
X173998001Y-32071571D01*
X174140858Y-32143000D01*
X174212287Y-32214429D01*
X174283716Y-32357286D01*
X174355144Y-32643000D01*
X174355144Y-33000143D01*
X174283716Y-33285857D01*
X174212287Y-33428714D01*
X174140858Y-33500143D01*
X173998001Y-33571571D01*
X173855144Y-33571571D01*
X173712287Y-33500143D01*
X173640858Y-33428714D01*
X173569430Y-33285857D01*
X173498001Y-33000143D01*
X173498001Y-32643000D01*
X173569430Y-32357286D01*
X173640858Y-32214429D01*
X173712287Y-32143000D01*
X173855144Y-32071571D01*
X174998001Y-33428714D02*
X175069429Y-33500143D01*
X174998001Y-33571571D01*
X174926572Y-33500143D01*
X174998001Y-33428714D01*
X174998001Y-33571571D01*
X175569430Y-32071571D02*
X176498001Y-32071571D01*
X175998001Y-32643000D01*
X176212287Y-32643000D01*
X176355144Y-32714429D01*
X176426573Y-32785857D01*
X176498001Y-32928714D01*
X176498001Y-33285857D01*
X176426573Y-33428714D01*
X176355144Y-33500143D01*
X176212287Y-33571571D01*
X175783715Y-33571571D01*
X175640858Y-33500143D01*
X175569430Y-33428714D01*
X177855144Y-32071571D02*
X177140858Y-32071571D01*
X177069429Y-32785857D01*
X177140858Y-32714429D01*
X177283715Y-32643000D01*
X177640858Y-32643000D01*
X177783715Y-32714429D01*
X177855144Y-32785857D01*
X177926572Y-32928714D01*
X177926572Y-33285857D01*
X177855144Y-33428714D01*
X177783715Y-33500143D01*
X177640858Y-33571571D01*
X177283715Y-33571571D01*
X177140858Y-33500143D01*
X177069429Y-33428714D01*
X178498000Y-32071571D02*
X178498000Y-32357286D01*
X179069429Y-32071571D02*
X179069429Y-32357286D01*
X135708001Y-33571571D02*
X135708001Y-32071571D01*
X135708001Y-32785857D02*
X136565144Y-32785857D01*
X136565144Y-33571571D02*
X136565144Y-32071571D01*
X137065144Y-32571571D02*
X137636573Y-32571571D01*
X137279430Y-32071571D02*
X137279430Y-33357286D01*
X137350858Y-33500143D01*
X137493716Y-33571571D01*
X137636573Y-33571571D01*
X139565144Y-32071571D02*
X139708001Y-32071571D01*
X139850858Y-32143000D01*
X139922287Y-32214429D01*
X139993716Y-32357286D01*
X140065144Y-32643000D01*
X140065144Y-33000143D01*
X139993716Y-33285857D01*
X139922287Y-33428714D01*
X139850858Y-33500143D01*
X139708001Y-33571571D01*
X139565144Y-33571571D01*
X139422287Y-33500143D01*
X139350858Y-33428714D01*
X139279430Y-33285857D01*
X139208001Y-33000143D01*
X139208001Y-32643000D01*
X139279430Y-32357286D01*
X139350858Y-32214429D01*
X139422287Y-32143000D01*
X139565144Y-32071571D01*
X140708001Y-33428714D02*
X140779429Y-33500143D01*
X140708001Y-33571571D01*
X140636572Y-33500143D01*
X140708001Y-33428714D01*
X140708001Y-33571571D01*
X141279430Y-32071571D02*
X142208001Y-32071571D01*
X141708001Y-32643000D01*
X141922287Y-32643000D01*
X142065144Y-32714429D01*
X142136573Y-32785857D01*
X142208001Y-32928714D01*
X142208001Y-33285857D01*
X142136573Y-33428714D01*
X142065144Y-33500143D01*
X141922287Y-33571571D01*
X141493715Y-33571571D01*
X141350858Y-33500143D01*
X141279430Y-33428714D01*
X143565144Y-32071571D02*
X142850858Y-32071571D01*
X142779429Y-32785857D01*
X142850858Y-32714429D01*
X142993715Y-32643000D01*
X143350858Y-32643000D01*
X143493715Y-32714429D01*
X143565144Y-32785857D01*
X143636572Y-32928714D01*
X143636572Y-33285857D01*
X143565144Y-33428714D01*
X143493715Y-33500143D01*
X143350858Y-33571571D01*
X142993715Y-33571571D01*
X142850858Y-33500143D01*
X142779429Y-33428714D01*
X144208000Y-32071571D02*
X144208000Y-32357286D01*
X144779429Y-32071571D02*
X144779429Y-32357286D01*
X102688001Y-33571571D02*
X102688001Y-32071571D01*
X102688001Y-32785857D02*
X103545144Y-32785857D01*
X103545144Y-33571571D02*
X103545144Y-32071571D01*
X104045144Y-32571571D02*
X104616573Y-32571571D01*
X104259430Y-32071571D02*
X104259430Y-33357286D01*
X104330858Y-33500143D01*
X104473716Y-33571571D01*
X104616573Y-33571571D01*
X106545144Y-32071571D02*
X106688001Y-32071571D01*
X106830858Y-32143000D01*
X106902287Y-32214429D01*
X106973716Y-32357286D01*
X107045144Y-32643000D01*
X107045144Y-33000143D01*
X106973716Y-33285857D01*
X106902287Y-33428714D01*
X106830858Y-33500143D01*
X106688001Y-33571571D01*
X106545144Y-33571571D01*
X106402287Y-33500143D01*
X106330858Y-33428714D01*
X106259430Y-33285857D01*
X106188001Y-33000143D01*
X106188001Y-32643000D01*
X106259430Y-32357286D01*
X106330858Y-32214429D01*
X106402287Y-32143000D01*
X106545144Y-32071571D01*
X107688001Y-33428714D02*
X107759429Y-33500143D01*
X107688001Y-33571571D01*
X107616572Y-33500143D01*
X107688001Y-33428714D01*
X107688001Y-33571571D01*
X108259430Y-32071571D02*
X109188001Y-32071571D01*
X108688001Y-32643000D01*
X108902287Y-32643000D01*
X109045144Y-32714429D01*
X109116573Y-32785857D01*
X109188001Y-32928714D01*
X109188001Y-33285857D01*
X109116573Y-33428714D01*
X109045144Y-33500143D01*
X108902287Y-33571571D01*
X108473715Y-33571571D01*
X108330858Y-33500143D01*
X108259430Y-33428714D01*
X110545144Y-32071571D02*
X109830858Y-32071571D01*
X109759429Y-32785857D01*
X109830858Y-32714429D01*
X109973715Y-32643000D01*
X110330858Y-32643000D01*
X110473715Y-32714429D01*
X110545144Y-32785857D01*
X110616572Y-32928714D01*
X110616572Y-33285857D01*
X110545144Y-33428714D01*
X110473715Y-33500143D01*
X110330858Y-33571571D01*
X109973715Y-33571571D01*
X109830858Y-33500143D01*
X109759429Y-33428714D01*
X111188000Y-32071571D02*
X111188000Y-32357286D01*
X111759429Y-32071571D02*
X111759429Y-32357286D01*
X68398001Y-33571571D02*
X68398001Y-32071571D01*
X68398001Y-32785857D02*
X69255144Y-32785857D01*
X69255144Y-33571571D02*
X69255144Y-32071571D01*
X69755144Y-32571571D02*
X70326573Y-32571571D01*
X69969430Y-32071571D02*
X69969430Y-33357286D01*
X70040858Y-33500143D01*
X70183716Y-33571571D01*
X70326573Y-33571571D01*
X72255144Y-32071571D02*
X72398001Y-32071571D01*
X72540858Y-32143000D01*
X72612287Y-32214429D01*
X72683716Y-32357286D01*
X72755144Y-32643000D01*
X72755144Y-33000143D01*
X72683716Y-33285857D01*
X72612287Y-33428714D01*
X72540858Y-33500143D01*
X72398001Y-33571571D01*
X72255144Y-33571571D01*
X72112287Y-33500143D01*
X72040858Y-33428714D01*
X71969430Y-33285857D01*
X71898001Y-33000143D01*
X71898001Y-32643000D01*
X71969430Y-32357286D01*
X72040858Y-32214429D01*
X72112287Y-32143000D01*
X72255144Y-32071571D01*
X73398001Y-33428714D02*
X73469429Y-33500143D01*
X73398001Y-33571571D01*
X73326572Y-33500143D01*
X73398001Y-33428714D01*
X73398001Y-33571571D01*
X73969430Y-32071571D02*
X74898001Y-32071571D01*
X74398001Y-32643000D01*
X74612287Y-32643000D01*
X74755144Y-32714429D01*
X74826573Y-32785857D01*
X74898001Y-32928714D01*
X74898001Y-33285857D01*
X74826573Y-33428714D01*
X74755144Y-33500143D01*
X74612287Y-33571571D01*
X74183715Y-33571571D01*
X74040858Y-33500143D01*
X73969430Y-33428714D01*
X76255144Y-32071571D02*
X75540858Y-32071571D01*
X75469429Y-32785857D01*
X75540858Y-32714429D01*
X75683715Y-32643000D01*
X76040858Y-32643000D01*
X76183715Y-32714429D01*
X76255144Y-32785857D01*
X76326572Y-32928714D01*
X76326572Y-33285857D01*
X76255144Y-33428714D01*
X76183715Y-33500143D01*
X76040858Y-33571571D01*
X75683715Y-33571571D01*
X75540858Y-33500143D01*
X75469429Y-33428714D01*
X76898000Y-32071571D02*
X76898000Y-32357286D01*
X77469429Y-32071571D02*
X77469429Y-32357286D01*
X35378001Y-33571571D02*
X35378001Y-32071571D01*
X35378001Y-32785857D02*
X36235144Y-32785857D01*
X36235144Y-33571571D02*
X36235144Y-32071571D01*
X36735144Y-32571571D02*
X37306573Y-32571571D01*
X36949430Y-32071571D02*
X36949430Y-33357286D01*
X37020858Y-33500143D01*
X37163716Y-33571571D01*
X37306573Y-33571571D01*
X39235144Y-32071571D02*
X39378001Y-32071571D01*
X39520858Y-32143000D01*
X39592287Y-32214429D01*
X39663716Y-32357286D01*
X39735144Y-32643000D01*
X39735144Y-33000143D01*
X39663716Y-33285857D01*
X39592287Y-33428714D01*
X39520858Y-33500143D01*
X39378001Y-33571571D01*
X39235144Y-33571571D01*
X39092287Y-33500143D01*
X39020858Y-33428714D01*
X38949430Y-33285857D01*
X38878001Y-33000143D01*
X38878001Y-32643000D01*
X38949430Y-32357286D01*
X39020858Y-32214429D01*
X39092287Y-32143000D01*
X39235144Y-32071571D01*
X40378001Y-33428714D02*
X40449429Y-33500143D01*
X40378001Y-33571571D01*
X40306572Y-33500143D01*
X40378001Y-33428714D01*
X40378001Y-33571571D01*
X40949430Y-32071571D02*
X41878001Y-32071571D01*
X41378001Y-32643000D01*
X41592287Y-32643000D01*
X41735144Y-32714429D01*
X41806573Y-32785857D01*
X41878001Y-32928714D01*
X41878001Y-33285857D01*
X41806573Y-33428714D01*
X41735144Y-33500143D01*
X41592287Y-33571571D01*
X41163715Y-33571571D01*
X41020858Y-33500143D01*
X40949430Y-33428714D01*
X43235144Y-32071571D02*
X42520858Y-32071571D01*
X42449429Y-32785857D01*
X42520858Y-32714429D01*
X42663715Y-32643000D01*
X43020858Y-32643000D01*
X43163715Y-32714429D01*
X43235144Y-32785857D01*
X43306572Y-32928714D01*
X43306572Y-33285857D01*
X43235144Y-33428714D01*
X43163715Y-33500143D01*
X43020858Y-33571571D01*
X42663715Y-33571571D01*
X42520858Y-33500143D01*
X42449429Y-33428714D01*
X43878000Y-32071571D02*
X43878000Y-32357286D01*
X44449429Y-32071571D02*
X44449429Y-32357286D01*
D12*
X20828000Y-42672000D02*
X20828000Y-153924000D01*
X274066000Y-42926000D02*
X274066000Y-153924000D01*
D11*
X283611429Y-94603572D02*
X282611429Y-94603572D01*
X284182857Y-94246429D02*
X283111429Y-93889286D01*
X283111429Y-94817858D01*
X282754286Y-95389286D02*
X282682857Y-95460714D01*
X282611429Y-95389286D01*
X282682857Y-95317857D01*
X282754286Y-95389286D01*
X282611429Y-95389286D01*
X283468571Y-96317858D02*
X283540000Y-96175000D01*
X283611429Y-96103572D01*
X283754286Y-96032143D01*
X283825714Y-96032143D01*
X283968571Y-96103572D01*
X284040000Y-96175000D01*
X284111429Y-96317858D01*
X284111429Y-96603572D01*
X284040000Y-96746429D01*
X283968571Y-96817858D01*
X283825714Y-96889286D01*
X283754286Y-96889286D01*
X283611429Y-96817858D01*
X283540000Y-96746429D01*
X283468571Y-96603572D01*
X283468571Y-96317858D01*
X283397143Y-96175000D01*
X283325714Y-96103572D01*
X283182857Y-96032143D01*
X282897143Y-96032143D01*
X282754286Y-96103572D01*
X282682857Y-96175000D01*
X282611429Y-96317858D01*
X282611429Y-96603572D01*
X282682857Y-96746429D01*
X282754286Y-96817858D01*
X282897143Y-96889286D01*
X283182857Y-96889286D01*
X283325714Y-96817858D01*
X283397143Y-96746429D01*
X283468571Y-96603572D01*
X284111429Y-98246429D02*
X284111429Y-97532143D01*
X283397143Y-97460714D01*
X283468571Y-97532143D01*
X283540000Y-97675000D01*
X283540000Y-98032143D01*
X283468571Y-98175000D01*
X283397143Y-98246429D01*
X283254286Y-98317857D01*
X282897143Y-98317857D01*
X282754286Y-98246429D01*
X282682857Y-98175000D01*
X282611429Y-98032143D01*
X282611429Y-97675000D01*
X282682857Y-97532143D01*
X282754286Y-97460714D01*
X284111429Y-99246428D02*
X284111429Y-99389285D01*
X284040000Y-99532142D01*
X283968571Y-99603571D01*
X283825714Y-99675000D01*
X283540000Y-99746428D01*
X283182857Y-99746428D01*
X282897143Y-99675000D01*
X282754286Y-99603571D01*
X282682857Y-99532142D01*
X282611429Y-99389285D01*
X282611429Y-99246428D01*
X282682857Y-99103571D01*
X282754286Y-99032142D01*
X282897143Y-98960714D01*
X283182857Y-98889285D01*
X283540000Y-98889285D01*
X283825714Y-98960714D01*
X283968571Y-99032142D01*
X284040000Y-99103571D01*
X284111429Y-99246428D01*
X282611429Y-101532142D02*
X283611429Y-101532142D01*
X284111429Y-101532142D02*
X284040000Y-101460713D01*
X283968571Y-101532142D01*
X284040000Y-101603570D01*
X284111429Y-101532142D01*
X283968571Y-101532142D01*
X283611429Y-102246428D02*
X282611429Y-102246428D01*
X283468571Y-102246428D02*
X283540000Y-102317856D01*
X283611429Y-102460714D01*
X283611429Y-102674999D01*
X283540000Y-102817856D01*
X283397143Y-102889285D01*
X282611429Y-102889285D01*
X281940000Y-36830000D02*
X281940000Y-160020000D01*
X279400000Y-36830000D02*
X284640000Y-36830000D01*
X279400000Y-160020000D02*
X284640000Y-160020000D01*
X281940000Y-160020000D02*
X281353579Y-158893496D01*
X281940000Y-160020000D02*
X282526421Y-158893496D01*
X281940000Y-36830000D02*
X281353579Y-37956504D01*
X281940000Y-36830000D02*
X282526421Y-37956504D01*
X138275858Y-22188571D02*
X137418715Y-22188571D01*
X137847287Y-22188571D02*
X137847287Y-20688571D01*
X137704430Y-20902857D01*
X137561572Y-21045714D01*
X137418715Y-21117143D01*
X139204429Y-20688571D02*
X139347286Y-20688571D01*
X139490143Y-20760000D01*
X139561572Y-20831429D01*
X139633001Y-20974286D01*
X139704429Y-21260000D01*
X139704429Y-21617143D01*
X139633001Y-21902857D01*
X139561572Y-22045714D01*
X139490143Y-22117143D01*
X139347286Y-22188571D01*
X139204429Y-22188571D01*
X139061572Y-22117143D01*
X138990143Y-22045714D01*
X138918715Y-21902857D01*
X138847286Y-21617143D01*
X138847286Y-21260000D01*
X138918715Y-20974286D01*
X138990143Y-20831429D01*
X139061572Y-20760000D01*
X139204429Y-20688571D01*
X140347286Y-22045714D02*
X140418714Y-22117143D01*
X140347286Y-22188571D01*
X140275857Y-22117143D01*
X140347286Y-22045714D01*
X140347286Y-22188571D01*
X140990143Y-20831429D02*
X141061572Y-20760000D01*
X141204429Y-20688571D01*
X141561572Y-20688571D01*
X141704429Y-20760000D01*
X141775858Y-20831429D01*
X141847286Y-20974286D01*
X141847286Y-21117143D01*
X141775858Y-21331429D01*
X140918715Y-22188571D01*
X141847286Y-22188571D01*
X142561571Y-22188571D02*
X142847286Y-22188571D01*
X142990143Y-22117143D01*
X143061571Y-22045714D01*
X143204429Y-21831429D01*
X143275857Y-21545714D01*
X143275857Y-20974286D01*
X143204429Y-20831429D01*
X143133000Y-20760000D01*
X142990143Y-20688571D01*
X142704429Y-20688571D01*
X142561571Y-20760000D01*
X142490143Y-20831429D01*
X142418714Y-20974286D01*
X142418714Y-21331429D01*
X142490143Y-21474286D01*
X142561571Y-21545714D01*
X142704429Y-21617143D01*
X142990143Y-21617143D01*
X143133000Y-21545714D01*
X143204429Y-21474286D01*
X143275857Y-21331429D01*
X144204428Y-20688571D02*
X144347285Y-20688571D01*
X144490142Y-20760000D01*
X144561571Y-20831429D01*
X144633000Y-20974286D01*
X144704428Y-21260000D01*
X144704428Y-21617143D01*
X144633000Y-21902857D01*
X144561571Y-22045714D01*
X144490142Y-22117143D01*
X144347285Y-22188571D01*
X144204428Y-22188571D01*
X144061571Y-22117143D01*
X143990142Y-22045714D01*
X143918714Y-21902857D01*
X143847285Y-21617143D01*
X143847285Y-21260000D01*
X143918714Y-20974286D01*
X143990142Y-20831429D01*
X144061571Y-20760000D01*
X144204428Y-20688571D01*
X145632999Y-20688571D02*
X145775856Y-20688571D01*
X145918713Y-20760000D01*
X145990142Y-20831429D01*
X146061571Y-20974286D01*
X146132999Y-21260000D01*
X146132999Y-21617143D01*
X146061571Y-21902857D01*
X145990142Y-22045714D01*
X145918713Y-22117143D01*
X145775856Y-22188571D01*
X145632999Y-22188571D01*
X145490142Y-22117143D01*
X145418713Y-22045714D01*
X145347285Y-21902857D01*
X145275856Y-21617143D01*
X145275856Y-21260000D01*
X145347285Y-20974286D01*
X145418713Y-20831429D01*
X145490142Y-20760000D01*
X145632999Y-20688571D01*
X147918713Y-22188571D02*
X147918713Y-21188571D01*
X147918713Y-20688571D02*
X147847284Y-20760000D01*
X147918713Y-20831429D01*
X147990141Y-20760000D01*
X147918713Y-20688571D01*
X147918713Y-20831429D01*
X148632999Y-21188571D02*
X148632999Y-22188571D01*
X148632999Y-21331429D02*
X148704427Y-21260000D01*
X148847285Y-21188571D01*
X149061570Y-21188571D01*
X149204427Y-21260000D01*
X149275856Y-21402857D01*
X149275856Y-22188571D01*
X274066000Y-22860000D02*
X12700000Y-22860000D01*
X274066000Y-42926000D02*
X274066000Y-20160000D01*
X12700000Y-42926000D02*
X12700000Y-20160000D01*
X12700000Y-22860000D02*
X13826504Y-22273579D01*
X12700000Y-22860000D02*
X13826504Y-23446421D01*
X274066000Y-22860000D02*
X272939496Y-22273579D01*
X274066000Y-22860000D02*
X272939496Y-23446421D01*
X12585429Y-33388572D02*
X12728286Y-33388572D01*
X12871143Y-33460001D01*
X12942572Y-33531430D01*
X13014001Y-33674287D01*
X13085429Y-33960001D01*
X13085429Y-34317144D01*
X13014001Y-34602858D01*
X12942572Y-34745715D01*
X12871143Y-34817144D01*
X12728286Y-34888572D01*
X12585429Y-34888572D01*
X12442572Y-34817144D01*
X12371143Y-34745715D01*
X12299715Y-34602858D01*
X12228286Y-34317144D01*
X12228286Y-33960001D01*
X12299715Y-33674287D01*
X12371143Y-33531430D01*
X12442572Y-33460001D01*
X12585429Y-33388572D01*
X13728286Y-34745715D02*
X13799714Y-34817144D01*
X13728286Y-34888572D01*
X13656857Y-34817144D01*
X13728286Y-34745715D01*
X13728286Y-34888572D01*
X14299715Y-33388572D02*
X15228286Y-33388572D01*
X14728286Y-33960001D01*
X14942572Y-33960001D01*
X15085429Y-34031430D01*
X15156858Y-34102858D01*
X15228286Y-34245715D01*
X15228286Y-34602858D01*
X15156858Y-34745715D01*
X15085429Y-34817144D01*
X14942572Y-34888572D01*
X14514000Y-34888572D01*
X14371143Y-34817144D01*
X14299715Y-34745715D01*
X15799714Y-33531430D02*
X15871143Y-33460001D01*
X16014000Y-33388572D01*
X16371143Y-33388572D01*
X16514000Y-33460001D01*
X16585429Y-33531430D01*
X16656857Y-33674287D01*
X16656857Y-33817144D01*
X16585429Y-34031430D01*
X15728286Y-34888572D01*
X16656857Y-34888572D01*
X17585428Y-33388572D02*
X17728285Y-33388572D01*
X17871142Y-33460001D01*
X17942571Y-33531430D01*
X18014000Y-33674287D01*
X18085428Y-33960001D01*
X18085428Y-34317144D01*
X18014000Y-34602858D01*
X17942571Y-34745715D01*
X17871142Y-34817144D01*
X17728285Y-34888572D01*
X17585428Y-34888572D01*
X17442571Y-34817144D01*
X17371142Y-34745715D01*
X17299714Y-34602858D01*
X17228285Y-34317144D01*
X17228285Y-33960001D01*
X17299714Y-33674287D01*
X17371142Y-33531430D01*
X17442571Y-33460001D01*
X17585428Y-33388572D01*
X19871142Y-34888572D02*
X19871142Y-33888572D01*
X19871142Y-33388572D02*
X19799713Y-33460001D01*
X19871142Y-33531430D01*
X19942570Y-33460001D01*
X19871142Y-33388572D01*
X19871142Y-33531430D01*
X20585428Y-33888572D02*
X20585428Y-34888572D01*
X20585428Y-34031430D02*
X20656856Y-33960001D01*
X20799714Y-33888572D01*
X21013999Y-33888572D01*
X21156856Y-33960001D01*
X21228285Y-34102858D01*
X21228285Y-34888572D01*
X20828000Y-35560001D02*
X12700000Y-35560001D01*
X20828000Y-42672000D02*
X20828000Y-32860001D01*
X12700000Y-42672000D02*
X12700000Y-32860001D01*
X12700000Y-35560001D02*
X13826504Y-34973580D01*
X12700000Y-35560001D02*
X13826504Y-36146422D01*
X20828000Y-35560001D02*
X19701496Y-34973580D01*
X20828000Y-35560001D02*
X19701496Y-36146422D01*
X142371429Y-14568571D02*
X141514286Y-14568571D01*
X141942858Y-14568571D02*
X141942858Y-13068571D01*
X141800001Y-13282857D01*
X141657143Y-13425714D01*
X141514286Y-13497143D01*
X143300000Y-13068571D02*
X143442857Y-13068571D01*
X143585714Y-13140000D01*
X143657143Y-13211429D01*
X143728572Y-13354286D01*
X143800000Y-13640000D01*
X143800000Y-13997143D01*
X143728572Y-14282857D01*
X143657143Y-14425714D01*
X143585714Y-14497143D01*
X143442857Y-14568571D01*
X143300000Y-14568571D01*
X143157143Y-14497143D01*
X143085714Y-14425714D01*
X143014286Y-14282857D01*
X142942857Y-13997143D01*
X142942857Y-13640000D01*
X143014286Y-13354286D01*
X143085714Y-13211429D01*
X143157143Y-13140000D01*
X143300000Y-13068571D01*
X144442857Y-14425714D02*
X144514285Y-14497143D01*
X144442857Y-14568571D01*
X144371428Y-14497143D01*
X144442857Y-14425714D01*
X144442857Y-14568571D01*
X145871429Y-13068571D02*
X145157143Y-13068571D01*
X145085714Y-13782857D01*
X145157143Y-13711429D01*
X145300000Y-13640000D01*
X145657143Y-13640000D01*
X145800000Y-13711429D01*
X145871429Y-13782857D01*
X145942857Y-13925714D01*
X145942857Y-14282857D01*
X145871429Y-14425714D01*
X145800000Y-14497143D01*
X145657143Y-14568571D01*
X145300000Y-14568571D01*
X145157143Y-14497143D01*
X145085714Y-14425714D01*
X146871428Y-13068571D02*
X147014285Y-13068571D01*
X147157142Y-13140000D01*
X147228571Y-13211429D01*
X147300000Y-13354286D01*
X147371428Y-13640000D01*
X147371428Y-13997143D01*
X147300000Y-14282857D01*
X147228571Y-14425714D01*
X147157142Y-14497143D01*
X147014285Y-14568571D01*
X146871428Y-14568571D01*
X146728571Y-14497143D01*
X146657142Y-14425714D01*
X146585714Y-14282857D01*
X146514285Y-13997143D01*
X146514285Y-13640000D01*
X146585714Y-13354286D01*
X146657142Y-13211429D01*
X146728571Y-13140000D01*
X146871428Y-13068571D01*
X149157142Y-14568571D02*
X149157142Y-13568571D01*
X149157142Y-13068571D02*
X149085713Y-13140000D01*
X149157142Y-13211429D01*
X149228570Y-13140000D01*
X149157142Y-13068571D01*
X149157142Y-13211429D01*
X149871428Y-13568571D02*
X149871428Y-14568571D01*
X149871428Y-13711429D02*
X149942856Y-13640000D01*
X150085714Y-13568571D01*
X150299999Y-13568571D01*
X150442856Y-13640000D01*
X150514285Y-13782857D01*
X150514285Y-14568571D01*
X12700000Y-15240000D02*
X279400000Y-15240000D01*
X12700000Y-36830000D02*
X12700000Y-12540000D01*
X279400000Y-36830000D02*
X279400000Y-12540000D01*
X279400000Y-15240000D02*
X278273496Y-15826421D01*
X279400000Y-15240000D02*
X278273496Y-14653579D01*
X12700000Y-15240000D02*
X13826504Y-15826421D01*
X12700000Y-15240000D02*
X13826504Y-14653579D01*
D13*
X16691429Y-163902571D02*
X17054286Y-164023524D01*
X17175238Y-164144476D01*
X17296190Y-164386381D01*
X17296190Y-164749238D01*
X17175238Y-164991143D01*
X17054286Y-165112095D01*
X16812381Y-165233048D01*
X15844762Y-165233048D01*
X15844762Y-162693048D01*
X16691429Y-162693048D01*
X16933333Y-162814000D01*
X17054286Y-162934952D01*
X17175238Y-163176857D01*
X17175238Y-163418762D01*
X17054286Y-163660667D01*
X16933333Y-163781619D01*
X16691429Y-163902571D01*
X15844762Y-163902571D01*
X18868571Y-162693048D02*
X19352381Y-162693048D01*
X19594286Y-162814000D01*
X19836190Y-163055905D01*
X19957143Y-163539714D01*
X19957143Y-164386381D01*
X19836190Y-164870190D01*
X19594286Y-165112095D01*
X19352381Y-165233048D01*
X18868571Y-165233048D01*
X18626667Y-165112095D01*
X18384762Y-164870190D01*
X18263810Y-164386381D01*
X18263810Y-163539714D01*
X18384762Y-163055905D01*
X18626667Y-162814000D01*
X18868571Y-162693048D01*
X20924762Y-165112095D02*
X21287619Y-165233048D01*
X21892381Y-165233048D01*
X22134285Y-165112095D01*
X22255238Y-164991143D01*
X22376190Y-164749238D01*
X22376190Y-164507333D01*
X22255238Y-164265429D01*
X22134285Y-164144476D01*
X21892381Y-164023524D01*
X21408571Y-163902571D01*
X21166666Y-163781619D01*
X21045714Y-163660667D01*
X20924762Y-163418762D01*
X20924762Y-163176857D01*
X21045714Y-162934952D01*
X21166666Y-162814000D01*
X21408571Y-162693048D01*
X22013333Y-162693048D01*
X22376190Y-162814000D01*
X23101905Y-162693048D02*
X24553333Y-162693048D01*
X23827619Y-165233048D02*
X23827619Y-162693048D01*
X25883809Y-162693048D02*
X26367619Y-162693048D01*
X26609524Y-162814000D01*
X26851428Y-163055905D01*
X26972381Y-163539714D01*
X26972381Y-164386381D01*
X26851428Y-164870190D01*
X26609524Y-165112095D01*
X26367619Y-165233048D01*
X25883809Y-165233048D01*
X25641905Y-165112095D01*
X25400000Y-164870190D01*
X25279048Y-164386381D01*
X25279048Y-163539714D01*
X25400000Y-163055905D01*
X25641905Y-162814000D01*
X25883809Y-162693048D01*
X28060952Y-165233048D02*
X28060952Y-162693048D01*
X29512380Y-165233048D01*
X29512380Y-162693048D01*
X32657142Y-162693048D02*
X32657142Y-164749238D01*
X32778094Y-164991143D01*
X32899047Y-165112095D01*
X33140951Y-165233048D01*
X33624761Y-165233048D01*
X33866666Y-165112095D01*
X33987618Y-164991143D01*
X34108570Y-164749238D01*
X34108570Y-162693048D01*
X35318094Y-165233048D02*
X35318094Y-162693048D01*
X36769522Y-165233048D01*
X36769522Y-162693048D01*
X37979046Y-165233048D02*
X37979046Y-162693048D01*
X38825713Y-162693048D02*
X39672379Y-165233048D01*
X40519046Y-162693048D01*
X41365713Y-163902571D02*
X42212380Y-163902571D01*
X42575237Y-165233048D02*
X41365713Y-165233048D01*
X41365713Y-162693048D01*
X42575237Y-162693048D01*
X45115236Y-165233048D02*
X44268570Y-164023524D01*
X43663808Y-165233048D02*
X43663808Y-162693048D01*
X44631427Y-162693048D01*
X44873332Y-162814000D01*
X44994284Y-162934952D01*
X45115236Y-163176857D01*
X45115236Y-163539714D01*
X44994284Y-163781619D01*
X44873332Y-163902571D01*
X44631427Y-164023524D01*
X43663808Y-164023524D01*
X46082856Y-165112095D02*
X46445713Y-165233048D01*
X47050475Y-165233048D01*
X47292379Y-165112095D01*
X47413332Y-164991143D01*
X47534284Y-164749238D01*
X47534284Y-164507333D01*
X47413332Y-164265429D01*
X47292379Y-164144476D01*
X47050475Y-164023524D01*
X46566665Y-163902571D01*
X46324760Y-163781619D01*
X46203808Y-163660667D01*
X46082856Y-163418762D01*
X46082856Y-163176857D01*
X46203808Y-162934952D01*
X46324760Y-162814000D01*
X46566665Y-162693048D01*
X47171427Y-162693048D01*
X47534284Y-162814000D01*
X48622856Y-165233048D02*
X48622856Y-162693048D01*
X49469523Y-162693048D02*
X50920951Y-162693048D01*
X50195237Y-165233048D02*
X50195237Y-162693048D01*
X52251427Y-164023524D02*
X52251427Y-165233048D01*
X51404761Y-162693048D02*
X52251427Y-164023524D01*
X53098094Y-162693048D01*
X55879999Y-163902571D02*
X56726666Y-163902571D01*
X57089523Y-165233048D02*
X55879999Y-165233048D01*
X55879999Y-162693048D01*
X57089523Y-162693048D01*
X58178094Y-165233048D02*
X58178094Y-162693048D01*
X58782856Y-162693048D01*
X59145713Y-162814000D01*
X59387618Y-163055905D01*
X59508570Y-163297810D01*
X59629522Y-163781619D01*
X59629522Y-164144476D01*
X59508570Y-164628286D01*
X59387618Y-164870190D01*
X59145713Y-165112095D01*
X58782856Y-165233048D01*
X58178094Y-165233048D01*
X61564761Y-163902571D02*
X60718094Y-163902571D01*
X60718094Y-165233048D02*
X60718094Y-162693048D01*
X61927618Y-162693048D01*
X16812381Y-169176095D02*
X16570476Y-169297048D01*
X16086667Y-169297048D01*
X15844762Y-169176095D01*
X15723810Y-168934190D01*
X15723810Y-167966571D01*
X15844762Y-167724667D01*
X16086667Y-167603714D01*
X16570476Y-167603714D01*
X16812381Y-167724667D01*
X16933333Y-167966571D01*
X16933333Y-168208476D01*
X15723810Y-168450381D01*
X17659048Y-166757048D02*
X18505714Y-169297048D01*
X19352381Y-166757048D01*
X20682857Y-166757048D02*
X21166667Y-166757048D01*
X21408572Y-166878000D01*
X21650476Y-167119905D01*
X21771429Y-167603714D01*
X21771429Y-168450381D01*
X21650476Y-168934190D01*
X21408572Y-169176095D01*
X21166667Y-169297048D01*
X20682857Y-169297048D01*
X20440953Y-169176095D01*
X20199048Y-168934190D01*
X20078096Y-168450381D01*
X20078096Y-167603714D01*
X20199048Y-167119905D01*
X20440953Y-166878000D01*
X20682857Y-166757048D01*
X24069524Y-169297048D02*
X22860000Y-169297048D01*
X22860000Y-166757048D01*
X24553333Y-166757048D02*
X25399999Y-169297048D01*
X26246666Y-166757048D01*
X27093333Y-167966571D02*
X27940000Y-167966571D01*
X28302857Y-169297048D02*
X27093333Y-169297048D01*
X27093333Y-166757048D01*
X28302857Y-166757048D01*
X30842856Y-169297048D02*
X29996190Y-168087524D01*
X29391428Y-169297048D02*
X29391428Y-166757048D01*
X30359047Y-166757048D01*
X30600952Y-166878000D01*
X30721904Y-166998952D01*
X30842856Y-167240857D01*
X30842856Y-167603714D01*
X30721904Y-167845619D01*
X30600952Y-167966571D01*
X30359047Y-168087524D01*
X29391428Y-168087524D01*
X33745714Y-169176095D02*
X34108571Y-169297048D01*
X34713333Y-169297048D01*
X34955237Y-169176095D01*
X35076190Y-169055143D01*
X35197142Y-168813238D01*
X35197142Y-168571333D01*
X35076190Y-168329429D01*
X34955237Y-168208476D01*
X34713333Y-168087524D01*
X34229523Y-167966571D01*
X33987618Y-167845619D01*
X33866666Y-167724667D01*
X33745714Y-167482762D01*
X33745714Y-167240857D01*
X33866666Y-166998952D01*
X33987618Y-166878000D01*
X34229523Y-166757048D01*
X34834285Y-166757048D01*
X35197142Y-166878000D01*
X36043809Y-167603714D02*
X36648571Y-169297048D01*
X37253333Y-167603714D02*
X36648571Y-169297048D01*
X36406666Y-169901810D01*
X36285714Y-170022762D01*
X36043809Y-170143714D01*
X38100000Y-169176095D02*
X38341904Y-169297048D01*
X38825714Y-169297048D01*
X39067619Y-169176095D01*
X39188571Y-168934190D01*
X39188571Y-168813238D01*
X39067619Y-168571333D01*
X38825714Y-168450381D01*
X38462857Y-168450381D01*
X38220952Y-168329429D01*
X38100000Y-168087524D01*
X38100000Y-167966571D01*
X38220952Y-167724667D01*
X38462857Y-167603714D01*
X38825714Y-167603714D01*
X39067619Y-167724667D01*
X39914285Y-167603714D02*
X40881904Y-167603714D01*
X40277142Y-166757048D02*
X40277142Y-168934190D01*
X40398094Y-169176095D01*
X40639999Y-169297048D01*
X40881904Y-169297048D01*
X42696190Y-169176095D02*
X42454285Y-169297048D01*
X41970476Y-169297048D01*
X41728571Y-169176095D01*
X41607619Y-168934190D01*
X41607619Y-167966571D01*
X41728571Y-167724667D01*
X41970476Y-167603714D01*
X42454285Y-167603714D01*
X42696190Y-167724667D01*
X42817142Y-167966571D01*
X42817142Y-168208476D01*
X41607619Y-168450381D01*
X43905714Y-169297048D02*
X43905714Y-167603714D01*
X43905714Y-167845619D02*
X44026666Y-167724667D01*
X44268571Y-167603714D01*
X44631428Y-167603714D01*
X44873333Y-167724667D01*
X44994285Y-167966571D01*
X44994285Y-169297048D01*
X44994285Y-167966571D02*
X45115238Y-167724667D01*
X45357142Y-167603714D01*
X45720000Y-167603714D01*
X45961904Y-167724667D01*
X46082857Y-167966571D01*
X46082857Y-169297048D01*
X15844762Y-177425048D02*
X15844762Y-174885048D01*
X16812381Y-174885048D01*
X17054286Y-175006000D01*
X17175238Y-175126952D01*
X17296190Y-175368857D01*
X17296190Y-175731714D01*
X17175238Y-175973619D01*
X17054286Y-176094571D01*
X16812381Y-176215524D01*
X15844762Y-176215524D01*
X20199048Y-174764095D02*
X18021905Y-178029810D01*
X21045714Y-177425048D02*
X21045714Y-174885048D01*
X22497142Y-177425048D01*
X22497142Y-174885048D01*
X25641904Y-176094571D02*
X26488571Y-176094571D01*
X26851428Y-177425048D02*
X25641904Y-177425048D01*
X25641904Y-174885048D01*
X26851428Y-174885048D01*
X27577142Y-174885048D02*
X28423808Y-177425048D01*
X29270475Y-174885048D01*
X30117142Y-176457429D02*
X32052380Y-176457429D01*
X33140952Y-176699333D02*
X34350475Y-176699333D01*
X32899047Y-177425048D02*
X33745713Y-174885048D01*
X34592380Y-177425048D01*
X36527618Y-175731714D02*
X36527618Y-177425048D01*
X35439047Y-175731714D02*
X35439047Y-177062190D01*
X35559999Y-177304095D01*
X35801904Y-177425048D01*
X36164761Y-177425048D01*
X36406666Y-177304095D01*
X36527618Y-177183143D01*
X37495237Y-177425048D02*
X38825713Y-175731714D01*
X37495237Y-175731714D02*
X38825713Y-177425048D01*
X40639999Y-176094571D02*
X41002856Y-176215524D01*
X41123808Y-176336476D01*
X41244760Y-176578381D01*
X41244760Y-176941238D01*
X41123808Y-177183143D01*
X41002856Y-177304095D01*
X40760951Y-177425048D01*
X39793332Y-177425048D01*
X39793332Y-174885048D01*
X40639999Y-174885048D01*
X40881903Y-175006000D01*
X41002856Y-175126952D01*
X41123808Y-175368857D01*
X41123808Y-175610762D01*
X41002856Y-175852667D01*
X40881903Y-175973619D01*
X40639999Y-176094571D01*
X39793332Y-176094571D01*
X45719998Y-177425048D02*
X44873332Y-176215524D01*
X44268570Y-177425048D02*
X44268570Y-174885048D01*
X45236189Y-174885048D01*
X45478094Y-175006000D01*
X45599046Y-175126952D01*
X45719998Y-175368857D01*
X45719998Y-175731714D01*
X45599046Y-175973619D01*
X45478094Y-176094571D01*
X45236189Y-176215524D01*
X44268570Y-176215524D01*
X47776189Y-177304095D02*
X47534284Y-177425048D01*
X47050475Y-177425048D01*
X46808570Y-177304095D01*
X46687618Y-177062190D01*
X46687618Y-176094571D01*
X46808570Y-175852667D01*
X47050475Y-175731714D01*
X47534284Y-175731714D01*
X47776189Y-175852667D01*
X47897141Y-176094571D01*
X47897141Y-176336476D01*
X46687618Y-176578381D01*
X48743808Y-175731714D02*
X49348570Y-177425048D01*
X49953332Y-175731714D01*
X53702856Y-176094571D02*
X54065713Y-176215524D01*
X54186665Y-176336476D01*
X54307617Y-176578381D01*
X54307617Y-176941238D01*
X54186665Y-177183143D01*
X54065713Y-177304095D01*
X53823808Y-177425048D01*
X52856189Y-177425048D01*
X52856189Y-174885048D01*
X53702856Y-174885048D01*
X53944760Y-175006000D01*
X54065713Y-175126952D01*
X54186665Y-175368857D01*
X54186665Y-175610762D01*
X54065713Y-175852667D01*
X53944760Y-175973619D01*
X53702856Y-176094571D01*
X52856189Y-176094571D01*
X16933333Y-179795714D02*
X16933333Y-181489048D01*
X16328571Y-178828095D02*
X15723810Y-180642381D01*
X17296190Y-180642381D01*
X21408572Y-181489048D02*
X20199048Y-181489048D01*
X20199048Y-178949048D01*
X23343809Y-181489048D02*
X23343809Y-180158571D01*
X23222857Y-179916667D01*
X22980952Y-179795714D01*
X22497143Y-179795714D01*
X22255238Y-179916667D01*
X23343809Y-181368095D02*
X23101905Y-181489048D01*
X22497143Y-181489048D01*
X22255238Y-181368095D01*
X22134286Y-181126190D01*
X22134286Y-180884286D01*
X22255238Y-180642381D01*
X22497143Y-180521429D01*
X23101905Y-180521429D01*
X23343809Y-180400476D01*
X24311428Y-179795714D02*
X24916190Y-181489048D01*
X25520952Y-179795714D02*
X24916190Y-181489048D01*
X24674285Y-182093810D01*
X24553333Y-182214762D01*
X24311428Y-182335714D01*
X27456190Y-181368095D02*
X27214285Y-181489048D01*
X26730476Y-181489048D01*
X26488571Y-181368095D01*
X26367619Y-181126190D01*
X26367619Y-180158571D01*
X26488571Y-179916667D01*
X26730476Y-179795714D01*
X27214285Y-179795714D01*
X27456190Y-179916667D01*
X27577142Y-180158571D01*
X27577142Y-180400476D01*
X26367619Y-180642381D01*
X28665714Y-181489048D02*
X28665714Y-179795714D01*
X28665714Y-180279524D02*
X28786666Y-180037619D01*
X28907619Y-179916667D01*
X29149523Y-179795714D01*
X29391428Y-179795714D01*
X33020000Y-180158571D02*
X32173333Y-180158571D01*
X32173333Y-181489048D02*
X32173333Y-178949048D01*
X33382857Y-178949048D01*
X35801904Y-181489048D02*
X34955238Y-180279524D01*
X34350476Y-181489048D02*
X34350476Y-178949048D01*
X35318095Y-178949048D01*
X35560000Y-179070000D01*
X35680952Y-179190952D01*
X35801904Y-179432857D01*
X35801904Y-179795714D01*
X35680952Y-180037619D01*
X35560000Y-180158571D01*
X35318095Y-180279524D01*
X34350476Y-180279524D01*
X36890476Y-180521429D02*
X38825714Y-180521429D01*
X41123809Y-179795714D02*
X41123809Y-181489048D01*
X40519047Y-178828095D02*
X39914286Y-180642381D01*
X41486666Y-180642381D01*
X16691429Y-184222571D02*
X15844762Y-184222571D01*
X15844762Y-185553048D02*
X15844762Y-183013048D01*
X17054286Y-183013048D01*
X18021905Y-185553048D02*
X18021905Y-183859714D01*
X18021905Y-183013048D02*
X17900953Y-183134000D01*
X18021905Y-183254952D01*
X18142857Y-183134000D01*
X18021905Y-183013048D01*
X18021905Y-183254952D01*
X19231429Y-183859714D02*
X19231429Y-185553048D01*
X19231429Y-184101619D02*
X19352381Y-183980667D01*
X19594286Y-183859714D01*
X19957143Y-183859714D01*
X20199048Y-183980667D01*
X20320000Y-184222571D01*
X20320000Y-185553048D01*
X22618095Y-185553048D02*
X22618095Y-184222571D01*
X22497143Y-183980667D01*
X22255238Y-183859714D01*
X21771429Y-183859714D01*
X21529524Y-183980667D01*
X22618095Y-185432095D02*
X22376191Y-185553048D01*
X21771429Y-185553048D01*
X21529524Y-185432095D01*
X21408572Y-185190190D01*
X21408572Y-184948286D01*
X21529524Y-184706381D01*
X21771429Y-184585429D01*
X22376191Y-184585429D01*
X22618095Y-184464476D01*
X24190476Y-185553048D02*
X23948571Y-185432095D01*
X23827619Y-185190190D01*
X23827619Y-183013048D01*
X26730476Y-183859714D02*
X27698095Y-183859714D01*
X27093333Y-183013048D02*
X27093333Y-185190190D01*
X27214285Y-185432095D01*
X27456190Y-185553048D01*
X27698095Y-185553048D01*
X28544762Y-185553048D02*
X28544762Y-183013048D01*
X29633333Y-185553048D02*
X29633333Y-184222571D01*
X29512381Y-183980667D01*
X29270476Y-183859714D01*
X28907619Y-183859714D01*
X28665714Y-183980667D01*
X28544762Y-184101619D01*
X30842857Y-185553048D02*
X30842857Y-183859714D01*
X30842857Y-183013048D02*
X30721905Y-183134000D01*
X30842857Y-183254952D01*
X30963809Y-183134000D01*
X30842857Y-183013048D01*
X30842857Y-183254952D01*
X33140952Y-185432095D02*
X32899048Y-185553048D01*
X32415238Y-185553048D01*
X32173333Y-185432095D01*
X32052381Y-185311143D01*
X31931429Y-185069238D01*
X31931429Y-184343524D01*
X32052381Y-184101619D01*
X32173333Y-183980667D01*
X32415238Y-183859714D01*
X32899048Y-183859714D01*
X33140952Y-183980667D01*
X34229524Y-185553048D02*
X34229524Y-183013048D01*
X34471429Y-184585429D02*
X35197143Y-185553048D01*
X35197143Y-183859714D02*
X34229524Y-184827333D01*
X36285714Y-183859714D02*
X36285714Y-185553048D01*
X36285714Y-184101619D02*
X36406666Y-183980667D01*
X36648571Y-183859714D01*
X37011428Y-183859714D01*
X37253333Y-183980667D01*
X37374285Y-184222571D01*
X37374285Y-185553048D01*
X39551428Y-185432095D02*
X39309523Y-185553048D01*
X38825714Y-185553048D01*
X38583809Y-185432095D01*
X38462857Y-185190190D01*
X38462857Y-184222571D01*
X38583809Y-183980667D01*
X38825714Y-183859714D01*
X39309523Y-183859714D01*
X39551428Y-183980667D01*
X39672380Y-184222571D01*
X39672380Y-184464476D01*
X38462857Y-184706381D01*
X40640000Y-185432095D02*
X40881904Y-185553048D01*
X41365714Y-185553048D01*
X41607619Y-185432095D01*
X41728571Y-185190190D01*
X41728571Y-185069238D01*
X41607619Y-184827333D01*
X41365714Y-184706381D01*
X41002857Y-184706381D01*
X40760952Y-184585429D01*
X40640000Y-184343524D01*
X40640000Y-184222571D01*
X40760952Y-183980667D01*
X41002857Y-183859714D01*
X41365714Y-183859714D01*
X41607619Y-183980667D01*
X42696190Y-185432095D02*
X42938094Y-185553048D01*
X43421904Y-185553048D01*
X43663809Y-185432095D01*
X43784761Y-185190190D01*
X43784761Y-185069238D01*
X43663809Y-184827333D01*
X43421904Y-184706381D01*
X43059047Y-184706381D01*
X42817142Y-184585429D01*
X42696190Y-184343524D01*
X42696190Y-184222571D01*
X42817142Y-183980667D01*
X43059047Y-183859714D01*
X43421904Y-183859714D01*
X43663809Y-183980667D01*
X47292379Y-183013048D02*
X47534284Y-183013048D01*
X47776189Y-183134000D01*
X47897141Y-183254952D01*
X48018094Y-183496857D01*
X48139046Y-183980667D01*
X48139046Y-184585429D01*
X48018094Y-185069238D01*
X47897141Y-185311143D01*
X47776189Y-185432095D01*
X47534284Y-185553048D01*
X47292379Y-185553048D01*
X47050475Y-185432095D01*
X46929522Y-185311143D01*
X46808570Y-185069238D01*
X46687618Y-184585429D01*
X46687618Y-183980667D01*
X46808570Y-183496857D01*
X46929522Y-183254952D01*
X47050475Y-183134000D01*
X47292379Y-183013048D01*
X49227618Y-185311143D02*
X49348570Y-185432095D01*
X49227618Y-185553048D01*
X49106666Y-185432095D01*
X49227618Y-185311143D01*
X49227618Y-185553048D01*
X50920951Y-183013048D02*
X51162856Y-183013048D01*
X51404761Y-183134000D01*
X51525713Y-183254952D01*
X51646666Y-183496857D01*
X51767618Y-183980667D01*
X51767618Y-184585429D01*
X51646666Y-185069238D01*
X51525713Y-185311143D01*
X51404761Y-185432095D01*
X51162856Y-185553048D01*
X50920951Y-185553048D01*
X50679047Y-185432095D01*
X50558094Y-185311143D01*
X50437142Y-185069238D01*
X50316190Y-184585429D01*
X50316190Y-183980667D01*
X50437142Y-183496857D01*
X50558094Y-183254952D01*
X50679047Y-183134000D01*
X50920951Y-183013048D01*
X53944761Y-183013048D02*
X53460952Y-183013048D01*
X53219047Y-183134000D01*
X53098095Y-183254952D01*
X52856190Y-183617810D01*
X52735238Y-184101619D01*
X52735238Y-185069238D01*
X52856190Y-185311143D01*
X52977142Y-185432095D01*
X53219047Y-185553048D01*
X53702857Y-185553048D01*
X53944761Y-185432095D01*
X54065714Y-185311143D01*
X54186666Y-185069238D01*
X54186666Y-184464476D01*
X54065714Y-184222571D01*
X53944761Y-184101619D01*
X53702857Y-183980667D01*
X53219047Y-183980667D01*
X52977142Y-184101619D01*
X52856190Y-184222571D01*
X52735238Y-184464476D01*
X55033333Y-183013048D02*
X56605714Y-183013048D01*
X55759047Y-183980667D01*
X56121905Y-183980667D01*
X56363809Y-184101619D01*
X56484762Y-184222571D01*
X56605714Y-184464476D01*
X56605714Y-185069238D01*
X56484762Y-185311143D01*
X56363809Y-185432095D01*
X56121905Y-185553048D01*
X55396190Y-185553048D01*
X55154286Y-185432095D01*
X55033333Y-185311143D01*
X17175238Y-189617048D02*
X15723810Y-189617048D01*
X16449524Y-189617048D02*
X16449524Y-187077048D01*
X16207619Y-187439905D01*
X15965714Y-187681810D01*
X15723810Y-187802762D01*
X20561905Y-189617048D02*
X20320000Y-189496095D01*
X20199048Y-189375143D01*
X20078096Y-189133238D01*
X20078096Y-188407524D01*
X20199048Y-188165619D01*
X20320000Y-188044667D01*
X20561905Y-187923714D01*
X20924762Y-187923714D01*
X21166667Y-188044667D01*
X21287619Y-188165619D01*
X21408572Y-188407524D01*
X21408572Y-189133238D01*
X21287619Y-189375143D01*
X21166667Y-189496095D01*
X20924762Y-189617048D01*
X20561905Y-189617048D01*
X22255238Y-187923714D02*
X23585714Y-187923714D01*
X22255238Y-189617048D01*
X23585714Y-189617048D01*
X27577142Y-189496095D02*
X27335238Y-189617048D01*
X26851428Y-189617048D01*
X26609523Y-189496095D01*
X26488571Y-189375143D01*
X26367619Y-189133238D01*
X26367619Y-188407524D01*
X26488571Y-188165619D01*
X26609523Y-188044667D01*
X26851428Y-187923714D01*
X27335238Y-187923714D01*
X27577142Y-188044667D01*
X29028571Y-189617048D02*
X28786666Y-189496095D01*
X28665714Y-189375143D01*
X28544762Y-189133238D01*
X28544762Y-188407524D01*
X28665714Y-188165619D01*
X28786666Y-188044667D01*
X29028571Y-187923714D01*
X29391428Y-187923714D01*
X29633333Y-188044667D01*
X29754285Y-188165619D01*
X29875238Y-188407524D01*
X29875238Y-189133238D01*
X29754285Y-189375143D01*
X29633333Y-189496095D01*
X29391428Y-189617048D01*
X29028571Y-189617048D01*
X30963809Y-187923714D02*
X30963809Y-190463714D01*
X30963809Y-188044667D02*
X31205714Y-187923714D01*
X31689523Y-187923714D01*
X31931428Y-188044667D01*
X32052380Y-188165619D01*
X32173333Y-188407524D01*
X32173333Y-189133238D01*
X32052380Y-189375143D01*
X31931428Y-189496095D01*
X31689523Y-189617048D01*
X31205714Y-189617048D01*
X30963809Y-189496095D01*
X33261904Y-187923714D02*
X33261904Y-190463714D01*
X33261904Y-188044667D02*
X33503809Y-187923714D01*
X33987618Y-187923714D01*
X34229523Y-188044667D01*
X34350475Y-188165619D01*
X34471428Y-188407524D01*
X34471428Y-189133238D01*
X34350475Y-189375143D01*
X34229523Y-189496095D01*
X33987618Y-189617048D01*
X33503809Y-189617048D01*
X33261904Y-189496095D01*
X36527618Y-189496095D02*
X36285713Y-189617048D01*
X35801904Y-189617048D01*
X35559999Y-189496095D01*
X35439047Y-189254190D01*
X35439047Y-188286571D01*
X35559999Y-188044667D01*
X35801904Y-187923714D01*
X36285713Y-187923714D01*
X36527618Y-188044667D01*
X36648570Y-188286571D01*
X36648570Y-188528476D01*
X35439047Y-188770381D01*
X37737142Y-189617048D02*
X37737142Y-187923714D01*
X37737142Y-188407524D02*
X37858094Y-188165619D01*
X37979047Y-188044667D01*
X38220951Y-187923714D01*
X38462856Y-187923714D01*
X15723810Y-193560095D02*
X16086667Y-193681048D01*
X16691429Y-193681048D01*
X16933333Y-193560095D01*
X17054286Y-193439143D01*
X17175238Y-193197238D01*
X17175238Y-192955333D01*
X17054286Y-192713429D01*
X16933333Y-192592476D01*
X16691429Y-192471524D01*
X16207619Y-192350571D01*
X15965714Y-192229619D01*
X15844762Y-192108667D01*
X15723810Y-191866762D01*
X15723810Y-191624857D01*
X15844762Y-191382952D01*
X15965714Y-191262000D01*
X16207619Y-191141048D01*
X16812381Y-191141048D01*
X17175238Y-191262000D01*
X18626667Y-193681048D02*
X18384762Y-193560095D01*
X18263810Y-193439143D01*
X18142858Y-193197238D01*
X18142858Y-192471524D01*
X18263810Y-192229619D01*
X18384762Y-192108667D01*
X18626667Y-191987714D01*
X18989524Y-191987714D01*
X19231429Y-192108667D01*
X19352381Y-192229619D01*
X19473334Y-192471524D01*
X19473334Y-193197238D01*
X19352381Y-193439143D01*
X19231429Y-193560095D01*
X18989524Y-193681048D01*
X18626667Y-193681048D01*
X20924762Y-193681048D02*
X20682857Y-193560095D01*
X20561905Y-193318190D01*
X20561905Y-191141048D01*
X22980952Y-193681048D02*
X22980952Y-191141048D01*
X22980952Y-193560095D02*
X22739048Y-193681048D01*
X22255238Y-193681048D01*
X22013333Y-193560095D01*
X21892381Y-193439143D01*
X21771429Y-193197238D01*
X21771429Y-192471524D01*
X21892381Y-192229619D01*
X22013333Y-192108667D01*
X22255238Y-191987714D01*
X22739048Y-191987714D01*
X22980952Y-192108667D01*
X25158095Y-193560095D02*
X24916190Y-193681048D01*
X24432381Y-193681048D01*
X24190476Y-193560095D01*
X24069524Y-193318190D01*
X24069524Y-192350571D01*
X24190476Y-192108667D01*
X24432381Y-191987714D01*
X24916190Y-191987714D01*
X25158095Y-192108667D01*
X25279047Y-192350571D01*
X25279047Y-192592476D01*
X24069524Y-192834381D01*
X26367619Y-193681048D02*
X26367619Y-191987714D01*
X26367619Y-192471524D02*
X26488571Y-192229619D01*
X26609524Y-192108667D01*
X26851428Y-191987714D01*
X27093333Y-191987714D01*
X27940000Y-193681048D02*
X27940000Y-191987714D01*
X27940000Y-192229619D02*
X28060952Y-192108667D01*
X28302857Y-191987714D01*
X28665714Y-191987714D01*
X28907619Y-192108667D01*
X29028571Y-192350571D01*
X29028571Y-193681048D01*
X29028571Y-192350571D02*
X29149524Y-192108667D01*
X29391428Y-191987714D01*
X29754286Y-191987714D01*
X29996190Y-192108667D01*
X30117143Y-192350571D01*
X30117143Y-193681048D01*
X32415238Y-193681048D02*
X32415238Y-192350571D01*
X32294286Y-192108667D01*
X32052381Y-191987714D01*
X31568572Y-191987714D01*
X31326667Y-192108667D01*
X32415238Y-193560095D02*
X32173334Y-193681048D01*
X31568572Y-193681048D01*
X31326667Y-193560095D01*
X31205715Y-193318190D01*
X31205715Y-193076286D01*
X31326667Y-192834381D01*
X31568572Y-192713429D01*
X32173334Y-192713429D01*
X32415238Y-192592476D01*
X33503810Y-193560095D02*
X33745714Y-193681048D01*
X34229524Y-193681048D01*
X34471429Y-193560095D01*
X34592381Y-193318190D01*
X34592381Y-193197238D01*
X34471429Y-192955333D01*
X34229524Y-192834381D01*
X33866667Y-192834381D01*
X33624762Y-192713429D01*
X33503810Y-192471524D01*
X33503810Y-192350571D01*
X33624762Y-192108667D01*
X33866667Y-191987714D01*
X34229524Y-191987714D01*
X34471429Y-192108667D01*
X35680952Y-193681048D02*
X35680952Y-191141048D01*
X35922857Y-192713429D02*
X36648571Y-193681048D01*
X36648571Y-191987714D02*
X35680952Y-192955333D01*
X39672380Y-193681048D02*
X39672380Y-191141048D01*
X39672380Y-192108667D02*
X39914285Y-191987714D01*
X40398094Y-191987714D01*
X40639999Y-192108667D01*
X40760951Y-192229619D01*
X40881904Y-192471524D01*
X40881904Y-193197238D01*
X40760951Y-193439143D01*
X40639999Y-193560095D01*
X40398094Y-193681048D01*
X39914285Y-193681048D01*
X39672380Y-193560095D01*
X42333332Y-193681048D02*
X42091427Y-193560095D01*
X41970475Y-193439143D01*
X41849523Y-193197238D01*
X41849523Y-192471524D01*
X41970475Y-192229619D01*
X42091427Y-192108667D01*
X42333332Y-191987714D01*
X42696189Y-191987714D01*
X42938094Y-192108667D01*
X43059046Y-192229619D01*
X43179999Y-192471524D01*
X43179999Y-193197238D01*
X43059046Y-193439143D01*
X42938094Y-193560095D01*
X42696189Y-193681048D01*
X42333332Y-193681048D01*
X43905713Y-191987714D02*
X44873332Y-191987714D01*
X44268570Y-191141048D02*
X44268570Y-193318190D01*
X44389522Y-193560095D01*
X44631427Y-193681048D01*
X44873332Y-193681048D01*
X45719999Y-193681048D02*
X45719999Y-191141048D01*
X46808570Y-193681048D02*
X46808570Y-192350571D01*
X46687618Y-192108667D01*
X46445713Y-191987714D01*
X46082856Y-191987714D01*
X45840951Y-192108667D01*
X45719999Y-192229619D01*
X49832380Y-193560095D02*
X50074284Y-193681048D01*
X50558094Y-193681048D01*
X50799999Y-193560095D01*
X50920951Y-193318190D01*
X50920951Y-193197238D01*
X50799999Y-192955333D01*
X50558094Y-192834381D01*
X50195237Y-192834381D01*
X49953332Y-192713429D01*
X49832380Y-192471524D01*
X49832380Y-192350571D01*
X49953332Y-192108667D01*
X50195237Y-191987714D01*
X50558094Y-191987714D01*
X50799999Y-192108667D01*
X52009522Y-193681048D02*
X52009522Y-191987714D01*
X52009522Y-191141048D02*
X51888570Y-191262000D01*
X52009522Y-191382952D01*
X52130474Y-191262000D01*
X52009522Y-191141048D01*
X52009522Y-191382952D01*
X54307617Y-193681048D02*
X54307617Y-191141048D01*
X54307617Y-193560095D02*
X54065713Y-193681048D01*
X53581903Y-193681048D01*
X53339998Y-193560095D01*
X53219046Y-193439143D01*
X53098094Y-193197238D01*
X53098094Y-192471524D01*
X53219046Y-192229619D01*
X53339998Y-192108667D01*
X53581903Y-191987714D01*
X54065713Y-191987714D01*
X54307617Y-192108667D01*
X56484760Y-193560095D02*
X56242855Y-193681048D01*
X55759046Y-193681048D01*
X55517141Y-193560095D01*
X55396189Y-193318190D01*
X55396189Y-192350571D01*
X55517141Y-192108667D01*
X55759046Y-191987714D01*
X56242855Y-191987714D01*
X56484760Y-192108667D01*
X56605712Y-192350571D01*
X56605712Y-192592476D01*
X55396189Y-192834381D01*
X57573332Y-193560095D02*
X57815236Y-193681048D01*
X58299046Y-193681048D01*
X58540951Y-193560095D01*
X58661903Y-193318190D01*
X58661903Y-193197238D01*
X58540951Y-192955333D01*
X58299046Y-192834381D01*
X57936189Y-192834381D01*
X57694284Y-192713429D01*
X57573332Y-192471524D01*
X57573332Y-192350571D01*
X57694284Y-192108667D01*
X57936189Y-191987714D01*
X58299046Y-191987714D01*
X58540951Y-192108667D01*
X62411426Y-194648667D02*
X62290474Y-194527714D01*
X62048569Y-194164857D01*
X61927617Y-193922952D01*
X61806664Y-193560095D01*
X61685712Y-192955333D01*
X61685712Y-192471524D01*
X61806664Y-191866762D01*
X61927617Y-191503905D01*
X62048569Y-191262000D01*
X62290474Y-190899143D01*
X62411426Y-190778190D01*
X64467616Y-191987714D02*
X64467616Y-194043905D01*
X64346664Y-194285810D01*
X64225712Y-194406762D01*
X63983807Y-194527714D01*
X63620950Y-194527714D01*
X63379045Y-194406762D01*
X64467616Y-193560095D02*
X64225712Y-193681048D01*
X63741902Y-193681048D01*
X63499997Y-193560095D01*
X63379045Y-193439143D01*
X63258093Y-193197238D01*
X63258093Y-192471524D01*
X63379045Y-192229619D01*
X63499997Y-192108667D01*
X63741902Y-191987714D01*
X64225712Y-191987714D01*
X64467616Y-192108667D01*
X65677140Y-193681048D02*
X65677140Y-191987714D01*
X65677140Y-192471524D02*
X65798092Y-192229619D01*
X65919045Y-192108667D01*
X66160949Y-191987714D01*
X66402854Y-191987714D01*
X68217140Y-193560095D02*
X67975235Y-193681048D01*
X67491426Y-193681048D01*
X67249521Y-193560095D01*
X67128569Y-193318190D01*
X67128569Y-192350571D01*
X67249521Y-192108667D01*
X67491426Y-191987714D01*
X67975235Y-191987714D01*
X68217140Y-192108667D01*
X68338092Y-192350571D01*
X68338092Y-192592476D01*
X67128569Y-192834381D01*
X70394283Y-193560095D02*
X70152378Y-193681048D01*
X69668569Y-193681048D01*
X69426664Y-193560095D01*
X69305712Y-193318190D01*
X69305712Y-192350571D01*
X69426664Y-192108667D01*
X69668569Y-191987714D01*
X70152378Y-191987714D01*
X70394283Y-192108667D01*
X70515235Y-192350571D01*
X70515235Y-192592476D01*
X69305712Y-192834381D01*
X71603807Y-191987714D02*
X71603807Y-193681048D01*
X71603807Y-192229619D02*
X71724759Y-192108667D01*
X71966664Y-191987714D01*
X72329521Y-191987714D01*
X72571426Y-192108667D01*
X72692378Y-192350571D01*
X72692378Y-193681048D01*
X73659997Y-194648667D02*
X73780950Y-194527714D01*
X74022854Y-194164857D01*
X74143807Y-193922952D01*
X74264759Y-193560095D01*
X74385711Y-192955333D01*
X74385711Y-192471524D01*
X74264759Y-191866762D01*
X74143807Y-191503905D01*
X74022854Y-191262000D01*
X73780950Y-190899143D01*
X73659997Y-190778190D01*
X15723810Y-197624095D02*
X16086667Y-197745048D01*
X16691429Y-197745048D01*
X16933333Y-197624095D01*
X17054286Y-197503143D01*
X17175238Y-197261238D01*
X17175238Y-197019333D01*
X17054286Y-196777429D01*
X16933333Y-196656476D01*
X16691429Y-196535524D01*
X16207619Y-196414571D01*
X15965714Y-196293619D01*
X15844762Y-196172667D01*
X15723810Y-195930762D01*
X15723810Y-195688857D01*
X15844762Y-195446952D01*
X15965714Y-195326000D01*
X16207619Y-195205048D01*
X16812381Y-195205048D01*
X17175238Y-195326000D01*
X18263810Y-197745048D02*
X18263810Y-196051714D01*
X18263810Y-195205048D02*
X18142858Y-195326000D01*
X18263810Y-195446952D01*
X18384762Y-195326000D01*
X18263810Y-195205048D01*
X18263810Y-195446952D01*
X19836191Y-197745048D02*
X19594286Y-197624095D01*
X19473334Y-197382190D01*
X19473334Y-195205048D01*
X20803810Y-197745048D02*
X20803810Y-195205048D01*
X21045715Y-196777429D02*
X21771429Y-197745048D01*
X21771429Y-196051714D02*
X20803810Y-197019333D01*
X22739048Y-197624095D02*
X22980952Y-197745048D01*
X23464762Y-197745048D01*
X23706667Y-197624095D01*
X23827619Y-197382190D01*
X23827619Y-197261238D01*
X23706667Y-197019333D01*
X23464762Y-196898381D01*
X23101905Y-196898381D01*
X22860000Y-196777429D01*
X22739048Y-196535524D01*
X22739048Y-196414571D01*
X22860000Y-196172667D01*
X23101905Y-196051714D01*
X23464762Y-196051714D01*
X23706667Y-196172667D01*
X26004761Y-197624095D02*
X25762857Y-197745048D01*
X25279047Y-197745048D01*
X25037142Y-197624095D01*
X24916190Y-197503143D01*
X24795238Y-197261238D01*
X24795238Y-196535524D01*
X24916190Y-196293619D01*
X25037142Y-196172667D01*
X25279047Y-196051714D01*
X25762857Y-196051714D01*
X26004761Y-196172667D01*
X27093333Y-197745048D02*
X27093333Y-196051714D01*
X27093333Y-196535524D02*
X27214285Y-196293619D01*
X27335238Y-196172667D01*
X27577142Y-196051714D01*
X27819047Y-196051714D01*
X29633333Y-197624095D02*
X29391428Y-197745048D01*
X28907619Y-197745048D01*
X28665714Y-197624095D01*
X28544762Y-197382190D01*
X28544762Y-196414571D01*
X28665714Y-196172667D01*
X28907619Y-196051714D01*
X29391428Y-196051714D01*
X29633333Y-196172667D01*
X29754285Y-196414571D01*
X29754285Y-196656476D01*
X28544762Y-196898381D01*
X31810476Y-197624095D02*
X31568571Y-197745048D01*
X31084762Y-197745048D01*
X30842857Y-197624095D01*
X30721905Y-197382190D01*
X30721905Y-196414571D01*
X30842857Y-196172667D01*
X31084762Y-196051714D01*
X31568571Y-196051714D01*
X31810476Y-196172667D01*
X31931428Y-196414571D01*
X31931428Y-196656476D01*
X30721905Y-196898381D01*
X33020000Y-196051714D02*
X33020000Y-197745048D01*
X33020000Y-196293619D02*
X33140952Y-196172667D01*
X33382857Y-196051714D01*
X33745714Y-196051714D01*
X33987619Y-196172667D01*
X34108571Y-196414571D01*
X34108571Y-197745048D01*
X37616190Y-197745048D02*
X37374285Y-197624095D01*
X37253333Y-197382190D01*
X37253333Y-195205048D01*
X39551428Y-197624095D02*
X39309523Y-197745048D01*
X38825714Y-197745048D01*
X38583809Y-197624095D01*
X38462857Y-197382190D01*
X38462857Y-196414571D01*
X38583809Y-196172667D01*
X38825714Y-196051714D01*
X39309523Y-196051714D01*
X39551428Y-196172667D01*
X39672380Y-196414571D01*
X39672380Y-196656476D01*
X38462857Y-196898381D01*
X41849523Y-196051714D02*
X41849523Y-198107905D01*
X41728571Y-198349810D01*
X41607619Y-198470762D01*
X41365714Y-198591714D01*
X41002857Y-198591714D01*
X40760952Y-198470762D01*
X41849523Y-197624095D02*
X41607619Y-197745048D01*
X41123809Y-197745048D01*
X40881904Y-197624095D01*
X40760952Y-197503143D01*
X40640000Y-197261238D01*
X40640000Y-196535524D01*
X40760952Y-196293619D01*
X40881904Y-196172667D01*
X41123809Y-196051714D01*
X41607619Y-196051714D01*
X41849523Y-196172667D01*
X44026666Y-197624095D02*
X43784761Y-197745048D01*
X43300952Y-197745048D01*
X43059047Y-197624095D01*
X42938095Y-197382190D01*
X42938095Y-196414571D01*
X43059047Y-196172667D01*
X43300952Y-196051714D01*
X43784761Y-196051714D01*
X44026666Y-196172667D01*
X44147618Y-196414571D01*
X44147618Y-196656476D01*
X42938095Y-196898381D01*
X45236190Y-196051714D02*
X45236190Y-197745048D01*
X45236190Y-196293619D02*
X45357142Y-196172667D01*
X45599047Y-196051714D01*
X45961904Y-196051714D01*
X46203809Y-196172667D01*
X46324761Y-196414571D01*
X46324761Y-197745048D01*
X48622856Y-197745048D02*
X48622856Y-195205048D01*
X48622856Y-197624095D02*
X48380952Y-197745048D01*
X47897142Y-197745048D01*
X47655237Y-197624095D01*
X47534285Y-197503143D01*
X47413333Y-197261238D01*
X47413333Y-196535524D01*
X47534285Y-196293619D01*
X47655237Y-196172667D01*
X47897142Y-196051714D01*
X48380952Y-196051714D01*
X48622856Y-196172667D01*
X51404761Y-196051714D02*
X52372380Y-196051714D01*
X51767618Y-195205048D02*
X51767618Y-197382190D01*
X51888570Y-197624095D01*
X52130475Y-197745048D01*
X52372380Y-197745048D01*
X53581904Y-197745048D02*
X53339999Y-197624095D01*
X53219047Y-197503143D01*
X53098095Y-197261238D01*
X53098095Y-196535524D01*
X53219047Y-196293619D01*
X53339999Y-196172667D01*
X53581904Y-196051714D01*
X53944761Y-196051714D01*
X54186666Y-196172667D01*
X54307618Y-196293619D01*
X54428571Y-196535524D01*
X54428571Y-197261238D01*
X54307618Y-197503143D01*
X54186666Y-197624095D01*
X53944761Y-197745048D01*
X53581904Y-197745048D01*
X55517142Y-196051714D02*
X55517142Y-198591714D01*
X55517142Y-196172667D02*
X55759047Y-196051714D01*
X56242856Y-196051714D01*
X56484761Y-196172667D01*
X56605713Y-196293619D01*
X56726666Y-196535524D01*
X56726666Y-197261238D01*
X56605713Y-197503143D01*
X56484761Y-197624095D01*
X56242856Y-197745048D01*
X55759047Y-197745048D01*
X55517142Y-197624095D01*
X60113332Y-197745048D02*
X59871427Y-197624095D01*
X59750475Y-197503143D01*
X59629523Y-197261238D01*
X59629523Y-196535524D01*
X59750475Y-196293619D01*
X59871427Y-196172667D01*
X60113332Y-196051714D01*
X60476189Y-196051714D01*
X60718094Y-196172667D01*
X60839046Y-196293619D01*
X60959999Y-196535524D01*
X60959999Y-197261238D01*
X60839046Y-197503143D01*
X60718094Y-197624095D01*
X60476189Y-197745048D01*
X60113332Y-197745048D01*
X62048570Y-196051714D02*
X62048570Y-197745048D01*
X62048570Y-196293619D02*
X62169522Y-196172667D01*
X62411427Y-196051714D01*
X62774284Y-196051714D01*
X63016189Y-196172667D01*
X63137141Y-196414571D01*
X63137141Y-197745048D01*
X64709522Y-197745048D02*
X64467617Y-197624095D01*
X64346665Y-197382190D01*
X64346665Y-195205048D01*
X65435236Y-196051714D02*
X66039998Y-197745048D01*
X66644760Y-196051714D02*
X66039998Y-197745048D01*
X65798093Y-198349810D01*
X65677141Y-198470762D01*
X65435236Y-198591714D01*
X70273331Y-198712667D02*
X70152379Y-198591714D01*
X69910474Y-198228857D01*
X69789522Y-197986952D01*
X69668569Y-197624095D01*
X69547617Y-197019333D01*
X69547617Y-196535524D01*
X69668569Y-195930762D01*
X69789522Y-195567905D01*
X69910474Y-195326000D01*
X70152379Y-194963143D01*
X70273331Y-194842190D01*
X70999045Y-196051714D02*
X71482855Y-197745048D01*
X71966664Y-196535524D01*
X72450474Y-197745048D01*
X72934283Y-196051714D01*
X73901902Y-197745048D02*
X73901902Y-195205048D01*
X74990473Y-197745048D02*
X74990473Y-196414571D01*
X74869521Y-196172667D01*
X74627616Y-196051714D01*
X74264759Y-196051714D01*
X74022854Y-196172667D01*
X73901902Y-196293619D01*
X76199997Y-197745048D02*
X76199997Y-196051714D01*
X76199997Y-195205048D02*
X76079045Y-195326000D01*
X76199997Y-195446952D01*
X76320949Y-195326000D01*
X76199997Y-195205048D01*
X76199997Y-195446952D01*
X77046664Y-196051714D02*
X78014283Y-196051714D01*
X77409521Y-195205048D02*
X77409521Y-197382190D01*
X77530473Y-197624095D01*
X77772378Y-197745048D01*
X78014283Y-197745048D01*
X79828569Y-197624095D02*
X79586664Y-197745048D01*
X79102855Y-197745048D01*
X78860950Y-197624095D01*
X78739998Y-197382190D01*
X78739998Y-196414571D01*
X78860950Y-196172667D01*
X79102855Y-196051714D01*
X79586664Y-196051714D01*
X79828569Y-196172667D01*
X79949521Y-196414571D01*
X79949521Y-196656476D01*
X78739998Y-196898381D01*
X80796188Y-198712667D02*
X80917141Y-198591714D01*
X81159045Y-198228857D01*
X81279998Y-197986952D01*
X81400950Y-197624095D01*
X81521902Y-197019333D01*
X81521902Y-196535524D01*
X81400950Y-195930762D01*
X81279998Y-195567905D01*
X81159045Y-195326000D01*
X80917141Y-194963143D01*
X80796188Y-194842190D01*
D14*
X279400000Y-160020000D02*
X12700000Y-160020000D01*
X279400000Y-36830000D02*
X279400000Y-160020000D01*
X12700000Y-36830000D02*
X279400000Y-36830000D01*
X12700000Y-160020000D02*
X12700000Y-36830000D01*
M02*
