G04 #@! TF.FileFunction,Copper,L4,Bot,Signal*
%FSLAX46Y46*%
G04 Gerber Fmt 4.6, Leading zero omitted, Abs format (unit mm)*
G04 Created by KiCad (PCBNEW 4.0.7+dfsg1-1) date Mon Jul 30 16:18:00 2018*
%MOMM*%
%LPD*%
G01*
G04 APERTURE LIST*
%ADD10C,0.100000*%
%ADD11C,0.150000*%
%ADD12C,1.397000*%
%ADD13C,1.524000*%
%ADD14C,4.500000*%
%ADD15C,1.000000*%
%ADD16C,1.651000*%
%ADD17C,1.778000*%
%ADD18C,1.800000*%
%ADD19C,3.000000*%
%ADD20C,2.000000*%
%ADD21C,7.620000*%
%ADD22C,3.800000*%
%ADD23C,0.635000*%
%ADD24C,0.508000*%
%ADD25C,0.889000*%
%ADD26C,2.540000*%
%ADD27C,1.016000*%
%ADD28C,0.508000*%
%ADD29C,0.381000*%
G04 APERTURE END LIST*
D10*
D11*
X279400000Y-160020000D02*
X12700000Y-160020000D01*
X279400000Y-36830000D02*
X279400000Y-160020000D01*
X12700000Y-36830000D02*
X279400000Y-36830000D01*
X12700000Y-160020000D02*
X12700000Y-36830000D01*
D12*
X131953000Y-111760000D03*
X131953000Y-109220000D03*
X131953000Y-106680000D03*
X131953000Y-104140000D03*
X131953000Y-101600000D03*
X131953000Y-99060000D03*
X131953000Y-96520000D03*
X131953000Y-93980000D03*
X131953000Y-91440000D03*
X131953000Y-88900000D03*
X131953000Y-86360000D03*
X131953000Y-83820000D03*
X131953000Y-81280000D03*
X131953000Y-78740000D03*
X131953000Y-76200000D03*
X131953000Y-73660000D03*
X131953000Y-71120000D03*
X131953000Y-68580000D03*
X131953000Y-66040000D03*
X131953000Y-63500000D03*
X131953000Y-60960000D03*
X131953000Y-58420000D03*
X131953000Y-55880000D03*
X131953000Y-53340000D03*
X131953000Y-50800000D03*
X104013000Y-50800000D03*
X104013000Y-53340000D03*
X104013000Y-55880000D03*
X104013000Y-58420000D03*
X104013000Y-60960000D03*
X104013000Y-63500000D03*
X104013000Y-66040000D03*
X104013000Y-68580000D03*
X104013000Y-71120000D03*
X104013000Y-73660000D03*
X104013000Y-76200000D03*
X104013000Y-78740000D03*
X104013000Y-81280000D03*
X104013000Y-83820000D03*
X104013000Y-86360000D03*
X104013000Y-88900000D03*
X104013000Y-91440000D03*
X104013000Y-93980000D03*
X104013000Y-96520000D03*
X104013000Y-99060000D03*
X104013000Y-101600000D03*
X104013000Y-104140000D03*
X104013000Y-106680000D03*
X104013000Y-109220000D03*
X104013000Y-111760000D03*
X199263000Y-111760000D03*
X199263000Y-109220000D03*
X199263000Y-106680000D03*
X199263000Y-104140000D03*
X199263000Y-101600000D03*
X199263000Y-99060000D03*
X199263000Y-96520000D03*
X199263000Y-93980000D03*
X199263000Y-91440000D03*
X199263000Y-88900000D03*
X199263000Y-86360000D03*
X199263000Y-83820000D03*
X199263000Y-81280000D03*
X199263000Y-78740000D03*
X199263000Y-76200000D03*
X199263000Y-73660000D03*
X199263000Y-71120000D03*
X199263000Y-68580000D03*
X199263000Y-66040000D03*
X199263000Y-63500000D03*
X199263000Y-60960000D03*
X199263000Y-58420000D03*
X199263000Y-55880000D03*
X199263000Y-53340000D03*
X199263000Y-50800000D03*
X171323000Y-50800000D03*
X171323000Y-53340000D03*
X171323000Y-55880000D03*
X171323000Y-58420000D03*
X171323000Y-60960000D03*
X171323000Y-63500000D03*
X171323000Y-66040000D03*
X171323000Y-68580000D03*
X171323000Y-71120000D03*
X171323000Y-73660000D03*
X171323000Y-76200000D03*
X171323000Y-78740000D03*
X171323000Y-81280000D03*
X171323000Y-83820000D03*
X171323000Y-86360000D03*
X171323000Y-88900000D03*
X171323000Y-91440000D03*
X171323000Y-93980000D03*
X171323000Y-96520000D03*
X171323000Y-99060000D03*
X171323000Y-101600000D03*
X171323000Y-104140000D03*
X171323000Y-106680000D03*
X171323000Y-109220000D03*
X171323000Y-111760000D03*
D13*
X84455000Y-149860000D03*
X84455000Y-147320000D03*
X84455000Y-144780000D03*
X84455000Y-142240000D03*
X84455000Y-139700000D03*
X84455000Y-137160000D03*
X84455000Y-134620000D03*
X84455000Y-132080000D03*
X84455000Y-129540000D03*
X102235000Y-129540000D03*
X102235000Y-132080000D03*
X102235000Y-134620000D03*
X102235000Y-137160000D03*
X102235000Y-139700000D03*
X102235000Y-142240000D03*
X102235000Y-144780000D03*
X102235000Y-147320000D03*
X102235000Y-149860000D03*
D12*
X64643000Y-111760000D03*
X64643000Y-109220000D03*
X64643000Y-106680000D03*
X64643000Y-104140000D03*
X64643000Y-101600000D03*
X64643000Y-99060000D03*
X64643000Y-96520000D03*
X64643000Y-93980000D03*
X64643000Y-91440000D03*
X64643000Y-88900000D03*
X64643000Y-86360000D03*
X64643000Y-83820000D03*
X64643000Y-81280000D03*
X64643000Y-78740000D03*
X64643000Y-76200000D03*
X64643000Y-73660000D03*
X64643000Y-71120000D03*
X64643000Y-68580000D03*
X64643000Y-66040000D03*
X64643000Y-63500000D03*
X64643000Y-60960000D03*
X64643000Y-58420000D03*
X64643000Y-55880000D03*
X64643000Y-53340000D03*
X64643000Y-50800000D03*
X36703000Y-50800000D03*
X36703000Y-53340000D03*
X36703000Y-55880000D03*
X36703000Y-58420000D03*
X36703000Y-60960000D03*
X36703000Y-63500000D03*
X36703000Y-66040000D03*
X36703000Y-68580000D03*
X36703000Y-71120000D03*
X36703000Y-73660000D03*
X36703000Y-76200000D03*
X36703000Y-78740000D03*
X36703000Y-81280000D03*
X36703000Y-83820000D03*
X36703000Y-86360000D03*
X36703000Y-88900000D03*
X36703000Y-91440000D03*
X36703000Y-93980000D03*
X36703000Y-96520000D03*
X36703000Y-99060000D03*
X36703000Y-101600000D03*
X36703000Y-104140000D03*
X36703000Y-106680000D03*
X36703000Y-109220000D03*
X36703000Y-111760000D03*
X43180000Y-126365000D03*
X40640000Y-126365000D03*
X38100000Y-126365000D03*
X35560000Y-126365000D03*
X33020000Y-126365000D03*
X30480000Y-126365000D03*
X27940000Y-126365000D03*
X22860000Y-126365000D03*
X20320000Y-126365000D03*
X17780000Y-126365000D03*
X15240000Y-126365000D03*
X25400000Y-126365000D03*
X25400000Y-141605000D03*
X15240000Y-141605000D03*
X17780000Y-141605000D03*
X20320000Y-141605000D03*
X22860000Y-141605000D03*
X27940000Y-141605000D03*
X30480000Y-141605000D03*
X33020000Y-141605000D03*
X35560000Y-141605000D03*
X38100000Y-141605000D03*
X40640000Y-141605000D03*
X43180000Y-141605000D03*
X49403000Y-111760000D03*
X39243000Y-111760000D03*
X41783000Y-111760000D03*
X44323000Y-111760000D03*
X46863000Y-111760000D03*
X51943000Y-111760000D03*
X54483000Y-111760000D03*
X57023000Y-111760000D03*
X59563000Y-111760000D03*
X62103000Y-111760000D03*
X116713000Y-111760000D03*
X106553000Y-111760000D03*
X109093000Y-111760000D03*
X111633000Y-111760000D03*
X114173000Y-111760000D03*
X119253000Y-111760000D03*
X121793000Y-111760000D03*
X124333000Y-111760000D03*
X126873000Y-111760000D03*
X129413000Y-111760000D03*
X184023000Y-111760000D03*
X173863000Y-111760000D03*
X176403000Y-111760000D03*
X178943000Y-111760000D03*
X181483000Y-111760000D03*
X186563000Y-111760000D03*
X189103000Y-111760000D03*
X191643000Y-111760000D03*
X194183000Y-111760000D03*
X196723000Y-111760000D03*
X49403000Y-109220000D03*
X39243000Y-109220000D03*
X41783000Y-109220000D03*
X44323000Y-109220000D03*
X46863000Y-109220000D03*
X51943000Y-109220000D03*
X54483000Y-109220000D03*
X57023000Y-109220000D03*
X59563000Y-109220000D03*
X62103000Y-109220000D03*
X116713000Y-109220000D03*
X106553000Y-109220000D03*
X109093000Y-109220000D03*
X111633000Y-109220000D03*
X114173000Y-109220000D03*
X119253000Y-109220000D03*
X121793000Y-109220000D03*
X124333000Y-109220000D03*
X126873000Y-109220000D03*
X129413000Y-109220000D03*
X184023000Y-109220000D03*
X173863000Y-109220000D03*
X176403000Y-109220000D03*
X178943000Y-109220000D03*
X181483000Y-109220000D03*
X186563000Y-109220000D03*
X189103000Y-109220000D03*
X191643000Y-109220000D03*
X194183000Y-109220000D03*
X196723000Y-109220000D03*
D14*
X264970000Y-140335000D03*
X270970000Y-140335000D03*
X267970000Y-135635000D03*
D15*
X20340000Y-144145000D03*
X22840000Y-144145000D03*
X222250000Y-134600000D03*
X222250000Y-132100000D03*
X222250000Y-151150000D03*
X222250000Y-153650000D03*
D16*
X20320000Y-116840000D03*
X26670000Y-116840000D03*
X20320000Y-99695000D03*
X20320000Y-106045000D03*
D13*
X225298000Y-42418000D03*
X225298000Y-44958000D03*
X222758000Y-42418000D03*
X222758000Y-44958000D03*
X220218000Y-42418000D03*
X220218000Y-44958000D03*
X217678000Y-42418000D03*
X217678000Y-44958000D03*
X215138000Y-42418000D03*
X215138000Y-44958000D03*
X212598000Y-42418000D03*
X212598000Y-44958000D03*
X210058000Y-42418000D03*
X210058000Y-44958000D03*
X207518000Y-42418000D03*
X207518000Y-44958000D03*
X192278000Y-42418000D03*
X192278000Y-44958000D03*
X189738000Y-42418000D03*
X189738000Y-44958000D03*
X187198000Y-42418000D03*
X187198000Y-44958000D03*
X184658000Y-42418000D03*
X184658000Y-44958000D03*
X182118000Y-42418000D03*
X182118000Y-44958000D03*
X179578000Y-42418000D03*
X179578000Y-44958000D03*
X177038000Y-42418000D03*
X177038000Y-44958000D03*
X174498000Y-42418000D03*
X174498000Y-44958000D03*
X157988000Y-42418000D03*
X157988000Y-44958000D03*
X155448000Y-42418000D03*
X155448000Y-44958000D03*
X152908000Y-42418000D03*
X152908000Y-44958000D03*
X150368000Y-42418000D03*
X150368000Y-44958000D03*
X147828000Y-42418000D03*
X147828000Y-44958000D03*
X145288000Y-42418000D03*
X145288000Y-44958000D03*
X142748000Y-42418000D03*
X142748000Y-44958000D03*
X140208000Y-42418000D03*
X140208000Y-44958000D03*
X124968000Y-42418000D03*
X124968000Y-44958000D03*
X122428000Y-42418000D03*
X122428000Y-44958000D03*
X119888000Y-42418000D03*
X119888000Y-44958000D03*
X117348000Y-42418000D03*
X117348000Y-44958000D03*
X114808000Y-42418000D03*
X114808000Y-44958000D03*
X112268000Y-42418000D03*
X112268000Y-44958000D03*
X109728000Y-42418000D03*
X109728000Y-44958000D03*
X107188000Y-42418000D03*
X107188000Y-44958000D03*
X57658000Y-42418000D03*
X57658000Y-44958000D03*
X55118000Y-42418000D03*
X55118000Y-44958000D03*
X52578000Y-42418000D03*
X52578000Y-44958000D03*
X50038000Y-42418000D03*
X50038000Y-44958000D03*
X47498000Y-42418000D03*
X47498000Y-44958000D03*
X44958000Y-42418000D03*
X44958000Y-44958000D03*
X42418000Y-42418000D03*
X42418000Y-44958000D03*
X39878000Y-42418000D03*
X39878000Y-44958000D03*
X90678000Y-42418000D03*
X90678000Y-44958000D03*
X88138000Y-42418000D03*
X88138000Y-44958000D03*
X85598000Y-42418000D03*
X85598000Y-44958000D03*
X83058000Y-42418000D03*
X83058000Y-44958000D03*
X80518000Y-42418000D03*
X80518000Y-44958000D03*
X77978000Y-42418000D03*
X77978000Y-44958000D03*
X75438000Y-42418000D03*
X75438000Y-44958000D03*
X72898000Y-42418000D03*
X72898000Y-44958000D03*
D17*
X222250000Y-139700000D03*
X222250000Y-143510000D03*
X222250000Y-147320000D03*
D18*
X274320000Y-70485000D03*
X274320000Y-65485000D03*
D19*
X270510000Y-111440000D03*
X270510000Y-120940000D03*
X270510000Y-85547000D03*
X270510000Y-95047000D03*
D20*
X228092000Y-130010000D03*
X228092000Y-157010000D03*
D21*
X78359000Y-98425000D03*
X274066000Y-153924000D03*
X20828000Y-153924000D03*
X212979000Y-98425000D03*
X274066000Y-42926000D03*
X20828000Y-42926000D03*
D13*
X257522900Y-45720000D03*
D22*
X265772900Y-39370000D03*
X255612900Y-39370000D03*
D13*
X260062900Y-45720000D03*
X262602900Y-45720000D03*
X258812900Y-48260000D03*
X261352900Y-48260000D03*
X263892900Y-48260000D03*
X241616150Y-45720000D03*
D22*
X249866150Y-39370000D03*
X239706150Y-39370000D03*
D13*
X244156150Y-45720000D03*
X246696150Y-45720000D03*
X242906150Y-48260000D03*
X245446150Y-48260000D03*
X247986150Y-48260000D03*
D23*
X139065000Y-144780000D03*
X73025000Y-144780000D03*
X139065000Y-146050000D03*
X73025000Y-146050000D03*
X73025000Y-147320000D03*
X139065000Y-147320000D03*
X231140000Y-116840000D03*
X135890000Y-116840000D03*
X133985000Y-114300000D03*
X233680000Y-115570000D03*
D24*
X39243000Y-101600000D03*
D25*
X71628000Y-93980000D03*
X72898000Y-91440000D03*
X76708000Y-88900000D03*
X77978000Y-86372700D03*
X81788000Y-83820000D03*
X83058000Y-81280000D03*
X86868000Y-78740000D03*
X88138000Y-76200000D03*
X38608000Y-71120000D03*
X39878000Y-68580000D03*
X43688000Y-66040000D03*
X44958000Y-63500000D03*
X48768000Y-60960000D03*
X50038000Y-58420000D03*
X53848000Y-55880000D03*
X55118000Y-53340000D03*
X57658000Y-52070000D03*
X56388000Y-54610000D03*
X52578000Y-57150000D03*
X51308000Y-59740798D03*
X47498000Y-62230000D03*
X46228000Y-64719202D03*
X42418000Y-67310000D03*
X41148000Y-69850000D03*
X90678000Y-74930000D03*
X89408000Y-77470000D03*
X85598000Y-80010000D03*
X84328000Y-82550000D03*
X80518000Y-85090000D03*
X79248000Y-87630000D03*
X75438000Y-90170000D03*
X74168000Y-92710000D03*
D23*
X50165000Y-115570000D03*
X50165000Y-128905000D03*
X25400000Y-128905000D03*
X49403000Y-97904299D03*
X48895000Y-116840000D03*
X48895000Y-130175000D03*
X27940000Y-130175000D03*
X46863000Y-100330000D03*
X47625000Y-118110000D03*
X47625000Y-131445000D03*
X30480000Y-131445000D03*
D24*
X40627299Y-104152701D03*
D23*
X46355000Y-119380000D03*
X46355000Y-132715000D03*
X33020000Y-132715000D03*
D24*
X39751000Y-119380000D03*
D25*
X138938000Y-93980000D03*
X140208000Y-91440000D03*
X144018000Y-88900000D03*
X145288000Y-86360000D03*
X149098000Y-83820000D03*
X150368000Y-81280000D03*
X154178000Y-78740000D03*
X155448000Y-76200000D03*
X105918000Y-71120000D03*
X107188000Y-68580000D03*
X110998000Y-66040000D03*
X112268000Y-63500000D03*
X116078000Y-60960000D03*
X117348000Y-58420000D03*
X121158000Y-55880000D03*
X122428000Y-53340000D03*
X124968000Y-52070000D03*
X123698000Y-54610000D03*
X119888000Y-57150000D03*
X118618000Y-59690000D03*
X114808000Y-62230000D03*
X113538000Y-64770000D03*
X109728000Y-67310000D03*
X108458000Y-69850000D03*
X157988000Y-74930000D03*
X156718000Y-77470000D03*
X152908000Y-80010000D03*
X151638000Y-82550000D03*
X147828000Y-85090000D03*
X146558000Y-87630000D03*
X142748000Y-90170000D03*
X141478000Y-92710000D03*
X206248000Y-93980000D03*
X207518000Y-91440000D03*
X211328000Y-88900000D03*
X212598000Y-86360000D03*
X216408000Y-83820000D03*
X217678000Y-81280000D03*
X221488000Y-78740000D03*
X222758000Y-76200000D03*
X173228000Y-71120000D03*
X174498000Y-68580000D03*
X178308000Y-66040000D03*
X179578000Y-63500000D03*
X183388000Y-60960000D03*
X184658000Y-58420000D03*
X188468000Y-55880000D03*
X189738000Y-53340000D03*
X192227202Y-52070000D03*
X191008000Y-54610000D03*
X187198000Y-57150000D03*
X185928000Y-59690000D03*
X182118000Y-62230000D03*
X180848000Y-64770000D03*
X177038000Y-67310000D03*
X175768000Y-69850000D03*
X225298000Y-74930000D03*
X224028000Y-77470000D03*
X220218000Y-80010000D03*
X218948000Y-82550000D03*
X215138000Y-85090000D03*
X213868000Y-87630000D03*
X210058000Y-90170000D03*
X208788000Y-92710000D03*
D23*
X35560000Y-144145000D03*
X66675000Y-144145000D03*
X169418000Y-128270000D03*
X75565000Y-137160000D03*
X75565000Y-125095000D03*
X70485000Y-125095000D03*
X17780000Y-146685000D03*
X70485000Y-146685000D03*
X15240000Y-147955000D03*
X69215000Y-147955000D03*
D26*
X139065000Y-144780000D02*
X139065000Y-147320000D01*
X139065000Y-111760000D02*
X139065000Y-144780000D01*
X73025000Y-144780000D02*
X73025000Y-112522000D01*
X73025000Y-147320000D02*
X73025000Y-144780000D01*
X207645000Y-110363000D02*
X207645000Y-132715000D01*
X207645000Y-132715000D02*
X222250000Y-147320000D01*
X73025000Y-112522000D02*
X73025000Y-110871000D01*
X64643000Y-109220000D02*
X69723000Y-109220000D01*
X69723000Y-109220000D02*
X73025000Y-112522000D01*
X68834000Y-106680000D02*
X73025000Y-110871000D01*
X73025000Y-110871000D02*
X73025000Y-106680000D01*
X64643000Y-106680000D02*
X68834000Y-106680000D01*
X73025000Y-106680000D02*
X69850000Y-106680000D01*
X69850000Y-106680000D02*
X69850000Y-109220000D01*
X69850000Y-109220000D02*
X65913000Y-109220000D01*
X65913000Y-109220000D02*
X64643000Y-109220000D01*
X199263000Y-109220000D02*
X206502000Y-109220000D01*
X206502000Y-109220000D02*
X207645000Y-110363000D01*
X207645000Y-110363000D02*
X203962000Y-106680000D01*
X203962000Y-106680000D02*
X201295000Y-106680000D01*
X201295000Y-106680000D02*
X199263000Y-106680000D01*
X131953000Y-106680000D02*
X137160000Y-106680000D01*
X137160000Y-106680000D02*
X139065000Y-108585000D01*
X139065000Y-108585000D02*
X139065000Y-111760000D01*
X136525000Y-109220000D02*
X134493000Y-109220000D01*
X67818000Y-106680000D02*
X64643000Y-106680000D01*
X69088000Y-106680000D02*
X67818000Y-106680000D01*
X136525000Y-109220000D02*
X139065000Y-111760000D01*
X131953000Y-109220000D02*
X134493000Y-109220000D01*
X199263000Y-109220000D02*
X199263000Y-106680000D01*
X131953000Y-106680000D02*
X131953000Y-109220000D01*
X64643000Y-109220000D02*
X64643000Y-106680000D01*
X131953000Y-106680000D02*
X134493000Y-109220000D01*
D27*
X102235000Y-149860000D02*
X103555790Y-148539210D01*
X103555790Y-148539210D02*
X132381802Y-148539210D01*
X132381802Y-148539210D02*
X135254999Y-145666013D01*
X135254999Y-145666013D02*
X135255000Y-117475000D01*
X135255000Y-117475000D02*
X135890000Y-116840000D01*
X260062900Y-45720000D02*
X258589699Y-44246799D01*
X258589699Y-44246799D02*
X243760579Y-44246799D01*
X235585000Y-109905791D02*
X235585000Y-56515000D01*
X240909013Y-44246799D02*
X235585000Y-49570812D01*
X235585000Y-56515000D02*
X235585000Y-56007000D01*
X244156150Y-45720000D02*
X244156150Y-44642370D01*
X244156150Y-44642370D02*
X243760579Y-44246799D01*
X243760579Y-44246799D02*
X240909013Y-44246799D01*
X235585000Y-49570812D02*
X235585000Y-56515000D01*
X231140000Y-116840000D02*
X231140000Y-114350791D01*
X231140000Y-114350791D02*
X235585000Y-109905791D01*
X131216400Y-147269200D02*
X124460000Y-147269200D01*
X131826000Y-147269200D02*
X131216400Y-147269200D01*
X131216400Y-147269200D02*
X131876800Y-147269200D01*
X131876800Y-147269200D02*
X133985000Y-145161000D01*
X124460000Y-147269200D02*
X103428800Y-147269200D01*
X102235000Y-147320000D02*
X103312630Y-147320000D01*
X103428800Y-147269200D02*
X102235000Y-147269200D01*
X103312630Y-147320000D02*
X103363430Y-147269200D01*
X103363430Y-147269200D02*
X103428800Y-147269200D01*
X236855000Y-59867800D02*
X236855000Y-110566200D01*
X236855000Y-110566200D02*
X236855000Y-112395000D01*
X236855000Y-112395000D02*
X233680000Y-115570000D01*
X237794800Y-55911350D02*
X241300000Y-52406150D01*
X236855000Y-58928000D02*
X236855000Y-59867800D01*
X236855000Y-59867800D02*
X236855000Y-56851150D01*
X236855000Y-56851150D02*
X237794800Y-55911350D01*
X236804210Y-112445790D02*
X233680000Y-115570000D01*
X261352900Y-48260000D02*
X261352900Y-49035100D01*
X247478150Y-50292000D02*
X245446150Y-48260000D01*
X260096000Y-50292000D02*
X247478150Y-50292000D01*
X261352900Y-49035100D02*
X260096000Y-50292000D01*
X241300000Y-52406150D02*
X245446150Y-48260000D01*
X133985000Y-114300000D02*
X133985000Y-145161000D01*
D28*
X30480000Y-126365000D02*
X37973000Y-118872000D01*
X39243000Y-101600000D02*
X38087299Y-102755701D01*
X38087299Y-102755701D02*
X38087299Y-118757701D01*
X38087299Y-118757701D02*
X37973000Y-118872000D01*
D27*
X71628000Y-93980000D02*
X71628000Y-47117000D01*
X71628000Y-47117000D02*
X71628000Y-46228000D01*
D29*
X71628000Y-43688000D02*
X71628000Y-46228000D01*
D27*
X72898000Y-42418000D02*
X71628000Y-43688000D01*
X72898000Y-44958000D02*
X72898000Y-46228000D01*
X72898000Y-46228000D02*
X72898000Y-91440000D01*
X72898000Y-45773777D02*
X72898000Y-44958000D01*
X76708000Y-46228000D02*
X76708000Y-47498000D01*
X76708000Y-47498000D02*
X76708000Y-88900000D01*
D29*
X76708000Y-43688000D02*
X76708000Y-46228000D01*
D27*
X77978000Y-42418000D02*
X76708000Y-43688000D01*
X77978000Y-46228000D02*
X77978000Y-44958000D01*
X77978000Y-86372700D02*
X77978000Y-46228000D01*
X81788000Y-83820000D02*
X81788000Y-47117000D01*
X81788000Y-47117000D02*
X81788000Y-46228000D01*
D29*
X81788000Y-43688000D02*
X81788000Y-46228000D01*
D27*
X83058000Y-42418000D02*
X81788000Y-43688000D01*
X83058000Y-46228000D02*
X83058000Y-44958000D01*
X83058000Y-81280000D02*
X83058000Y-46228000D01*
X86868000Y-78740000D02*
X86868000Y-47117000D01*
X86868000Y-47117000D02*
X86868000Y-46101000D01*
D29*
X86868000Y-43688000D02*
X86868000Y-46101000D01*
D27*
X88138000Y-42418000D02*
X86868000Y-43688000D01*
X88138000Y-44958000D02*
X88138000Y-46228000D01*
X88138000Y-46228000D02*
X88138000Y-76200000D01*
X38608000Y-71120000D02*
X38608000Y-47117000D01*
X38608000Y-47117000D02*
X38608000Y-46101000D01*
D28*
X38608000Y-43688000D02*
X38608000Y-46101000D01*
D27*
X39878000Y-42418000D02*
X38608000Y-43688000D01*
X39878000Y-44958000D02*
X39878000Y-46228000D01*
X39878000Y-68580000D02*
X39878000Y-46228000D01*
X43688000Y-66040000D02*
X43688000Y-46482000D01*
X43688000Y-46482000D02*
X43688000Y-45974000D01*
D28*
X43688000Y-43688000D02*
X43688000Y-45974000D01*
D27*
X43688000Y-43688000D02*
X44958000Y-42418000D01*
X44958000Y-46228000D02*
X44958000Y-44958000D01*
X44958000Y-63500000D02*
X44958000Y-46228000D01*
X48768000Y-46278798D02*
X48768000Y-47548798D01*
X48768000Y-47548798D02*
X48768000Y-60960000D01*
X48768000Y-43688000D02*
X50038000Y-42418000D01*
D28*
X48768000Y-43688000D02*
X48768000Y-46278798D01*
D27*
X50038000Y-46990000D02*
X50038000Y-58420000D01*
X50038000Y-46228000D02*
X50038000Y-46990000D01*
X50038000Y-46990000D02*
X50038000Y-45824575D01*
X50038000Y-45824575D02*
X50038000Y-44958000D01*
X53848000Y-55880000D02*
X53848000Y-47117000D01*
X53848000Y-47117000D02*
X53848000Y-46228000D01*
X53848000Y-43688000D02*
X55118000Y-42418000D01*
D28*
X53848000Y-43688000D02*
X53848000Y-46228000D01*
D27*
X55118000Y-46228000D02*
X55118000Y-44958000D01*
X55118000Y-53340000D02*
X55118000Y-46228000D01*
X57658000Y-46990000D02*
X57658000Y-52070000D01*
X57658000Y-46228000D02*
X57658000Y-46990000D01*
X57658000Y-46990000D02*
X57658000Y-44958000D01*
X56388000Y-46228000D02*
X56388000Y-47498000D01*
X56388000Y-47498000D02*
X56388000Y-54610000D01*
D28*
X56388000Y-43688000D02*
X56388000Y-46228000D01*
D27*
X56388000Y-52705000D02*
X56388000Y-54610000D01*
X56388000Y-43688000D02*
X57658000Y-42418000D01*
X52578000Y-44958000D02*
X52578000Y-56334223D01*
X52578000Y-56334223D02*
X52578000Y-57150000D01*
X52578000Y-56320438D02*
X52578000Y-57150000D01*
X51308000Y-46228000D02*
X51308000Y-47498000D01*
X51308000Y-47498000D02*
X51308000Y-59740798D01*
X51308000Y-57604223D02*
X51308000Y-59740798D01*
D28*
X51308000Y-43688000D02*
X51308000Y-46228000D01*
D27*
X52578000Y-42418000D02*
X51308000Y-43688000D01*
X47498000Y-62230000D02*
X47498000Y-46228000D01*
X47498000Y-46228000D02*
X47498000Y-44958000D01*
X47498000Y-61400438D02*
X47498000Y-62230000D01*
X46228000Y-45868338D02*
X46228000Y-47498000D01*
X46228000Y-47498000D02*
X46228000Y-64719202D01*
X46228000Y-45868338D02*
X46228000Y-46228000D01*
X46228000Y-62684223D02*
X46228000Y-64719202D01*
D28*
X46228000Y-43688000D02*
X46228000Y-45868338D01*
D27*
X47498000Y-42418000D02*
X46228000Y-43688000D01*
X42418000Y-67310000D02*
X42418000Y-46990000D01*
X42418000Y-44958000D02*
X42418000Y-46990000D01*
X42418000Y-46990000D02*
X42418000Y-46228000D01*
X41148000Y-46228000D02*
X41148000Y-47752000D01*
X41148000Y-47752000D02*
X41148000Y-69850000D01*
X41148000Y-46228000D02*
X41148000Y-46482000D01*
X41148000Y-65599562D02*
X41148000Y-69850000D01*
X42418000Y-42418000D02*
X41148000Y-43688000D01*
D28*
X41148000Y-43688000D02*
X41148000Y-46228000D01*
D27*
X90678000Y-44958000D02*
X90678000Y-46228000D01*
X90678000Y-46228000D02*
X90678000Y-74930000D01*
X89408000Y-77470000D02*
X89408000Y-47117000D01*
X89408000Y-47117000D02*
X89408000Y-46228000D01*
D29*
X89408000Y-43688000D02*
X89408000Y-45974000D01*
X89408000Y-45974000D02*
X89408000Y-46228000D01*
D27*
X90678000Y-42418000D02*
X89408000Y-43688000D01*
X85598000Y-44958000D02*
X85598000Y-46228000D01*
X85598000Y-46228000D02*
X85598000Y-80010000D01*
X84328000Y-46228000D02*
X84328000Y-47498000D01*
X84328000Y-47498000D02*
X84328000Y-82550000D01*
D29*
X84328000Y-43688000D02*
X84328000Y-46228000D01*
D27*
X85598000Y-42418000D02*
X84328000Y-43688000D01*
X80518000Y-85090000D02*
X80518000Y-46035630D01*
X80518000Y-46035630D02*
X80518000Y-44958000D01*
X79248000Y-46228000D02*
X79248000Y-63754000D01*
X79248000Y-63754000D02*
X79248000Y-87630000D01*
D29*
X79248000Y-43688000D02*
X79248000Y-46228000D01*
D27*
X80518000Y-42418000D02*
X79248000Y-43688000D01*
X75438000Y-90170000D02*
X75438000Y-46228000D01*
X75438000Y-46228000D02*
X75438000Y-44958000D01*
X74168000Y-46228000D02*
X74168000Y-56642000D01*
X74168000Y-56642000D02*
X74168000Y-92710000D01*
D29*
X74168000Y-43688000D02*
X74168000Y-46228000D01*
D27*
X75438000Y-42418000D02*
X74168000Y-43688000D01*
D28*
X49403000Y-97904299D02*
X49403000Y-98353311D01*
X50787299Y-99737610D02*
X50787299Y-114947701D01*
X50787299Y-114947701D02*
X50482499Y-115252501D01*
X49403000Y-98353311D02*
X50787299Y-99737610D01*
X50482499Y-115252501D02*
X50165000Y-115570000D01*
X25400000Y-128905000D02*
X50165000Y-128905000D01*
X48247299Y-112776000D02*
X48247299Y-113030000D01*
X48247299Y-102163311D02*
X48247299Y-112776000D01*
X48895000Y-116840000D02*
X48895000Y-114046000D01*
X48247299Y-112776000D02*
X48247299Y-113398299D01*
X48247299Y-113398299D02*
X48895000Y-114046000D01*
X27940000Y-130175000D02*
X48895000Y-130175000D01*
X46863000Y-100330000D02*
X46863000Y-100779012D01*
X46863000Y-100779012D02*
X48247299Y-102163311D01*
X42659299Y-118110000D02*
X40627299Y-116078000D01*
X40627299Y-116078000D02*
X40627299Y-104152701D01*
X42799000Y-118110000D02*
X42659299Y-118110000D01*
X47625000Y-118110000D02*
X42799000Y-118110000D01*
X30480000Y-131445000D02*
X47625000Y-131445000D01*
X46355000Y-119380000D02*
X39751000Y-119380000D01*
X33020000Y-132715000D02*
X46355000Y-132715000D01*
D27*
X138938000Y-46228000D02*
X138938000Y-47498000D01*
X138938000Y-47498000D02*
X138938000Y-93980000D01*
D28*
X138938000Y-43688000D02*
X138938000Y-46228000D01*
D27*
X140208000Y-42418000D02*
X138938000Y-43688000D01*
X140208000Y-46228000D02*
X140208000Y-44958000D01*
X140208000Y-91440000D02*
X140208000Y-46228000D01*
X144018000Y-46228000D02*
X144018000Y-88785700D01*
X144018000Y-88785700D02*
X144018000Y-88900000D01*
D28*
X144018000Y-43688000D02*
X144018000Y-46228000D01*
D27*
X145288000Y-42418000D02*
X144018000Y-43688000D01*
X145288000Y-46228000D02*
X145288000Y-44958000D01*
X145288000Y-86360000D02*
X145288000Y-46228000D01*
X149098000Y-46228000D02*
X149098000Y-47498000D01*
X149098000Y-47498000D02*
X149098000Y-83820000D01*
D28*
X149098000Y-43688000D02*
X149098000Y-46228000D01*
D27*
X150368000Y-42418000D02*
X149098000Y-43688000D01*
X150368000Y-46228000D02*
X150368000Y-44958000D01*
X150368000Y-81280000D02*
X150368000Y-46228000D01*
X154178000Y-46228000D02*
X154178000Y-47498000D01*
X154178000Y-47498000D02*
X154178000Y-78740000D01*
D28*
X154178000Y-43688000D02*
X154178000Y-46228000D01*
D27*
X155448000Y-42418000D02*
X154178000Y-43688000D01*
X155448000Y-76200000D02*
X155448000Y-45847000D01*
X155448000Y-45847000D02*
X155448000Y-44958000D01*
X105918000Y-71120000D02*
X105918000Y-46482000D01*
X105918000Y-46482000D02*
X105918000Y-46228000D01*
D28*
X105918000Y-45593000D02*
X105918000Y-43688000D01*
D27*
X107188000Y-42418000D02*
X105918000Y-43688000D01*
D28*
X105918000Y-46228000D02*
X105918000Y-45593000D01*
D27*
X107188000Y-44958000D02*
X107188000Y-47498000D01*
X107188000Y-47498000D02*
X107188000Y-68580000D01*
X110998000Y-46228000D02*
X110998000Y-49784000D01*
X110998000Y-49784000D02*
X110998000Y-66040000D01*
X110998000Y-43688000D02*
X112268000Y-42418000D01*
D28*
X110998000Y-46228000D02*
X110998000Y-43688000D01*
D27*
X112268000Y-63500000D02*
X112268000Y-45773777D01*
X112268000Y-45773777D02*
X112268000Y-44958000D01*
X116078000Y-60960000D02*
X116078000Y-47117000D01*
X116078000Y-47117000D02*
X116078000Y-46228000D01*
X116078000Y-60960000D02*
X116078000Y-59182000D01*
X116078000Y-43688000D02*
X117348000Y-42418000D01*
D28*
X116078000Y-46228000D02*
X116078000Y-43688000D01*
D27*
X117348000Y-46228000D02*
X117348000Y-44958000D01*
X117348000Y-58420000D02*
X117348000Y-46228000D01*
X117348000Y-45773777D02*
X117348000Y-44958000D01*
X121158000Y-46228000D02*
X121158000Y-48260000D01*
X121158000Y-48260000D02*
X121158000Y-55880000D01*
X121158000Y-43688000D02*
X122428000Y-42418000D01*
D28*
X121158000Y-46228000D02*
X121158000Y-43688000D01*
D27*
X122428000Y-44958000D02*
X122428000Y-46228000D01*
X122428000Y-53340000D02*
X122428000Y-46228000D01*
X124968000Y-46228000D02*
X124968000Y-44958000D01*
X124968000Y-52070000D02*
X124968000Y-46228000D01*
X123698000Y-46228000D02*
X123698000Y-47498000D01*
X123698000Y-47498000D02*
X123698000Y-54610000D01*
X124968000Y-42418000D02*
X123698000Y-43688000D01*
D28*
X123698000Y-46228000D02*
X123698000Y-43688000D01*
D27*
X119888000Y-44958000D02*
X119888000Y-46228000D01*
X119888000Y-57150000D02*
X119888000Y-46228000D01*
X119888000Y-45773777D02*
X119888000Y-44958000D01*
X118618000Y-46228000D02*
X118618000Y-47498000D01*
X118618000Y-47498000D02*
X118618000Y-59690000D01*
X119888000Y-42418000D02*
X118618000Y-43688000D01*
D28*
X118618000Y-46228000D02*
X118618000Y-43688000D01*
D27*
X114808000Y-46228000D02*
X114808000Y-44958000D01*
X114808000Y-62230000D02*
X114808000Y-46228000D01*
X113538000Y-64770000D02*
X113538000Y-47117000D01*
X113538000Y-47117000D02*
X113538000Y-46228000D01*
X114808000Y-42418000D02*
X113538000Y-43688000D01*
D28*
X113538000Y-46228000D02*
X113538000Y-43688000D01*
D27*
X109728000Y-67310000D02*
X109728000Y-45773777D01*
X109728000Y-45773777D02*
X109728000Y-44958000D01*
X108458000Y-69850000D02*
X108458000Y-47117000D01*
X108458000Y-47117000D02*
X108458000Y-46228000D01*
D28*
X108458000Y-45593000D02*
X108458000Y-43688000D01*
D27*
X109728000Y-42418000D02*
X108458000Y-43688000D01*
D28*
X108458000Y-46228000D02*
X108458000Y-45593000D01*
D27*
X157988000Y-44958000D02*
X157988000Y-46228000D01*
X157988000Y-74930000D02*
X157988000Y-46228000D01*
X156718000Y-46228000D02*
X156718000Y-54102000D01*
X156718000Y-54102000D02*
X156718000Y-77470000D01*
D28*
X156718000Y-43688000D02*
X156718000Y-46228000D01*
D27*
X157988000Y-42418000D02*
X156718000Y-43688000D01*
X152908000Y-80010000D02*
X152908000Y-46228000D01*
X152908000Y-46228000D02*
X152908000Y-44958000D01*
X151638000Y-46228000D02*
X151638000Y-79502000D01*
X151638000Y-79502000D02*
X151638000Y-82550000D01*
D28*
X151638000Y-43688000D02*
X151638000Y-46228000D01*
D27*
X152908000Y-42418000D02*
X151638000Y-43688000D01*
X147828000Y-85090000D02*
X147828000Y-45773777D01*
X147828000Y-45773777D02*
X147828000Y-44958000D01*
X146558000Y-46228000D02*
X146558000Y-52324000D01*
X146558000Y-52324000D02*
X146558000Y-87630000D01*
D28*
X146558000Y-43688000D02*
X146558000Y-46228000D01*
D27*
X147828000Y-42418000D02*
X146558000Y-43688000D01*
X142748000Y-44958000D02*
X142748000Y-46228000D01*
X142748000Y-90170000D02*
X142748000Y-46228000D01*
X141478000Y-46228000D02*
X141478000Y-47498000D01*
X141478000Y-47498000D02*
X141478000Y-92710000D01*
D28*
X141478000Y-43688000D02*
X141478000Y-46228000D01*
D27*
X142748000Y-42418000D02*
X141478000Y-43688000D01*
X206248000Y-93980000D02*
X206248000Y-47117000D01*
X206248000Y-47117000D02*
X206248000Y-46228000D01*
D28*
X206248000Y-43688000D02*
X206248000Y-46228000D01*
D27*
X207518000Y-42418000D02*
X206248000Y-43688000D01*
X207518000Y-46228000D02*
X207518000Y-44958000D01*
X207518000Y-91440000D02*
X207518000Y-46228000D01*
X211328000Y-88900000D02*
X211328000Y-47117000D01*
X211328000Y-47117000D02*
X211328000Y-46228000D01*
D28*
X211328000Y-46228000D02*
X211328000Y-43688000D01*
D27*
X211328000Y-43688000D02*
X212598000Y-42418000D01*
X212598000Y-48260000D02*
X212598000Y-46228000D01*
X212598000Y-86360000D02*
X212598000Y-48260000D01*
X212598000Y-48260000D02*
X212598000Y-44958000D01*
X216408000Y-46228000D02*
X216408000Y-47498000D01*
X216408000Y-47498000D02*
X216408000Y-83820000D01*
D28*
X216408000Y-46228000D02*
X216408000Y-43688000D01*
D27*
X217678000Y-42418000D02*
X216408000Y-43688000D01*
X217678000Y-46990000D02*
X217678000Y-46228000D01*
X217678000Y-81280000D02*
X217678000Y-46990000D01*
X217678000Y-46990000D02*
X217678000Y-44958000D01*
X221488000Y-47498000D02*
X221488000Y-48260000D01*
X221488000Y-48260000D02*
X221488000Y-78740000D01*
X221488000Y-46228000D02*
X221488000Y-46482000D01*
X221488000Y-46482000D02*
X221488000Y-48260000D01*
D28*
X221488000Y-46228000D02*
X221488000Y-45847000D01*
X221488000Y-45847000D02*
X221488000Y-43688000D01*
D27*
X221488000Y-43688000D02*
X222758000Y-42418000D01*
X222758000Y-46990000D02*
X222758000Y-46228000D01*
X222758000Y-76200000D02*
X222758000Y-46990000D01*
X222758000Y-46990000D02*
X222758000Y-44958000D01*
X173228000Y-47498000D02*
X173228000Y-48260000D01*
X173228000Y-48260000D02*
X173228000Y-71120000D01*
X173228000Y-46228000D02*
X173228000Y-46863000D01*
X173228000Y-46863000D02*
X173228000Y-48260000D01*
X174498000Y-42418000D02*
X173228000Y-43688000D01*
D28*
X173228000Y-46228000D02*
X173228000Y-43688000D01*
D27*
X173228000Y-71120000D02*
X173228000Y-70491383D01*
X174498000Y-46228000D02*
X174498000Y-44958000D01*
X174498000Y-68580000D02*
X174498000Y-46228000D01*
X178308000Y-46228000D02*
X178308000Y-48260000D01*
X178308000Y-48260000D02*
X178308000Y-66040000D01*
X179578000Y-42418000D02*
X178308000Y-43688000D01*
D28*
X178308000Y-46228000D02*
X178308000Y-43688000D01*
D27*
X179578000Y-46228000D02*
X179578000Y-44958000D01*
X179578000Y-46228000D02*
X179578000Y-63500000D01*
X183388000Y-46228000D02*
X183388000Y-47498000D01*
X183388000Y-47498000D02*
X183388000Y-60960000D01*
X184658000Y-42418000D02*
X183388000Y-43688000D01*
D28*
X183388000Y-46228000D02*
X183388000Y-43688000D01*
D27*
X184658000Y-46228000D02*
X184658000Y-44958000D01*
X184658000Y-46228000D02*
X184658000Y-58420000D01*
X188468000Y-45974000D02*
X188468000Y-47498000D01*
X188468000Y-47498000D02*
X188468000Y-55880000D01*
D28*
X188468000Y-45974000D02*
X188468000Y-43688000D01*
D27*
X189738000Y-42418000D02*
X188468000Y-43688000D01*
X189738000Y-46228000D02*
X189738000Y-44958000D01*
X189738000Y-53340000D02*
X189738000Y-46228000D01*
X192278000Y-46228000D02*
X192278000Y-44958000D01*
X192328798Y-52019202D02*
X192278000Y-52070000D01*
X192278000Y-46228000D02*
X192278000Y-52019202D01*
X192227202Y-45008798D02*
X192278000Y-44958000D01*
X191008000Y-46228000D02*
X191008000Y-47498000D01*
X191008000Y-47498000D02*
X191008000Y-54610000D01*
X192278000Y-42418000D02*
X191008000Y-43688000D01*
D28*
X191008000Y-46228000D02*
X191008000Y-43688000D01*
D27*
X187198000Y-46228000D02*
X187198000Y-44958000D01*
X187198000Y-46228000D02*
X187198000Y-57150000D01*
X185928000Y-46228000D02*
X185928000Y-47498000D01*
X185928000Y-47498000D02*
X185928000Y-59690000D01*
X187198000Y-42418000D02*
X185928000Y-43688000D01*
D28*
X185928000Y-46228000D02*
X185928000Y-43688000D01*
D27*
X182118000Y-46228000D02*
X182118000Y-44958000D01*
X182118000Y-61400438D02*
X182118000Y-62230000D01*
X182118000Y-46228000D02*
X182118000Y-62230000D01*
X180848000Y-46228000D02*
X180848000Y-47498000D01*
X180848000Y-47498000D02*
X180848000Y-64770000D01*
X182118000Y-42418000D02*
X180848000Y-43688000D01*
D28*
X180848000Y-46228000D02*
X180848000Y-43688000D01*
D27*
X177038000Y-47043777D02*
X177038000Y-44958000D01*
X177038000Y-45773777D02*
X177038000Y-44958000D01*
X177038000Y-67310000D02*
X177038000Y-47043777D01*
X176987210Y-67259210D02*
X177038000Y-67310000D01*
X175768000Y-46228000D02*
X175768000Y-47498000D01*
X175768000Y-47498000D02*
X175768000Y-69850000D01*
X177038000Y-42418000D02*
X175768000Y-43688000D01*
D28*
X175768000Y-46228000D02*
X175768000Y-43688000D01*
D27*
X225298000Y-46228000D02*
X225298000Y-44958000D01*
X225298000Y-74930000D02*
X225298000Y-46228000D01*
X224028000Y-46228000D02*
X224028000Y-76654223D01*
X224028000Y-76654223D02*
X224028000Y-77470000D01*
X224028000Y-43688000D02*
X225298000Y-42418000D01*
D28*
X224028000Y-46228000D02*
X224028000Y-43688000D01*
D27*
X220218000Y-80010000D02*
X220218000Y-45773777D01*
X220218000Y-45773777D02*
X220218000Y-44958000D01*
X218948000Y-47498000D02*
X218948000Y-48260000D01*
X218948000Y-48260000D02*
X218948000Y-80450438D01*
X218948000Y-46228000D02*
X218948000Y-46863000D01*
X218948000Y-46863000D02*
X218948000Y-48260000D01*
X218948000Y-80450438D02*
X218948000Y-82550000D01*
X218948000Y-43688000D02*
X220218000Y-42418000D01*
D28*
X218948000Y-46228000D02*
X218948000Y-43688000D01*
D27*
X215138000Y-46228000D02*
X215138000Y-44958000D01*
X215138000Y-85090000D02*
X215138000Y-46228000D01*
X213868000Y-87630000D02*
X213868000Y-47117000D01*
X213868000Y-47117000D02*
X213868000Y-46228000D01*
X213868000Y-43688000D02*
X215138000Y-42418000D01*
D28*
X213868000Y-46228000D02*
X213868000Y-43688000D01*
D27*
X210058000Y-46228000D02*
X210058000Y-44958000D01*
X210058000Y-90170000D02*
X210058000Y-46228000D01*
X210058000Y-89354223D02*
X210058000Y-90170000D01*
X208788000Y-92710000D02*
X208788000Y-47117000D01*
X208788000Y-47117000D02*
X208788000Y-46228000D01*
X210058000Y-42418000D02*
X208788000Y-43688000D01*
D28*
X208788000Y-46228000D02*
X208788000Y-43688000D01*
X66675000Y-144145000D02*
X35560000Y-144145000D01*
X169418000Y-111954562D02*
X169418000Y-128270000D01*
X171323000Y-109220000D02*
X169418000Y-111125000D01*
X169418000Y-111125000D02*
X169418000Y-111954562D01*
X75565000Y-125095000D02*
X75565000Y-137160000D01*
X38100000Y-126365000D02*
X39370000Y-125095000D01*
X39370000Y-125095000D02*
X70485000Y-125095000D01*
X70485000Y-146685000D02*
X17780000Y-146685000D01*
X69215000Y-147955000D02*
X15240000Y-147955000D01*
M02*
