G04 #@! TF.FileFunction,Legend,Top*
%FSLAX46Y46*%
G04 Gerber Fmt 4.6, Leading zero omitted, Abs format (unit mm)*
G04 Created by KiCad (PCBNEW 4.0.7+dfsg1-1) date Mon Jul 30 16:18:00 2018*
%MOMM*%
%LPD*%
G01*
G04 APERTURE LIST*
%ADD10C,0.100000*%
%ADD11C,1.016000*%
%ADD12C,0.200000*%
%ADD13C,0.300000*%
%ADD14C,0.304800*%
%ADD15C,0.215900*%
%ADD16C,0.177800*%
%ADD17C,0.254000*%
%ADD18C,2.286000*%
%ADD19C,0.508000*%
%ADD20C,0.150000*%
G04 APERTURE END LIST*
D10*
D11*
X16510000Y-145034000D02*
X13970000Y-145034000D01*
X16510000Y-145034000D02*
X15240000Y-143764000D01*
X15240000Y-143764000D02*
X13970000Y-145034000D01*
D12*
X14986000Y-144018000D02*
X14986000Y-145034000D01*
X15494000Y-144018000D02*
X15494000Y-145034000D01*
X14986000Y-144526000D02*
X15494000Y-144526000D01*
D13*
X269367143Y-129806000D02*
X269224286Y-129734571D01*
X269010000Y-129734571D01*
X268795715Y-129806000D01*
X268652857Y-129948857D01*
X268581429Y-130091714D01*
X268510000Y-130377429D01*
X268510000Y-130591714D01*
X268581429Y-130877429D01*
X268652857Y-131020286D01*
X268795715Y-131163143D01*
X269010000Y-131234571D01*
X269152857Y-131234571D01*
X269367143Y-131163143D01*
X269438572Y-131091714D01*
X269438572Y-130591714D01*
X269152857Y-130591714D01*
X270081429Y-131234571D02*
X270081429Y-129734571D01*
X270938572Y-131234571D01*
X270938572Y-129734571D01*
X271652858Y-131234571D02*
X271652858Y-129734571D01*
X272010001Y-129734571D01*
X272224286Y-129806000D01*
X272367144Y-129948857D01*
X272438572Y-130091714D01*
X272510001Y-130377429D01*
X272510001Y-130591714D01*
X272438572Y-130877429D01*
X272367144Y-131020286D01*
X272224286Y-131163143D01*
X272010001Y-131234571D01*
X271652858Y-131234571D01*
X269581429Y-104818571D02*
X268724286Y-104818571D01*
X269152858Y-104818571D02*
X269152858Y-103318571D01*
X269010001Y-103532857D01*
X268867143Y-103675714D01*
X268724286Y-103747143D01*
X270152857Y-103461429D02*
X270224286Y-103390000D01*
X270367143Y-103318571D01*
X270724286Y-103318571D01*
X270867143Y-103390000D01*
X270938572Y-103461429D01*
X271010000Y-103604286D01*
X271010000Y-103747143D01*
X270938572Y-103961429D01*
X270081429Y-104818571D01*
X271010000Y-104818571D01*
X271438571Y-103318571D02*
X271938571Y-104818571D01*
X272438571Y-103318571D01*
X258330000Y-96519857D02*
X258258571Y-96662714D01*
X258258571Y-96877000D01*
X258330000Y-97091285D01*
X258472857Y-97234143D01*
X258615714Y-97305571D01*
X258901429Y-97377000D01*
X259115714Y-97377000D01*
X259401429Y-97305571D01*
X259544286Y-97234143D01*
X259687143Y-97091285D01*
X259758571Y-96877000D01*
X259758571Y-96734143D01*
X259687143Y-96519857D01*
X259615714Y-96448428D01*
X259115714Y-96448428D01*
X259115714Y-96734143D01*
X259758571Y-95805571D02*
X258258571Y-95805571D01*
X259758571Y-94948428D01*
X258258571Y-94948428D01*
X259758571Y-94234142D02*
X258258571Y-94234142D01*
X258258571Y-93876999D01*
X258330000Y-93662714D01*
X258472857Y-93519856D01*
X258615714Y-93448428D01*
X258901429Y-93376999D01*
X259115714Y-93376999D01*
X259401429Y-93448428D01*
X259544286Y-93519856D01*
X259687143Y-93662714D01*
X259758571Y-93876999D01*
X259758571Y-94234142D01*
D14*
X258106333Y-85555666D02*
X258106333Y-86402333D01*
X258953000Y-86486999D01*
X258868333Y-86402333D01*
X258783667Y-86232999D01*
X258783667Y-85809666D01*
X258868333Y-85640333D01*
X258953000Y-85555666D01*
X259122333Y-85470999D01*
X259545667Y-85470999D01*
X259715000Y-85555666D01*
X259799667Y-85640333D01*
X259884333Y-85809666D01*
X259884333Y-86232999D01*
X259799667Y-86402333D01*
X259715000Y-86486999D01*
X258106333Y-84963000D02*
X259884333Y-84370333D01*
X258106333Y-83777666D01*
D15*
X271780000Y-73533000D02*
X271187333Y-73533000D01*
X271187333Y-74464333D02*
X271187333Y-72686333D01*
X272034000Y-72686333D01*
X272626667Y-73956333D02*
X273473333Y-73956333D01*
X272457333Y-74464333D02*
X273050000Y-72686333D01*
X273642667Y-74464333D01*
X274235333Y-74464333D02*
X274235333Y-72686333D01*
X275251333Y-74464333D01*
X275251333Y-72686333D01*
X276098000Y-73787000D02*
X277452667Y-73787000D01*
X271780000Y-61468000D02*
X271187333Y-61468000D01*
X271187333Y-62399333D02*
X271187333Y-60621333D01*
X272034000Y-60621333D01*
X272626667Y-61891333D02*
X273473333Y-61891333D01*
X272457333Y-62399333D02*
X273050000Y-60621333D01*
X273642667Y-62399333D01*
X274235333Y-62399333D02*
X274235333Y-60621333D01*
X275251333Y-62399333D01*
X275251333Y-60621333D01*
X276098000Y-61722000D02*
X277452667Y-61722000D01*
X276775334Y-62399333D02*
X276775334Y-61044667D01*
D16*
X227638429Y-43234429D02*
X226767572Y-43234429D01*
X227203000Y-43234429D02*
X227203000Y-41710429D01*
X227057857Y-41928143D01*
X226912715Y-42073286D01*
X226767572Y-42145857D01*
D17*
X30480000Y-54356000D02*
X30480000Y-47244000D01*
D12*
X34099500Y-50800000D02*
X30289500Y-46990000D01*
X30289500Y-54610000D02*
X30289500Y-46990000D01*
X34099500Y-50800000D02*
X30289500Y-54610000D01*
D18*
X31610300Y-51752500D02*
X31610300Y-49847500D01*
D11*
X30924500Y-53340000D02*
X33464500Y-50800000D01*
D19*
X30607000Y-53975000D02*
X30607000Y-47625000D01*
D11*
X33464500Y-50800000D02*
X30924500Y-48260000D01*
D16*
X194618429Y-43107429D02*
X193747572Y-43107429D01*
X194183000Y-43107429D02*
X194183000Y-41583429D01*
X194037857Y-41801143D01*
X193892715Y-41946286D01*
X193747572Y-42018857D01*
X160328429Y-43107429D02*
X159457572Y-43107429D01*
X159893000Y-43107429D02*
X159893000Y-41583429D01*
X159747857Y-41801143D01*
X159602715Y-41946286D01*
X159457572Y-42018857D01*
X127308429Y-43107429D02*
X126437572Y-43107429D01*
X126873000Y-43107429D02*
X126873000Y-41583429D01*
X126727857Y-41801143D01*
X126582715Y-41946286D01*
X126437572Y-42018857D01*
X93018429Y-43107429D02*
X92147572Y-43107429D01*
X92583000Y-43107429D02*
X92583000Y-41583429D01*
X92437857Y-41801143D01*
X92292715Y-41946286D01*
X92147572Y-42018857D01*
D15*
X16764001Y-147616333D02*
X15748001Y-147616333D01*
X16256001Y-147616333D02*
X16256001Y-145838333D01*
X16086667Y-146092333D01*
X15917334Y-146261667D01*
X15748001Y-146346333D01*
D17*
X165281429Y-140280571D02*
X165644286Y-140401524D01*
X165765238Y-140522476D01*
X165886190Y-140764381D01*
X165886190Y-141127238D01*
X165765238Y-141369143D01*
X165644286Y-141490095D01*
X165402381Y-141611048D01*
X164434762Y-141611048D01*
X164434762Y-139071048D01*
X165281429Y-139071048D01*
X165523333Y-139192000D01*
X165644286Y-139312952D01*
X165765238Y-139554857D01*
X165765238Y-139796762D01*
X165644286Y-140038667D01*
X165523333Y-140159619D01*
X165281429Y-140280571D01*
X164434762Y-140280571D01*
X167337619Y-141611048D02*
X167095714Y-141490095D01*
X166974762Y-141369143D01*
X166853810Y-141127238D01*
X166853810Y-140401524D01*
X166974762Y-140159619D01*
X167095714Y-140038667D01*
X167337619Y-139917714D01*
X167700476Y-139917714D01*
X167942381Y-140038667D01*
X168063333Y-140159619D01*
X168184286Y-140401524D01*
X168184286Y-141127238D01*
X168063333Y-141369143D01*
X167942381Y-141490095D01*
X167700476Y-141611048D01*
X167337619Y-141611048D01*
X169151905Y-141490095D02*
X169393809Y-141611048D01*
X169877619Y-141611048D01*
X170119524Y-141490095D01*
X170240476Y-141248190D01*
X170240476Y-141127238D01*
X170119524Y-140885333D01*
X169877619Y-140764381D01*
X169514762Y-140764381D01*
X169272857Y-140643429D01*
X169151905Y-140401524D01*
X169151905Y-140280571D01*
X169272857Y-140038667D01*
X169514762Y-139917714D01*
X169877619Y-139917714D01*
X170119524Y-140038667D01*
X170966190Y-139917714D02*
X171933809Y-139917714D01*
X171329047Y-139071048D02*
X171329047Y-141248190D01*
X171449999Y-141490095D01*
X171691904Y-141611048D01*
X171933809Y-141611048D01*
X173143333Y-141611048D02*
X172901428Y-141490095D01*
X172780476Y-141369143D01*
X172659524Y-141127238D01*
X172659524Y-140401524D01*
X172780476Y-140159619D01*
X172901428Y-140038667D01*
X173143333Y-139917714D01*
X173506190Y-139917714D01*
X173748095Y-140038667D01*
X173869047Y-140159619D01*
X173990000Y-140401524D01*
X173990000Y-141127238D01*
X173869047Y-141369143D01*
X173748095Y-141490095D01*
X173506190Y-141611048D01*
X173143333Y-141611048D01*
X175078571Y-139917714D02*
X175078571Y-141611048D01*
X175078571Y-140159619D02*
X175199523Y-140038667D01*
X175441428Y-139917714D01*
X175804285Y-139917714D01*
X176046190Y-140038667D01*
X176167142Y-140280571D01*
X176167142Y-141611048D01*
X179311904Y-139071048D02*
X179311904Y-141127238D01*
X179432856Y-141369143D01*
X179553809Y-141490095D01*
X179795713Y-141611048D01*
X180279523Y-141611048D01*
X180521428Y-141490095D01*
X180642380Y-141369143D01*
X180763332Y-141127238D01*
X180763332Y-139071048D01*
X181972856Y-139917714D02*
X181972856Y-141611048D01*
X181972856Y-140159619D02*
X182093808Y-140038667D01*
X182335713Y-139917714D01*
X182698570Y-139917714D01*
X182940475Y-140038667D01*
X183061427Y-140280571D01*
X183061427Y-141611048D01*
X184270951Y-141611048D02*
X184270951Y-139917714D01*
X184270951Y-139071048D02*
X184149999Y-139192000D01*
X184270951Y-139312952D01*
X184391903Y-139192000D01*
X184270951Y-139071048D01*
X184270951Y-139312952D01*
X185238570Y-139917714D02*
X185843332Y-141611048D01*
X186448094Y-139917714D01*
X188383332Y-141490095D02*
X188141427Y-141611048D01*
X187657618Y-141611048D01*
X187415713Y-141490095D01*
X187294761Y-141248190D01*
X187294761Y-140280571D01*
X187415713Y-140038667D01*
X187657618Y-139917714D01*
X188141427Y-139917714D01*
X188383332Y-140038667D01*
X188504284Y-140280571D01*
X188504284Y-140522476D01*
X187294761Y-140764381D01*
X189592856Y-141611048D02*
X189592856Y-139917714D01*
X189592856Y-140401524D02*
X189713808Y-140159619D01*
X189834761Y-140038667D01*
X190076665Y-139917714D01*
X190318570Y-139917714D01*
X191044285Y-141490095D02*
X191286189Y-141611048D01*
X191769999Y-141611048D01*
X192011904Y-141490095D01*
X192132856Y-141248190D01*
X192132856Y-141127238D01*
X192011904Y-140885333D01*
X191769999Y-140764381D01*
X191407142Y-140764381D01*
X191165237Y-140643429D01*
X191044285Y-140401524D01*
X191044285Y-140280571D01*
X191165237Y-140038667D01*
X191407142Y-139917714D01*
X191769999Y-139917714D01*
X192011904Y-140038667D01*
X193221427Y-141611048D02*
X193221427Y-139917714D01*
X193221427Y-139071048D02*
X193100475Y-139192000D01*
X193221427Y-139312952D01*
X193342379Y-139192000D01*
X193221427Y-139071048D01*
X193221427Y-139312952D01*
X194068094Y-139917714D02*
X195035713Y-139917714D01*
X194430951Y-139071048D02*
X194430951Y-141248190D01*
X194551903Y-141490095D01*
X194793808Y-141611048D01*
X195035713Y-141611048D01*
X195640475Y-139917714D02*
X196245237Y-141611048D01*
X196849999Y-139917714D02*
X196245237Y-141611048D01*
X196003332Y-142215810D01*
X195882380Y-142336762D01*
X195640475Y-142457714D01*
X199752856Y-140280571D02*
X200599523Y-140280571D01*
X200962380Y-141611048D02*
X199752856Y-141611048D01*
X199752856Y-139071048D01*
X200962380Y-139071048D01*
X202050951Y-141611048D02*
X202050951Y-139071048D01*
X202655713Y-139071048D01*
X203018570Y-139192000D01*
X203260475Y-139433905D01*
X203381427Y-139675810D01*
X203502379Y-140159619D01*
X203502379Y-140522476D01*
X203381427Y-141006286D01*
X203260475Y-141248190D01*
X203018570Y-141490095D01*
X202655713Y-141611048D01*
X202050951Y-141611048D01*
X205437618Y-140280571D02*
X204590951Y-140280571D01*
X204590951Y-141611048D02*
X204590951Y-139071048D01*
X205800475Y-139071048D01*
X165402381Y-145554095D02*
X165160476Y-145675048D01*
X164676667Y-145675048D01*
X164434762Y-145554095D01*
X164313810Y-145312190D01*
X164313810Y-144344571D01*
X164434762Y-144102667D01*
X164676667Y-143981714D01*
X165160476Y-143981714D01*
X165402381Y-144102667D01*
X165523333Y-144344571D01*
X165523333Y-144586476D01*
X164313810Y-144828381D01*
X166249048Y-143135048D02*
X167095714Y-145675048D01*
X167942381Y-143135048D01*
X169272857Y-143135048D02*
X169756667Y-143135048D01*
X169998572Y-143256000D01*
X170240476Y-143497905D01*
X170361429Y-143981714D01*
X170361429Y-144828381D01*
X170240476Y-145312190D01*
X169998572Y-145554095D01*
X169756667Y-145675048D01*
X169272857Y-145675048D01*
X169030953Y-145554095D01*
X168789048Y-145312190D01*
X168668096Y-144828381D01*
X168668096Y-143981714D01*
X168789048Y-143497905D01*
X169030953Y-143256000D01*
X169272857Y-143135048D01*
X172659524Y-145675048D02*
X171450000Y-145675048D01*
X171450000Y-143135048D01*
X173143333Y-143135048D02*
X173989999Y-145675048D01*
X174836666Y-143135048D01*
X175683333Y-144344571D02*
X176530000Y-144344571D01*
X176892857Y-145675048D02*
X175683333Y-145675048D01*
X175683333Y-143135048D01*
X176892857Y-143135048D01*
X179432856Y-145675048D02*
X178586190Y-144465524D01*
X177981428Y-145675048D02*
X177981428Y-143135048D01*
X178949047Y-143135048D01*
X179190952Y-143256000D01*
X179311904Y-143376952D01*
X179432856Y-143618857D01*
X179432856Y-143981714D01*
X179311904Y-144223619D01*
X179190952Y-144344571D01*
X178949047Y-144465524D01*
X177981428Y-144465524D01*
X164313810Y-149013333D02*
X165523333Y-149013333D01*
X164071905Y-149739048D02*
X164918571Y-147199048D01*
X165765238Y-149739048D01*
X167700476Y-148045714D02*
X167700476Y-149739048D01*
X166611905Y-148045714D02*
X166611905Y-149376190D01*
X166732857Y-149618095D01*
X166974762Y-149739048D01*
X167337619Y-149739048D01*
X167579524Y-149618095D01*
X167700476Y-149497143D01*
X168668095Y-149739048D02*
X169998571Y-148045714D01*
X168668095Y-148045714D02*
X169998571Y-149739048D01*
X170966190Y-149739048D02*
X170966190Y-148045714D01*
X170966190Y-147199048D02*
X170845238Y-147320000D01*
X170966190Y-147440952D01*
X171087142Y-147320000D01*
X170966190Y-147199048D01*
X170966190Y-147440952D01*
X172538571Y-149739048D02*
X172296666Y-149618095D01*
X172175714Y-149376190D01*
X172175714Y-147199048D01*
X173506190Y-149739048D02*
X173506190Y-148045714D01*
X173506190Y-147199048D02*
X173385238Y-147320000D01*
X173506190Y-147440952D01*
X173627142Y-147320000D01*
X173506190Y-147199048D01*
X173506190Y-147440952D01*
X175804285Y-149739048D02*
X175804285Y-148408571D01*
X175683333Y-148166667D01*
X175441428Y-148045714D01*
X174957619Y-148045714D01*
X174715714Y-148166667D01*
X175804285Y-149618095D02*
X175562381Y-149739048D01*
X174957619Y-149739048D01*
X174715714Y-149618095D01*
X174594762Y-149376190D01*
X174594762Y-149134286D01*
X174715714Y-148892381D01*
X174957619Y-148771429D01*
X175562381Y-148771429D01*
X175804285Y-148650476D01*
X177013809Y-149739048D02*
X177013809Y-148045714D01*
X177013809Y-148529524D02*
X177134761Y-148287619D01*
X177255714Y-148166667D01*
X177497618Y-148045714D01*
X177739523Y-148045714D01*
X178344285Y-148045714D02*
X178949047Y-149739048D01*
X179553809Y-148045714D02*
X178949047Y-149739048D01*
X178707142Y-150343810D01*
X178586190Y-150464762D01*
X178344285Y-150585714D01*
X183303333Y-148408571D02*
X183666190Y-148529524D01*
X183787142Y-148650476D01*
X183908094Y-148892381D01*
X183908094Y-149255238D01*
X183787142Y-149497143D01*
X183666190Y-149618095D01*
X183424285Y-149739048D01*
X182456666Y-149739048D01*
X182456666Y-147199048D01*
X183303333Y-147199048D01*
X183545237Y-147320000D01*
X183666190Y-147440952D01*
X183787142Y-147682857D01*
X183787142Y-147924762D01*
X183666190Y-148166667D01*
X183545237Y-148287619D01*
X183303333Y-148408571D01*
X182456666Y-148408571D01*
X185359523Y-149739048D02*
X185117618Y-149618095D01*
X184996666Y-149497143D01*
X184875714Y-149255238D01*
X184875714Y-148529524D01*
X184996666Y-148287619D01*
X185117618Y-148166667D01*
X185359523Y-148045714D01*
X185722380Y-148045714D01*
X185964285Y-148166667D01*
X186085237Y-148287619D01*
X186206190Y-148529524D01*
X186206190Y-149255238D01*
X186085237Y-149497143D01*
X185964285Y-149618095D01*
X185722380Y-149739048D01*
X185359523Y-149739048D01*
X188383332Y-149739048D02*
X188383332Y-148408571D01*
X188262380Y-148166667D01*
X188020475Y-148045714D01*
X187536666Y-148045714D01*
X187294761Y-148166667D01*
X188383332Y-149618095D02*
X188141428Y-149739048D01*
X187536666Y-149739048D01*
X187294761Y-149618095D01*
X187173809Y-149376190D01*
X187173809Y-149134286D01*
X187294761Y-148892381D01*
X187536666Y-148771429D01*
X188141428Y-148771429D01*
X188383332Y-148650476D01*
X189592856Y-149739048D02*
X189592856Y-148045714D01*
X189592856Y-148529524D02*
X189713808Y-148287619D01*
X189834761Y-148166667D01*
X190076665Y-148045714D01*
X190318570Y-148045714D01*
X192253808Y-149739048D02*
X192253808Y-147199048D01*
X192253808Y-149618095D02*
X192011904Y-149739048D01*
X191528094Y-149739048D01*
X191286189Y-149618095D01*
X191165237Y-149497143D01*
X191044285Y-149255238D01*
X191044285Y-148529524D01*
X191165237Y-148287619D01*
X191286189Y-148166667D01*
X191528094Y-148045714D01*
X192011904Y-148045714D01*
X192253808Y-148166667D01*
X196849998Y-149739048D02*
X196003332Y-148529524D01*
X195398570Y-149739048D02*
X195398570Y-147199048D01*
X196366189Y-147199048D01*
X196608094Y-147320000D01*
X196729046Y-147440952D01*
X196849998Y-147682857D01*
X196849998Y-148045714D01*
X196729046Y-148287619D01*
X196608094Y-148408571D01*
X196366189Y-148529524D01*
X195398570Y-148529524D01*
X198906189Y-149618095D02*
X198664284Y-149739048D01*
X198180475Y-149739048D01*
X197938570Y-149618095D01*
X197817618Y-149376190D01*
X197817618Y-148408571D01*
X197938570Y-148166667D01*
X198180475Y-148045714D01*
X198664284Y-148045714D01*
X198906189Y-148166667D01*
X199027141Y-148408571D01*
X199027141Y-148650476D01*
X197817618Y-148892381D01*
X199873808Y-148045714D02*
X200478570Y-149739048D01*
X201083332Y-148045714D01*
X204832856Y-148408571D02*
X205195713Y-148529524D01*
X205316665Y-148650476D01*
X205437617Y-148892381D01*
X205437617Y-149255238D01*
X205316665Y-149497143D01*
X205195713Y-149618095D01*
X204953808Y-149739048D01*
X203986189Y-149739048D01*
X203986189Y-147199048D01*
X204832856Y-147199048D01*
X205074760Y-147320000D01*
X205195713Y-147440952D01*
X205316665Y-147682857D01*
X205316665Y-147924762D01*
X205195713Y-148166667D01*
X205074760Y-148287619D01*
X204832856Y-148408571D01*
X203986189Y-148408571D01*
X164434762Y-153803048D02*
X164434762Y-151263048D01*
X164434762Y-152472571D02*
X165886190Y-152472571D01*
X165886190Y-153803048D02*
X165886190Y-151263048D01*
X168184285Y-152109714D02*
X168184285Y-153803048D01*
X167095714Y-152109714D02*
X167095714Y-153440190D01*
X167216666Y-153682095D01*
X167458571Y-153803048D01*
X167821428Y-153803048D01*
X168063333Y-153682095D01*
X168184285Y-153561143D01*
X170482380Y-152109714D02*
X170482380Y-154165905D01*
X170361428Y-154407810D01*
X170240476Y-154528762D01*
X169998571Y-154649714D01*
X169635714Y-154649714D01*
X169393809Y-154528762D01*
X170482380Y-153682095D02*
X170240476Y-153803048D01*
X169756666Y-153803048D01*
X169514761Y-153682095D01*
X169393809Y-153561143D01*
X169272857Y-153319238D01*
X169272857Y-152593524D01*
X169393809Y-152351619D01*
X169514761Y-152230667D01*
X169756666Y-152109714D01*
X170240476Y-152109714D01*
X170482380Y-152230667D01*
X172054761Y-153803048D02*
X171812856Y-153682095D01*
X171691904Y-153561143D01*
X171570952Y-153319238D01*
X171570952Y-152593524D01*
X171691904Y-152351619D01*
X171812856Y-152230667D01*
X172054761Y-152109714D01*
X172417618Y-152109714D01*
X172659523Y-152230667D01*
X172780475Y-152351619D01*
X172901428Y-152593524D01*
X172901428Y-153319238D01*
X172780475Y-153561143D01*
X172659523Y-153682095D01*
X172417618Y-153803048D01*
X172054761Y-153803048D01*
X177134761Y-153803048D02*
X175925237Y-153803048D01*
X175925237Y-151263048D01*
X177981427Y-153803048D02*
X177981427Y-152109714D01*
X177981427Y-151263048D02*
X177860475Y-151384000D01*
X177981427Y-151504952D01*
X178102379Y-151384000D01*
X177981427Y-151263048D01*
X177981427Y-151504952D01*
X179190951Y-152109714D02*
X179190951Y-153803048D01*
X179190951Y-152351619D02*
X179311903Y-152230667D01*
X179553808Y-152109714D01*
X179916665Y-152109714D01*
X180158570Y-152230667D01*
X180279522Y-152472571D01*
X180279522Y-153803048D01*
X182577617Y-153803048D02*
X182577617Y-151263048D01*
X182577617Y-153682095D02*
X182335713Y-153803048D01*
X181851903Y-153803048D01*
X181609998Y-153682095D01*
X181489046Y-153561143D01*
X181368094Y-153319238D01*
X181368094Y-152593524D01*
X181489046Y-152351619D01*
X181609998Y-152230667D01*
X181851903Y-152109714D01*
X182335713Y-152109714D01*
X182577617Y-152230667D01*
X183666189Y-153682095D02*
X183908093Y-153803048D01*
X184391903Y-153803048D01*
X184633808Y-153682095D01*
X184754760Y-153440190D01*
X184754760Y-153319238D01*
X184633808Y-153077333D01*
X184391903Y-152956381D01*
X184029046Y-152956381D01*
X183787141Y-152835429D01*
X183666189Y-152593524D01*
X183666189Y-152472571D01*
X183787141Y-152230667D01*
X184029046Y-152109714D01*
X184391903Y-152109714D01*
X184633808Y-152230667D01*
X186931902Y-153803048D02*
X186931902Y-152472571D01*
X186810950Y-152230667D01*
X186569045Y-152109714D01*
X186085236Y-152109714D01*
X185843331Y-152230667D01*
X186931902Y-153682095D02*
X186689998Y-153803048D01*
X186085236Y-153803048D01*
X185843331Y-153682095D01*
X185722379Y-153440190D01*
X185722379Y-153198286D01*
X185843331Y-152956381D01*
X186085236Y-152835429D01*
X186689998Y-152835429D01*
X186931902Y-152714476D01*
X187899521Y-152109714D02*
X188504283Y-153803048D01*
X189109045Y-152109714D02*
X188504283Y-153803048D01*
X188262378Y-154407810D01*
X188141426Y-154528762D01*
X187899521Y-154649714D01*
X192495711Y-151263048D02*
X192737616Y-151263048D01*
X192979521Y-151384000D01*
X193100473Y-151504952D01*
X193221426Y-151746857D01*
X193342378Y-152230667D01*
X193342378Y-152835429D01*
X193221426Y-153319238D01*
X193100473Y-153561143D01*
X192979521Y-153682095D01*
X192737616Y-153803048D01*
X192495711Y-153803048D01*
X192253807Y-153682095D01*
X192132854Y-153561143D01*
X192011902Y-153319238D01*
X191890950Y-152835429D01*
X191890950Y-152230667D01*
X192011902Y-151746857D01*
X192132854Y-151504952D01*
X192253807Y-151384000D01*
X192495711Y-151263048D01*
X194189045Y-151263048D02*
X195882378Y-151263048D01*
X194793807Y-153803048D01*
X196849998Y-152835429D02*
X198785236Y-152835429D01*
X199873808Y-151504952D02*
X199994760Y-151384000D01*
X200236665Y-151263048D01*
X200841427Y-151263048D01*
X201083331Y-151384000D01*
X201204284Y-151504952D01*
X201325236Y-151746857D01*
X201325236Y-151988762D01*
X201204284Y-152351619D01*
X199752855Y-153803048D01*
X201325236Y-153803048D01*
X202897617Y-151263048D02*
X203139522Y-151263048D01*
X203381427Y-151384000D01*
X203502379Y-151504952D01*
X203623332Y-151746857D01*
X203744284Y-152230667D01*
X203744284Y-152835429D01*
X203623332Y-153319238D01*
X203502379Y-153561143D01*
X203381427Y-153682095D01*
X203139522Y-153803048D01*
X202897617Y-153803048D01*
X202655713Y-153682095D01*
X202534760Y-153561143D01*
X202413808Y-153319238D01*
X202292856Y-152835429D01*
X202292856Y-152230667D01*
X202413808Y-151746857D01*
X202534760Y-151504952D01*
X202655713Y-151384000D01*
X202897617Y-151263048D01*
X206163332Y-153803048D02*
X204711904Y-153803048D01*
X205437618Y-153803048D02*
X205437618Y-151263048D01*
X205195713Y-151625905D01*
X204953808Y-151867810D01*
X204711904Y-151988762D01*
X207614761Y-152351619D02*
X207372856Y-152230667D01*
X207251904Y-152109714D01*
X207130952Y-151867810D01*
X207130952Y-151746857D01*
X207251904Y-151504952D01*
X207372856Y-151384000D01*
X207614761Y-151263048D01*
X208098571Y-151263048D01*
X208340475Y-151384000D01*
X208461428Y-151504952D01*
X208582380Y-151746857D01*
X208582380Y-151867810D01*
X208461428Y-152109714D01*
X208340475Y-152230667D01*
X208098571Y-152351619D01*
X207614761Y-152351619D01*
X207372856Y-152472571D01*
X207251904Y-152593524D01*
X207130952Y-152835429D01*
X207130952Y-153319238D01*
X207251904Y-153561143D01*
X207372856Y-153682095D01*
X207614761Y-153803048D01*
X208098571Y-153803048D01*
X208340475Y-153682095D01*
X208461428Y-153561143D01*
X208582380Y-153319238D01*
X208582380Y-152835429D01*
X208461428Y-152593524D01*
X208340475Y-152472571D01*
X208098571Y-152351619D01*
X164434762Y-157867048D02*
X164434762Y-155327048D01*
X165523333Y-157867048D02*
X165523333Y-156536571D01*
X165402381Y-156294667D01*
X165160476Y-156173714D01*
X164797619Y-156173714D01*
X164555714Y-156294667D01*
X164434762Y-156415619D01*
X166370000Y-156173714D02*
X167337619Y-156173714D01*
X166732857Y-155327048D02*
X166732857Y-157504190D01*
X166853809Y-157746095D01*
X167095714Y-157867048D01*
X167337619Y-157867048D01*
X167821429Y-156173714D02*
X168789048Y-156173714D01*
X168184286Y-155327048D02*
X168184286Y-157504190D01*
X168305238Y-157746095D01*
X168547143Y-157867048D01*
X168789048Y-157867048D01*
X169635715Y-156173714D02*
X169635715Y-158713714D01*
X169635715Y-156294667D02*
X169877620Y-156173714D01*
X170361429Y-156173714D01*
X170603334Y-156294667D01*
X170724286Y-156415619D01*
X170845239Y-156657524D01*
X170845239Y-157383238D01*
X170724286Y-157625143D01*
X170603334Y-157746095D01*
X170361429Y-157867048D01*
X169877620Y-157867048D01*
X169635715Y-157746095D01*
X171933810Y-157625143D02*
X172054762Y-157746095D01*
X171933810Y-157867048D01*
X171812858Y-157746095D01*
X171933810Y-157625143D01*
X171933810Y-157867048D01*
X171933810Y-156294667D02*
X172054762Y-156415619D01*
X171933810Y-156536571D01*
X171812858Y-156415619D01*
X171933810Y-156294667D01*
X171933810Y-156536571D01*
X174957620Y-155206095D02*
X172780477Y-158471810D01*
X177618572Y-155206095D02*
X175441429Y-158471810D01*
X179432857Y-157746095D02*
X179190952Y-157867048D01*
X178707143Y-157867048D01*
X178465238Y-157746095D01*
X178344286Y-157504190D01*
X178344286Y-156536571D01*
X178465238Y-156294667D01*
X178707143Y-156173714D01*
X179190952Y-156173714D01*
X179432857Y-156294667D01*
X179553809Y-156536571D01*
X179553809Y-156778476D01*
X178344286Y-157020381D01*
X181730952Y-157867048D02*
X181730952Y-155327048D01*
X181730952Y-157746095D02*
X181489048Y-157867048D01*
X181005238Y-157867048D01*
X180763333Y-157746095D01*
X180642381Y-157625143D01*
X180521429Y-157383238D01*
X180521429Y-156657524D01*
X180642381Y-156415619D01*
X180763333Y-156294667D01*
X181005238Y-156173714D01*
X181489048Y-156173714D01*
X181730952Y-156294667D01*
X182577619Y-156173714D02*
X183545238Y-156173714D01*
X182940476Y-157867048D02*
X182940476Y-155689905D01*
X183061428Y-155448000D01*
X183303333Y-155327048D01*
X183545238Y-155327048D01*
X184391905Y-157625143D02*
X184512857Y-157746095D01*
X184391905Y-157867048D01*
X184270953Y-157746095D01*
X184391905Y-157625143D01*
X184391905Y-157867048D01*
X185601429Y-157867048D02*
X185601429Y-155327048D01*
X185601429Y-156294667D02*
X185843334Y-156173714D01*
X186327143Y-156173714D01*
X186569048Y-156294667D01*
X186690000Y-156415619D01*
X186810953Y-156657524D01*
X186810953Y-157383238D01*
X186690000Y-157625143D01*
X186569048Y-157746095D01*
X186327143Y-157867048D01*
X185843334Y-157867048D01*
X185601429Y-157746095D01*
X188988095Y-156173714D02*
X188988095Y-157867048D01*
X187899524Y-156173714D02*
X187899524Y-157504190D01*
X188020476Y-157746095D01*
X188262381Y-157867048D01*
X188625238Y-157867048D01*
X188867143Y-157746095D01*
X188988095Y-157625143D01*
X190197619Y-157625143D02*
X190318571Y-157746095D01*
X190197619Y-157867048D01*
X190076667Y-157746095D01*
X190197619Y-157625143D01*
X190197619Y-157867048D01*
X192374762Y-157746095D02*
X192132857Y-157867048D01*
X191649048Y-157867048D01*
X191407143Y-157746095D01*
X191286191Y-157504190D01*
X191286191Y-156536571D01*
X191407143Y-156294667D01*
X191649048Y-156173714D01*
X192132857Y-156173714D01*
X192374762Y-156294667D01*
X192495714Y-156536571D01*
X192495714Y-156778476D01*
X191286191Y-157020381D01*
X194672857Y-157867048D02*
X194672857Y-155327048D01*
X194672857Y-157746095D02*
X194430953Y-157867048D01*
X193947143Y-157867048D01*
X193705238Y-157746095D01*
X193584286Y-157625143D01*
X193463334Y-157383238D01*
X193463334Y-156657524D01*
X193584286Y-156415619D01*
X193705238Y-156294667D01*
X193947143Y-156173714D01*
X194430953Y-156173714D01*
X194672857Y-156294667D01*
X196970952Y-156173714D02*
X196970952Y-157867048D01*
X195882381Y-156173714D02*
X195882381Y-157504190D01*
X196003333Y-157746095D01*
X196245238Y-157867048D01*
X196608095Y-157867048D01*
X196850000Y-157746095D01*
X196970952Y-157625143D01*
D12*
X169481500Y-50800000D02*
X165671500Y-54610000D01*
X165671500Y-54610000D02*
X165671500Y-46990000D01*
X169481500Y-50800000D02*
X165671500Y-46990000D01*
D11*
X166306500Y-53340000D02*
X168846500Y-50800000D01*
X168846500Y-50800000D02*
X166306500Y-48260000D01*
D18*
X166992300Y-51752500D02*
X166992300Y-49847500D01*
D17*
X165862000Y-54356000D02*
X165862000Y-47244000D01*
D19*
X166052500Y-53975000D02*
X166052500Y-47625000D01*
X98679000Y-53975000D02*
X98679000Y-47625000D01*
D17*
X98552000Y-54356000D02*
X98552000Y-47244000D01*
D18*
X99682300Y-51752500D02*
X99682300Y-49847500D01*
D11*
X101536500Y-50800000D02*
X98996500Y-48260000D01*
X98996500Y-53340000D02*
X101536500Y-50800000D01*
D12*
X102171500Y-50800000D02*
X98361500Y-46990000D01*
X98361500Y-54610000D02*
X98361500Y-46990000D01*
X102171500Y-50800000D02*
X98361500Y-54610000D01*
D19*
X81280000Y-120078500D02*
X87630000Y-120078500D01*
D17*
X80899000Y-119888000D02*
X88011000Y-119888000D01*
D18*
X83502500Y-121018300D02*
X85407500Y-121018300D01*
D11*
X84455000Y-122872500D02*
X86995000Y-120332500D01*
X81915000Y-120332500D02*
X84455000Y-122872500D01*
D16*
X59998429Y-43107429D02*
X59127572Y-43107429D01*
X59563000Y-43107429D02*
X59563000Y-41583429D01*
X59417857Y-41801143D01*
X59272715Y-41946286D01*
X59127572Y-42018857D01*
D12*
X84455000Y-123507500D02*
X88265000Y-119697500D01*
X80645000Y-119697500D02*
X88265000Y-119697500D01*
X84455000Y-123507500D02*
X80645000Y-119697500D01*
D19*
X91258573Y-123643571D02*
X89988573Y-121829286D01*
X89081430Y-123643571D02*
X89081430Y-119833571D01*
X90532858Y-119833571D01*
X90895716Y-120015000D01*
X91077144Y-120196429D01*
X91258573Y-120559286D01*
X91258573Y-121103571D01*
X91077144Y-121466429D01*
X90895716Y-121647857D01*
X90532858Y-121829286D01*
X89081430Y-121829286D01*
X92710001Y-123462143D02*
X93254287Y-123643571D01*
X94161430Y-123643571D01*
X94524287Y-123462143D01*
X94705716Y-123280714D01*
X94887144Y-122917857D01*
X94887144Y-122555000D01*
X94705716Y-122192143D01*
X94524287Y-122010714D01*
X94161430Y-121829286D01*
X93435716Y-121647857D01*
X93072858Y-121466429D01*
X92891430Y-121285000D01*
X92710001Y-120922143D01*
X92710001Y-120559286D01*
X92891430Y-120196429D01*
X93072858Y-120015000D01*
X93435716Y-119833571D01*
X94342858Y-119833571D01*
X94887144Y-120015000D01*
X96520001Y-122192143D02*
X99422858Y-122192143D01*
X102870001Y-121103571D02*
X102870001Y-123643571D01*
X101962858Y-119652143D02*
X101055715Y-122373571D01*
X103414287Y-122373571D01*
X105410001Y-121466429D02*
X105047143Y-121285000D01*
X104865715Y-121103571D01*
X104684286Y-120740714D01*
X104684286Y-120559286D01*
X104865715Y-120196429D01*
X105047143Y-120015000D01*
X105410001Y-119833571D01*
X106135715Y-119833571D01*
X106498572Y-120015000D01*
X106680001Y-120196429D01*
X106861429Y-120559286D01*
X106861429Y-120740714D01*
X106680001Y-121103571D01*
X106498572Y-121285000D01*
X106135715Y-121466429D01*
X105410001Y-121466429D01*
X105047143Y-121647857D01*
X104865715Y-121829286D01*
X104684286Y-122192143D01*
X104684286Y-122917857D01*
X104865715Y-123280714D01*
X105047143Y-123462143D01*
X105410001Y-123643571D01*
X106135715Y-123643571D01*
X106498572Y-123462143D01*
X106680001Y-123280714D01*
X106861429Y-122917857D01*
X106861429Y-122192143D01*
X106680001Y-121829286D01*
X106498572Y-121647857D01*
X106135715Y-121466429D01*
X110308572Y-119833571D02*
X108494286Y-119833571D01*
X108312857Y-121647857D01*
X108494286Y-121466429D01*
X108857143Y-121285000D01*
X109764286Y-121285000D01*
X110127143Y-121466429D01*
X110308572Y-121647857D01*
X110490000Y-122010714D01*
X110490000Y-122917857D01*
X110308572Y-123280714D01*
X110127143Y-123462143D01*
X109764286Y-123643571D01*
X108857143Y-123643571D01*
X108494286Y-123462143D01*
X108312857Y-123280714D01*
X115025714Y-123643571D02*
X115025714Y-119833571D01*
X115025714Y-121285000D02*
X115388571Y-121103571D01*
X116114285Y-121103571D01*
X116477142Y-121285000D01*
X116658571Y-121466429D01*
X116840000Y-121829286D01*
X116840000Y-122917857D01*
X116658571Y-123280714D01*
X116477142Y-123462143D01*
X116114285Y-123643571D01*
X115388571Y-123643571D01*
X115025714Y-123462143D01*
X119017143Y-123643571D02*
X118654285Y-123462143D01*
X118472857Y-123280714D01*
X118291428Y-122917857D01*
X118291428Y-121829286D01*
X118472857Y-121466429D01*
X118654285Y-121285000D01*
X119017143Y-121103571D01*
X119561428Y-121103571D01*
X119924285Y-121285000D01*
X120105714Y-121466429D01*
X120287143Y-121829286D01*
X120287143Y-122917857D01*
X120105714Y-123280714D01*
X119924285Y-123462143D01*
X119561428Y-123643571D01*
X119017143Y-123643571D01*
X123552857Y-123643571D02*
X123552857Y-121647857D01*
X123371428Y-121285000D01*
X123008571Y-121103571D01*
X122282857Y-121103571D01*
X121920000Y-121285000D01*
X123552857Y-123462143D02*
X123190000Y-123643571D01*
X122282857Y-123643571D01*
X121920000Y-123462143D01*
X121738571Y-123099286D01*
X121738571Y-122736429D01*
X121920000Y-122373571D01*
X122282857Y-122192143D01*
X123190000Y-122192143D01*
X123552857Y-122010714D01*
X125367143Y-123643571D02*
X125367143Y-121103571D01*
X125367143Y-121829286D02*
X125548571Y-121466429D01*
X125730000Y-121285000D01*
X126092857Y-121103571D01*
X126455714Y-121103571D01*
X129358571Y-123643571D02*
X129358571Y-119833571D01*
X129358571Y-123462143D02*
X128995714Y-123643571D01*
X128270000Y-123643571D01*
X127907142Y-123462143D01*
X127725714Y-123280714D01*
X127544285Y-122917857D01*
X127544285Y-121829286D01*
X127725714Y-121466429D01*
X127907142Y-121285000D01*
X128270000Y-121103571D01*
X128995714Y-121103571D01*
X129358571Y-121285000D01*
X237852858Y-58238571D02*
X236582858Y-56424286D01*
X235675715Y-58238571D02*
X235675715Y-54428571D01*
X237127143Y-54428571D01*
X237490001Y-54610000D01*
X237671429Y-54791429D01*
X237852858Y-55154286D01*
X237852858Y-55698571D01*
X237671429Y-56061429D01*
X237490001Y-56242857D01*
X237127143Y-56424286D01*
X235675715Y-56424286D01*
X239304286Y-58057143D02*
X239848572Y-58238571D01*
X240755715Y-58238571D01*
X241118572Y-58057143D01*
X241300001Y-57875714D01*
X241481429Y-57512857D01*
X241481429Y-57150000D01*
X241300001Y-56787143D01*
X241118572Y-56605714D01*
X240755715Y-56424286D01*
X240030001Y-56242857D01*
X239667143Y-56061429D01*
X239485715Y-55880000D01*
X239304286Y-55517143D01*
X239304286Y-55154286D01*
X239485715Y-54791429D01*
X239667143Y-54610000D01*
X240030001Y-54428571D01*
X240937143Y-54428571D01*
X241481429Y-54610000D01*
X243114286Y-56787143D02*
X246017143Y-56787143D01*
X249464286Y-55698571D02*
X249464286Y-58238571D01*
X248557143Y-54247143D02*
X247650000Y-56968571D01*
X250008572Y-56968571D01*
X252004286Y-56061429D02*
X251641428Y-55880000D01*
X251460000Y-55698571D01*
X251278571Y-55335714D01*
X251278571Y-55154286D01*
X251460000Y-54791429D01*
X251641428Y-54610000D01*
X252004286Y-54428571D01*
X252730000Y-54428571D01*
X253092857Y-54610000D01*
X253274286Y-54791429D01*
X253455714Y-55154286D01*
X253455714Y-55335714D01*
X253274286Y-55698571D01*
X253092857Y-55880000D01*
X252730000Y-56061429D01*
X252004286Y-56061429D01*
X251641428Y-56242857D01*
X251460000Y-56424286D01*
X251278571Y-56787143D01*
X251278571Y-57512857D01*
X251460000Y-57875714D01*
X251641428Y-58057143D01*
X252004286Y-58238571D01*
X252730000Y-58238571D01*
X253092857Y-58057143D01*
X253274286Y-57875714D01*
X253455714Y-57512857D01*
X253455714Y-56787143D01*
X253274286Y-56424286D01*
X253092857Y-56242857D01*
X252730000Y-56061429D01*
X256902857Y-54428571D02*
X255088571Y-54428571D01*
X254907142Y-56242857D01*
X255088571Y-56061429D01*
X255451428Y-55880000D01*
X256358571Y-55880000D01*
X256721428Y-56061429D01*
X256902857Y-56242857D01*
X257084285Y-56605714D01*
X257084285Y-57512857D01*
X256902857Y-57875714D01*
X256721428Y-58057143D01*
X256358571Y-58238571D01*
X255451428Y-58238571D01*
X255088571Y-58057143D01*
X254907142Y-57875714D01*
X261619999Y-58238571D02*
X261619999Y-54428571D01*
X261619999Y-55880000D02*
X261982856Y-55698571D01*
X262708570Y-55698571D01*
X263071427Y-55880000D01*
X263252856Y-56061429D01*
X263434285Y-56424286D01*
X263434285Y-57512857D01*
X263252856Y-57875714D01*
X263071427Y-58057143D01*
X262708570Y-58238571D01*
X261982856Y-58238571D01*
X261619999Y-58057143D01*
X266699999Y-55698571D02*
X266699999Y-58238571D01*
X265067142Y-55698571D02*
X265067142Y-57694286D01*
X265248570Y-58057143D01*
X265611428Y-58238571D01*
X266155713Y-58238571D01*
X266518570Y-58057143D01*
X266699999Y-57875714D01*
X268332856Y-58057143D02*
X268695713Y-58238571D01*
X269421428Y-58238571D01*
X269784285Y-58057143D01*
X269965713Y-57694286D01*
X269965713Y-57512857D01*
X269784285Y-57150000D01*
X269421428Y-56968571D01*
X268877142Y-56968571D01*
X268514285Y-56787143D01*
X268332856Y-56424286D01*
X268332856Y-56242857D01*
X268514285Y-55880000D01*
X268877142Y-55698571D01*
X269421428Y-55698571D01*
X269784285Y-55880000D01*
D12*
X81915000Y-157480000D02*
X81915000Y-124460000D01*
X104775000Y-157480000D02*
X81915000Y-157480000D01*
X104775000Y-124460000D02*
X104775000Y-157480000D01*
X81915000Y-124460000D02*
X104775000Y-124460000D01*
D20*
X279400000Y-160020000D02*
X12700000Y-160020000D01*
X279400000Y-36830000D02*
X279400000Y-160020000D01*
X12700000Y-36830000D02*
X279400000Y-36830000D01*
X12700000Y-160020000D02*
X12700000Y-36830000D01*
X130683000Y-113030000D02*
X133223000Y-113030000D01*
X130683000Y-49530000D02*
X133223000Y-49530000D01*
X133223000Y-113030000D02*
X133223000Y-49530000D01*
X130683000Y-49530000D02*
X130683000Y-113030000D01*
X102743000Y-49530000D02*
X102743000Y-113030000D01*
X105283000Y-113030000D02*
X105283000Y-49530000D01*
X102743000Y-49530000D02*
X105283000Y-49530000D01*
X102743000Y-113030000D02*
X105283000Y-113030000D01*
X197993000Y-113030000D02*
X200533000Y-113030000D01*
X197993000Y-49530000D02*
X200533000Y-49530000D01*
X200533000Y-113030000D02*
X200533000Y-49530000D01*
X197993000Y-49530000D02*
X197993000Y-113030000D01*
X170053000Y-49530000D02*
X170053000Y-113030000D01*
X172593000Y-113030000D02*
X172593000Y-49530000D01*
X170053000Y-49530000D02*
X172593000Y-49530000D01*
X170053000Y-113030000D02*
X172593000Y-113030000D01*
X100965000Y-128270000D02*
X100965000Y-151130000D01*
X100965000Y-151130000D02*
X103505000Y-151130000D01*
X103505000Y-151130000D02*
X103505000Y-128270000D01*
X103505000Y-128270000D02*
X100965000Y-128270000D01*
X83185000Y-128270000D02*
X83185000Y-151130000D01*
X83185000Y-151130000D02*
X85725000Y-151130000D01*
X85725000Y-151130000D02*
X85725000Y-128270000D01*
X85725000Y-128270000D02*
X83185000Y-128270000D01*
X63373000Y-113030000D02*
X65913000Y-113030000D01*
X63373000Y-49530000D02*
X65913000Y-49530000D01*
X65913000Y-113030000D02*
X65913000Y-49530000D01*
X63373000Y-49530000D02*
X63373000Y-113030000D01*
X35433000Y-49530000D02*
X35433000Y-113030000D01*
X37973000Y-113030000D02*
X37973000Y-49530000D01*
X35433000Y-49530000D02*
X37973000Y-49530000D01*
X35433000Y-113030000D02*
X37973000Y-113030000D01*
X13970000Y-127635000D02*
X13970000Y-125095000D01*
X44450000Y-127635000D02*
X44450000Y-125095000D01*
X39370000Y-125095000D02*
X13970000Y-125095000D01*
X13970000Y-127635000D02*
X39370000Y-127635000D01*
X44450000Y-125095000D02*
X39370000Y-125095000D01*
X39370000Y-127635000D02*
X44450000Y-127635000D01*
X39370000Y-142875000D02*
X44450000Y-142875000D01*
X44450000Y-140335000D02*
X39370000Y-140335000D01*
X13970000Y-142875000D02*
X39370000Y-142875000D01*
X39370000Y-140335000D02*
X13970000Y-140335000D01*
X44450000Y-142875000D02*
X44450000Y-140335000D01*
X13970000Y-142875000D02*
X13970000Y-140335000D01*
X37973000Y-113030000D02*
X63373000Y-113030000D01*
X63373000Y-110490000D02*
X37973000Y-110490000D01*
X63373000Y-113030000D02*
X63373000Y-110490000D01*
X37973000Y-113030000D02*
X37973000Y-110490000D01*
X105283000Y-113030000D02*
X130683000Y-113030000D01*
X130683000Y-110490000D02*
X105283000Y-110490000D01*
X130683000Y-113030000D02*
X130683000Y-110490000D01*
X105283000Y-113030000D02*
X105283000Y-110490000D01*
X172593000Y-113030000D02*
X197993000Y-113030000D01*
X197993000Y-110490000D02*
X172593000Y-110490000D01*
X197993000Y-113030000D02*
X197993000Y-110490000D01*
X172593000Y-113030000D02*
X172593000Y-110490000D01*
X37973000Y-110490000D02*
X63373000Y-110490000D01*
X63373000Y-107950000D02*
X37973000Y-107950000D01*
X63373000Y-110490000D02*
X63373000Y-107950000D01*
X37973000Y-110490000D02*
X37973000Y-107950000D01*
X105283000Y-110490000D02*
X130683000Y-110490000D01*
X130683000Y-107950000D02*
X105283000Y-107950000D01*
X130683000Y-110490000D02*
X130683000Y-107950000D01*
X105283000Y-110490000D02*
X105283000Y-107950000D01*
X172593000Y-110490000D02*
X197993000Y-110490000D01*
X197993000Y-107950000D02*
X172593000Y-107950000D01*
X197993000Y-110490000D02*
X197993000Y-107950000D01*
X172593000Y-110490000D02*
X172593000Y-107950000D01*
X270970000Y-135335000D02*
X278970000Y-135335000D01*
X261970000Y-135335000D02*
X264970000Y-135335000D01*
X261970000Y-135335000D02*
X261970000Y-145335000D01*
X261970000Y-145335000D02*
X278970000Y-145335000D01*
X23590000Y-143395000D02*
X19590000Y-143395000D01*
X19590000Y-143395000D02*
X19590000Y-144895000D01*
X19590000Y-144895000D02*
X23590000Y-144895000D01*
X23590000Y-144895000D02*
X23590000Y-143395000D01*
X221500000Y-131350000D02*
X221500000Y-135350000D01*
X221500000Y-135350000D02*
X223000000Y-135350000D01*
X223000000Y-135350000D02*
X223000000Y-131350000D01*
X223000000Y-131350000D02*
X221500000Y-131350000D01*
X223000000Y-154400000D02*
X223000000Y-150400000D01*
X223000000Y-150400000D02*
X221500000Y-150400000D01*
X221500000Y-150400000D02*
X221500000Y-154400000D01*
X221500000Y-154400000D02*
X223000000Y-154400000D01*
X28575000Y-118110000D02*
X28575000Y-115570000D01*
X18415000Y-118110000D02*
X28575000Y-118110000D01*
X18415000Y-115570000D02*
X18415000Y-118110000D01*
X28575000Y-115570000D02*
X18415000Y-115570000D01*
X21844000Y-115951000D02*
X21844000Y-117729000D01*
X25146000Y-115951000D02*
X21844000Y-115951000D01*
X25146000Y-117729000D02*
X21844000Y-117729000D01*
X25146000Y-115951000D02*
X25146000Y-117729000D01*
X19050000Y-107950000D02*
X21590000Y-107950000D01*
X19050000Y-97790000D02*
X19050000Y-107950000D01*
X21590000Y-97790000D02*
X19050000Y-97790000D01*
X21590000Y-107950000D02*
X21590000Y-97790000D01*
X21209000Y-101219000D02*
X19431000Y-101219000D01*
X21209000Y-104521000D02*
X21209000Y-101219000D01*
X19431000Y-104521000D02*
X19431000Y-101219000D01*
X21209000Y-104521000D02*
X19431000Y-104521000D01*
X226568000Y-43688000D02*
X226568000Y-42418000D01*
X226568000Y-46228000D02*
X226568000Y-44958000D01*
X224028000Y-46228000D02*
X225298000Y-46228000D01*
X221488000Y-46228000D02*
X222758000Y-46228000D01*
X218948000Y-46228000D02*
X220218000Y-46228000D01*
X216408000Y-46228000D02*
X217678000Y-46228000D01*
X213868000Y-46228000D02*
X215138000Y-46228000D01*
X211328000Y-46228000D02*
X212598000Y-46228000D01*
X208788000Y-46228000D02*
X210058000Y-46228000D01*
X206248000Y-46228000D02*
X207518000Y-46228000D01*
X206248000Y-43688000D02*
X206248000Y-44958000D01*
X206248000Y-41656000D02*
X206248000Y-42418000D01*
X230327200Y-41325800D02*
X230327200Y-31546800D01*
X202488800Y-31546800D02*
X230327200Y-31546800D01*
X202488800Y-41325800D02*
X202488800Y-31546800D01*
X230327200Y-41325800D02*
X202488800Y-41325800D01*
X193548000Y-43688000D02*
X193548000Y-42418000D01*
X193548000Y-46228000D02*
X193548000Y-44958000D01*
X191008000Y-46228000D02*
X192278000Y-46228000D01*
X188468000Y-46228000D02*
X189738000Y-46228000D01*
X185928000Y-46228000D02*
X187198000Y-46228000D01*
X183388000Y-46228000D02*
X184658000Y-46228000D01*
X180848000Y-46228000D02*
X182118000Y-46228000D01*
X178308000Y-46228000D02*
X179578000Y-46228000D01*
X175768000Y-46228000D02*
X177038000Y-46228000D01*
X173228000Y-46228000D02*
X174498000Y-46228000D01*
X173228000Y-43688000D02*
X173228000Y-44958000D01*
X173228000Y-41656000D02*
X173228000Y-42418000D01*
X197307200Y-41325800D02*
X197307200Y-31546800D01*
X169468800Y-31546800D02*
X197307200Y-31546800D01*
X169468800Y-41325800D02*
X169468800Y-31546800D01*
X197307200Y-41325800D02*
X169468800Y-41325800D01*
X159258000Y-43688000D02*
X159258000Y-42418000D01*
X159258000Y-46228000D02*
X159258000Y-44958000D01*
X156718000Y-46228000D02*
X157988000Y-46228000D01*
X154178000Y-46228000D02*
X155448000Y-46228000D01*
X151638000Y-46228000D02*
X152908000Y-46228000D01*
X149098000Y-46228000D02*
X150368000Y-46228000D01*
X146558000Y-46228000D02*
X147828000Y-46228000D01*
X144018000Y-46228000D02*
X145288000Y-46228000D01*
X141478000Y-46228000D02*
X142748000Y-46228000D01*
X138938000Y-46228000D02*
X140208000Y-46228000D01*
X138938000Y-43688000D02*
X138938000Y-44958000D01*
X138938000Y-41656000D02*
X138938000Y-42418000D01*
X163017200Y-41325800D02*
X163017200Y-31546800D01*
X135178800Y-31546800D02*
X163017200Y-31546800D01*
X135178800Y-41325800D02*
X135178800Y-31546800D01*
X163017200Y-41325800D02*
X135178800Y-41325800D01*
X126238000Y-43688000D02*
X126238000Y-42418000D01*
X126238000Y-46228000D02*
X126238000Y-44958000D01*
X123698000Y-46228000D02*
X124968000Y-46228000D01*
X121158000Y-46228000D02*
X122428000Y-46228000D01*
X118618000Y-46228000D02*
X119888000Y-46228000D01*
X116078000Y-46228000D02*
X117348000Y-46228000D01*
X113538000Y-46228000D02*
X114808000Y-46228000D01*
X110998000Y-46228000D02*
X112268000Y-46228000D01*
X108458000Y-46228000D02*
X109728000Y-46228000D01*
X105918000Y-46228000D02*
X107188000Y-46228000D01*
X105918000Y-43688000D02*
X105918000Y-44958000D01*
X105918000Y-41656000D02*
X105918000Y-42418000D01*
X129997200Y-41325800D02*
X129997200Y-31546800D01*
X102158800Y-31546800D02*
X129997200Y-31546800D01*
X102158800Y-41325800D02*
X102158800Y-31546800D01*
X129997200Y-41325800D02*
X102158800Y-41325800D01*
X58928000Y-43688000D02*
X58928000Y-42418000D01*
X58928000Y-46228000D02*
X58928000Y-44958000D01*
X56388000Y-46228000D02*
X57658000Y-46228000D01*
X53848000Y-46228000D02*
X55118000Y-46228000D01*
X51308000Y-46228000D02*
X52578000Y-46228000D01*
X48768000Y-46228000D02*
X50038000Y-46228000D01*
X46228000Y-46228000D02*
X47498000Y-46228000D01*
X43688000Y-46228000D02*
X44958000Y-46228000D01*
X41148000Y-46228000D02*
X42418000Y-46228000D01*
X38608000Y-46228000D02*
X39878000Y-46228000D01*
X38608000Y-43688000D02*
X38608000Y-44958000D01*
X38608000Y-41656000D02*
X38608000Y-42418000D01*
X62687200Y-41325800D02*
X62687200Y-31546800D01*
X34848800Y-31546800D02*
X62687200Y-31546800D01*
X34848800Y-41325800D02*
X34848800Y-31546800D01*
X62687200Y-41325800D02*
X34848800Y-41325800D01*
X91948000Y-43688000D02*
X91948000Y-42418000D01*
X91948000Y-46228000D02*
X91948000Y-44958000D01*
X89408000Y-46228000D02*
X90678000Y-46228000D01*
X86868000Y-46228000D02*
X88138000Y-46228000D01*
X84328000Y-46228000D02*
X85598000Y-46228000D01*
X81788000Y-46228000D02*
X83058000Y-46228000D01*
X79248000Y-46228000D02*
X80518000Y-46228000D01*
X76708000Y-46228000D02*
X77978000Y-46228000D01*
X74168000Y-46228000D02*
X75438000Y-46228000D01*
X71628000Y-46228000D02*
X72898000Y-46228000D01*
X71628000Y-43688000D02*
X71628000Y-44958000D01*
X71628000Y-41656000D02*
X71628000Y-42418000D01*
X95707200Y-41325800D02*
X95707200Y-31546800D01*
X67868800Y-31546800D02*
X95707200Y-31546800D01*
X67868800Y-41325800D02*
X67868800Y-31546800D01*
X95707200Y-41325800D02*
X67868800Y-41325800D01*
X224917000Y-143510000D02*
G75*
G03X224917000Y-143510000I-508000J0D01*
G01*
X224790000Y-147320000D02*
X224790000Y-139700000D01*
X224155000Y-147320000D02*
X224790000Y-147320000D01*
X224155000Y-139700000D02*
X224155000Y-147320000D01*
X224790000Y-139700000D02*
X224155000Y-139700000D01*
X225171000Y-138430000D02*
X225171000Y-148590000D01*
X220345000Y-148590000D02*
X225171000Y-148590000D01*
X220345000Y-138430000D02*
X220345000Y-148590000D01*
X220345000Y-138430000D02*
X225171000Y-138430000D01*
X270320000Y-63485000D02*
X278320000Y-63485000D01*
X278320000Y-63485000D02*
X278320000Y-72485000D01*
X270320000Y-72485000D02*
X278320000Y-72485000D01*
X270320000Y-63485000D02*
X270320000Y-72485000D01*
X278760000Y-105690000D02*
X278760000Y-126690000D01*
X262260000Y-105690000D02*
X278760000Y-105690000D01*
X262260000Y-126690000D02*
X262260000Y-105690000D01*
X278760000Y-126690000D02*
X262260000Y-126690000D01*
X278760000Y-79797000D02*
X278760000Y-100797000D01*
X262260000Y-79797000D02*
X278760000Y-79797000D01*
X262260000Y-100797000D02*
X262260000Y-79797000D01*
X278760000Y-100797000D02*
X262260000Y-100797000D01*
X221842000Y-133350000D02*
X221842000Y-132080000D01*
X221842000Y-135890000D02*
X221842000Y-134620000D01*
X221842000Y-138430000D02*
X221842000Y-137160000D01*
X221842000Y-140970000D02*
X221842000Y-139700000D01*
X221842000Y-144145000D02*
X221842000Y-142875000D01*
X221842000Y-147320000D02*
X221842000Y-146050000D01*
X221842000Y-149860000D02*
X221842000Y-148590000D01*
X221842000Y-152400000D02*
X221842000Y-151130000D01*
X221842000Y-154940000D02*
X221842000Y-153670000D01*
X221842000Y-157480000D02*
X221842000Y-156210000D01*
X221842000Y-129540000D02*
X221842000Y-130810000D01*
X236112000Y-158410000D02*
X236112000Y-128610000D01*
X236112000Y-158410000D02*
X229792000Y-158410000D01*
X226392000Y-128610000D02*
X226392000Y-158410000D01*
X229792000Y-132510000D02*
X226392000Y-132510000D01*
X229792000Y-128610000D02*
X229792000Y-158410000D01*
X226392000Y-158410000D02*
X229792000Y-158410000D01*
X226392000Y-128610000D02*
X229792000Y-128610000D01*
X229792000Y-154510000D02*
X226392000Y-154510000D01*
X236112000Y-128610000D02*
X229792000Y-128610000D01*
X222592000Y-158410000D02*
X221842000Y-158410000D01*
X226392000Y-158410000D02*
X225592000Y-158410000D01*
X224592000Y-158410000D02*
X223592000Y-158410000D01*
X224592000Y-128610000D02*
X223592000Y-128610000D01*
X222592000Y-128610000D02*
X221842000Y-128610000D01*
X226392000Y-128610000D02*
X225592000Y-128610000D01*
X82328887Y-98425000D02*
G75*
G03X82328887Y-98425000I-3969887J0D01*
G01*
X278035887Y-153924000D02*
G75*
G03X278035887Y-153924000I-3969887J0D01*
G01*
X24797887Y-153924000D02*
G75*
G03X24797887Y-153924000I-3969887J0D01*
G01*
X216948887Y-98425000D02*
G75*
G03X216948887Y-98425000I-3969887J0D01*
G01*
X278035887Y-42926000D02*
G75*
G03X278035887Y-42926000I-3969887J0D01*
G01*
X24797887Y-42926000D02*
G75*
G03X24797887Y-42926000I-3969887J0D01*
G01*
X267292900Y-31490000D02*
X254092900Y-31490000D01*
X254092900Y-49490000D02*
X254092900Y-31490000D01*
X267292900Y-49490000D02*
X254092900Y-49490000D01*
X267292900Y-49490000D02*
X267292900Y-31490000D01*
X251386150Y-31490000D02*
X238186150Y-31490000D01*
X238186150Y-49490000D02*
X238186150Y-31490000D01*
X251386150Y-49490000D02*
X238186150Y-49490000D01*
X251386150Y-49490000D02*
X251386150Y-31490000D01*
D15*
X96858667Y-82084333D02*
X96858667Y-80306333D01*
X97451334Y-81576333D01*
X98044001Y-80306333D01*
X98044001Y-82084333D01*
X98806001Y-80475667D02*
X98890667Y-80391000D01*
X99060001Y-80306333D01*
X99483334Y-80306333D01*
X99652667Y-80391000D01*
X99737334Y-80475667D01*
X99822001Y-80645000D01*
X99822001Y-80814333D01*
X99737334Y-81068333D01*
X98721334Y-82084333D01*
X99822001Y-82084333D01*
X164168667Y-82084333D02*
X164168667Y-80306333D01*
X164761334Y-81576333D01*
X165354001Y-80306333D01*
X165354001Y-82084333D01*
X166031334Y-80306333D02*
X167132001Y-80306333D01*
X166539334Y-80983667D01*
X166793334Y-80983667D01*
X166962667Y-81068333D01*
X167047334Y-81153000D01*
X167132001Y-81322333D01*
X167132001Y-81745667D01*
X167047334Y-81915000D01*
X166962667Y-81999667D01*
X166793334Y-82084333D01*
X166285334Y-82084333D01*
X166116001Y-81999667D01*
X166031334Y-81915000D01*
X105875667Y-140504333D02*
X105875667Y-138726333D01*
X106468334Y-139996333D01*
X107061001Y-138726333D01*
X107061001Y-140504333D01*
X108669667Y-139319000D02*
X108669667Y-140504333D01*
X108246334Y-138641667D02*
X107823001Y-139911667D01*
X108923667Y-139911667D01*
X29548667Y-82084333D02*
X29548667Y-80306333D01*
X30141334Y-81576333D01*
X30734001Y-80306333D01*
X30734001Y-82084333D01*
X32512001Y-82084333D02*
X31496001Y-82084333D01*
X32004001Y-82084333D02*
X32004001Y-80306333D01*
X31834667Y-80560333D01*
X31665334Y-80729667D01*
X31496001Y-80814333D01*
X41825333Y-122216333D02*
X41825333Y-123655667D01*
X41910000Y-123825000D01*
X41994667Y-123909667D01*
X42164000Y-123994333D01*
X42502667Y-123994333D01*
X42672000Y-123909667D01*
X42756667Y-123825000D01*
X42841333Y-123655667D01*
X42841333Y-122216333D01*
X44619334Y-123994333D02*
X43603334Y-123994333D01*
X44111334Y-123994333D02*
X44111334Y-122216333D01*
X43942000Y-122470333D01*
X43772667Y-122639667D01*
X43603334Y-122724333D01*
X67860334Y-110871000D02*
X67691000Y-110786333D01*
X67437000Y-110786333D01*
X67183000Y-110871000D01*
X67013667Y-111040333D01*
X66929000Y-111209667D01*
X66844334Y-111548333D01*
X66844334Y-111802333D01*
X66929000Y-112141000D01*
X67013667Y-112310333D01*
X67183000Y-112479667D01*
X67437000Y-112564333D01*
X67606334Y-112564333D01*
X67860334Y-112479667D01*
X67945000Y-112395000D01*
X67945000Y-111802333D01*
X67606334Y-111802333D01*
X68707000Y-112564333D02*
X68707000Y-110786333D01*
X69723000Y-112564333D01*
X69723000Y-110786333D01*
X70569667Y-112564333D02*
X70569667Y-110786333D01*
X70993001Y-110786333D01*
X71247001Y-110871000D01*
X71416334Y-111040333D01*
X71501001Y-111209667D01*
X71585667Y-111548333D01*
X71585667Y-111802333D01*
X71501001Y-112141000D01*
X71416334Y-112310333D01*
X71247001Y-112479667D01*
X70993001Y-112564333D01*
X70569667Y-112564333D01*
X71924334Y-112733667D02*
X73279001Y-112733667D01*
X73702334Y-112564333D02*
X73702334Y-110786333D01*
X74295001Y-112056333D01*
X74887668Y-110786333D01*
X74887668Y-112564333D01*
X76665668Y-112564333D02*
X75649668Y-112564333D01*
X76157668Y-112564333D02*
X76157668Y-110786333D01*
X75988334Y-111040333D01*
X75819001Y-111209667D01*
X75649668Y-111294333D01*
X135170334Y-110871000D02*
X135001000Y-110786333D01*
X134747000Y-110786333D01*
X134493000Y-110871000D01*
X134323667Y-111040333D01*
X134239000Y-111209667D01*
X134154334Y-111548333D01*
X134154334Y-111802333D01*
X134239000Y-112141000D01*
X134323667Y-112310333D01*
X134493000Y-112479667D01*
X134747000Y-112564333D01*
X134916334Y-112564333D01*
X135170334Y-112479667D01*
X135255000Y-112395000D01*
X135255000Y-111802333D01*
X134916334Y-111802333D01*
X136017000Y-112564333D02*
X136017000Y-110786333D01*
X137033000Y-112564333D01*
X137033000Y-110786333D01*
X137879667Y-112564333D02*
X137879667Y-110786333D01*
X138303001Y-110786333D01*
X138557001Y-110871000D01*
X138726334Y-111040333D01*
X138811001Y-111209667D01*
X138895667Y-111548333D01*
X138895667Y-111802333D01*
X138811001Y-112141000D01*
X138726334Y-112310333D01*
X138557001Y-112479667D01*
X138303001Y-112564333D01*
X137879667Y-112564333D01*
X139234334Y-112733667D02*
X140589001Y-112733667D01*
X141012334Y-112564333D02*
X141012334Y-110786333D01*
X141605001Y-112056333D01*
X142197668Y-110786333D01*
X142197668Y-112564333D01*
X142959668Y-110955667D02*
X143044334Y-110871000D01*
X143213668Y-110786333D01*
X143637001Y-110786333D01*
X143806334Y-110871000D01*
X143891001Y-110955667D01*
X143975668Y-111125000D01*
X143975668Y-111294333D01*
X143891001Y-111548333D01*
X142875001Y-112564333D01*
X143975668Y-112564333D01*
X202480334Y-110871000D02*
X202311000Y-110786333D01*
X202057000Y-110786333D01*
X201803000Y-110871000D01*
X201633667Y-111040333D01*
X201549000Y-111209667D01*
X201464334Y-111548333D01*
X201464334Y-111802333D01*
X201549000Y-112141000D01*
X201633667Y-112310333D01*
X201803000Y-112479667D01*
X202057000Y-112564333D01*
X202226334Y-112564333D01*
X202480334Y-112479667D01*
X202565000Y-112395000D01*
X202565000Y-111802333D01*
X202226334Y-111802333D01*
X203327000Y-112564333D02*
X203327000Y-110786333D01*
X204343000Y-112564333D01*
X204343000Y-110786333D01*
X205189667Y-112564333D02*
X205189667Y-110786333D01*
X205613001Y-110786333D01*
X205867001Y-110871000D01*
X206036334Y-111040333D01*
X206121001Y-111209667D01*
X206205667Y-111548333D01*
X206205667Y-111802333D01*
X206121001Y-112141000D01*
X206036334Y-112310333D01*
X205867001Y-112479667D01*
X205613001Y-112564333D01*
X205189667Y-112564333D01*
X206544334Y-112733667D02*
X207899001Y-112733667D01*
X208322334Y-112564333D02*
X208322334Y-110786333D01*
X208915001Y-112056333D01*
X209507668Y-110786333D01*
X209507668Y-112564333D01*
X210185001Y-110786333D02*
X211285668Y-110786333D01*
X210693001Y-111463667D01*
X210947001Y-111463667D01*
X211116334Y-111548333D01*
X211201001Y-111633000D01*
X211285668Y-111802333D01*
X211285668Y-112225667D01*
X211201001Y-112395000D01*
X211116334Y-112479667D01*
X210947001Y-112564333D01*
X210439001Y-112564333D01*
X210269668Y-112479667D01*
X210185001Y-112395000D01*
X66844333Y-110024333D02*
X66844333Y-108246333D01*
X67521667Y-108246333D01*
X67691000Y-108331000D01*
X67775667Y-108415667D01*
X67860333Y-108585000D01*
X67860333Y-108839000D01*
X67775667Y-109008333D01*
X67691000Y-109093000D01*
X67521667Y-109177667D01*
X66844333Y-109177667D01*
X68453000Y-108246333D02*
X68876333Y-110024333D01*
X69215000Y-108754333D01*
X69553667Y-110024333D01*
X69977000Y-108246333D01*
X71670333Y-110024333D02*
X71077667Y-109177667D01*
X70654333Y-110024333D02*
X70654333Y-108246333D01*
X71331667Y-108246333D01*
X71501000Y-108331000D01*
X71585667Y-108415667D01*
X71670333Y-108585000D01*
X71670333Y-108839000D01*
X71585667Y-109008333D01*
X71501000Y-109093000D01*
X71331667Y-109177667D01*
X70654333Y-109177667D01*
X72009000Y-110193667D02*
X73363667Y-110193667D01*
X73787000Y-110024333D02*
X73787000Y-108246333D01*
X74379667Y-109516333D01*
X74972334Y-108246333D01*
X74972334Y-110024333D01*
X76750334Y-110024333D02*
X75734334Y-110024333D01*
X76242334Y-110024333D02*
X76242334Y-108246333D01*
X76073000Y-108500333D01*
X75903667Y-108669667D01*
X75734334Y-108754333D01*
X134154333Y-110024333D02*
X134154333Y-108246333D01*
X134831667Y-108246333D01*
X135001000Y-108331000D01*
X135085667Y-108415667D01*
X135170333Y-108585000D01*
X135170333Y-108839000D01*
X135085667Y-109008333D01*
X135001000Y-109093000D01*
X134831667Y-109177667D01*
X134154333Y-109177667D01*
X135763000Y-108246333D02*
X136186333Y-110024333D01*
X136525000Y-108754333D01*
X136863667Y-110024333D01*
X137287000Y-108246333D01*
X138980333Y-110024333D02*
X138387667Y-109177667D01*
X137964333Y-110024333D02*
X137964333Y-108246333D01*
X138641667Y-108246333D01*
X138811000Y-108331000D01*
X138895667Y-108415667D01*
X138980333Y-108585000D01*
X138980333Y-108839000D01*
X138895667Y-109008333D01*
X138811000Y-109093000D01*
X138641667Y-109177667D01*
X137964333Y-109177667D01*
X139319000Y-110193667D02*
X140673667Y-110193667D01*
X141097000Y-110024333D02*
X141097000Y-108246333D01*
X141689667Y-109516333D01*
X142282334Y-108246333D01*
X142282334Y-110024333D01*
X143044334Y-108415667D02*
X143129000Y-108331000D01*
X143298334Y-108246333D01*
X143721667Y-108246333D01*
X143891000Y-108331000D01*
X143975667Y-108415667D01*
X144060334Y-108585000D01*
X144060334Y-108754333D01*
X143975667Y-109008333D01*
X142959667Y-110024333D01*
X144060334Y-110024333D01*
X201464333Y-110024333D02*
X201464333Y-108246333D01*
X202141667Y-108246333D01*
X202311000Y-108331000D01*
X202395667Y-108415667D01*
X202480333Y-108585000D01*
X202480333Y-108839000D01*
X202395667Y-109008333D01*
X202311000Y-109093000D01*
X202141667Y-109177667D01*
X201464333Y-109177667D01*
X203073000Y-108246333D02*
X203496333Y-110024333D01*
X203835000Y-108754333D01*
X204173667Y-110024333D01*
X204597000Y-108246333D01*
X206290333Y-110024333D02*
X205697667Y-109177667D01*
X205274333Y-110024333D02*
X205274333Y-108246333D01*
X205951667Y-108246333D01*
X206121000Y-108331000D01*
X206205667Y-108415667D01*
X206290333Y-108585000D01*
X206290333Y-108839000D01*
X206205667Y-109008333D01*
X206121000Y-109093000D01*
X205951667Y-109177667D01*
X205274333Y-109177667D01*
X206629000Y-110193667D02*
X207983667Y-110193667D01*
X208407000Y-110024333D02*
X208407000Y-108246333D01*
X208999667Y-109516333D01*
X209592334Y-108246333D01*
X209592334Y-110024333D01*
X210269667Y-108246333D02*
X211370334Y-108246333D01*
X210777667Y-108923667D01*
X211031667Y-108923667D01*
X211201000Y-109008333D01*
X211285667Y-109093000D01*
X211370334Y-109262333D01*
X211370334Y-109685667D01*
X211285667Y-109855000D01*
X211201000Y-109939667D01*
X211031667Y-110024333D01*
X210523667Y-110024333D01*
X210354334Y-109939667D01*
X210269667Y-109855000D01*
X259439833Y-139361333D02*
X259439833Y-140631333D01*
X259355167Y-140885333D01*
X259185833Y-141054667D01*
X258931833Y-141139333D01*
X258762500Y-141139333D01*
X260117167Y-139361333D02*
X261217834Y-139361333D01*
X260625167Y-140038667D01*
X260879167Y-140038667D01*
X261048500Y-140123333D01*
X261133167Y-140208000D01*
X261217834Y-140377333D01*
X261217834Y-140800667D01*
X261133167Y-140970000D01*
X261048500Y-141054667D01*
X260879167Y-141139333D01*
X260371167Y-141139333D01*
X260201834Y-141054667D01*
X260117167Y-140970000D01*
X21293667Y-147320000D02*
X21209001Y-147404667D01*
X20955001Y-147489333D01*
X20785667Y-147489333D01*
X20531667Y-147404667D01*
X20362334Y-147235333D01*
X20277667Y-147066000D01*
X20193001Y-146727333D01*
X20193001Y-146473333D01*
X20277667Y-146134667D01*
X20362334Y-145965333D01*
X20531667Y-145796000D01*
X20785667Y-145711333D01*
X20955001Y-145711333D01*
X21209001Y-145796000D01*
X21293667Y-145880667D01*
X22987001Y-147489333D02*
X21971001Y-147489333D01*
X22479001Y-147489333D02*
X22479001Y-145711333D01*
X22309667Y-145965333D01*
X22140334Y-146134667D01*
X21971001Y-146219333D01*
X218143667Y-133985000D02*
X218059001Y-134069667D01*
X217805001Y-134154333D01*
X217635667Y-134154333D01*
X217381667Y-134069667D01*
X217212334Y-133900333D01*
X217127667Y-133731000D01*
X217043001Y-133392333D01*
X217043001Y-133138333D01*
X217127667Y-132799667D01*
X217212334Y-132630333D01*
X217381667Y-132461000D01*
X217635667Y-132376333D01*
X217805001Y-132376333D01*
X218059001Y-132461000D01*
X218143667Y-132545667D01*
X218821001Y-132545667D02*
X218905667Y-132461000D01*
X219075001Y-132376333D01*
X219498334Y-132376333D01*
X219667667Y-132461000D01*
X219752334Y-132545667D01*
X219837001Y-132715000D01*
X219837001Y-132884333D01*
X219752334Y-133138333D01*
X218736334Y-134154333D01*
X219837001Y-134154333D01*
X218143667Y-153035000D02*
X218059001Y-153119667D01*
X217805001Y-153204333D01*
X217635667Y-153204333D01*
X217381667Y-153119667D01*
X217212334Y-152950333D01*
X217127667Y-152781000D01*
X217043001Y-152442333D01*
X217043001Y-152188333D01*
X217127667Y-151849667D01*
X217212334Y-151680333D01*
X217381667Y-151511000D01*
X217635667Y-151426333D01*
X217805001Y-151426333D01*
X218059001Y-151511000D01*
X218143667Y-151595667D01*
X218736334Y-151426333D02*
X219837001Y-151426333D01*
X219244334Y-152103667D01*
X219498334Y-152103667D01*
X219667667Y-152188333D01*
X219752334Y-152273000D01*
X219837001Y-152442333D01*
X219837001Y-152865667D01*
X219752334Y-153035000D01*
X219667667Y-153119667D01*
X219498334Y-153204333D01*
X218990334Y-153204333D01*
X218821001Y-153119667D01*
X218736334Y-153035000D01*
X30183667Y-117644333D02*
X29591001Y-116797667D01*
X29167667Y-117644333D02*
X29167667Y-115866333D01*
X29845001Y-115866333D01*
X30014334Y-115951000D01*
X30099001Y-116035667D01*
X30183667Y-116205000D01*
X30183667Y-116459000D01*
X30099001Y-116628333D01*
X30014334Y-116713000D01*
X29845001Y-116797667D01*
X29167667Y-116797667D01*
X30861001Y-116035667D02*
X30945667Y-115951000D01*
X31115001Y-115866333D01*
X31538334Y-115866333D01*
X31707667Y-115951000D01*
X31792334Y-116035667D01*
X31877001Y-116205000D01*
X31877001Y-116374333D01*
X31792334Y-116628333D01*
X30776334Y-117644333D01*
X31877001Y-117644333D01*
X23198667Y-103674333D02*
X22606001Y-102827667D01*
X22182667Y-103674333D02*
X22182667Y-101896333D01*
X22860001Y-101896333D01*
X23029334Y-101981000D01*
X23114001Y-102065667D01*
X23198667Y-102235000D01*
X23198667Y-102489000D01*
X23114001Y-102658333D01*
X23029334Y-102743000D01*
X22860001Y-102827667D01*
X22182667Y-102827667D01*
X24892001Y-103674333D02*
X23876001Y-103674333D01*
X24384001Y-103674333D02*
X24384001Y-101896333D01*
X24214667Y-102150333D01*
X24045334Y-102319667D01*
X23876001Y-102404333D01*
X202522667Y-43349333D02*
X202522667Y-41571333D01*
X203200001Y-41571333D01*
X203369334Y-41656000D01*
X203454001Y-41740667D01*
X203538667Y-41910000D01*
X203538667Y-42164000D01*
X203454001Y-42333333D01*
X203369334Y-42418000D01*
X203200001Y-42502667D01*
X202522667Y-42502667D01*
X205062667Y-41571333D02*
X204724001Y-41571333D01*
X204554667Y-41656000D01*
X204470001Y-41740667D01*
X204300667Y-41994667D01*
X204216001Y-42333333D01*
X204216001Y-43010667D01*
X204300667Y-43180000D01*
X204385334Y-43264667D01*
X204554667Y-43349333D01*
X204893334Y-43349333D01*
X205062667Y-43264667D01*
X205147334Y-43180000D01*
X205232001Y-43010667D01*
X205232001Y-42587333D01*
X205147334Y-42418000D01*
X205062667Y-42333333D01*
X204893334Y-42248667D01*
X204554667Y-42248667D01*
X204385334Y-42333333D01*
X204300667Y-42418000D01*
X204216001Y-42587333D01*
X169502667Y-43349333D02*
X169502667Y-41571333D01*
X170180001Y-41571333D01*
X170349334Y-41656000D01*
X170434001Y-41740667D01*
X170518667Y-41910000D01*
X170518667Y-42164000D01*
X170434001Y-42333333D01*
X170349334Y-42418000D01*
X170180001Y-42502667D01*
X169502667Y-42502667D01*
X172127334Y-41571333D02*
X171280667Y-41571333D01*
X171196001Y-42418000D01*
X171280667Y-42333333D01*
X171450001Y-42248667D01*
X171873334Y-42248667D01*
X172042667Y-42333333D01*
X172127334Y-42418000D01*
X172212001Y-42587333D01*
X172212001Y-43010667D01*
X172127334Y-43180000D01*
X172042667Y-43264667D01*
X171873334Y-43349333D01*
X171450001Y-43349333D01*
X171280667Y-43264667D01*
X171196001Y-43180000D01*
X135212667Y-43349333D02*
X135212667Y-41571333D01*
X135890001Y-41571333D01*
X136059334Y-41656000D01*
X136144001Y-41740667D01*
X136228667Y-41910000D01*
X136228667Y-42164000D01*
X136144001Y-42333333D01*
X136059334Y-42418000D01*
X135890001Y-42502667D01*
X135212667Y-42502667D01*
X137752667Y-42164000D02*
X137752667Y-43349333D01*
X137329334Y-41486667D02*
X136906001Y-42756667D01*
X138006667Y-42756667D01*
X102192667Y-43349333D02*
X102192667Y-41571333D01*
X102870001Y-41571333D01*
X103039334Y-41656000D01*
X103124001Y-41740667D01*
X103208667Y-41910000D01*
X103208667Y-42164000D01*
X103124001Y-42333333D01*
X103039334Y-42418000D01*
X102870001Y-42502667D01*
X102192667Y-42502667D01*
X103801334Y-41571333D02*
X104902001Y-41571333D01*
X104309334Y-42248667D01*
X104563334Y-42248667D01*
X104732667Y-42333333D01*
X104817334Y-42418000D01*
X104902001Y-42587333D01*
X104902001Y-43010667D01*
X104817334Y-43180000D01*
X104732667Y-43264667D01*
X104563334Y-43349333D01*
X104055334Y-43349333D01*
X103886001Y-43264667D01*
X103801334Y-43180000D01*
X34882667Y-43349333D02*
X34882667Y-41571333D01*
X35560001Y-41571333D01*
X35729334Y-41656000D01*
X35814001Y-41740667D01*
X35898667Y-41910000D01*
X35898667Y-42164000D01*
X35814001Y-42333333D01*
X35729334Y-42418000D01*
X35560001Y-42502667D01*
X34882667Y-42502667D01*
X37592001Y-43349333D02*
X36576001Y-43349333D01*
X37084001Y-43349333D02*
X37084001Y-41571333D01*
X36914667Y-41825333D01*
X36745334Y-41994667D01*
X36576001Y-42079333D01*
X67902667Y-43349333D02*
X67902667Y-41571333D01*
X68580001Y-41571333D01*
X68749334Y-41656000D01*
X68834001Y-41740667D01*
X68918667Y-41910000D01*
X68918667Y-42164000D01*
X68834001Y-42333333D01*
X68749334Y-42418000D01*
X68580001Y-42502667D01*
X67902667Y-42502667D01*
X69596001Y-41740667D02*
X69680667Y-41656000D01*
X69850001Y-41571333D01*
X70273334Y-41571333D01*
X70442667Y-41656000D01*
X70527334Y-41740667D01*
X70612001Y-41910000D01*
X70612001Y-42079333D01*
X70527334Y-42333333D01*
X69511334Y-43349333D01*
X70612001Y-43349333D01*
X217085333Y-142536333D02*
X217085333Y-143975667D01*
X217170000Y-144145000D01*
X217254667Y-144229667D01*
X217424000Y-144314333D01*
X217762667Y-144314333D01*
X217932000Y-144229667D01*
X218016667Y-144145000D01*
X218101333Y-143975667D01*
X218101333Y-142536333D01*
X218863334Y-142705667D02*
X218948000Y-142621000D01*
X219117334Y-142536333D01*
X219540667Y-142536333D01*
X219710000Y-142621000D01*
X219794667Y-142705667D01*
X219879334Y-142875000D01*
X219879334Y-143044333D01*
X219794667Y-143298333D01*
X218778667Y-144314333D01*
X219879334Y-144314333D01*
X267377333Y-66971333D02*
X267377333Y-68241333D01*
X267292667Y-68495333D01*
X267123333Y-68664667D01*
X266869333Y-68749333D01*
X266700000Y-68749333D01*
X268986000Y-67564000D02*
X268986000Y-68749333D01*
X268562667Y-66886667D02*
X268139334Y-68156667D01*
X269240000Y-68156667D01*
X259757333Y-115216333D02*
X259757333Y-116486333D01*
X259672667Y-116740333D01*
X259503333Y-116909667D01*
X259249333Y-116994333D01*
X259080000Y-116994333D01*
X261535334Y-116994333D02*
X260519334Y-116994333D01*
X261027334Y-116994333D02*
X261027334Y-115216333D01*
X260858000Y-115470333D01*
X260688667Y-115639667D01*
X260519334Y-115724333D01*
X259757333Y-89323333D02*
X259757333Y-90593333D01*
X259672667Y-90847333D01*
X259503333Y-91016667D01*
X259249333Y-91101333D01*
X259080000Y-91101333D01*
X260519334Y-89492667D02*
X260604000Y-89408000D01*
X260773334Y-89323333D01*
X261196667Y-89323333D01*
X261366000Y-89408000D01*
X261450667Y-89492667D01*
X261535334Y-89662000D01*
X261535334Y-89831333D01*
X261450667Y-90085333D01*
X260434667Y-91101333D01*
X261535334Y-91101333D01*
D20*
X236505905Y-143962381D02*
X236505905Y-142962381D01*
X236505905Y-143438571D02*
X237077334Y-143438571D01*
X237077334Y-143962381D02*
X237077334Y-142962381D01*
X237505905Y-143914762D02*
X237648762Y-143962381D01*
X237886858Y-143962381D01*
X237982096Y-143914762D01*
X238029715Y-143867143D01*
X238077334Y-143771905D01*
X238077334Y-143676667D01*
X238029715Y-143581429D01*
X237982096Y-143533810D01*
X237886858Y-143486190D01*
X237696381Y-143438571D01*
X237601143Y-143390952D01*
X237553524Y-143343333D01*
X237505905Y-143248095D01*
X237505905Y-143152857D01*
X237553524Y-143057619D01*
X237601143Y-143010000D01*
X237696381Y-142962381D01*
X237934477Y-142962381D01*
X238077334Y-143010000D01*
X239029715Y-143962381D02*
X238458286Y-143962381D01*
X238744000Y-143962381D02*
X238744000Y-142962381D01*
X238648762Y-143105238D01*
X238553524Y-143200476D01*
X238458286Y-143248095D01*
D15*
X254592667Y-51604333D02*
X254592667Y-49826333D01*
X255270001Y-49826333D01*
X255439334Y-49911000D01*
X255524001Y-49995667D01*
X255608667Y-50165000D01*
X255608667Y-50419000D01*
X255524001Y-50588333D01*
X255439334Y-50673000D01*
X255270001Y-50757667D01*
X254592667Y-50757667D01*
X256624667Y-50588333D02*
X256455334Y-50503667D01*
X256370667Y-50419000D01*
X256286001Y-50249667D01*
X256286001Y-50165000D01*
X256370667Y-49995667D01*
X256455334Y-49911000D01*
X256624667Y-49826333D01*
X256963334Y-49826333D01*
X257132667Y-49911000D01*
X257217334Y-49995667D01*
X257302001Y-50165000D01*
X257302001Y-50249667D01*
X257217334Y-50419000D01*
X257132667Y-50503667D01*
X256963334Y-50588333D01*
X256624667Y-50588333D01*
X256455334Y-50673000D01*
X256370667Y-50757667D01*
X256286001Y-50927000D01*
X256286001Y-51265667D01*
X256370667Y-51435000D01*
X256455334Y-51519667D01*
X256624667Y-51604333D01*
X256963334Y-51604333D01*
X257132667Y-51519667D01*
X257217334Y-51435000D01*
X257302001Y-51265667D01*
X257302001Y-50927000D01*
X257217334Y-50757667D01*
X257132667Y-50673000D01*
X256963334Y-50588333D01*
X238685917Y-51604333D02*
X238685917Y-49826333D01*
X239363251Y-49826333D01*
X239532584Y-49911000D01*
X239617251Y-49995667D01*
X239701917Y-50165000D01*
X239701917Y-50419000D01*
X239617251Y-50588333D01*
X239532584Y-50673000D01*
X239363251Y-50757667D01*
X238685917Y-50757667D01*
X240294584Y-49826333D02*
X241479917Y-49826333D01*
X240717917Y-51604333D01*
M02*
