M48
;DRILL file {KiCad 4.0.7+dfsg1-1} date Mon Jul 30 16:18:01 2018
;FORMAT={-:-/ absolute / inch / decimal}
FMAT,2
INCH,TZ
T1C0.008
T2C0.012
T3C0.020
T4C0.024
T5C0.031
T6C0.032
T7C0.035
T8C0.040
T9C0.055
T10C0.059
T11C0.079
T12C0.120
T13C0.132
T14C0.150
%
G90
G05
M72
T1
X1.545Y-4.
X1.565Y-4.7
X1.5995Y-4.1005
T2
X0.6Y-5.825
X0.7Y-5.775
X1.Y-5.075
X1.1Y-5.125
X1.2Y-5.175
X1.3Y-5.225
X1.4Y-5.675
X1.825Y-4.7
X1.825Y-5.225
X1.845Y-3.95
X1.875Y-4.65
X1.875Y-5.175
X1.925Y-4.6
X1.925Y-5.125
X1.945Y-3.8545
X1.975Y-4.55
X1.975Y-5.075
X2.625Y-5.675
X2.725Y-5.825
X2.775Y-4.925
X2.775Y-5.775
X2.875Y-5.7
X2.875Y-5.75
X2.875Y-5.8
X2.975Y-4.925
X2.975Y-5.4
X5.275Y-4.5
X5.35Y-4.6
X5.475Y-5.7
X5.475Y-5.75
X5.475Y-5.8
X6.67Y-5.05
X9.1Y-4.6
X9.2Y-4.55
T3
X1.52Y-2.8
X1.57Y-2.7
X1.62Y-2.75
X1.67Y-2.65
X1.72Y-2.6
X1.77Y-2.5
X1.82Y-2.548
X1.87Y-2.45
X1.92Y-2.4
X1.97Y-2.3
X2.02Y-2.352
X2.07Y-2.25
X2.12Y-2.2
X2.17Y-2.1
X2.22Y-2.15
X2.27Y-2.05
X2.82Y-3.7
X2.87Y-3.6
X2.92Y-3.65
X2.97Y-3.55
X3.02Y-3.5
X3.07Y-3.4005
X3.12Y-3.45
X3.17Y-3.35
X3.22Y-3.3
X3.27Y-3.2
X3.32Y-3.25
X3.37Y-3.15
X3.42Y-3.1
X3.47Y-3.
X3.52Y-3.05
X3.57Y-2.95
X4.17Y-2.8
X4.22Y-2.7
X4.27Y-2.75
X4.32Y-2.65
X4.37Y-2.6
X4.42Y-2.5
X4.47Y-2.55
X4.52Y-2.45
X4.57Y-2.4
X4.62Y-2.3
X4.67Y-2.35
X4.72Y-2.25
X4.77Y-2.2
X4.82Y-2.1
X4.87Y-2.15
X4.92Y-2.05
X5.47Y-3.7
X5.52Y-3.6
X5.57Y-3.65
X5.62Y-3.55
X5.67Y-3.5
X5.72Y-3.4
X5.77Y-3.45
X5.82Y-3.35
X5.87Y-3.3
X5.92Y-3.2
X5.97Y-3.25
X6.02Y-3.15
X6.07Y-3.1
X6.12Y-3.
X6.17Y-3.05
X6.22Y-2.95
X6.82Y-2.8
X6.87Y-2.7
X6.92Y-2.75
X6.97Y-2.65
X7.02Y-2.6
X7.07Y-2.5
X7.12Y-2.55
X7.17Y-2.45
X7.22Y-2.4
X7.27Y-2.3
X7.32Y-2.35
X7.37Y-2.25
X7.42Y-2.2
X7.47Y-2.1
X7.52Y-2.15
X7.568Y-2.05
X8.12Y-3.7
X8.17Y-3.6
X8.22Y-3.65
X8.27Y-3.55
X8.32Y-3.5
X8.37Y-3.4
X8.42Y-3.45
X8.47Y-3.35
X8.52Y-3.3
X8.57Y-3.2
X8.62Y-3.25
X8.67Y-3.15
X8.72Y-3.1
X8.77Y-3.
X8.82Y-3.05
X8.87Y-2.95
T4
X0.8008Y-5.675
X0.8992Y-5.675
X8.75Y-5.2008
X8.75Y-5.2992
X8.75Y-5.9508
X8.75Y-6.0492
T5
X9.5124Y-1.8
X9.5632Y-1.9
X9.6124Y-1.8
X9.6632Y-1.9
X9.7124Y-1.8
X9.7632Y-1.9
X10.1387Y-1.8
X10.1895Y-1.9
X10.2387Y-1.8
X10.2895Y-1.9
X10.3387Y-1.8
X10.3895Y-1.9
T6
X0.6Y-4.975
X0.6Y-5.575
X0.7Y-4.975
X0.7Y-5.575
X0.8Y-4.975
X0.8Y-5.575
X0.9Y-4.975
X0.9Y-5.575
X1.Y-4.975
X1.Y-5.575
X1.1Y-4.975
X1.1Y-5.575
X1.2Y-4.975
X1.2Y-5.575
X1.3Y-4.975
X1.3Y-5.575
X1.4Y-4.975
X1.4Y-5.575
X1.445Y-2.
X1.445Y-2.1
X1.445Y-2.2
X1.445Y-2.3
X1.445Y-2.4
X1.445Y-2.5
X1.445Y-2.6
X1.445Y-2.7
X1.445Y-2.8
X1.445Y-2.9
X1.445Y-3.
X1.445Y-3.1
X1.445Y-3.2
X1.445Y-3.3
X1.445Y-3.4
X1.445Y-3.5
X1.445Y-3.6
X1.445Y-3.7
X1.445Y-3.8
X1.445Y-3.9
X1.445Y-4.
X1.445Y-4.1
X1.445Y-4.2
X1.445Y-4.3
X1.445Y-4.4
X1.5Y-4.975
X1.5Y-5.575
X1.545Y-4.3
X1.545Y-4.4
X1.6Y-4.975
X1.6Y-5.575
X1.645Y-4.3
X1.645Y-4.4
X1.7Y-4.975
X1.7Y-5.575
X1.745Y-4.3
X1.745Y-4.4
X1.845Y-4.3
X1.845Y-4.4
X1.945Y-4.3
X1.945Y-4.4
X2.045Y-4.3
X2.045Y-4.4
X2.145Y-4.3
X2.145Y-4.4
X2.245Y-4.3
X2.245Y-4.4
X2.345Y-4.3
X2.345Y-4.4
X2.445Y-4.3
X2.445Y-4.4
X2.545Y-2.
X2.545Y-2.1
X2.545Y-2.2
X2.545Y-2.3
X2.545Y-2.4
X2.545Y-2.5
X2.545Y-2.6
X2.545Y-2.7
X2.545Y-2.8
X2.545Y-2.9
X2.545Y-3.
X2.545Y-3.1
X2.545Y-3.2
X2.545Y-3.3
X2.545Y-3.4
X2.545Y-3.5
X2.545Y-3.6
X2.545Y-3.7
X2.545Y-3.8
X2.545Y-3.9
X2.545Y-4.
X2.545Y-4.1
X2.545Y-4.2
X2.545Y-4.3
X2.545Y-4.4
X4.095Y-2.
X4.095Y-2.1
X4.095Y-2.2
X4.095Y-2.3
X4.095Y-2.4
X4.095Y-2.5
X4.095Y-2.6
X4.095Y-2.7
X4.095Y-2.8
X4.095Y-2.9
X4.095Y-3.
X4.095Y-3.1
X4.095Y-3.2
X4.095Y-3.3
X4.095Y-3.4
X4.095Y-3.5
X4.095Y-3.6
X4.095Y-3.7
X4.095Y-3.8
X4.095Y-3.9
X4.095Y-4.
X4.095Y-4.1
X4.095Y-4.2
X4.095Y-4.3
X4.095Y-4.4
X4.195Y-4.3
X4.195Y-4.4
X4.295Y-4.3
X4.295Y-4.4
X4.395Y-4.3
X4.395Y-4.4
X4.495Y-4.3
X4.495Y-4.4
X4.595Y-4.3
X4.595Y-4.4
X4.695Y-4.3
X4.695Y-4.4
X4.795Y-4.3
X4.795Y-4.4
X4.895Y-4.3
X4.895Y-4.4
X4.995Y-4.3
X4.995Y-4.4
X5.095Y-4.3
X5.095Y-4.4
X5.195Y-2.
X5.195Y-2.1
X5.195Y-2.2
X5.195Y-2.3
X5.195Y-2.4
X5.195Y-2.5
X5.195Y-2.6
X5.195Y-2.7
X5.195Y-2.8
X5.195Y-2.9
X5.195Y-3.
X5.195Y-3.1
X5.195Y-3.2
X5.195Y-3.3
X5.195Y-3.4
X5.195Y-3.5
X5.195Y-3.6
X5.195Y-3.7
X5.195Y-3.8
X5.195Y-3.9
X5.195Y-4.
X5.195Y-4.1
X5.195Y-4.2
X5.195Y-4.3
X5.195Y-4.4
X6.745Y-2.
X6.745Y-2.1
X6.745Y-2.2
X6.745Y-2.3
X6.745Y-2.4
X6.745Y-2.5
X6.745Y-2.6
X6.745Y-2.7
X6.745Y-2.8
X6.745Y-2.9
X6.745Y-3.
X6.745Y-3.1
X6.745Y-3.2
X6.745Y-3.3
X6.745Y-3.4
X6.745Y-3.5
X6.745Y-3.6
X6.745Y-3.7
X6.745Y-3.8
X6.745Y-3.9
X6.745Y-4.
X6.745Y-4.1
X6.745Y-4.2
X6.745Y-4.3
X6.745Y-4.4
X6.845Y-4.3
X6.845Y-4.4
X6.945Y-4.3
X6.945Y-4.4
X7.045Y-4.3
X7.045Y-4.4
X7.145Y-4.3
X7.145Y-4.4
X7.245Y-4.3
X7.245Y-4.4
X7.345Y-4.3
X7.345Y-4.4
X7.445Y-4.3
X7.445Y-4.4
X7.545Y-4.3
X7.545Y-4.4
X7.645Y-4.3
X7.645Y-4.4
X7.745Y-4.3
X7.745Y-4.4
X7.845Y-2.
X7.845Y-2.1
X7.845Y-2.2
X7.845Y-2.3
X7.845Y-2.4
X7.845Y-2.5
X7.845Y-2.6
X7.845Y-2.7
X7.845Y-2.8
X7.845Y-2.9
X7.845Y-3.
X7.845Y-3.1
X7.845Y-3.2
X7.845Y-3.3
X7.845Y-3.4
X7.845Y-3.5
X7.845Y-3.6
X7.845Y-3.7
X7.845Y-3.8
X7.845Y-3.9
X7.845Y-4.
X7.845Y-4.1
X7.845Y-4.2
X7.845Y-4.3
X7.845Y-4.4
T7
X0.8Y-3.925
X0.8Y-4.175
X0.8Y-4.6
X1.05Y-4.6
T8
X1.57Y-1.67
X1.57Y-1.77
X1.67Y-1.67
X1.67Y-1.77
X1.77Y-1.67
X1.77Y-1.77
X1.87Y-1.67
X1.87Y-1.77
X1.97Y-1.67
X1.97Y-1.77
X2.07Y-1.67
X2.07Y-1.77
X2.17Y-1.67
X2.17Y-1.77
X2.27Y-1.67
X2.27Y-1.77
X2.87Y-1.67
X2.87Y-1.77
X2.97Y-1.67
X2.97Y-1.77
X3.07Y-1.67
X3.07Y-1.77
X3.17Y-1.67
X3.17Y-1.77
X3.27Y-1.67
X3.27Y-1.77
X3.325Y-5.1
X3.325Y-5.2
X3.325Y-5.3
X3.325Y-5.4
X3.325Y-5.5
X3.325Y-5.6
X3.325Y-5.7
X3.325Y-5.8
X3.325Y-5.9
X3.37Y-1.67
X3.37Y-1.77
X3.47Y-1.67
X3.47Y-1.77
X3.57Y-1.67
X3.57Y-1.77
X4.025Y-5.1
X4.025Y-5.2
X4.025Y-5.3
X4.025Y-5.4
X4.025Y-5.5
X4.025Y-5.6
X4.025Y-5.7
X4.025Y-5.8
X4.025Y-5.9
X4.22Y-1.67
X4.22Y-1.77
X4.32Y-1.67
X4.32Y-1.77
X4.42Y-1.67
X4.42Y-1.77
X4.52Y-1.67
X4.52Y-1.77
X4.62Y-1.67
X4.62Y-1.77
X4.72Y-1.67
X4.72Y-1.77
X4.82Y-1.67
X4.82Y-1.77
X4.92Y-1.67
X4.92Y-1.77
X5.52Y-1.67
X5.52Y-1.77
X5.62Y-1.67
X5.62Y-1.77
X5.72Y-1.67
X5.72Y-1.77
X5.82Y-1.67
X5.82Y-1.77
X5.92Y-1.67
X5.92Y-1.77
X6.02Y-1.67
X6.02Y-1.77
X6.12Y-1.67
X6.12Y-1.77
X6.22Y-1.67
X6.22Y-1.77
X6.87Y-1.67
X6.87Y-1.77
X6.97Y-1.67
X6.97Y-1.77
X7.07Y-1.67
X7.07Y-1.77
X7.17Y-1.67
X7.17Y-1.77
X7.27Y-1.67
X7.27Y-1.77
X7.37Y-1.67
X7.37Y-1.77
X7.47Y-1.67
X7.47Y-1.77
X7.57Y-1.67
X7.57Y-1.77
X8.17Y-1.67
X8.17Y-1.77
X8.27Y-1.67
X8.27Y-1.77
X8.37Y-1.67
X8.37Y-1.77
X8.47Y-1.67
X8.47Y-1.77
X8.57Y-1.67
X8.57Y-1.77
X8.67Y-1.67
X8.67Y-1.77
X8.77Y-1.67
X8.77Y-1.77
X8.87Y-1.67
X8.87Y-1.77
T9
X8.75Y-5.5
X8.75Y-5.65
X8.75Y-5.8
T10
X8.98Y-5.1185
X8.98Y-6.1815
X10.8Y-2.5781
X10.8Y-2.775
T11
X10.65Y-3.368
X10.65Y-3.742
X10.65Y-4.3874
X10.65Y-4.7614
T12
X10.4319Y-5.525
X10.55Y-5.34
X10.6681Y-5.525
T13
X9.4373Y-1.55
X9.8372Y-1.55
X10.0635Y-1.55
X10.4635Y-1.55
T14
X0.82Y-1.69
X0.82Y-6.06
X3.085Y-3.875
X8.385Y-3.875
X10.79Y-1.69
X10.79Y-6.06
T0
M30
