%FSLAX45Y45*%
G04 Gerber Fmt 4.5, Leading zero omitted, Abs format (unit mm)*
G04 Created by KiCad (PCBNEW 4.0.7+dfsg1-1) date Mon Jul 30 16:18:02 2018*
%MOMM*%
%LPD*%
G01*
G04 APERTURE LIST*
%ADD10C,0.127000*%
%ADD11C,0.150000*%
%ADD12C,0.200000*%
%ADD13C,0.300000*%
G04 APERTURE END LIST*
D10*
D11*
X27940000Y-16002000D02*
X1270000Y-16002000D01*
X27940000Y-3683000D02*
X27940000Y-16002000D01*
X1270000Y-3683000D02*
X27940000Y-3683000D01*
X1270000Y-16002000D02*
X1270000Y-3683000D01*
D12*
X3914140Y-10149840D02*
X3934460Y-10170160D01*
X3934460Y-10149840D02*
X3914140Y-10170160D01*
X3964940Y-11927840D02*
X3985260Y-11948160D01*
X3985260Y-11927840D02*
X3964940Y-11948160D01*
X4052570Y-10405110D02*
X4072890Y-10425430D01*
X4072890Y-10405110D02*
X4052570Y-10425430D01*
X1539240Y-14795500D02*
G75*
G03X1539240Y-14795500I-15240J0D01*
G01*
X1793240Y-14668500D02*
G75*
G03X1793240Y-14668500I-15240J0D01*
G01*
X2555240Y-12890500D02*
G75*
G03X2555240Y-12890500I-15240J0D01*
G01*
X2809240Y-13017500D02*
G75*
G03X2809240Y-13017500I-15240J0D01*
G01*
X3063240Y-13144500D02*
G75*
G03X3063240Y-13144500I-15240J0D01*
G01*
X3317240Y-13271500D02*
G75*
G03X3317240Y-13271500I-15240J0D01*
G01*
X3571240Y-14414500D02*
G75*
G03X3571240Y-14414500I-15240J0D01*
G01*
X4650740Y-11938000D02*
G75*
G03X4650740Y-11938000I-15240J0D01*
G01*
X4650740Y-13271500D02*
G75*
G03X4650740Y-13271500I-15240J0D01*
G01*
X4701540Y-10033000D02*
G75*
G03X4701540Y-10033000I-15240J0D01*
G01*
X4777740Y-11811000D02*
G75*
G03X4777740Y-11811000I-15240J0D01*
G01*
X4777740Y-13144500D02*
G75*
G03X4777740Y-13144500I-15240J0D01*
G01*
X4904740Y-11684000D02*
G75*
G03X4904740Y-11684000I-15240J0D01*
G01*
X4904740Y-13017500D02*
G75*
G03X4904740Y-13017500I-15240J0D01*
G01*
X4955540Y-9790430D02*
G75*
G03X4955540Y-9790430I-15240J0D01*
G01*
X5031740Y-11557000D02*
G75*
G03X5031740Y-11557000I-15240J0D01*
G01*
X5031740Y-12890500D02*
G75*
G03X5031740Y-12890500I-15240J0D01*
G01*
X6682740Y-14414500D02*
G75*
G03X6682740Y-14414500I-15240J0D01*
G01*
X6936740Y-14795500D02*
G75*
G03X6936740Y-14795500I-15240J0D01*
G01*
X7063740Y-12509500D02*
G75*
G03X7063740Y-12509500I-15240J0D01*
G01*
X7063740Y-14668500D02*
G75*
G03X7063740Y-14668500I-15240J0D01*
G01*
X7317740Y-14478000D02*
G75*
G03X7317740Y-14478000I-15240J0D01*
G01*
X7317740Y-14605000D02*
G75*
G03X7317740Y-14605000I-15240J0D01*
G01*
X7317740Y-14732000D02*
G75*
G03X7317740Y-14732000I-15240J0D01*
G01*
X7571740Y-12509500D02*
G75*
G03X7571740Y-12509500I-15240J0D01*
G01*
X7571740Y-13716000D02*
G75*
G03X7571740Y-13716000I-15240J0D01*
G01*
X13413740Y-11430000D02*
G75*
G03X13413740Y-11430000I-15240J0D01*
G01*
X13604240Y-11684000D02*
G75*
G03X13604240Y-11684000I-15240J0D01*
G01*
X13921740Y-14478000D02*
G75*
G03X13921740Y-14478000I-15240J0D01*
G01*
X13921740Y-14605000D02*
G75*
G03X13921740Y-14605000I-15240J0D01*
G01*
X13921740Y-14732000D02*
G75*
G03X13921740Y-14732000I-15240J0D01*
G01*
X16957040Y-12827000D02*
G75*
G03X16957040Y-12827000I-15240J0D01*
G01*
X23129240Y-11684000D02*
G75*
G03X23129240Y-11684000I-15240J0D01*
G01*
X23383240Y-11557000D02*
G75*
G03X23383240Y-11557000I-15240J0D01*
G01*
X3860800Y-7086600D02*
X3860800Y-7137400D01*
X3835400Y-7112000D02*
X3886200Y-7112000D01*
X3987800Y-6832600D02*
X3987800Y-6883400D01*
X3962400Y-6858000D02*
X4013200Y-6858000D01*
X4114800Y-6959600D02*
X4114800Y-7010400D01*
X4089400Y-6985000D02*
X4140200Y-6985000D01*
X4241800Y-6705600D02*
X4241800Y-6756400D01*
X4216400Y-6731000D02*
X4267200Y-6731000D01*
X4368800Y-6578600D02*
X4368800Y-6629400D01*
X4343400Y-6604000D02*
X4394200Y-6604000D01*
X4495800Y-6324600D02*
X4495800Y-6375400D01*
X4470400Y-6350000D02*
X4521200Y-6350000D01*
X4622800Y-6446520D02*
X4622800Y-6497320D01*
X4597400Y-6471920D02*
X4648200Y-6471920D01*
X4749800Y-6197600D02*
X4749800Y-6248400D01*
X4724400Y-6223000D02*
X4775200Y-6223000D01*
X4876800Y-6070600D02*
X4876800Y-6121400D01*
X4851400Y-6096000D02*
X4902200Y-6096000D01*
X5003800Y-5816600D02*
X5003800Y-5867400D01*
X4978400Y-5842000D02*
X5029200Y-5842000D01*
X5130800Y-5948680D02*
X5130800Y-5999480D01*
X5105400Y-5974080D02*
X5156200Y-5974080D01*
X5257800Y-5689600D02*
X5257800Y-5740400D01*
X5232400Y-5715000D02*
X5283200Y-5715000D01*
X5384800Y-5562600D02*
X5384800Y-5613400D01*
X5359400Y-5588000D02*
X5410200Y-5588000D01*
X5511800Y-5308600D02*
X5511800Y-5359400D01*
X5486400Y-5334000D02*
X5537200Y-5334000D01*
X5638800Y-5435600D02*
X5638800Y-5486400D01*
X5613400Y-5461000D02*
X5664200Y-5461000D01*
X5765800Y-5181600D02*
X5765800Y-5232400D01*
X5740400Y-5207000D02*
X5791200Y-5207000D01*
X7162800Y-9372600D02*
X7162800Y-9423400D01*
X7137400Y-9398000D02*
X7188200Y-9398000D01*
X7289800Y-9118600D02*
X7289800Y-9169400D01*
X7264400Y-9144000D02*
X7315200Y-9144000D01*
X7416800Y-9245600D02*
X7416800Y-9296400D01*
X7391400Y-9271000D02*
X7442200Y-9271000D01*
X7543800Y-8991600D02*
X7543800Y-9042400D01*
X7518400Y-9017000D02*
X7569200Y-9017000D01*
X7670800Y-8864600D02*
X7670800Y-8915400D01*
X7645400Y-8890000D02*
X7696200Y-8890000D01*
X7797800Y-8611870D02*
X7797800Y-8662670D01*
X7772400Y-8637270D02*
X7823200Y-8637270D01*
X7924800Y-8737600D02*
X7924800Y-8788400D01*
X7899400Y-8763000D02*
X7950200Y-8763000D01*
X8051800Y-8483600D02*
X8051800Y-8534400D01*
X8026400Y-8509000D02*
X8077200Y-8509000D01*
X8178800Y-8356600D02*
X8178800Y-8407400D01*
X8153400Y-8382000D02*
X8204200Y-8382000D01*
X8305800Y-8102600D02*
X8305800Y-8153400D01*
X8280400Y-8128000D02*
X8331200Y-8128000D01*
X8432800Y-8229600D02*
X8432800Y-8280400D01*
X8407400Y-8255000D02*
X8458200Y-8255000D01*
X8559800Y-7975600D02*
X8559800Y-8026400D01*
X8534400Y-8001000D02*
X8585200Y-8001000D01*
X8686800Y-7848600D02*
X8686800Y-7899400D01*
X8661400Y-7874000D02*
X8712200Y-7874000D01*
X8813800Y-7594600D02*
X8813800Y-7645400D01*
X8788400Y-7620000D02*
X8839200Y-7620000D01*
X8940800Y-7721600D02*
X8940800Y-7772400D01*
X8915400Y-7747000D02*
X8966200Y-7747000D01*
X9067800Y-7467600D02*
X9067800Y-7518400D01*
X9042400Y-7493000D02*
X9093200Y-7493000D01*
X10591800Y-7086600D02*
X10591800Y-7137400D01*
X10566400Y-7112000D02*
X10617200Y-7112000D01*
X10718800Y-6832600D02*
X10718800Y-6883400D01*
X10693400Y-6858000D02*
X10744200Y-6858000D01*
X10845800Y-6959600D02*
X10845800Y-7010400D01*
X10820400Y-6985000D02*
X10871200Y-6985000D01*
X10972800Y-6705600D02*
X10972800Y-6756400D01*
X10947400Y-6731000D02*
X10998200Y-6731000D01*
X11099800Y-6578600D02*
X11099800Y-6629400D01*
X11074400Y-6604000D02*
X11125200Y-6604000D01*
X11226800Y-6324600D02*
X11226800Y-6375400D01*
X11201400Y-6350000D02*
X11252200Y-6350000D01*
X11353800Y-6451600D02*
X11353800Y-6502400D01*
X11328400Y-6477000D02*
X11379200Y-6477000D01*
X11480800Y-6197600D02*
X11480800Y-6248400D01*
X11455400Y-6223000D02*
X11506200Y-6223000D01*
X11607800Y-6070600D02*
X11607800Y-6121400D01*
X11582400Y-6096000D02*
X11633200Y-6096000D01*
X11734800Y-5816600D02*
X11734800Y-5867400D01*
X11709400Y-5842000D02*
X11760200Y-5842000D01*
X11861800Y-5943600D02*
X11861800Y-5994400D01*
X11836400Y-5969000D02*
X11887200Y-5969000D01*
X11988800Y-5689600D02*
X11988800Y-5740400D01*
X11963400Y-5715000D02*
X12014200Y-5715000D01*
X12115800Y-5562600D02*
X12115800Y-5613400D01*
X12090400Y-5588000D02*
X12141200Y-5588000D01*
X12242800Y-5308600D02*
X12242800Y-5359400D01*
X12217400Y-5334000D02*
X12268200Y-5334000D01*
X12369800Y-5435600D02*
X12369800Y-5486400D01*
X12344400Y-5461000D02*
X12395200Y-5461000D01*
X12496800Y-5181600D02*
X12496800Y-5232400D01*
X12471400Y-5207000D02*
X12522200Y-5207000D01*
X13893800Y-9372600D02*
X13893800Y-9423400D01*
X13868400Y-9398000D02*
X13919200Y-9398000D01*
X14020800Y-9118600D02*
X14020800Y-9169400D01*
X13995400Y-9144000D02*
X14046200Y-9144000D01*
X14147800Y-9245600D02*
X14147800Y-9296400D01*
X14122400Y-9271000D02*
X14173200Y-9271000D01*
X14274800Y-8991600D02*
X14274800Y-9042400D01*
X14249400Y-9017000D02*
X14300200Y-9017000D01*
X14401800Y-8864600D02*
X14401800Y-8915400D01*
X14376400Y-8890000D02*
X14427200Y-8890000D01*
X14528800Y-8610600D02*
X14528800Y-8661400D01*
X14503400Y-8636000D02*
X14554200Y-8636000D01*
X14655800Y-8737600D02*
X14655800Y-8788400D01*
X14630400Y-8763000D02*
X14681200Y-8763000D01*
X14782800Y-8483600D02*
X14782800Y-8534400D01*
X14757400Y-8509000D02*
X14808200Y-8509000D01*
X14909800Y-8356600D02*
X14909800Y-8407400D01*
X14884400Y-8382000D02*
X14935200Y-8382000D01*
X15036800Y-8102600D02*
X15036800Y-8153400D01*
X15011400Y-8128000D02*
X15062200Y-8128000D01*
X15163800Y-8229600D02*
X15163800Y-8280400D01*
X15138400Y-8255000D02*
X15189200Y-8255000D01*
X15290800Y-7975600D02*
X15290800Y-8026400D01*
X15265400Y-8001000D02*
X15316200Y-8001000D01*
X15417800Y-7848600D02*
X15417800Y-7899400D01*
X15392400Y-7874000D02*
X15443200Y-7874000D01*
X15544800Y-7594600D02*
X15544800Y-7645400D01*
X15519400Y-7620000D02*
X15570200Y-7620000D01*
X15671800Y-7721600D02*
X15671800Y-7772400D01*
X15646400Y-7747000D02*
X15697200Y-7747000D01*
X15798800Y-7467600D02*
X15798800Y-7518400D01*
X15773400Y-7493000D02*
X15824200Y-7493000D01*
X17322800Y-7086600D02*
X17322800Y-7137400D01*
X17297400Y-7112000D02*
X17348200Y-7112000D01*
X17449800Y-6832600D02*
X17449800Y-6883400D01*
X17424400Y-6858000D02*
X17475200Y-6858000D01*
X17576800Y-6959600D02*
X17576800Y-7010400D01*
X17551400Y-6985000D02*
X17602200Y-6985000D01*
X17703800Y-6705600D02*
X17703800Y-6756400D01*
X17678400Y-6731000D02*
X17729200Y-6731000D01*
X17830800Y-6578600D02*
X17830800Y-6629400D01*
X17805400Y-6604000D02*
X17856200Y-6604000D01*
X17957800Y-6324600D02*
X17957800Y-6375400D01*
X17932400Y-6350000D02*
X17983200Y-6350000D01*
X18084800Y-6451600D02*
X18084800Y-6502400D01*
X18059400Y-6477000D02*
X18110200Y-6477000D01*
X18211800Y-6197600D02*
X18211800Y-6248400D01*
X18186400Y-6223000D02*
X18237200Y-6223000D01*
X18338800Y-6070600D02*
X18338800Y-6121400D01*
X18313400Y-6096000D02*
X18364200Y-6096000D01*
X18465800Y-5816600D02*
X18465800Y-5867400D01*
X18440400Y-5842000D02*
X18491200Y-5842000D01*
X18592800Y-5943600D02*
X18592800Y-5994400D01*
X18567400Y-5969000D02*
X18618200Y-5969000D01*
X18719800Y-5689600D02*
X18719800Y-5740400D01*
X18694400Y-5715000D02*
X18745200Y-5715000D01*
X18846800Y-5562600D02*
X18846800Y-5613400D01*
X18821400Y-5588000D02*
X18872200Y-5588000D01*
X18973800Y-5308600D02*
X18973800Y-5359400D01*
X18948400Y-5334000D02*
X18999200Y-5334000D01*
X19100800Y-5435600D02*
X19100800Y-5486400D01*
X19075400Y-5461000D02*
X19126200Y-5461000D01*
X19222720Y-5181600D02*
X19222720Y-5232400D01*
X19197320Y-5207000D02*
X19248120Y-5207000D01*
X20624800Y-9372600D02*
X20624800Y-9423400D01*
X20599400Y-9398000D02*
X20650200Y-9398000D01*
X20751800Y-9118600D02*
X20751800Y-9169400D01*
X20726400Y-9144000D02*
X20777200Y-9144000D01*
X20878800Y-9245600D02*
X20878800Y-9296400D01*
X20853400Y-9271000D02*
X20904200Y-9271000D01*
X21005800Y-8991600D02*
X21005800Y-9042400D01*
X20980400Y-9017000D02*
X21031200Y-9017000D01*
X21132800Y-8864600D02*
X21132800Y-8915400D01*
X21107400Y-8890000D02*
X21158200Y-8890000D01*
X21259800Y-8610600D02*
X21259800Y-8661400D01*
X21234400Y-8636000D02*
X21285200Y-8636000D01*
X21386800Y-8737600D02*
X21386800Y-8788400D01*
X21361400Y-8763000D02*
X21412200Y-8763000D01*
X21513800Y-8483600D02*
X21513800Y-8534400D01*
X21488400Y-8509000D02*
X21539200Y-8509000D01*
X21640800Y-8356600D02*
X21640800Y-8407400D01*
X21615400Y-8382000D02*
X21666200Y-8382000D01*
X21767800Y-8102600D02*
X21767800Y-8153400D01*
X21742400Y-8128000D02*
X21793200Y-8128000D01*
X21894800Y-8229600D02*
X21894800Y-8280400D01*
X21869400Y-8255000D02*
X21920200Y-8255000D01*
X22021800Y-7975600D02*
X22021800Y-8026400D01*
X21996400Y-8001000D02*
X22047200Y-8001000D01*
X22148800Y-7848600D02*
X22148800Y-7899400D01*
X22123400Y-7874000D02*
X22174200Y-7874000D01*
X22275800Y-7594600D02*
X22275800Y-7645400D01*
X22250400Y-7620000D02*
X22301200Y-7620000D01*
X22402800Y-7721600D02*
X22402800Y-7772400D01*
X22377400Y-7747000D02*
X22428200Y-7747000D01*
X22529800Y-7467600D02*
X22529800Y-7518400D01*
X22504400Y-7493000D02*
X22555200Y-7493000D01*
X2055213Y-14435713D02*
X2055213Y-14393287D01*
X2012787Y-14393287D01*
X2012787Y-14435713D01*
X2055213Y-14435713D01*
X2305213Y-14435713D02*
X2305213Y-14393287D01*
X2262787Y-14393287D01*
X2262787Y-14435713D01*
X2305213Y-14435713D01*
X22246213Y-13231213D02*
X22246213Y-13188787D01*
X22203787Y-13188787D01*
X22203787Y-13231213D01*
X22246213Y-13231213D01*
X22246213Y-13481213D02*
X22246213Y-13438787D01*
X22203787Y-13438787D01*
X22203787Y-13481213D01*
X22246213Y-13481213D01*
X22246213Y-15136213D02*
X22246213Y-15093787D01*
X22203787Y-15093787D01*
X22203787Y-15136213D01*
X22246213Y-15136213D01*
X22246213Y-15386213D02*
X22246213Y-15343787D01*
X22203787Y-15343787D01*
X22203787Y-15386213D01*
X22246213Y-15386213D01*
X24161615Y-4611000D02*
X24200615Y-4572000D01*
X24161615Y-4533000D01*
X24122615Y-4572000D01*
X24161615Y-4611000D01*
X24290615Y-4865000D02*
X24329615Y-4826000D01*
X24290615Y-4787000D01*
X24251615Y-4826000D01*
X24290615Y-4865000D01*
X24415615Y-4611000D02*
X24454615Y-4572000D01*
X24415615Y-4533000D01*
X24376615Y-4572000D01*
X24415615Y-4611000D01*
X24544615Y-4865000D02*
X24583615Y-4826000D01*
X24544615Y-4787000D01*
X24505615Y-4826000D01*
X24544615Y-4865000D01*
X24669615Y-4611000D02*
X24708615Y-4572000D01*
X24669615Y-4533000D01*
X24630615Y-4572000D01*
X24669615Y-4611000D01*
X24798615Y-4865000D02*
X24837615Y-4826000D01*
X24798615Y-4787000D01*
X24759615Y-4826000D01*
X24798615Y-4865000D01*
X25752290Y-4611000D02*
X25791290Y-4572000D01*
X25752290Y-4533000D01*
X25713290Y-4572000D01*
X25752290Y-4611000D01*
X25881290Y-4865000D02*
X25920290Y-4826000D01*
X25881290Y-4787000D01*
X25842290Y-4826000D01*
X25881290Y-4865000D01*
X26006290Y-4611000D02*
X26045290Y-4572000D01*
X26006290Y-4533000D01*
X25967290Y-4572000D01*
X26006290Y-4611000D01*
X26135290Y-4865000D02*
X26174290Y-4826000D01*
X26135290Y-4787000D01*
X26096290Y-4826000D01*
X26135290Y-4865000D01*
X26260290Y-4611000D02*
X26299290Y-4572000D01*
X26260290Y-4533000D01*
X26221290Y-4572000D01*
X26260290Y-4611000D01*
X26389290Y-4865000D02*
X26428290Y-4826000D01*
X26389290Y-4787000D01*
X26350290Y-4826000D01*
X26389290Y-4865000D01*
X1483360Y-12595860D02*
X1564640Y-12677140D01*
X1564640Y-12595860D02*
X1483360Y-12677140D01*
X1564640Y-12636500D02*
G75*
G03X1564640Y-12636500I-40640J0D01*
G01*
X1483360Y-14119860D02*
X1564640Y-14201140D01*
X1564640Y-14119860D02*
X1483360Y-14201140D01*
X1564640Y-14160500D02*
G75*
G03X1564640Y-14160500I-40640J0D01*
G01*
X1737360Y-12595860D02*
X1818640Y-12677140D01*
X1818640Y-12595860D02*
X1737360Y-12677140D01*
X1818640Y-12636500D02*
G75*
G03X1818640Y-12636500I-40640J0D01*
G01*
X1737360Y-14119860D02*
X1818640Y-14201140D01*
X1818640Y-14119860D02*
X1737360Y-14201140D01*
X1818640Y-14160500D02*
G75*
G03X1818640Y-14160500I-40640J0D01*
G01*
X1991360Y-12595860D02*
X2072640Y-12677140D01*
X2072640Y-12595860D02*
X1991360Y-12677140D01*
X2072640Y-12636500D02*
G75*
G03X2072640Y-12636500I-40640J0D01*
G01*
X1991360Y-14119860D02*
X2072640Y-14201140D01*
X2072640Y-14119860D02*
X1991360Y-14201140D01*
X2072640Y-14160500D02*
G75*
G03X2072640Y-14160500I-40640J0D01*
G01*
X2245360Y-12595860D02*
X2326640Y-12677140D01*
X2326640Y-12595860D02*
X2245360Y-12677140D01*
X2326640Y-12636500D02*
G75*
G03X2326640Y-12636500I-40640J0D01*
G01*
X2245360Y-14119860D02*
X2326640Y-14201140D01*
X2326640Y-14119860D02*
X2245360Y-14201140D01*
X2326640Y-14160500D02*
G75*
G03X2326640Y-14160500I-40640J0D01*
G01*
X2499360Y-12595860D02*
X2580640Y-12677140D01*
X2580640Y-12595860D02*
X2499360Y-12677140D01*
X2580640Y-12636500D02*
G75*
G03X2580640Y-12636500I-40640J0D01*
G01*
X2499360Y-14119860D02*
X2580640Y-14201140D01*
X2580640Y-14119860D02*
X2499360Y-14201140D01*
X2580640Y-14160500D02*
G75*
G03X2580640Y-14160500I-40640J0D01*
G01*
X2753360Y-12595860D02*
X2834640Y-12677140D01*
X2834640Y-12595860D02*
X2753360Y-12677140D01*
X2834640Y-12636500D02*
G75*
G03X2834640Y-12636500I-40640J0D01*
G01*
X2753360Y-14119860D02*
X2834640Y-14201140D01*
X2834640Y-14119860D02*
X2753360Y-14201140D01*
X2834640Y-14160500D02*
G75*
G03X2834640Y-14160500I-40640J0D01*
G01*
X3007360Y-12595860D02*
X3088640Y-12677140D01*
X3088640Y-12595860D02*
X3007360Y-12677140D01*
X3088640Y-12636500D02*
G75*
G03X3088640Y-12636500I-40640J0D01*
G01*
X3007360Y-14119860D02*
X3088640Y-14201140D01*
X3088640Y-14119860D02*
X3007360Y-14201140D01*
X3088640Y-14160500D02*
G75*
G03X3088640Y-14160500I-40640J0D01*
G01*
X3261360Y-12595860D02*
X3342640Y-12677140D01*
X3342640Y-12595860D02*
X3261360Y-12677140D01*
X3342640Y-12636500D02*
G75*
G03X3342640Y-12636500I-40640J0D01*
G01*
X3261360Y-14119860D02*
X3342640Y-14201140D01*
X3342640Y-14119860D02*
X3261360Y-14201140D01*
X3342640Y-14160500D02*
G75*
G03X3342640Y-14160500I-40640J0D01*
G01*
X3515360Y-12595860D02*
X3596640Y-12677140D01*
X3596640Y-12595860D02*
X3515360Y-12677140D01*
X3596640Y-12636500D02*
G75*
G03X3596640Y-12636500I-40640J0D01*
G01*
X3515360Y-14119860D02*
X3596640Y-14201140D01*
X3596640Y-14119860D02*
X3515360Y-14201140D01*
X3596640Y-14160500D02*
G75*
G03X3596640Y-14160500I-40640J0D01*
G01*
X3629660Y-5039360D02*
X3710940Y-5120640D01*
X3710940Y-5039360D02*
X3629660Y-5120640D01*
X3710940Y-5080000D02*
G75*
G03X3710940Y-5080000I-40640J0D01*
G01*
X3629660Y-5293360D02*
X3710940Y-5374640D01*
X3710940Y-5293360D02*
X3629660Y-5374640D01*
X3710940Y-5334000D02*
G75*
G03X3710940Y-5334000I-40640J0D01*
G01*
X3629660Y-5547360D02*
X3710940Y-5628640D01*
X3710940Y-5547360D02*
X3629660Y-5628640D01*
X3710940Y-5588000D02*
G75*
G03X3710940Y-5588000I-40640J0D01*
G01*
X3629660Y-5801360D02*
X3710940Y-5882640D01*
X3710940Y-5801360D02*
X3629660Y-5882640D01*
X3710940Y-5842000D02*
G75*
G03X3710940Y-5842000I-40640J0D01*
G01*
X3629660Y-6055360D02*
X3710940Y-6136640D01*
X3710940Y-6055360D02*
X3629660Y-6136640D01*
X3710940Y-6096000D02*
G75*
G03X3710940Y-6096000I-40640J0D01*
G01*
X3629660Y-6309360D02*
X3710940Y-6390640D01*
X3710940Y-6309360D02*
X3629660Y-6390640D01*
X3710940Y-6350000D02*
G75*
G03X3710940Y-6350000I-40640J0D01*
G01*
X3629660Y-6563360D02*
X3710940Y-6644640D01*
X3710940Y-6563360D02*
X3629660Y-6644640D01*
X3710940Y-6604000D02*
G75*
G03X3710940Y-6604000I-40640J0D01*
G01*
X3629660Y-6817360D02*
X3710940Y-6898640D01*
X3710940Y-6817360D02*
X3629660Y-6898640D01*
X3710940Y-6858000D02*
G75*
G03X3710940Y-6858000I-40640J0D01*
G01*
X3629660Y-7071360D02*
X3710940Y-7152640D01*
X3710940Y-7071360D02*
X3629660Y-7152640D01*
X3710940Y-7112000D02*
G75*
G03X3710940Y-7112000I-40640J0D01*
G01*
X3629660Y-7325360D02*
X3710940Y-7406640D01*
X3710940Y-7325360D02*
X3629660Y-7406640D01*
X3710940Y-7366000D02*
G75*
G03X3710940Y-7366000I-40640J0D01*
G01*
X3629660Y-7579360D02*
X3710940Y-7660640D01*
X3710940Y-7579360D02*
X3629660Y-7660640D01*
X3710940Y-7620000D02*
G75*
G03X3710940Y-7620000I-40640J0D01*
G01*
X3629660Y-7833360D02*
X3710940Y-7914640D01*
X3710940Y-7833360D02*
X3629660Y-7914640D01*
X3710940Y-7874000D02*
G75*
G03X3710940Y-7874000I-40640J0D01*
G01*
X3629660Y-8087360D02*
X3710940Y-8168640D01*
X3710940Y-8087360D02*
X3629660Y-8168640D01*
X3710940Y-8128000D02*
G75*
G03X3710940Y-8128000I-40640J0D01*
G01*
X3629660Y-8341360D02*
X3710940Y-8422640D01*
X3710940Y-8341360D02*
X3629660Y-8422640D01*
X3710940Y-8382000D02*
G75*
G03X3710940Y-8382000I-40640J0D01*
G01*
X3629660Y-8595360D02*
X3710940Y-8676640D01*
X3710940Y-8595360D02*
X3629660Y-8676640D01*
X3710940Y-8636000D02*
G75*
G03X3710940Y-8636000I-40640J0D01*
G01*
X3629660Y-8849360D02*
X3710940Y-8930640D01*
X3710940Y-8849360D02*
X3629660Y-8930640D01*
X3710940Y-8890000D02*
G75*
G03X3710940Y-8890000I-40640J0D01*
G01*
X3629660Y-9103360D02*
X3710940Y-9184640D01*
X3710940Y-9103360D02*
X3629660Y-9184640D01*
X3710940Y-9144000D02*
G75*
G03X3710940Y-9144000I-40640J0D01*
G01*
X3629660Y-9357360D02*
X3710940Y-9438640D01*
X3710940Y-9357360D02*
X3629660Y-9438640D01*
X3710940Y-9398000D02*
G75*
G03X3710940Y-9398000I-40640J0D01*
G01*
X3629660Y-9611360D02*
X3710940Y-9692640D01*
X3710940Y-9611360D02*
X3629660Y-9692640D01*
X3710940Y-9652000D02*
G75*
G03X3710940Y-9652000I-40640J0D01*
G01*
X3629660Y-9865360D02*
X3710940Y-9946640D01*
X3710940Y-9865360D02*
X3629660Y-9946640D01*
X3710940Y-9906000D02*
G75*
G03X3710940Y-9906000I-40640J0D01*
G01*
X3629660Y-10119360D02*
X3710940Y-10200640D01*
X3710940Y-10119360D02*
X3629660Y-10200640D01*
X3710940Y-10160000D02*
G75*
G03X3710940Y-10160000I-40640J0D01*
G01*
X3629660Y-10373360D02*
X3710940Y-10454640D01*
X3710940Y-10373360D02*
X3629660Y-10454640D01*
X3710940Y-10414000D02*
G75*
G03X3710940Y-10414000I-40640J0D01*
G01*
X3629660Y-10627360D02*
X3710940Y-10708640D01*
X3710940Y-10627360D02*
X3629660Y-10708640D01*
X3710940Y-10668000D02*
G75*
G03X3710940Y-10668000I-40640J0D01*
G01*
X3629660Y-10881360D02*
X3710940Y-10962640D01*
X3710940Y-10881360D02*
X3629660Y-10962640D01*
X3710940Y-10922000D02*
G75*
G03X3710940Y-10922000I-40640J0D01*
G01*
X3629660Y-11135360D02*
X3710940Y-11216640D01*
X3710940Y-11135360D02*
X3629660Y-11216640D01*
X3710940Y-11176000D02*
G75*
G03X3710940Y-11176000I-40640J0D01*
G01*
X3769360Y-12595860D02*
X3850640Y-12677140D01*
X3850640Y-12595860D02*
X3769360Y-12677140D01*
X3850640Y-12636500D02*
G75*
G03X3850640Y-12636500I-40640J0D01*
G01*
X3769360Y-14119860D02*
X3850640Y-14201140D01*
X3850640Y-14119860D02*
X3769360Y-14201140D01*
X3850640Y-14160500D02*
G75*
G03X3850640Y-14160500I-40640J0D01*
G01*
X3883660Y-10881360D02*
X3964940Y-10962640D01*
X3964940Y-10881360D02*
X3883660Y-10962640D01*
X3964940Y-10922000D02*
G75*
G03X3964940Y-10922000I-40640J0D01*
G01*
X3883660Y-11135360D02*
X3964940Y-11216640D01*
X3964940Y-11135360D02*
X3883660Y-11216640D01*
X3964940Y-11176000D02*
G75*
G03X3964940Y-11176000I-40640J0D01*
G01*
X4023360Y-12595860D02*
X4104640Y-12677140D01*
X4104640Y-12595860D02*
X4023360Y-12677140D01*
X4104640Y-12636500D02*
G75*
G03X4104640Y-12636500I-40640J0D01*
G01*
X4023360Y-14119860D02*
X4104640Y-14201140D01*
X4104640Y-14119860D02*
X4023360Y-14201140D01*
X4104640Y-14160500D02*
G75*
G03X4104640Y-14160500I-40640J0D01*
G01*
X4137660Y-10881360D02*
X4218940Y-10962640D01*
X4218940Y-10881360D02*
X4137660Y-10962640D01*
X4218940Y-10922000D02*
G75*
G03X4218940Y-10922000I-40640J0D01*
G01*
X4137660Y-11135360D02*
X4218940Y-11216640D01*
X4218940Y-11135360D02*
X4137660Y-11216640D01*
X4218940Y-11176000D02*
G75*
G03X4218940Y-11176000I-40640J0D01*
G01*
X4277360Y-12595860D02*
X4358640Y-12677140D01*
X4358640Y-12595860D02*
X4277360Y-12677140D01*
X4358640Y-12636500D02*
G75*
G03X4358640Y-12636500I-40640J0D01*
G01*
X4277360Y-14119860D02*
X4358640Y-14201140D01*
X4358640Y-14119860D02*
X4277360Y-14201140D01*
X4358640Y-14160500D02*
G75*
G03X4358640Y-14160500I-40640J0D01*
G01*
X4391660Y-10881360D02*
X4472940Y-10962640D01*
X4472940Y-10881360D02*
X4391660Y-10962640D01*
X4472940Y-10922000D02*
G75*
G03X4472940Y-10922000I-40640J0D01*
G01*
X4391660Y-11135360D02*
X4472940Y-11216640D01*
X4472940Y-11135360D02*
X4391660Y-11216640D01*
X4472940Y-11176000D02*
G75*
G03X4472940Y-11176000I-40640J0D01*
G01*
X4645660Y-10881360D02*
X4726940Y-10962640D01*
X4726940Y-10881360D02*
X4645660Y-10962640D01*
X4726940Y-10922000D02*
G75*
G03X4726940Y-10922000I-40640J0D01*
G01*
X4645660Y-11135360D02*
X4726940Y-11216640D01*
X4726940Y-11135360D02*
X4645660Y-11216640D01*
X4726940Y-11176000D02*
G75*
G03X4726940Y-11176000I-40640J0D01*
G01*
X4899660Y-10881360D02*
X4980940Y-10962640D01*
X4980940Y-10881360D02*
X4899660Y-10962640D01*
X4980940Y-10922000D02*
G75*
G03X4980940Y-10922000I-40640J0D01*
G01*
X4899660Y-11135360D02*
X4980940Y-11216640D01*
X4980940Y-11135360D02*
X4899660Y-11216640D01*
X4980940Y-11176000D02*
G75*
G03X4980940Y-11176000I-40640J0D01*
G01*
X5153660Y-10881360D02*
X5234940Y-10962640D01*
X5234940Y-10881360D02*
X5153660Y-10962640D01*
X5234940Y-10922000D02*
G75*
G03X5234940Y-10922000I-40640J0D01*
G01*
X5153660Y-11135360D02*
X5234940Y-11216640D01*
X5234940Y-11135360D02*
X5153660Y-11216640D01*
X5234940Y-11176000D02*
G75*
G03X5234940Y-11176000I-40640J0D01*
G01*
X5407660Y-10881360D02*
X5488940Y-10962640D01*
X5488940Y-10881360D02*
X5407660Y-10962640D01*
X5488940Y-10922000D02*
G75*
G03X5488940Y-10922000I-40640J0D01*
G01*
X5407660Y-11135360D02*
X5488940Y-11216640D01*
X5488940Y-11135360D02*
X5407660Y-11216640D01*
X5488940Y-11176000D02*
G75*
G03X5488940Y-11176000I-40640J0D01*
G01*
X5661660Y-10881360D02*
X5742940Y-10962640D01*
X5742940Y-10881360D02*
X5661660Y-10962640D01*
X5742940Y-10922000D02*
G75*
G03X5742940Y-10922000I-40640J0D01*
G01*
X5661660Y-11135360D02*
X5742940Y-11216640D01*
X5742940Y-11135360D02*
X5661660Y-11216640D01*
X5742940Y-11176000D02*
G75*
G03X5742940Y-11176000I-40640J0D01*
G01*
X5915660Y-10881360D02*
X5996940Y-10962640D01*
X5996940Y-10881360D02*
X5915660Y-10962640D01*
X5996940Y-10922000D02*
G75*
G03X5996940Y-10922000I-40640J0D01*
G01*
X5915660Y-11135360D02*
X5996940Y-11216640D01*
X5996940Y-11135360D02*
X5915660Y-11216640D01*
X5996940Y-11176000D02*
G75*
G03X5996940Y-11176000I-40640J0D01*
G01*
X6169660Y-10881360D02*
X6250940Y-10962640D01*
X6250940Y-10881360D02*
X6169660Y-10962640D01*
X6250940Y-10922000D02*
G75*
G03X6250940Y-10922000I-40640J0D01*
G01*
X6169660Y-11135360D02*
X6250940Y-11216640D01*
X6250940Y-11135360D02*
X6169660Y-11216640D01*
X6250940Y-11176000D02*
G75*
G03X6250940Y-11176000I-40640J0D01*
G01*
X6423660Y-5039360D02*
X6504940Y-5120640D01*
X6504940Y-5039360D02*
X6423660Y-5120640D01*
X6504940Y-5080000D02*
G75*
G03X6504940Y-5080000I-40640J0D01*
G01*
X6423660Y-5293360D02*
X6504940Y-5374640D01*
X6504940Y-5293360D02*
X6423660Y-5374640D01*
X6504940Y-5334000D02*
G75*
G03X6504940Y-5334000I-40640J0D01*
G01*
X6423660Y-5547360D02*
X6504940Y-5628640D01*
X6504940Y-5547360D02*
X6423660Y-5628640D01*
X6504940Y-5588000D02*
G75*
G03X6504940Y-5588000I-40640J0D01*
G01*
X6423660Y-5801360D02*
X6504940Y-5882640D01*
X6504940Y-5801360D02*
X6423660Y-5882640D01*
X6504940Y-5842000D02*
G75*
G03X6504940Y-5842000I-40640J0D01*
G01*
X6423660Y-6055360D02*
X6504940Y-6136640D01*
X6504940Y-6055360D02*
X6423660Y-6136640D01*
X6504940Y-6096000D02*
G75*
G03X6504940Y-6096000I-40640J0D01*
G01*
X6423660Y-6309360D02*
X6504940Y-6390640D01*
X6504940Y-6309360D02*
X6423660Y-6390640D01*
X6504940Y-6350000D02*
G75*
G03X6504940Y-6350000I-40640J0D01*
G01*
X6423660Y-6563360D02*
X6504940Y-6644640D01*
X6504940Y-6563360D02*
X6423660Y-6644640D01*
X6504940Y-6604000D02*
G75*
G03X6504940Y-6604000I-40640J0D01*
G01*
X6423660Y-6817360D02*
X6504940Y-6898640D01*
X6504940Y-6817360D02*
X6423660Y-6898640D01*
X6504940Y-6858000D02*
G75*
G03X6504940Y-6858000I-40640J0D01*
G01*
X6423660Y-7071360D02*
X6504940Y-7152640D01*
X6504940Y-7071360D02*
X6423660Y-7152640D01*
X6504940Y-7112000D02*
G75*
G03X6504940Y-7112000I-40640J0D01*
G01*
X6423660Y-7325360D02*
X6504940Y-7406640D01*
X6504940Y-7325360D02*
X6423660Y-7406640D01*
X6504940Y-7366000D02*
G75*
G03X6504940Y-7366000I-40640J0D01*
G01*
X6423660Y-7579360D02*
X6504940Y-7660640D01*
X6504940Y-7579360D02*
X6423660Y-7660640D01*
X6504940Y-7620000D02*
G75*
G03X6504940Y-7620000I-40640J0D01*
G01*
X6423660Y-7833360D02*
X6504940Y-7914640D01*
X6504940Y-7833360D02*
X6423660Y-7914640D01*
X6504940Y-7874000D02*
G75*
G03X6504940Y-7874000I-40640J0D01*
G01*
X6423660Y-8087360D02*
X6504940Y-8168640D01*
X6504940Y-8087360D02*
X6423660Y-8168640D01*
X6504940Y-8128000D02*
G75*
G03X6504940Y-8128000I-40640J0D01*
G01*
X6423660Y-8341360D02*
X6504940Y-8422640D01*
X6504940Y-8341360D02*
X6423660Y-8422640D01*
X6504940Y-8382000D02*
G75*
G03X6504940Y-8382000I-40640J0D01*
G01*
X6423660Y-8595360D02*
X6504940Y-8676640D01*
X6504940Y-8595360D02*
X6423660Y-8676640D01*
X6504940Y-8636000D02*
G75*
G03X6504940Y-8636000I-40640J0D01*
G01*
X6423660Y-8849360D02*
X6504940Y-8930640D01*
X6504940Y-8849360D02*
X6423660Y-8930640D01*
X6504940Y-8890000D02*
G75*
G03X6504940Y-8890000I-40640J0D01*
G01*
X6423660Y-9103360D02*
X6504940Y-9184640D01*
X6504940Y-9103360D02*
X6423660Y-9184640D01*
X6504940Y-9144000D02*
G75*
G03X6504940Y-9144000I-40640J0D01*
G01*
X6423660Y-9357360D02*
X6504940Y-9438640D01*
X6504940Y-9357360D02*
X6423660Y-9438640D01*
X6504940Y-9398000D02*
G75*
G03X6504940Y-9398000I-40640J0D01*
G01*
X6423660Y-9611360D02*
X6504940Y-9692640D01*
X6504940Y-9611360D02*
X6423660Y-9692640D01*
X6504940Y-9652000D02*
G75*
G03X6504940Y-9652000I-40640J0D01*
G01*
X6423660Y-9865360D02*
X6504940Y-9946640D01*
X6504940Y-9865360D02*
X6423660Y-9946640D01*
X6504940Y-9906000D02*
G75*
G03X6504940Y-9906000I-40640J0D01*
G01*
X6423660Y-10119360D02*
X6504940Y-10200640D01*
X6504940Y-10119360D02*
X6423660Y-10200640D01*
X6504940Y-10160000D02*
G75*
G03X6504940Y-10160000I-40640J0D01*
G01*
X6423660Y-10373360D02*
X6504940Y-10454640D01*
X6504940Y-10373360D02*
X6423660Y-10454640D01*
X6504940Y-10414000D02*
G75*
G03X6504940Y-10414000I-40640J0D01*
G01*
X6423660Y-10627360D02*
X6504940Y-10708640D01*
X6504940Y-10627360D02*
X6423660Y-10708640D01*
X6504940Y-10668000D02*
G75*
G03X6504940Y-10668000I-40640J0D01*
G01*
X6423660Y-10881360D02*
X6504940Y-10962640D01*
X6504940Y-10881360D02*
X6423660Y-10962640D01*
X6504940Y-10922000D02*
G75*
G03X6504940Y-10922000I-40640J0D01*
G01*
X6423660Y-11135360D02*
X6504940Y-11216640D01*
X6504940Y-11135360D02*
X6423660Y-11216640D01*
X6504940Y-11176000D02*
G75*
G03X6504940Y-11176000I-40640J0D01*
G01*
X10360660Y-5039360D02*
X10441940Y-5120640D01*
X10441940Y-5039360D02*
X10360660Y-5120640D01*
X10441940Y-5080000D02*
G75*
G03X10441940Y-5080000I-40640J0D01*
G01*
X10360660Y-5293360D02*
X10441940Y-5374640D01*
X10441940Y-5293360D02*
X10360660Y-5374640D01*
X10441940Y-5334000D02*
G75*
G03X10441940Y-5334000I-40640J0D01*
G01*
X10360660Y-5547360D02*
X10441940Y-5628640D01*
X10441940Y-5547360D02*
X10360660Y-5628640D01*
X10441940Y-5588000D02*
G75*
G03X10441940Y-5588000I-40640J0D01*
G01*
X10360660Y-5801360D02*
X10441940Y-5882640D01*
X10441940Y-5801360D02*
X10360660Y-5882640D01*
X10441940Y-5842000D02*
G75*
G03X10441940Y-5842000I-40640J0D01*
G01*
X10360660Y-6055360D02*
X10441940Y-6136640D01*
X10441940Y-6055360D02*
X10360660Y-6136640D01*
X10441940Y-6096000D02*
G75*
G03X10441940Y-6096000I-40640J0D01*
G01*
X10360660Y-6309360D02*
X10441940Y-6390640D01*
X10441940Y-6309360D02*
X10360660Y-6390640D01*
X10441940Y-6350000D02*
G75*
G03X10441940Y-6350000I-40640J0D01*
G01*
X10360660Y-6563360D02*
X10441940Y-6644640D01*
X10441940Y-6563360D02*
X10360660Y-6644640D01*
X10441940Y-6604000D02*
G75*
G03X10441940Y-6604000I-40640J0D01*
G01*
X10360660Y-6817360D02*
X10441940Y-6898640D01*
X10441940Y-6817360D02*
X10360660Y-6898640D01*
X10441940Y-6858000D02*
G75*
G03X10441940Y-6858000I-40640J0D01*
G01*
X10360660Y-7071360D02*
X10441940Y-7152640D01*
X10441940Y-7071360D02*
X10360660Y-7152640D01*
X10441940Y-7112000D02*
G75*
G03X10441940Y-7112000I-40640J0D01*
G01*
X10360660Y-7325360D02*
X10441940Y-7406640D01*
X10441940Y-7325360D02*
X10360660Y-7406640D01*
X10441940Y-7366000D02*
G75*
G03X10441940Y-7366000I-40640J0D01*
G01*
X10360660Y-7579360D02*
X10441940Y-7660640D01*
X10441940Y-7579360D02*
X10360660Y-7660640D01*
X10441940Y-7620000D02*
G75*
G03X10441940Y-7620000I-40640J0D01*
G01*
X10360660Y-7833360D02*
X10441940Y-7914640D01*
X10441940Y-7833360D02*
X10360660Y-7914640D01*
X10441940Y-7874000D02*
G75*
G03X10441940Y-7874000I-40640J0D01*
G01*
X10360660Y-8087360D02*
X10441940Y-8168640D01*
X10441940Y-8087360D02*
X10360660Y-8168640D01*
X10441940Y-8128000D02*
G75*
G03X10441940Y-8128000I-40640J0D01*
G01*
X10360660Y-8341360D02*
X10441940Y-8422640D01*
X10441940Y-8341360D02*
X10360660Y-8422640D01*
X10441940Y-8382000D02*
G75*
G03X10441940Y-8382000I-40640J0D01*
G01*
X10360660Y-8595360D02*
X10441940Y-8676640D01*
X10441940Y-8595360D02*
X10360660Y-8676640D01*
X10441940Y-8636000D02*
G75*
G03X10441940Y-8636000I-40640J0D01*
G01*
X10360660Y-8849360D02*
X10441940Y-8930640D01*
X10441940Y-8849360D02*
X10360660Y-8930640D01*
X10441940Y-8890000D02*
G75*
G03X10441940Y-8890000I-40640J0D01*
G01*
X10360660Y-9103360D02*
X10441940Y-9184640D01*
X10441940Y-9103360D02*
X10360660Y-9184640D01*
X10441940Y-9144000D02*
G75*
G03X10441940Y-9144000I-40640J0D01*
G01*
X10360660Y-9357360D02*
X10441940Y-9438640D01*
X10441940Y-9357360D02*
X10360660Y-9438640D01*
X10441940Y-9398000D02*
G75*
G03X10441940Y-9398000I-40640J0D01*
G01*
X10360660Y-9611360D02*
X10441940Y-9692640D01*
X10441940Y-9611360D02*
X10360660Y-9692640D01*
X10441940Y-9652000D02*
G75*
G03X10441940Y-9652000I-40640J0D01*
G01*
X10360660Y-9865360D02*
X10441940Y-9946640D01*
X10441940Y-9865360D02*
X10360660Y-9946640D01*
X10441940Y-9906000D02*
G75*
G03X10441940Y-9906000I-40640J0D01*
G01*
X10360660Y-10119360D02*
X10441940Y-10200640D01*
X10441940Y-10119360D02*
X10360660Y-10200640D01*
X10441940Y-10160000D02*
G75*
G03X10441940Y-10160000I-40640J0D01*
G01*
X10360660Y-10373360D02*
X10441940Y-10454640D01*
X10441940Y-10373360D02*
X10360660Y-10454640D01*
X10441940Y-10414000D02*
G75*
G03X10441940Y-10414000I-40640J0D01*
G01*
X10360660Y-10627360D02*
X10441940Y-10708640D01*
X10441940Y-10627360D02*
X10360660Y-10708640D01*
X10441940Y-10668000D02*
G75*
G03X10441940Y-10668000I-40640J0D01*
G01*
X10360660Y-10881360D02*
X10441940Y-10962640D01*
X10441940Y-10881360D02*
X10360660Y-10962640D01*
X10441940Y-10922000D02*
G75*
G03X10441940Y-10922000I-40640J0D01*
G01*
X10360660Y-11135360D02*
X10441940Y-11216640D01*
X10441940Y-11135360D02*
X10360660Y-11216640D01*
X10441940Y-11176000D02*
G75*
G03X10441940Y-11176000I-40640J0D01*
G01*
X10614660Y-10881360D02*
X10695940Y-10962640D01*
X10695940Y-10881360D02*
X10614660Y-10962640D01*
X10695940Y-10922000D02*
G75*
G03X10695940Y-10922000I-40640J0D01*
G01*
X10614660Y-11135360D02*
X10695940Y-11216640D01*
X10695940Y-11135360D02*
X10614660Y-11216640D01*
X10695940Y-11176000D02*
G75*
G03X10695940Y-11176000I-40640J0D01*
G01*
X10868660Y-10881360D02*
X10949940Y-10962640D01*
X10949940Y-10881360D02*
X10868660Y-10962640D01*
X10949940Y-10922000D02*
G75*
G03X10949940Y-10922000I-40640J0D01*
G01*
X10868660Y-11135360D02*
X10949940Y-11216640D01*
X10949940Y-11135360D02*
X10868660Y-11216640D01*
X10949940Y-11176000D02*
G75*
G03X10949940Y-11176000I-40640J0D01*
G01*
X11122660Y-10881360D02*
X11203940Y-10962640D01*
X11203940Y-10881360D02*
X11122660Y-10962640D01*
X11203940Y-10922000D02*
G75*
G03X11203940Y-10922000I-40640J0D01*
G01*
X11122660Y-11135360D02*
X11203940Y-11216640D01*
X11203940Y-11135360D02*
X11122660Y-11216640D01*
X11203940Y-11176000D02*
G75*
G03X11203940Y-11176000I-40640J0D01*
G01*
X11376660Y-10881360D02*
X11457940Y-10962640D01*
X11457940Y-10881360D02*
X11376660Y-10962640D01*
X11457940Y-10922000D02*
G75*
G03X11457940Y-10922000I-40640J0D01*
G01*
X11376660Y-11135360D02*
X11457940Y-11216640D01*
X11457940Y-11135360D02*
X11376660Y-11216640D01*
X11457940Y-11176000D02*
G75*
G03X11457940Y-11176000I-40640J0D01*
G01*
X11630660Y-10881360D02*
X11711940Y-10962640D01*
X11711940Y-10881360D02*
X11630660Y-10962640D01*
X11711940Y-10922000D02*
G75*
G03X11711940Y-10922000I-40640J0D01*
G01*
X11630660Y-11135360D02*
X11711940Y-11216640D01*
X11711940Y-11135360D02*
X11630660Y-11216640D01*
X11711940Y-11176000D02*
G75*
G03X11711940Y-11176000I-40640J0D01*
G01*
X11884660Y-10881360D02*
X11965940Y-10962640D01*
X11965940Y-10881360D02*
X11884660Y-10962640D01*
X11965940Y-10922000D02*
G75*
G03X11965940Y-10922000I-40640J0D01*
G01*
X11884660Y-11135360D02*
X11965940Y-11216640D01*
X11965940Y-11135360D02*
X11884660Y-11216640D01*
X11965940Y-11176000D02*
G75*
G03X11965940Y-11176000I-40640J0D01*
G01*
X12138660Y-10881360D02*
X12219940Y-10962640D01*
X12219940Y-10881360D02*
X12138660Y-10962640D01*
X12219940Y-10922000D02*
G75*
G03X12219940Y-10922000I-40640J0D01*
G01*
X12138660Y-11135360D02*
X12219940Y-11216640D01*
X12219940Y-11135360D02*
X12138660Y-11216640D01*
X12219940Y-11176000D02*
G75*
G03X12219940Y-11176000I-40640J0D01*
G01*
X12392660Y-10881360D02*
X12473940Y-10962640D01*
X12473940Y-10881360D02*
X12392660Y-10962640D01*
X12473940Y-10922000D02*
G75*
G03X12473940Y-10922000I-40640J0D01*
G01*
X12392660Y-11135360D02*
X12473940Y-11216640D01*
X12473940Y-11135360D02*
X12392660Y-11216640D01*
X12473940Y-11176000D02*
G75*
G03X12473940Y-11176000I-40640J0D01*
G01*
X12646660Y-10881360D02*
X12727940Y-10962640D01*
X12727940Y-10881360D02*
X12646660Y-10962640D01*
X12727940Y-10922000D02*
G75*
G03X12727940Y-10922000I-40640J0D01*
G01*
X12646660Y-11135360D02*
X12727940Y-11216640D01*
X12727940Y-11135360D02*
X12646660Y-11216640D01*
X12727940Y-11176000D02*
G75*
G03X12727940Y-11176000I-40640J0D01*
G01*
X12900660Y-10881360D02*
X12981940Y-10962640D01*
X12981940Y-10881360D02*
X12900660Y-10962640D01*
X12981940Y-10922000D02*
G75*
G03X12981940Y-10922000I-40640J0D01*
G01*
X12900660Y-11135360D02*
X12981940Y-11216640D01*
X12981940Y-11135360D02*
X12900660Y-11216640D01*
X12981940Y-11176000D02*
G75*
G03X12981940Y-11176000I-40640J0D01*
G01*
X13154660Y-5039360D02*
X13235940Y-5120640D01*
X13235940Y-5039360D02*
X13154660Y-5120640D01*
X13235940Y-5080000D02*
G75*
G03X13235940Y-5080000I-40640J0D01*
G01*
X13154660Y-5293360D02*
X13235940Y-5374640D01*
X13235940Y-5293360D02*
X13154660Y-5374640D01*
X13235940Y-5334000D02*
G75*
G03X13235940Y-5334000I-40640J0D01*
G01*
X13154660Y-5547360D02*
X13235940Y-5628640D01*
X13235940Y-5547360D02*
X13154660Y-5628640D01*
X13235940Y-5588000D02*
G75*
G03X13235940Y-5588000I-40640J0D01*
G01*
X13154660Y-5801360D02*
X13235940Y-5882640D01*
X13235940Y-5801360D02*
X13154660Y-5882640D01*
X13235940Y-5842000D02*
G75*
G03X13235940Y-5842000I-40640J0D01*
G01*
X13154660Y-6055360D02*
X13235940Y-6136640D01*
X13235940Y-6055360D02*
X13154660Y-6136640D01*
X13235940Y-6096000D02*
G75*
G03X13235940Y-6096000I-40640J0D01*
G01*
X13154660Y-6309360D02*
X13235940Y-6390640D01*
X13235940Y-6309360D02*
X13154660Y-6390640D01*
X13235940Y-6350000D02*
G75*
G03X13235940Y-6350000I-40640J0D01*
G01*
X13154660Y-6563360D02*
X13235940Y-6644640D01*
X13235940Y-6563360D02*
X13154660Y-6644640D01*
X13235940Y-6604000D02*
G75*
G03X13235940Y-6604000I-40640J0D01*
G01*
X13154660Y-6817360D02*
X13235940Y-6898640D01*
X13235940Y-6817360D02*
X13154660Y-6898640D01*
X13235940Y-6858000D02*
G75*
G03X13235940Y-6858000I-40640J0D01*
G01*
X13154660Y-7071360D02*
X13235940Y-7152640D01*
X13235940Y-7071360D02*
X13154660Y-7152640D01*
X13235940Y-7112000D02*
G75*
G03X13235940Y-7112000I-40640J0D01*
G01*
X13154660Y-7325360D02*
X13235940Y-7406640D01*
X13235940Y-7325360D02*
X13154660Y-7406640D01*
X13235940Y-7366000D02*
G75*
G03X13235940Y-7366000I-40640J0D01*
G01*
X13154660Y-7579360D02*
X13235940Y-7660640D01*
X13235940Y-7579360D02*
X13154660Y-7660640D01*
X13235940Y-7620000D02*
G75*
G03X13235940Y-7620000I-40640J0D01*
G01*
X13154660Y-7833360D02*
X13235940Y-7914640D01*
X13235940Y-7833360D02*
X13154660Y-7914640D01*
X13235940Y-7874000D02*
G75*
G03X13235940Y-7874000I-40640J0D01*
G01*
X13154660Y-8087360D02*
X13235940Y-8168640D01*
X13235940Y-8087360D02*
X13154660Y-8168640D01*
X13235940Y-8128000D02*
G75*
G03X13235940Y-8128000I-40640J0D01*
G01*
X13154660Y-8341360D02*
X13235940Y-8422640D01*
X13235940Y-8341360D02*
X13154660Y-8422640D01*
X13235940Y-8382000D02*
G75*
G03X13235940Y-8382000I-40640J0D01*
G01*
X13154660Y-8595360D02*
X13235940Y-8676640D01*
X13235940Y-8595360D02*
X13154660Y-8676640D01*
X13235940Y-8636000D02*
G75*
G03X13235940Y-8636000I-40640J0D01*
G01*
X13154660Y-8849360D02*
X13235940Y-8930640D01*
X13235940Y-8849360D02*
X13154660Y-8930640D01*
X13235940Y-8890000D02*
G75*
G03X13235940Y-8890000I-40640J0D01*
G01*
X13154660Y-9103360D02*
X13235940Y-9184640D01*
X13235940Y-9103360D02*
X13154660Y-9184640D01*
X13235940Y-9144000D02*
G75*
G03X13235940Y-9144000I-40640J0D01*
G01*
X13154660Y-9357360D02*
X13235940Y-9438640D01*
X13235940Y-9357360D02*
X13154660Y-9438640D01*
X13235940Y-9398000D02*
G75*
G03X13235940Y-9398000I-40640J0D01*
G01*
X13154660Y-9611360D02*
X13235940Y-9692640D01*
X13235940Y-9611360D02*
X13154660Y-9692640D01*
X13235940Y-9652000D02*
G75*
G03X13235940Y-9652000I-40640J0D01*
G01*
X13154660Y-9865360D02*
X13235940Y-9946640D01*
X13235940Y-9865360D02*
X13154660Y-9946640D01*
X13235940Y-9906000D02*
G75*
G03X13235940Y-9906000I-40640J0D01*
G01*
X13154660Y-10119360D02*
X13235940Y-10200640D01*
X13235940Y-10119360D02*
X13154660Y-10200640D01*
X13235940Y-10160000D02*
G75*
G03X13235940Y-10160000I-40640J0D01*
G01*
X13154660Y-10373360D02*
X13235940Y-10454640D01*
X13235940Y-10373360D02*
X13154660Y-10454640D01*
X13235940Y-10414000D02*
G75*
G03X13235940Y-10414000I-40640J0D01*
G01*
X13154660Y-10627360D02*
X13235940Y-10708640D01*
X13235940Y-10627360D02*
X13154660Y-10708640D01*
X13235940Y-10668000D02*
G75*
G03X13235940Y-10668000I-40640J0D01*
G01*
X13154660Y-10881360D02*
X13235940Y-10962640D01*
X13235940Y-10881360D02*
X13154660Y-10962640D01*
X13235940Y-10922000D02*
G75*
G03X13235940Y-10922000I-40640J0D01*
G01*
X13154660Y-11135360D02*
X13235940Y-11216640D01*
X13235940Y-11135360D02*
X13154660Y-11216640D01*
X13235940Y-11176000D02*
G75*
G03X13235940Y-11176000I-40640J0D01*
G01*
X17091660Y-5039360D02*
X17172940Y-5120640D01*
X17172940Y-5039360D02*
X17091660Y-5120640D01*
X17172940Y-5080000D02*
G75*
G03X17172940Y-5080000I-40640J0D01*
G01*
X17091660Y-5293360D02*
X17172940Y-5374640D01*
X17172940Y-5293360D02*
X17091660Y-5374640D01*
X17172940Y-5334000D02*
G75*
G03X17172940Y-5334000I-40640J0D01*
G01*
X17091660Y-5547360D02*
X17172940Y-5628640D01*
X17172940Y-5547360D02*
X17091660Y-5628640D01*
X17172940Y-5588000D02*
G75*
G03X17172940Y-5588000I-40640J0D01*
G01*
X17091660Y-5801360D02*
X17172940Y-5882640D01*
X17172940Y-5801360D02*
X17091660Y-5882640D01*
X17172940Y-5842000D02*
G75*
G03X17172940Y-5842000I-40640J0D01*
G01*
X17091660Y-6055360D02*
X17172940Y-6136640D01*
X17172940Y-6055360D02*
X17091660Y-6136640D01*
X17172940Y-6096000D02*
G75*
G03X17172940Y-6096000I-40640J0D01*
G01*
X17091660Y-6309360D02*
X17172940Y-6390640D01*
X17172940Y-6309360D02*
X17091660Y-6390640D01*
X17172940Y-6350000D02*
G75*
G03X17172940Y-6350000I-40640J0D01*
G01*
X17091660Y-6563360D02*
X17172940Y-6644640D01*
X17172940Y-6563360D02*
X17091660Y-6644640D01*
X17172940Y-6604000D02*
G75*
G03X17172940Y-6604000I-40640J0D01*
G01*
X17091660Y-6817360D02*
X17172940Y-6898640D01*
X17172940Y-6817360D02*
X17091660Y-6898640D01*
X17172940Y-6858000D02*
G75*
G03X17172940Y-6858000I-40640J0D01*
G01*
X17091660Y-7071360D02*
X17172940Y-7152640D01*
X17172940Y-7071360D02*
X17091660Y-7152640D01*
X17172940Y-7112000D02*
G75*
G03X17172940Y-7112000I-40640J0D01*
G01*
X17091660Y-7325360D02*
X17172940Y-7406640D01*
X17172940Y-7325360D02*
X17091660Y-7406640D01*
X17172940Y-7366000D02*
G75*
G03X17172940Y-7366000I-40640J0D01*
G01*
X17091660Y-7579360D02*
X17172940Y-7660640D01*
X17172940Y-7579360D02*
X17091660Y-7660640D01*
X17172940Y-7620000D02*
G75*
G03X17172940Y-7620000I-40640J0D01*
G01*
X17091660Y-7833360D02*
X17172940Y-7914640D01*
X17172940Y-7833360D02*
X17091660Y-7914640D01*
X17172940Y-7874000D02*
G75*
G03X17172940Y-7874000I-40640J0D01*
G01*
X17091660Y-8087360D02*
X17172940Y-8168640D01*
X17172940Y-8087360D02*
X17091660Y-8168640D01*
X17172940Y-8128000D02*
G75*
G03X17172940Y-8128000I-40640J0D01*
G01*
X17091660Y-8341360D02*
X17172940Y-8422640D01*
X17172940Y-8341360D02*
X17091660Y-8422640D01*
X17172940Y-8382000D02*
G75*
G03X17172940Y-8382000I-40640J0D01*
G01*
X17091660Y-8595360D02*
X17172940Y-8676640D01*
X17172940Y-8595360D02*
X17091660Y-8676640D01*
X17172940Y-8636000D02*
G75*
G03X17172940Y-8636000I-40640J0D01*
G01*
X17091660Y-8849360D02*
X17172940Y-8930640D01*
X17172940Y-8849360D02*
X17091660Y-8930640D01*
X17172940Y-8890000D02*
G75*
G03X17172940Y-8890000I-40640J0D01*
G01*
X17091660Y-9103360D02*
X17172940Y-9184640D01*
X17172940Y-9103360D02*
X17091660Y-9184640D01*
X17172940Y-9144000D02*
G75*
G03X17172940Y-9144000I-40640J0D01*
G01*
X17091660Y-9357360D02*
X17172940Y-9438640D01*
X17172940Y-9357360D02*
X17091660Y-9438640D01*
X17172940Y-9398000D02*
G75*
G03X17172940Y-9398000I-40640J0D01*
G01*
X17091660Y-9611360D02*
X17172940Y-9692640D01*
X17172940Y-9611360D02*
X17091660Y-9692640D01*
X17172940Y-9652000D02*
G75*
G03X17172940Y-9652000I-40640J0D01*
G01*
X17091660Y-9865360D02*
X17172940Y-9946640D01*
X17172940Y-9865360D02*
X17091660Y-9946640D01*
X17172940Y-9906000D02*
G75*
G03X17172940Y-9906000I-40640J0D01*
G01*
X17091660Y-10119360D02*
X17172940Y-10200640D01*
X17172940Y-10119360D02*
X17091660Y-10200640D01*
X17172940Y-10160000D02*
G75*
G03X17172940Y-10160000I-40640J0D01*
G01*
X17091660Y-10373360D02*
X17172940Y-10454640D01*
X17172940Y-10373360D02*
X17091660Y-10454640D01*
X17172940Y-10414000D02*
G75*
G03X17172940Y-10414000I-40640J0D01*
G01*
X17091660Y-10627360D02*
X17172940Y-10708640D01*
X17172940Y-10627360D02*
X17091660Y-10708640D01*
X17172940Y-10668000D02*
G75*
G03X17172940Y-10668000I-40640J0D01*
G01*
X17091660Y-10881360D02*
X17172940Y-10962640D01*
X17172940Y-10881360D02*
X17091660Y-10962640D01*
X17172940Y-10922000D02*
G75*
G03X17172940Y-10922000I-40640J0D01*
G01*
X17091660Y-11135360D02*
X17172940Y-11216640D01*
X17172940Y-11135360D02*
X17091660Y-11216640D01*
X17172940Y-11176000D02*
G75*
G03X17172940Y-11176000I-40640J0D01*
G01*
X17345660Y-10881360D02*
X17426940Y-10962640D01*
X17426940Y-10881360D02*
X17345660Y-10962640D01*
X17426940Y-10922000D02*
G75*
G03X17426940Y-10922000I-40640J0D01*
G01*
X17345660Y-11135360D02*
X17426940Y-11216640D01*
X17426940Y-11135360D02*
X17345660Y-11216640D01*
X17426940Y-11176000D02*
G75*
G03X17426940Y-11176000I-40640J0D01*
G01*
X17599660Y-10881360D02*
X17680940Y-10962640D01*
X17680940Y-10881360D02*
X17599660Y-10962640D01*
X17680940Y-10922000D02*
G75*
G03X17680940Y-10922000I-40640J0D01*
G01*
X17599660Y-11135360D02*
X17680940Y-11216640D01*
X17680940Y-11135360D02*
X17599660Y-11216640D01*
X17680940Y-11176000D02*
G75*
G03X17680940Y-11176000I-40640J0D01*
G01*
X17853660Y-10881360D02*
X17934940Y-10962640D01*
X17934940Y-10881360D02*
X17853660Y-10962640D01*
X17934940Y-10922000D02*
G75*
G03X17934940Y-10922000I-40640J0D01*
G01*
X17853660Y-11135360D02*
X17934940Y-11216640D01*
X17934940Y-11135360D02*
X17853660Y-11216640D01*
X17934940Y-11176000D02*
G75*
G03X17934940Y-11176000I-40640J0D01*
G01*
X18107660Y-10881360D02*
X18188940Y-10962640D01*
X18188940Y-10881360D02*
X18107660Y-10962640D01*
X18188940Y-10922000D02*
G75*
G03X18188940Y-10922000I-40640J0D01*
G01*
X18107660Y-11135360D02*
X18188940Y-11216640D01*
X18188940Y-11135360D02*
X18107660Y-11216640D01*
X18188940Y-11176000D02*
G75*
G03X18188940Y-11176000I-40640J0D01*
G01*
X18361660Y-10881360D02*
X18442940Y-10962640D01*
X18442940Y-10881360D02*
X18361660Y-10962640D01*
X18442940Y-10922000D02*
G75*
G03X18442940Y-10922000I-40640J0D01*
G01*
X18361660Y-11135360D02*
X18442940Y-11216640D01*
X18442940Y-11135360D02*
X18361660Y-11216640D01*
X18442940Y-11176000D02*
G75*
G03X18442940Y-11176000I-40640J0D01*
G01*
X18615660Y-10881360D02*
X18696940Y-10962640D01*
X18696940Y-10881360D02*
X18615660Y-10962640D01*
X18696940Y-10922000D02*
G75*
G03X18696940Y-10922000I-40640J0D01*
G01*
X18615660Y-11135360D02*
X18696940Y-11216640D01*
X18696940Y-11135360D02*
X18615660Y-11216640D01*
X18696940Y-11176000D02*
G75*
G03X18696940Y-11176000I-40640J0D01*
G01*
X18869660Y-10881360D02*
X18950940Y-10962640D01*
X18950940Y-10881360D02*
X18869660Y-10962640D01*
X18950940Y-10922000D02*
G75*
G03X18950940Y-10922000I-40640J0D01*
G01*
X18869660Y-11135360D02*
X18950940Y-11216640D01*
X18950940Y-11135360D02*
X18869660Y-11216640D01*
X18950940Y-11176000D02*
G75*
G03X18950940Y-11176000I-40640J0D01*
G01*
X19123660Y-10881360D02*
X19204940Y-10962640D01*
X19204940Y-10881360D02*
X19123660Y-10962640D01*
X19204940Y-10922000D02*
G75*
G03X19204940Y-10922000I-40640J0D01*
G01*
X19123660Y-11135360D02*
X19204940Y-11216640D01*
X19204940Y-11135360D02*
X19123660Y-11216640D01*
X19204940Y-11176000D02*
G75*
G03X19204940Y-11176000I-40640J0D01*
G01*
X19377660Y-10881360D02*
X19458940Y-10962640D01*
X19458940Y-10881360D02*
X19377660Y-10962640D01*
X19458940Y-10922000D02*
G75*
G03X19458940Y-10922000I-40640J0D01*
G01*
X19377660Y-11135360D02*
X19458940Y-11216640D01*
X19458940Y-11135360D02*
X19377660Y-11216640D01*
X19458940Y-11176000D02*
G75*
G03X19458940Y-11176000I-40640J0D01*
G01*
X19631660Y-10881360D02*
X19712940Y-10962640D01*
X19712940Y-10881360D02*
X19631660Y-10962640D01*
X19712940Y-10922000D02*
G75*
G03X19712940Y-10922000I-40640J0D01*
G01*
X19631660Y-11135360D02*
X19712940Y-11216640D01*
X19712940Y-11135360D02*
X19631660Y-11216640D01*
X19712940Y-11176000D02*
G75*
G03X19712940Y-11176000I-40640J0D01*
G01*
X19885660Y-5039360D02*
X19966940Y-5120640D01*
X19966940Y-5039360D02*
X19885660Y-5120640D01*
X19966940Y-5080000D02*
G75*
G03X19966940Y-5080000I-40640J0D01*
G01*
X19885660Y-5293360D02*
X19966940Y-5374640D01*
X19966940Y-5293360D02*
X19885660Y-5374640D01*
X19966940Y-5334000D02*
G75*
G03X19966940Y-5334000I-40640J0D01*
G01*
X19885660Y-5547360D02*
X19966940Y-5628640D01*
X19966940Y-5547360D02*
X19885660Y-5628640D01*
X19966940Y-5588000D02*
G75*
G03X19966940Y-5588000I-40640J0D01*
G01*
X19885660Y-5801360D02*
X19966940Y-5882640D01*
X19966940Y-5801360D02*
X19885660Y-5882640D01*
X19966940Y-5842000D02*
G75*
G03X19966940Y-5842000I-40640J0D01*
G01*
X19885660Y-6055360D02*
X19966940Y-6136640D01*
X19966940Y-6055360D02*
X19885660Y-6136640D01*
X19966940Y-6096000D02*
G75*
G03X19966940Y-6096000I-40640J0D01*
G01*
X19885660Y-6309360D02*
X19966940Y-6390640D01*
X19966940Y-6309360D02*
X19885660Y-6390640D01*
X19966940Y-6350000D02*
G75*
G03X19966940Y-6350000I-40640J0D01*
G01*
X19885660Y-6563360D02*
X19966940Y-6644640D01*
X19966940Y-6563360D02*
X19885660Y-6644640D01*
X19966940Y-6604000D02*
G75*
G03X19966940Y-6604000I-40640J0D01*
G01*
X19885660Y-6817360D02*
X19966940Y-6898640D01*
X19966940Y-6817360D02*
X19885660Y-6898640D01*
X19966940Y-6858000D02*
G75*
G03X19966940Y-6858000I-40640J0D01*
G01*
X19885660Y-7071360D02*
X19966940Y-7152640D01*
X19966940Y-7071360D02*
X19885660Y-7152640D01*
X19966940Y-7112000D02*
G75*
G03X19966940Y-7112000I-40640J0D01*
G01*
X19885660Y-7325360D02*
X19966940Y-7406640D01*
X19966940Y-7325360D02*
X19885660Y-7406640D01*
X19966940Y-7366000D02*
G75*
G03X19966940Y-7366000I-40640J0D01*
G01*
X19885660Y-7579360D02*
X19966940Y-7660640D01*
X19966940Y-7579360D02*
X19885660Y-7660640D01*
X19966940Y-7620000D02*
G75*
G03X19966940Y-7620000I-40640J0D01*
G01*
X19885660Y-7833360D02*
X19966940Y-7914640D01*
X19966940Y-7833360D02*
X19885660Y-7914640D01*
X19966940Y-7874000D02*
G75*
G03X19966940Y-7874000I-40640J0D01*
G01*
X19885660Y-8087360D02*
X19966940Y-8168640D01*
X19966940Y-8087360D02*
X19885660Y-8168640D01*
X19966940Y-8128000D02*
G75*
G03X19966940Y-8128000I-40640J0D01*
G01*
X19885660Y-8341360D02*
X19966940Y-8422640D01*
X19966940Y-8341360D02*
X19885660Y-8422640D01*
X19966940Y-8382000D02*
G75*
G03X19966940Y-8382000I-40640J0D01*
G01*
X19885660Y-8595360D02*
X19966940Y-8676640D01*
X19966940Y-8595360D02*
X19885660Y-8676640D01*
X19966940Y-8636000D02*
G75*
G03X19966940Y-8636000I-40640J0D01*
G01*
X19885660Y-8849360D02*
X19966940Y-8930640D01*
X19966940Y-8849360D02*
X19885660Y-8930640D01*
X19966940Y-8890000D02*
G75*
G03X19966940Y-8890000I-40640J0D01*
G01*
X19885660Y-9103360D02*
X19966940Y-9184640D01*
X19966940Y-9103360D02*
X19885660Y-9184640D01*
X19966940Y-9144000D02*
G75*
G03X19966940Y-9144000I-40640J0D01*
G01*
X19885660Y-9357360D02*
X19966940Y-9438640D01*
X19966940Y-9357360D02*
X19885660Y-9438640D01*
X19966940Y-9398000D02*
G75*
G03X19966940Y-9398000I-40640J0D01*
G01*
X19885660Y-9611360D02*
X19966940Y-9692640D01*
X19966940Y-9611360D02*
X19885660Y-9692640D01*
X19966940Y-9652000D02*
G75*
G03X19966940Y-9652000I-40640J0D01*
G01*
X19885660Y-9865360D02*
X19966940Y-9946640D01*
X19966940Y-9865360D02*
X19885660Y-9946640D01*
X19966940Y-9906000D02*
G75*
G03X19966940Y-9906000I-40640J0D01*
G01*
X19885660Y-10119360D02*
X19966940Y-10200640D01*
X19966940Y-10119360D02*
X19885660Y-10200640D01*
X19966940Y-10160000D02*
G75*
G03X19966940Y-10160000I-40640J0D01*
G01*
X19885660Y-10373360D02*
X19966940Y-10454640D01*
X19966940Y-10373360D02*
X19885660Y-10454640D01*
X19966940Y-10414000D02*
G75*
G03X19966940Y-10414000I-40640J0D01*
G01*
X19885660Y-10627360D02*
X19966940Y-10708640D01*
X19966940Y-10627360D02*
X19885660Y-10708640D01*
X19966940Y-10668000D02*
G75*
G03X19966940Y-10668000I-40640J0D01*
G01*
X19885660Y-10881360D02*
X19966940Y-10962640D01*
X19966940Y-10881360D02*
X19885660Y-10962640D01*
X19966940Y-10922000D02*
G75*
G03X19966940Y-10922000I-40640J0D01*
G01*
X19885660Y-11135360D02*
X19966940Y-11216640D01*
X19966940Y-11135360D02*
X19885660Y-11216640D01*
X19966940Y-11176000D02*
G75*
G03X19966940Y-11176000I-40640J0D01*
G01*
X1987550Y-9925050D02*
X2076450Y-10013950D01*
X2076450Y-9925050D02*
X1987550Y-10013950D01*
X2032000Y-9925050D02*
X2032000Y-10013950D01*
X1987550Y-9969500D02*
X2076450Y-9969500D01*
X1987550Y-10560050D02*
X2076450Y-10648950D01*
X2076450Y-10560050D02*
X1987550Y-10648950D01*
X2032000Y-10560050D02*
X2032000Y-10648950D01*
X1987550Y-10604500D02*
X2076450Y-10604500D01*
X1987550Y-11639550D02*
X2076450Y-11728450D01*
X2076450Y-11639550D02*
X1987550Y-11728450D01*
X2032000Y-11639550D02*
X2032000Y-11728450D01*
X1987550Y-11684000D02*
X2076450Y-11684000D01*
X2622550Y-11639550D02*
X2711450Y-11728450D01*
X2711450Y-11639550D02*
X2622550Y-11728450D01*
X2667000Y-11639550D02*
X2667000Y-11728450D01*
X2622550Y-11684000D02*
X2711450Y-11684000D01*
X3937000Y-4191000D02*
X4038600Y-4292600D01*
X4038600Y-4191000D02*
X3937000Y-4292600D01*
X4023721Y-4277721D02*
X4023721Y-4205879D01*
X3951879Y-4205879D01*
X3951879Y-4277721D01*
X4023721Y-4277721D01*
X3937000Y-4445000D02*
X4038600Y-4546600D01*
X4038600Y-4445000D02*
X3937000Y-4546600D01*
X4023721Y-4531721D02*
X4023721Y-4459879D01*
X3951879Y-4459879D01*
X3951879Y-4531721D01*
X4023721Y-4531721D01*
X4191000Y-4191000D02*
X4292600Y-4292600D01*
X4292600Y-4191000D02*
X4191000Y-4292600D01*
X4277721Y-4277721D02*
X4277721Y-4205879D01*
X4205879Y-4205879D01*
X4205879Y-4277721D01*
X4277721Y-4277721D01*
X4191000Y-4445000D02*
X4292600Y-4546600D01*
X4292600Y-4445000D02*
X4191000Y-4546600D01*
X4277721Y-4531721D02*
X4277721Y-4459879D01*
X4205879Y-4459879D01*
X4205879Y-4531721D01*
X4277721Y-4531721D01*
X4445000Y-4191000D02*
X4546600Y-4292600D01*
X4546600Y-4191000D02*
X4445000Y-4292600D01*
X4531721Y-4277721D02*
X4531721Y-4205879D01*
X4459879Y-4205879D01*
X4459879Y-4277721D01*
X4531721Y-4277721D01*
X4445000Y-4445000D02*
X4546600Y-4546600D01*
X4546600Y-4445000D02*
X4445000Y-4546600D01*
X4531721Y-4531721D02*
X4531721Y-4459879D01*
X4459879Y-4459879D01*
X4459879Y-4531721D01*
X4531721Y-4531721D01*
X4699000Y-4191000D02*
X4800600Y-4292600D01*
X4800600Y-4191000D02*
X4699000Y-4292600D01*
X4785721Y-4277721D02*
X4785721Y-4205879D01*
X4713879Y-4205879D01*
X4713879Y-4277721D01*
X4785721Y-4277721D01*
X4699000Y-4445000D02*
X4800600Y-4546600D01*
X4800600Y-4445000D02*
X4699000Y-4546600D01*
X4785721Y-4531721D02*
X4785721Y-4459879D01*
X4713879Y-4459879D01*
X4713879Y-4531721D01*
X4785721Y-4531721D01*
X4953000Y-4191000D02*
X5054600Y-4292600D01*
X5054600Y-4191000D02*
X4953000Y-4292600D01*
X5039721Y-4277721D02*
X5039721Y-4205879D01*
X4967879Y-4205879D01*
X4967879Y-4277721D01*
X5039721Y-4277721D01*
X4953000Y-4445000D02*
X5054600Y-4546600D01*
X5054600Y-4445000D02*
X4953000Y-4546600D01*
X5039721Y-4531721D02*
X5039721Y-4459879D01*
X4967879Y-4459879D01*
X4967879Y-4531721D01*
X5039721Y-4531721D01*
X5207000Y-4191000D02*
X5308600Y-4292600D01*
X5308600Y-4191000D02*
X5207000Y-4292600D01*
X5293721Y-4277721D02*
X5293721Y-4205879D01*
X5221879Y-4205879D01*
X5221879Y-4277721D01*
X5293721Y-4277721D01*
X5207000Y-4445000D02*
X5308600Y-4546600D01*
X5308600Y-4445000D02*
X5207000Y-4546600D01*
X5293721Y-4531721D02*
X5293721Y-4459879D01*
X5221879Y-4459879D01*
X5221879Y-4531721D01*
X5293721Y-4531721D01*
X5461000Y-4191000D02*
X5562600Y-4292600D01*
X5562600Y-4191000D02*
X5461000Y-4292600D01*
X5547721Y-4277721D02*
X5547721Y-4205879D01*
X5475879Y-4205879D01*
X5475879Y-4277721D01*
X5547721Y-4277721D01*
X5461000Y-4445000D02*
X5562600Y-4546600D01*
X5562600Y-4445000D02*
X5461000Y-4546600D01*
X5547721Y-4531721D02*
X5547721Y-4459879D01*
X5475879Y-4459879D01*
X5475879Y-4531721D01*
X5547721Y-4531721D01*
X5715000Y-4191000D02*
X5816600Y-4292600D01*
X5816600Y-4191000D02*
X5715000Y-4292600D01*
X5801721Y-4277721D02*
X5801721Y-4205879D01*
X5729879Y-4205879D01*
X5729879Y-4277721D01*
X5801721Y-4277721D01*
X5715000Y-4445000D02*
X5816600Y-4546600D01*
X5816600Y-4445000D02*
X5715000Y-4546600D01*
X5801721Y-4531721D02*
X5801721Y-4459879D01*
X5729879Y-4459879D01*
X5729879Y-4531721D01*
X5801721Y-4531721D01*
X7239000Y-4191000D02*
X7340600Y-4292600D01*
X7340600Y-4191000D02*
X7239000Y-4292600D01*
X7325721Y-4277721D02*
X7325721Y-4205879D01*
X7253879Y-4205879D01*
X7253879Y-4277721D01*
X7325721Y-4277721D01*
X7239000Y-4445000D02*
X7340600Y-4546600D01*
X7340600Y-4445000D02*
X7239000Y-4546600D01*
X7325721Y-4531721D02*
X7325721Y-4459879D01*
X7253879Y-4459879D01*
X7253879Y-4531721D01*
X7325721Y-4531721D01*
X7493000Y-4191000D02*
X7594600Y-4292600D01*
X7594600Y-4191000D02*
X7493000Y-4292600D01*
X7579721Y-4277721D02*
X7579721Y-4205879D01*
X7507879Y-4205879D01*
X7507879Y-4277721D01*
X7579721Y-4277721D01*
X7493000Y-4445000D02*
X7594600Y-4546600D01*
X7594600Y-4445000D02*
X7493000Y-4546600D01*
X7579721Y-4531721D02*
X7579721Y-4459879D01*
X7507879Y-4459879D01*
X7507879Y-4531721D01*
X7579721Y-4531721D01*
X7747000Y-4191000D02*
X7848600Y-4292600D01*
X7848600Y-4191000D02*
X7747000Y-4292600D01*
X7833721Y-4277721D02*
X7833721Y-4205879D01*
X7761879Y-4205879D01*
X7761879Y-4277721D01*
X7833721Y-4277721D01*
X7747000Y-4445000D02*
X7848600Y-4546600D01*
X7848600Y-4445000D02*
X7747000Y-4546600D01*
X7833721Y-4531721D02*
X7833721Y-4459879D01*
X7761879Y-4459879D01*
X7761879Y-4531721D01*
X7833721Y-4531721D01*
X8001000Y-4191000D02*
X8102600Y-4292600D01*
X8102600Y-4191000D02*
X8001000Y-4292600D01*
X8087721Y-4277721D02*
X8087721Y-4205879D01*
X8015879Y-4205879D01*
X8015879Y-4277721D01*
X8087721Y-4277721D01*
X8001000Y-4445000D02*
X8102600Y-4546600D01*
X8102600Y-4445000D02*
X8001000Y-4546600D01*
X8087721Y-4531721D02*
X8087721Y-4459879D01*
X8015879Y-4459879D01*
X8015879Y-4531721D01*
X8087721Y-4531721D01*
X8255000Y-4191000D02*
X8356600Y-4292600D01*
X8356600Y-4191000D02*
X8255000Y-4292600D01*
X8341721Y-4277721D02*
X8341721Y-4205879D01*
X8269879Y-4205879D01*
X8269879Y-4277721D01*
X8341721Y-4277721D01*
X8255000Y-4445000D02*
X8356600Y-4546600D01*
X8356600Y-4445000D02*
X8255000Y-4546600D01*
X8341721Y-4531721D02*
X8341721Y-4459879D01*
X8269879Y-4459879D01*
X8269879Y-4531721D01*
X8341721Y-4531721D01*
X8394700Y-12903200D02*
X8496300Y-13004800D01*
X8496300Y-12903200D02*
X8394700Y-13004800D01*
X8481421Y-12989921D02*
X8481421Y-12918079D01*
X8409579Y-12918079D01*
X8409579Y-12989921D01*
X8481421Y-12989921D01*
X8394700Y-13157200D02*
X8496300Y-13258800D01*
X8496300Y-13157200D02*
X8394700Y-13258800D01*
X8481421Y-13243921D02*
X8481421Y-13172079D01*
X8409579Y-13172079D01*
X8409579Y-13243921D01*
X8481421Y-13243921D01*
X8394700Y-13411200D02*
X8496300Y-13512800D01*
X8496300Y-13411200D02*
X8394700Y-13512800D01*
X8481421Y-13497921D02*
X8481421Y-13426079D01*
X8409579Y-13426079D01*
X8409579Y-13497921D01*
X8481421Y-13497921D01*
X8394700Y-13665200D02*
X8496300Y-13766800D01*
X8496300Y-13665200D02*
X8394700Y-13766800D01*
X8481421Y-13751921D02*
X8481421Y-13680079D01*
X8409579Y-13680079D01*
X8409579Y-13751921D01*
X8481421Y-13751921D01*
X8394700Y-13919200D02*
X8496300Y-14020800D01*
X8496300Y-13919200D02*
X8394700Y-14020800D01*
X8481421Y-14005921D02*
X8481421Y-13934079D01*
X8409579Y-13934079D01*
X8409579Y-14005921D01*
X8481421Y-14005921D01*
X8394700Y-14173200D02*
X8496300Y-14274800D01*
X8496300Y-14173200D02*
X8394700Y-14274800D01*
X8481421Y-14259921D02*
X8481421Y-14188079D01*
X8409579Y-14188079D01*
X8409579Y-14259921D01*
X8481421Y-14259921D01*
X8394700Y-14427200D02*
X8496300Y-14528800D01*
X8496300Y-14427200D02*
X8394700Y-14528800D01*
X8481421Y-14513921D02*
X8481421Y-14442079D01*
X8409579Y-14442079D01*
X8409579Y-14513921D01*
X8481421Y-14513921D01*
X8394700Y-14681200D02*
X8496300Y-14782800D01*
X8496300Y-14681200D02*
X8394700Y-14782800D01*
X8481421Y-14767921D02*
X8481421Y-14696079D01*
X8409579Y-14696079D01*
X8409579Y-14767921D01*
X8481421Y-14767921D01*
X8394700Y-14935200D02*
X8496300Y-15036800D01*
X8496300Y-14935200D02*
X8394700Y-15036800D01*
X8481421Y-15021921D02*
X8481421Y-14950079D01*
X8409579Y-14950079D01*
X8409579Y-15021921D01*
X8481421Y-15021921D01*
X8509000Y-4191000D02*
X8610600Y-4292600D01*
X8610600Y-4191000D02*
X8509000Y-4292600D01*
X8595721Y-4277721D02*
X8595721Y-4205879D01*
X8523879Y-4205879D01*
X8523879Y-4277721D01*
X8595721Y-4277721D01*
X8509000Y-4445000D02*
X8610600Y-4546600D01*
X8610600Y-4445000D02*
X8509000Y-4546600D01*
X8595721Y-4531721D02*
X8595721Y-4459879D01*
X8523879Y-4459879D01*
X8523879Y-4531721D01*
X8595721Y-4531721D01*
X8763000Y-4191000D02*
X8864600Y-4292600D01*
X8864600Y-4191000D02*
X8763000Y-4292600D01*
X8849721Y-4277721D02*
X8849721Y-4205879D01*
X8777879Y-4205879D01*
X8777879Y-4277721D01*
X8849721Y-4277721D01*
X8763000Y-4445000D02*
X8864600Y-4546600D01*
X8864600Y-4445000D02*
X8763000Y-4546600D01*
X8849721Y-4531721D02*
X8849721Y-4459879D01*
X8777879Y-4459879D01*
X8777879Y-4531721D01*
X8849721Y-4531721D01*
X9017000Y-4191000D02*
X9118600Y-4292600D01*
X9118600Y-4191000D02*
X9017000Y-4292600D01*
X9103721Y-4277721D02*
X9103721Y-4205879D01*
X9031879Y-4205879D01*
X9031879Y-4277721D01*
X9103721Y-4277721D01*
X9017000Y-4445000D02*
X9118600Y-4546600D01*
X9118600Y-4445000D02*
X9017000Y-4546600D01*
X9103721Y-4531721D02*
X9103721Y-4459879D01*
X9031879Y-4459879D01*
X9031879Y-4531721D01*
X9103721Y-4531721D01*
X10172700Y-12903200D02*
X10274300Y-13004800D01*
X10274300Y-12903200D02*
X10172700Y-13004800D01*
X10259421Y-12989921D02*
X10259421Y-12918079D01*
X10187579Y-12918079D01*
X10187579Y-12989921D01*
X10259421Y-12989921D01*
X10172700Y-13157200D02*
X10274300Y-13258800D01*
X10274300Y-13157200D02*
X10172700Y-13258800D01*
X10259421Y-13243921D02*
X10259421Y-13172079D01*
X10187579Y-13172079D01*
X10187579Y-13243921D01*
X10259421Y-13243921D01*
X10172700Y-13411200D02*
X10274300Y-13512800D01*
X10274300Y-13411200D02*
X10172700Y-13512800D01*
X10259421Y-13497921D02*
X10259421Y-13426079D01*
X10187579Y-13426079D01*
X10187579Y-13497921D01*
X10259421Y-13497921D01*
X10172700Y-13665200D02*
X10274300Y-13766800D01*
X10274300Y-13665200D02*
X10172700Y-13766800D01*
X10259421Y-13751921D02*
X10259421Y-13680079D01*
X10187579Y-13680079D01*
X10187579Y-13751921D01*
X10259421Y-13751921D01*
X10172700Y-13919200D02*
X10274300Y-14020800D01*
X10274300Y-13919200D02*
X10172700Y-14020800D01*
X10259421Y-14005921D02*
X10259421Y-13934079D01*
X10187579Y-13934079D01*
X10187579Y-14005921D01*
X10259421Y-14005921D01*
X10172700Y-14173200D02*
X10274300Y-14274800D01*
X10274300Y-14173200D02*
X10172700Y-14274800D01*
X10259421Y-14259921D02*
X10259421Y-14188079D01*
X10187579Y-14188079D01*
X10187579Y-14259921D01*
X10259421Y-14259921D01*
X10172700Y-14427200D02*
X10274300Y-14528800D01*
X10274300Y-14427200D02*
X10172700Y-14528800D01*
X10259421Y-14513921D02*
X10259421Y-14442079D01*
X10187579Y-14442079D01*
X10187579Y-14513921D01*
X10259421Y-14513921D01*
X10172700Y-14681200D02*
X10274300Y-14782800D01*
X10274300Y-14681200D02*
X10172700Y-14782800D01*
X10259421Y-14767921D02*
X10259421Y-14696079D01*
X10187579Y-14696079D01*
X10187579Y-14767921D01*
X10259421Y-14767921D01*
X10172700Y-14935200D02*
X10274300Y-15036800D01*
X10274300Y-14935200D02*
X10172700Y-15036800D01*
X10259421Y-15021921D02*
X10259421Y-14950079D01*
X10187579Y-14950079D01*
X10187579Y-15021921D01*
X10259421Y-15021921D01*
X10668000Y-4191000D02*
X10769600Y-4292600D01*
X10769600Y-4191000D02*
X10668000Y-4292600D01*
X10754721Y-4277721D02*
X10754721Y-4205879D01*
X10682879Y-4205879D01*
X10682879Y-4277721D01*
X10754721Y-4277721D01*
X10668000Y-4445000D02*
X10769600Y-4546600D01*
X10769600Y-4445000D02*
X10668000Y-4546600D01*
X10754721Y-4531721D02*
X10754721Y-4459879D01*
X10682879Y-4459879D01*
X10682879Y-4531721D01*
X10754721Y-4531721D01*
X10922000Y-4191000D02*
X11023600Y-4292600D01*
X11023600Y-4191000D02*
X10922000Y-4292600D01*
X11008721Y-4277721D02*
X11008721Y-4205879D01*
X10936879Y-4205879D01*
X10936879Y-4277721D01*
X11008721Y-4277721D01*
X10922000Y-4445000D02*
X11023600Y-4546600D01*
X11023600Y-4445000D02*
X10922000Y-4546600D01*
X11008721Y-4531721D02*
X11008721Y-4459879D01*
X10936879Y-4459879D01*
X10936879Y-4531721D01*
X11008721Y-4531721D01*
X11176000Y-4191000D02*
X11277600Y-4292600D01*
X11277600Y-4191000D02*
X11176000Y-4292600D01*
X11262721Y-4277721D02*
X11262721Y-4205879D01*
X11190879Y-4205879D01*
X11190879Y-4277721D01*
X11262721Y-4277721D01*
X11176000Y-4445000D02*
X11277600Y-4546600D01*
X11277600Y-4445000D02*
X11176000Y-4546600D01*
X11262721Y-4531721D02*
X11262721Y-4459879D01*
X11190879Y-4459879D01*
X11190879Y-4531721D01*
X11262721Y-4531721D01*
X11430000Y-4191000D02*
X11531600Y-4292600D01*
X11531600Y-4191000D02*
X11430000Y-4292600D01*
X11516721Y-4277721D02*
X11516721Y-4205879D01*
X11444879Y-4205879D01*
X11444879Y-4277721D01*
X11516721Y-4277721D01*
X11430000Y-4445000D02*
X11531600Y-4546600D01*
X11531600Y-4445000D02*
X11430000Y-4546600D01*
X11516721Y-4531721D02*
X11516721Y-4459879D01*
X11444879Y-4459879D01*
X11444879Y-4531721D01*
X11516721Y-4531721D01*
X11684000Y-4191000D02*
X11785600Y-4292600D01*
X11785600Y-4191000D02*
X11684000Y-4292600D01*
X11770721Y-4277721D02*
X11770721Y-4205879D01*
X11698879Y-4205879D01*
X11698879Y-4277721D01*
X11770721Y-4277721D01*
X11684000Y-4445000D02*
X11785600Y-4546600D01*
X11785600Y-4445000D02*
X11684000Y-4546600D01*
X11770721Y-4531721D02*
X11770721Y-4459879D01*
X11698879Y-4459879D01*
X11698879Y-4531721D01*
X11770721Y-4531721D01*
X11938000Y-4191000D02*
X12039600Y-4292600D01*
X12039600Y-4191000D02*
X11938000Y-4292600D01*
X12024721Y-4277721D02*
X12024721Y-4205879D01*
X11952879Y-4205879D01*
X11952879Y-4277721D01*
X12024721Y-4277721D01*
X11938000Y-4445000D02*
X12039600Y-4546600D01*
X12039600Y-4445000D02*
X11938000Y-4546600D01*
X12024721Y-4531721D02*
X12024721Y-4459879D01*
X11952879Y-4459879D01*
X11952879Y-4531721D01*
X12024721Y-4531721D01*
X12192000Y-4191000D02*
X12293600Y-4292600D01*
X12293600Y-4191000D02*
X12192000Y-4292600D01*
X12278721Y-4277721D02*
X12278721Y-4205879D01*
X12206879Y-4205879D01*
X12206879Y-4277721D01*
X12278721Y-4277721D01*
X12192000Y-4445000D02*
X12293600Y-4546600D01*
X12293600Y-4445000D02*
X12192000Y-4546600D01*
X12278721Y-4531721D02*
X12278721Y-4459879D01*
X12206879Y-4459879D01*
X12206879Y-4531721D01*
X12278721Y-4531721D01*
X12446000Y-4191000D02*
X12547600Y-4292600D01*
X12547600Y-4191000D02*
X12446000Y-4292600D01*
X12532721Y-4277721D02*
X12532721Y-4205879D01*
X12460879Y-4205879D01*
X12460879Y-4277721D01*
X12532721Y-4277721D01*
X12446000Y-4445000D02*
X12547600Y-4546600D01*
X12547600Y-4445000D02*
X12446000Y-4546600D01*
X12532721Y-4531721D02*
X12532721Y-4459879D01*
X12460879Y-4459879D01*
X12460879Y-4531721D01*
X12532721Y-4531721D01*
X13970000Y-4191000D02*
X14071600Y-4292600D01*
X14071600Y-4191000D02*
X13970000Y-4292600D01*
X14056721Y-4277721D02*
X14056721Y-4205879D01*
X13984879Y-4205879D01*
X13984879Y-4277721D01*
X14056721Y-4277721D01*
X13970000Y-4445000D02*
X14071600Y-4546600D01*
X14071600Y-4445000D02*
X13970000Y-4546600D01*
X14056721Y-4531721D02*
X14056721Y-4459879D01*
X13984879Y-4459879D01*
X13984879Y-4531721D01*
X14056721Y-4531721D01*
X14224000Y-4191000D02*
X14325600Y-4292600D01*
X14325600Y-4191000D02*
X14224000Y-4292600D01*
X14310721Y-4277721D02*
X14310721Y-4205879D01*
X14238879Y-4205879D01*
X14238879Y-4277721D01*
X14310721Y-4277721D01*
X14224000Y-4445000D02*
X14325600Y-4546600D01*
X14325600Y-4445000D02*
X14224000Y-4546600D01*
X14310721Y-4531721D02*
X14310721Y-4459879D01*
X14238879Y-4459879D01*
X14238879Y-4531721D01*
X14310721Y-4531721D01*
X14478000Y-4191000D02*
X14579600Y-4292600D01*
X14579600Y-4191000D02*
X14478000Y-4292600D01*
X14564721Y-4277721D02*
X14564721Y-4205879D01*
X14492879Y-4205879D01*
X14492879Y-4277721D01*
X14564721Y-4277721D01*
X14478000Y-4445000D02*
X14579600Y-4546600D01*
X14579600Y-4445000D02*
X14478000Y-4546600D01*
X14564721Y-4531721D02*
X14564721Y-4459879D01*
X14492879Y-4459879D01*
X14492879Y-4531721D01*
X14564721Y-4531721D01*
X14732000Y-4191000D02*
X14833600Y-4292600D01*
X14833600Y-4191000D02*
X14732000Y-4292600D01*
X14818721Y-4277721D02*
X14818721Y-4205879D01*
X14746879Y-4205879D01*
X14746879Y-4277721D01*
X14818721Y-4277721D01*
X14732000Y-4445000D02*
X14833600Y-4546600D01*
X14833600Y-4445000D02*
X14732000Y-4546600D01*
X14818721Y-4531721D02*
X14818721Y-4459879D01*
X14746879Y-4459879D01*
X14746879Y-4531721D01*
X14818721Y-4531721D01*
X14986000Y-4191000D02*
X15087600Y-4292600D01*
X15087600Y-4191000D02*
X14986000Y-4292600D01*
X15072721Y-4277721D02*
X15072721Y-4205879D01*
X15000879Y-4205879D01*
X15000879Y-4277721D01*
X15072721Y-4277721D01*
X14986000Y-4445000D02*
X15087600Y-4546600D01*
X15087600Y-4445000D02*
X14986000Y-4546600D01*
X15072721Y-4531721D02*
X15072721Y-4459879D01*
X15000879Y-4459879D01*
X15000879Y-4531721D01*
X15072721Y-4531721D01*
X15240000Y-4191000D02*
X15341600Y-4292600D01*
X15341600Y-4191000D02*
X15240000Y-4292600D01*
X15326721Y-4277721D02*
X15326721Y-4205879D01*
X15254879Y-4205879D01*
X15254879Y-4277721D01*
X15326721Y-4277721D01*
X15240000Y-4445000D02*
X15341600Y-4546600D01*
X15341600Y-4445000D02*
X15240000Y-4546600D01*
X15326721Y-4531721D02*
X15326721Y-4459879D01*
X15254879Y-4459879D01*
X15254879Y-4531721D01*
X15326721Y-4531721D01*
X15494000Y-4191000D02*
X15595600Y-4292600D01*
X15595600Y-4191000D02*
X15494000Y-4292600D01*
X15580721Y-4277721D02*
X15580721Y-4205879D01*
X15508879Y-4205879D01*
X15508879Y-4277721D01*
X15580721Y-4277721D01*
X15494000Y-4445000D02*
X15595600Y-4546600D01*
X15595600Y-4445000D02*
X15494000Y-4546600D01*
X15580721Y-4531721D02*
X15580721Y-4459879D01*
X15508879Y-4459879D01*
X15508879Y-4531721D01*
X15580721Y-4531721D01*
X15748000Y-4191000D02*
X15849600Y-4292600D01*
X15849600Y-4191000D02*
X15748000Y-4292600D01*
X15834721Y-4277721D02*
X15834721Y-4205879D01*
X15762879Y-4205879D01*
X15762879Y-4277721D01*
X15834721Y-4277721D01*
X15748000Y-4445000D02*
X15849600Y-4546600D01*
X15849600Y-4445000D02*
X15748000Y-4546600D01*
X15834721Y-4531721D02*
X15834721Y-4459879D01*
X15762879Y-4459879D01*
X15762879Y-4531721D01*
X15834721Y-4531721D01*
X17399000Y-4191000D02*
X17500600Y-4292600D01*
X17500600Y-4191000D02*
X17399000Y-4292600D01*
X17485721Y-4277721D02*
X17485721Y-4205879D01*
X17413879Y-4205879D01*
X17413879Y-4277721D01*
X17485721Y-4277721D01*
X17399000Y-4445000D02*
X17500600Y-4546600D01*
X17500600Y-4445000D02*
X17399000Y-4546600D01*
X17485721Y-4531721D02*
X17485721Y-4459879D01*
X17413879Y-4459879D01*
X17413879Y-4531721D01*
X17485721Y-4531721D01*
X17653000Y-4191000D02*
X17754600Y-4292600D01*
X17754600Y-4191000D02*
X17653000Y-4292600D01*
X17739721Y-4277721D02*
X17739721Y-4205879D01*
X17667879Y-4205879D01*
X17667879Y-4277721D01*
X17739721Y-4277721D01*
X17653000Y-4445000D02*
X17754600Y-4546600D01*
X17754600Y-4445000D02*
X17653000Y-4546600D01*
X17739721Y-4531721D02*
X17739721Y-4459879D01*
X17667879Y-4459879D01*
X17667879Y-4531721D01*
X17739721Y-4531721D01*
X17907000Y-4191000D02*
X18008600Y-4292600D01*
X18008600Y-4191000D02*
X17907000Y-4292600D01*
X17993721Y-4277721D02*
X17993721Y-4205879D01*
X17921879Y-4205879D01*
X17921879Y-4277721D01*
X17993721Y-4277721D01*
X17907000Y-4445000D02*
X18008600Y-4546600D01*
X18008600Y-4445000D02*
X17907000Y-4546600D01*
X17993721Y-4531721D02*
X17993721Y-4459879D01*
X17921879Y-4459879D01*
X17921879Y-4531721D01*
X17993721Y-4531721D01*
X18161000Y-4191000D02*
X18262600Y-4292600D01*
X18262600Y-4191000D02*
X18161000Y-4292600D01*
X18247721Y-4277721D02*
X18247721Y-4205879D01*
X18175879Y-4205879D01*
X18175879Y-4277721D01*
X18247721Y-4277721D01*
X18161000Y-4445000D02*
X18262600Y-4546600D01*
X18262600Y-4445000D02*
X18161000Y-4546600D01*
X18247721Y-4531721D02*
X18247721Y-4459879D01*
X18175879Y-4459879D01*
X18175879Y-4531721D01*
X18247721Y-4531721D01*
X18415000Y-4191000D02*
X18516600Y-4292600D01*
X18516600Y-4191000D02*
X18415000Y-4292600D01*
X18501721Y-4277721D02*
X18501721Y-4205879D01*
X18429879Y-4205879D01*
X18429879Y-4277721D01*
X18501721Y-4277721D01*
X18415000Y-4445000D02*
X18516600Y-4546600D01*
X18516600Y-4445000D02*
X18415000Y-4546600D01*
X18501721Y-4531721D02*
X18501721Y-4459879D01*
X18429879Y-4459879D01*
X18429879Y-4531721D01*
X18501721Y-4531721D01*
X18669000Y-4191000D02*
X18770600Y-4292600D01*
X18770600Y-4191000D02*
X18669000Y-4292600D01*
X18755721Y-4277721D02*
X18755721Y-4205879D01*
X18683879Y-4205879D01*
X18683879Y-4277721D01*
X18755721Y-4277721D01*
X18669000Y-4445000D02*
X18770600Y-4546600D01*
X18770600Y-4445000D02*
X18669000Y-4546600D01*
X18755721Y-4531721D02*
X18755721Y-4459879D01*
X18683879Y-4459879D01*
X18683879Y-4531721D01*
X18755721Y-4531721D01*
X18923000Y-4191000D02*
X19024600Y-4292600D01*
X19024600Y-4191000D02*
X18923000Y-4292600D01*
X19009721Y-4277721D02*
X19009721Y-4205879D01*
X18937879Y-4205879D01*
X18937879Y-4277721D01*
X19009721Y-4277721D01*
X18923000Y-4445000D02*
X19024600Y-4546600D01*
X19024600Y-4445000D02*
X18923000Y-4546600D01*
X19009721Y-4531721D02*
X19009721Y-4459879D01*
X18937879Y-4459879D01*
X18937879Y-4531721D01*
X19009721Y-4531721D01*
X19177000Y-4191000D02*
X19278600Y-4292600D01*
X19278600Y-4191000D02*
X19177000Y-4292600D01*
X19263721Y-4277721D02*
X19263721Y-4205879D01*
X19191879Y-4205879D01*
X19191879Y-4277721D01*
X19263721Y-4277721D01*
X19177000Y-4445000D02*
X19278600Y-4546600D01*
X19278600Y-4445000D02*
X19177000Y-4546600D01*
X19263721Y-4531721D02*
X19263721Y-4459879D01*
X19191879Y-4459879D01*
X19191879Y-4531721D01*
X19263721Y-4531721D01*
X20701000Y-4191000D02*
X20802600Y-4292600D01*
X20802600Y-4191000D02*
X20701000Y-4292600D01*
X20787721Y-4277721D02*
X20787721Y-4205879D01*
X20715879Y-4205879D01*
X20715879Y-4277721D01*
X20787721Y-4277721D01*
X20701000Y-4445000D02*
X20802600Y-4546600D01*
X20802600Y-4445000D02*
X20701000Y-4546600D01*
X20787721Y-4531721D02*
X20787721Y-4459879D01*
X20715879Y-4459879D01*
X20715879Y-4531721D01*
X20787721Y-4531721D01*
X20955000Y-4191000D02*
X21056600Y-4292600D01*
X21056600Y-4191000D02*
X20955000Y-4292600D01*
X21041721Y-4277721D02*
X21041721Y-4205879D01*
X20969879Y-4205879D01*
X20969879Y-4277721D01*
X21041721Y-4277721D01*
X20955000Y-4445000D02*
X21056600Y-4546600D01*
X21056600Y-4445000D02*
X20955000Y-4546600D01*
X21041721Y-4531721D02*
X21041721Y-4459879D01*
X20969879Y-4459879D01*
X20969879Y-4531721D01*
X21041721Y-4531721D01*
X21209000Y-4191000D02*
X21310600Y-4292600D01*
X21310600Y-4191000D02*
X21209000Y-4292600D01*
X21295721Y-4277721D02*
X21295721Y-4205879D01*
X21223879Y-4205879D01*
X21223879Y-4277721D01*
X21295721Y-4277721D01*
X21209000Y-4445000D02*
X21310600Y-4546600D01*
X21310600Y-4445000D02*
X21209000Y-4546600D01*
X21295721Y-4531721D02*
X21295721Y-4459879D01*
X21223879Y-4459879D01*
X21223879Y-4531721D01*
X21295721Y-4531721D01*
X21463000Y-4191000D02*
X21564600Y-4292600D01*
X21564600Y-4191000D02*
X21463000Y-4292600D01*
X21549721Y-4277721D02*
X21549721Y-4205879D01*
X21477879Y-4205879D01*
X21477879Y-4277721D01*
X21549721Y-4277721D01*
X21463000Y-4445000D02*
X21564600Y-4546600D01*
X21564600Y-4445000D02*
X21463000Y-4546600D01*
X21549721Y-4531721D02*
X21549721Y-4459879D01*
X21477879Y-4459879D01*
X21477879Y-4531721D01*
X21549721Y-4531721D01*
X21717000Y-4191000D02*
X21818600Y-4292600D01*
X21818600Y-4191000D02*
X21717000Y-4292600D01*
X21803721Y-4277721D02*
X21803721Y-4205879D01*
X21731879Y-4205879D01*
X21731879Y-4277721D01*
X21803721Y-4277721D01*
X21717000Y-4445000D02*
X21818600Y-4546600D01*
X21818600Y-4445000D02*
X21717000Y-4546600D01*
X21803721Y-4531721D02*
X21803721Y-4459879D01*
X21731879Y-4459879D01*
X21731879Y-4531721D01*
X21803721Y-4531721D01*
X21971000Y-4191000D02*
X22072600Y-4292600D01*
X22072600Y-4191000D02*
X21971000Y-4292600D01*
X22057721Y-4277721D02*
X22057721Y-4205879D01*
X21985879Y-4205879D01*
X21985879Y-4277721D01*
X22057721Y-4277721D01*
X21971000Y-4445000D02*
X22072600Y-4546600D01*
X22072600Y-4445000D02*
X21971000Y-4546600D01*
X22057721Y-4531721D02*
X22057721Y-4459879D01*
X21985879Y-4459879D01*
X21985879Y-4531721D01*
X22057721Y-4531721D01*
X22225000Y-4191000D02*
X22326600Y-4292600D01*
X22326600Y-4191000D02*
X22225000Y-4292600D01*
X22311721Y-4277721D02*
X22311721Y-4205879D01*
X22239879Y-4205879D01*
X22239879Y-4277721D01*
X22311721Y-4277721D01*
X22225000Y-4445000D02*
X22326600Y-4546600D01*
X22326600Y-4445000D02*
X22225000Y-4546600D01*
X22311721Y-4531721D02*
X22311721Y-4459879D01*
X22239879Y-4459879D01*
X22239879Y-4531721D01*
X22311721Y-4531721D01*
X22479000Y-4191000D02*
X22580600Y-4292600D01*
X22580600Y-4191000D02*
X22479000Y-4292600D01*
X22565721Y-4277721D02*
X22565721Y-4205879D01*
X22493879Y-4205879D01*
X22493879Y-4277721D01*
X22565721Y-4277721D01*
X22479000Y-4445000D02*
X22580600Y-4546600D01*
X22580600Y-4445000D02*
X22479000Y-4546600D01*
X22565721Y-4531721D02*
X22565721Y-4459879D01*
X22493879Y-4459879D01*
X22493879Y-4531721D01*
X22565721Y-4531721D01*
X22155150Y-13900150D02*
X22294850Y-14039850D01*
X22294850Y-13900150D02*
X22155150Y-14039850D01*
X22225000Y-14039850D02*
X22294850Y-13970000D01*
X22225000Y-13900150D01*
X22155150Y-13970000D01*
X22225000Y-14039850D01*
X22155150Y-14281150D02*
X22294850Y-14420850D01*
X22294850Y-14281150D02*
X22155150Y-14420850D01*
X22225000Y-14420850D02*
X22294850Y-14351000D01*
X22225000Y-14281150D01*
X22155150Y-14351000D01*
X22225000Y-14420850D01*
X22155150Y-14662150D02*
X22294850Y-14801850D01*
X22294850Y-14662150D02*
X22155150Y-14801850D01*
X22225000Y-14801850D02*
X22294850Y-14732000D01*
X22225000Y-14662150D01*
X22155150Y-14732000D01*
X22225000Y-14801850D01*
X22809200Y-12926000D02*
X22809200Y-13076000D01*
X22734200Y-13001000D02*
X22884200Y-13001000D01*
X22884200Y-13001000D02*
G75*
G03X22884200Y-13001000I-75000J0D01*
G01*
X22809200Y-15626000D02*
X22809200Y-15776000D01*
X22734200Y-15701000D02*
X22884200Y-15701000D01*
X22884200Y-15701000D02*
G75*
G03X22884200Y-15701000I-75000J0D01*
G01*
X27432000Y-6473500D02*
X27432000Y-6623500D01*
X27357000Y-6548500D02*
X27507000Y-6548500D01*
X27507000Y-6548500D02*
G75*
G03X27507000Y-6548500I-75000J0D01*
G01*
X27432000Y-6973500D02*
X27432000Y-7123500D01*
X27357000Y-7048500D02*
X27507000Y-7048500D01*
X27507000Y-7048500D02*
G75*
G03X27507000Y-7048500I-75000J0D01*
G01*
X27121711Y-8625411D02*
X27121711Y-8483989D01*
X26980289Y-8483989D01*
X26980289Y-8625411D01*
X27121711Y-8625411D01*
X27151000Y-8554700D02*
G75*
G03X27151000Y-8554700I-100000J0D01*
G01*
X27121711Y-9575411D02*
X27121711Y-9433989D01*
X26980289Y-9433989D01*
X26980289Y-9575411D01*
X27121711Y-9575411D01*
X27151000Y-9504700D02*
G75*
G03X27151000Y-9504700I-100000J0D01*
G01*
X27121711Y-11214711D02*
X27121711Y-11073289D01*
X26980289Y-11073289D01*
X26980289Y-11214711D01*
X27121711Y-11214711D01*
X27151000Y-11144000D02*
G75*
G03X27151000Y-11144000I-100000J0D01*
G01*
X27121711Y-12164711D02*
X27121711Y-12023289D01*
X26980289Y-12023289D01*
X26980289Y-12164711D01*
X27121711Y-12164711D01*
X27151000Y-12094000D02*
G75*
G03X27151000Y-12094000I-100000J0D01*
G01*
X26497000Y-14186000D02*
X26649500Y-14033500D01*
X26497000Y-13881000D01*
X26344500Y-14033500D01*
X26497000Y-14186000D01*
X26649500Y-14033500D02*
G75*
G03X26649500Y-14033500I-152500J0D01*
G01*
X26797000Y-13716000D02*
X26949500Y-13563500D01*
X26797000Y-13411000D01*
X26644500Y-13563500D01*
X26797000Y-13716000D01*
X26949500Y-13563500D02*
G75*
G03X26949500Y-13563500I-152500J0D01*
G01*
X27097000Y-14186000D02*
X27249500Y-14033500D01*
X27097000Y-13881000D01*
X26944500Y-14033500D01*
X27097000Y-14186000D01*
X27249500Y-14033500D02*
G75*
G03X27249500Y-14033500I-152500J0D01*
G01*
X23970615Y-3769500D02*
X23970615Y-4104500D01*
X23803115Y-3937000D02*
X24138115Y-3937000D01*
X24089056Y-4055441D02*
X24089056Y-3818558D01*
X23852173Y-3818558D01*
X23852173Y-4055441D01*
X24089056Y-4055441D01*
X24986615Y-3769500D02*
X24986615Y-4104500D01*
X24819115Y-3937000D02*
X25154115Y-3937000D01*
X25105056Y-4055441D02*
X25105056Y-3818558D01*
X24868173Y-3818558D01*
X24868173Y-4055441D01*
X25105056Y-4055441D01*
X25561290Y-3769500D02*
X25561290Y-4104500D01*
X25393790Y-3937000D02*
X25728790Y-3937000D01*
X25679731Y-4055441D02*
X25679731Y-3818558D01*
X25442848Y-3818558D01*
X25442848Y-4055441D01*
X25679731Y-4055441D01*
X26577290Y-3769500D02*
X26577290Y-4104500D01*
X26409790Y-3937000D02*
X26744790Y-3937000D01*
X26695731Y-4055441D02*
X26695731Y-3818558D01*
X26458848Y-3818558D01*
X26458848Y-4055441D01*
X26695731Y-4055441D01*
X2082800Y-4102100D02*
X2082800Y-4483100D01*
X1892300Y-4292600D02*
X2273300Y-4292600D01*
X2082800Y-4483100D02*
X2273300Y-4292600D01*
X2082800Y-4102100D01*
X1892300Y-4292600D01*
X2082800Y-4483100D01*
X2082800Y-15201900D02*
X2082800Y-15582900D01*
X1892300Y-15392400D02*
X2273300Y-15392400D01*
X2082800Y-15582900D02*
X2273300Y-15392400D01*
X2082800Y-15201900D01*
X1892300Y-15392400D01*
X2082800Y-15582900D01*
X7835900Y-9652000D02*
X7835900Y-10033000D01*
X7645400Y-9842500D02*
X8026400Y-9842500D01*
X7835900Y-10033000D02*
X8026400Y-9842500D01*
X7835900Y-9652000D01*
X7645400Y-9842500D01*
X7835900Y-10033000D01*
X21297900Y-9652000D02*
X21297900Y-10033000D01*
X21107400Y-9842500D02*
X21488400Y-9842500D01*
X21297900Y-10033000D02*
X21488400Y-9842500D01*
X21297900Y-9652000D01*
X21107400Y-9842500D01*
X21297900Y-10033000D01*
X27406600Y-4102100D02*
X27406600Y-4483100D01*
X27216100Y-4292600D02*
X27597100Y-4292600D01*
X27406600Y-4483100D02*
X27597100Y-4292600D01*
X27406600Y-4102100D01*
X27216100Y-4292600D01*
X27406600Y-4483100D01*
X27406600Y-15201900D02*
X27406600Y-15582900D01*
X27216100Y-15392400D02*
X27597100Y-15392400D01*
X27406600Y-15582900D02*
X27597100Y-15392400D01*
X27406600Y-15201900D01*
X27216100Y-15392400D01*
X27406600Y-15582900D01*
D13*
X1533928Y-16475214D02*
X1533928Y-16175214D01*
X1605357Y-16175214D01*
X1648214Y-16189500D01*
X1676786Y-16218071D01*
X1691071Y-16246643D01*
X1705357Y-16303786D01*
X1705357Y-16346643D01*
X1691071Y-16403786D01*
X1676786Y-16432357D01*
X1648214Y-16460929D01*
X1605357Y-16475214D01*
X1533928Y-16475214D01*
X1833928Y-16475214D02*
X1833928Y-16275214D01*
X1833928Y-16332357D02*
X1848214Y-16303786D01*
X1862500Y-16289500D01*
X1891071Y-16275214D01*
X1919643Y-16275214D01*
X2019643Y-16475214D02*
X2019643Y-16275214D01*
X2019643Y-16175214D02*
X2005357Y-16189500D01*
X2019643Y-16203786D01*
X2033928Y-16189500D01*
X2019643Y-16175214D01*
X2019643Y-16203786D01*
X2205357Y-16475214D02*
X2176786Y-16460929D01*
X2162500Y-16432357D01*
X2162500Y-16175214D01*
X2362500Y-16475214D02*
X2333929Y-16460929D01*
X2319643Y-16432357D01*
X2319643Y-16175214D01*
X2705357Y-16475214D02*
X2705357Y-16175214D01*
X2805357Y-16389500D01*
X2905357Y-16175214D01*
X2905357Y-16475214D01*
X3176786Y-16475214D02*
X3176786Y-16318071D01*
X3162500Y-16289500D01*
X3133928Y-16275214D01*
X3076786Y-16275214D01*
X3048214Y-16289500D01*
X3176786Y-16460929D02*
X3148214Y-16475214D01*
X3076786Y-16475214D01*
X3048214Y-16460929D01*
X3033928Y-16432357D01*
X3033928Y-16403786D01*
X3048214Y-16375214D01*
X3076786Y-16360929D01*
X3148214Y-16360929D01*
X3176786Y-16346643D01*
X3319643Y-16275214D02*
X3319643Y-16575214D01*
X3319643Y-16289500D02*
X3348214Y-16275214D01*
X3405357Y-16275214D01*
X3433928Y-16289500D01*
X3448214Y-16303786D01*
X3462500Y-16332357D01*
X3462500Y-16418071D01*
X3448214Y-16446643D01*
X3433928Y-16460929D01*
X3405357Y-16475214D01*
X3348214Y-16475214D01*
X3319643Y-16460929D01*
X3591071Y-16446643D02*
X3605357Y-16460929D01*
X3591071Y-16475214D01*
X3576786Y-16460929D01*
X3591071Y-16446643D01*
X3591071Y-16475214D01*
X3591071Y-16289500D02*
X3605357Y-16303786D01*
X3591071Y-16318071D01*
X3576786Y-16303786D01*
X3591071Y-16289500D01*
X3591071Y-16318071D01*
X1242180Y-16959340D02*
X1262500Y-16979660D01*
X1262500Y-16959340D02*
X1242180Y-16979660D01*
X1591071Y-16805214D02*
X1619643Y-16805214D01*
X1648214Y-16819500D01*
X1662500Y-16833786D01*
X1676786Y-16862357D01*
X1691071Y-16919500D01*
X1691071Y-16990929D01*
X1676786Y-17048072D01*
X1662500Y-17076643D01*
X1648214Y-17090929D01*
X1619643Y-17105214D01*
X1591071Y-17105214D01*
X1562500Y-17090929D01*
X1548214Y-17076643D01*
X1533928Y-17048072D01*
X1519643Y-16990929D01*
X1519643Y-16919500D01*
X1533928Y-16862357D01*
X1548214Y-16833786D01*
X1562500Y-16819500D01*
X1591071Y-16805214D01*
X1819643Y-17076643D02*
X1833928Y-17090929D01*
X1819643Y-17105214D01*
X1805357Y-17090929D01*
X1819643Y-17076643D01*
X1819643Y-17105214D01*
X1948214Y-16833786D02*
X1962500Y-16819500D01*
X1991071Y-16805214D01*
X2062500Y-16805214D01*
X2091071Y-16819500D01*
X2105357Y-16833786D01*
X2119643Y-16862357D01*
X2119643Y-16890929D01*
X2105357Y-16933786D01*
X1933928Y-17105214D01*
X2119643Y-17105214D01*
X2305357Y-16805214D02*
X2333929Y-16805214D01*
X2362500Y-16819500D01*
X2376786Y-16833786D01*
X2391071Y-16862357D01*
X2405357Y-16919500D01*
X2405357Y-16990929D01*
X2391071Y-17048072D01*
X2376786Y-17076643D01*
X2362500Y-17090929D01*
X2333929Y-17105214D01*
X2305357Y-17105214D01*
X2276786Y-17090929D01*
X2262500Y-17076643D01*
X2248214Y-17048072D01*
X2233929Y-16990929D01*
X2233929Y-16919500D01*
X2248214Y-16862357D01*
X2262500Y-16833786D01*
X2276786Y-16819500D01*
X2305357Y-16805214D01*
X2533929Y-17105214D02*
X2533929Y-16905214D01*
X2533929Y-16933786D02*
X2548214Y-16919500D01*
X2576786Y-16905214D01*
X2619643Y-16905214D01*
X2648214Y-16919500D01*
X2662500Y-16948072D01*
X2662500Y-17105214D01*
X2662500Y-16948072D02*
X2676786Y-16919500D01*
X2705357Y-16905214D01*
X2748214Y-16905214D01*
X2776786Y-16919500D01*
X2791071Y-16948072D01*
X2791071Y-17105214D01*
X2933928Y-17105214D02*
X2933928Y-16905214D01*
X2933928Y-16933786D02*
X2948214Y-16919500D01*
X2976786Y-16905214D01*
X3019643Y-16905214D01*
X3048214Y-16919500D01*
X3062500Y-16948072D01*
X3062500Y-17105214D01*
X3062500Y-16948072D02*
X3076786Y-16919500D01*
X3105357Y-16905214D01*
X3148214Y-16905214D01*
X3176786Y-16919500D01*
X3191071Y-16948072D01*
X3191071Y-17105214D01*
X3776786Y-16790929D02*
X3519643Y-17176643D01*
X4162500Y-16805214D02*
X4191071Y-16805214D01*
X4219643Y-16819500D01*
X4233928Y-16833786D01*
X4248214Y-16862357D01*
X4262500Y-16919500D01*
X4262500Y-16990929D01*
X4248214Y-17048072D01*
X4233928Y-17076643D01*
X4219643Y-17090929D01*
X4191071Y-17105214D01*
X4162500Y-17105214D01*
X4133928Y-17090929D01*
X4119643Y-17076643D01*
X4105357Y-17048072D01*
X4091071Y-16990929D01*
X4091071Y-16919500D01*
X4105357Y-16862357D01*
X4119643Y-16833786D01*
X4133928Y-16819500D01*
X4162500Y-16805214D01*
X4391071Y-17076643D02*
X4405357Y-17090929D01*
X4391071Y-17105214D01*
X4376786Y-17090929D01*
X4391071Y-17076643D01*
X4391071Y-17105214D01*
X4591071Y-16805214D02*
X4619643Y-16805214D01*
X4648214Y-16819500D01*
X4662500Y-16833786D01*
X4676786Y-16862357D01*
X4691071Y-16919500D01*
X4691071Y-16990929D01*
X4676786Y-17048072D01*
X4662500Y-17076643D01*
X4648214Y-17090929D01*
X4619643Y-17105214D01*
X4591071Y-17105214D01*
X4562500Y-17090929D01*
X4548214Y-17076643D01*
X4533928Y-17048072D01*
X4519643Y-16990929D01*
X4519643Y-16919500D01*
X4533928Y-16862357D01*
X4548214Y-16833786D01*
X4562500Y-16819500D01*
X4591071Y-16805214D01*
X4876786Y-16805214D02*
X4905357Y-16805214D01*
X4933928Y-16819500D01*
X4948214Y-16833786D01*
X4962500Y-16862357D01*
X4976786Y-16919500D01*
X4976786Y-16990929D01*
X4962500Y-17048072D01*
X4948214Y-17076643D01*
X4933928Y-17090929D01*
X4905357Y-17105214D01*
X4876786Y-17105214D01*
X4848214Y-17090929D01*
X4833928Y-17076643D01*
X4819643Y-17048072D01*
X4805357Y-16990929D01*
X4805357Y-16919500D01*
X4819643Y-16862357D01*
X4833928Y-16833786D01*
X4848214Y-16819500D01*
X4876786Y-16805214D01*
X5148214Y-16933786D02*
X5119643Y-16919500D01*
X5105357Y-16905214D01*
X5091071Y-16876643D01*
X5091071Y-16862357D01*
X5105357Y-16833786D01*
X5119643Y-16819500D01*
X5148214Y-16805214D01*
X5205357Y-16805214D01*
X5233928Y-16819500D01*
X5248214Y-16833786D01*
X5262500Y-16862357D01*
X5262500Y-16876643D01*
X5248214Y-16905214D01*
X5233928Y-16919500D01*
X5205357Y-16933786D01*
X5148214Y-16933786D01*
X5119643Y-16948072D01*
X5105357Y-16962357D01*
X5091071Y-16990929D01*
X5091071Y-17048072D01*
X5105357Y-17076643D01*
X5119643Y-17090929D01*
X5148214Y-17105214D01*
X5205357Y-17105214D01*
X5233928Y-17090929D01*
X5248214Y-17076643D01*
X5262500Y-17048072D01*
X5262500Y-16990929D01*
X5248214Y-16962357D01*
X5233928Y-16948072D01*
X5205357Y-16933786D01*
X5376786Y-16805214D02*
X5376786Y-16862357D01*
X5491071Y-16805214D02*
X5491071Y-16862357D01*
X5933928Y-17219500D02*
X5919643Y-17205214D01*
X5891071Y-17162357D01*
X5876785Y-17133786D01*
X5862500Y-17090929D01*
X5848214Y-17019500D01*
X5848214Y-16962357D01*
X5862500Y-16890929D01*
X5876785Y-16848072D01*
X5891071Y-16819500D01*
X5919643Y-16776643D01*
X5933928Y-16762357D01*
X6019643Y-16805214D02*
X6205357Y-16805214D01*
X6105357Y-16919500D01*
X6148214Y-16919500D01*
X6176785Y-16933786D01*
X6191071Y-16948072D01*
X6205357Y-16976643D01*
X6205357Y-17048072D01*
X6191071Y-17076643D01*
X6176785Y-17090929D01*
X6148214Y-17105214D01*
X6062500Y-17105214D01*
X6033928Y-17090929D01*
X6019643Y-17076643D01*
X6562500Y-17105214D02*
X6562500Y-16805214D01*
X6691071Y-17105214D02*
X6691071Y-16948072D01*
X6676785Y-16919500D01*
X6648214Y-16905214D01*
X6605357Y-16905214D01*
X6576785Y-16919500D01*
X6562500Y-16933786D01*
X6876785Y-17105214D02*
X6848214Y-17090929D01*
X6833928Y-17076643D01*
X6819643Y-17048072D01*
X6819643Y-16962357D01*
X6833928Y-16933786D01*
X6848214Y-16919500D01*
X6876785Y-16905214D01*
X6919643Y-16905214D01*
X6948214Y-16919500D01*
X6962500Y-16933786D01*
X6976785Y-16962357D01*
X6976785Y-17048072D01*
X6962500Y-17076643D01*
X6948214Y-17090929D01*
X6919643Y-17105214D01*
X6876785Y-17105214D01*
X7148214Y-17105214D02*
X7119643Y-17090929D01*
X7105357Y-17062357D01*
X7105357Y-16805214D01*
X7376786Y-17090929D02*
X7348214Y-17105214D01*
X7291071Y-17105214D01*
X7262500Y-17090929D01*
X7248214Y-17062357D01*
X7248214Y-16948072D01*
X7262500Y-16919500D01*
X7291071Y-16905214D01*
X7348214Y-16905214D01*
X7376786Y-16919500D01*
X7391071Y-16948072D01*
X7391071Y-16976643D01*
X7248214Y-17005214D01*
X7505357Y-17090929D02*
X7533928Y-17105214D01*
X7591071Y-17105214D01*
X7619643Y-17090929D01*
X7633928Y-17062357D01*
X7633928Y-17048072D01*
X7619643Y-17019500D01*
X7591071Y-17005214D01*
X7548214Y-17005214D01*
X7519643Y-16990929D01*
X7505357Y-16962357D01*
X7505357Y-16948072D01*
X7519643Y-16919500D01*
X7548214Y-16905214D01*
X7591071Y-16905214D01*
X7619643Y-16919500D01*
X7733928Y-17219500D02*
X7748214Y-17205214D01*
X7776786Y-17162357D01*
X7791071Y-17133786D01*
X7805357Y-17090929D01*
X7819643Y-17019500D01*
X7819643Y-16962357D01*
X7805357Y-16890929D01*
X7791071Y-16848072D01*
X7776786Y-16819500D01*
X7748214Y-16776643D01*
X7733928Y-16762357D01*
X1262500Y-17365500D02*
G75*
G03X1262500Y-17365500I-15240J0D01*
G01*
X1591071Y-17201214D02*
X1619643Y-17201214D01*
X1648214Y-17215500D01*
X1662500Y-17229786D01*
X1676786Y-17258357D01*
X1691071Y-17315500D01*
X1691071Y-17386929D01*
X1676786Y-17444072D01*
X1662500Y-17472643D01*
X1648214Y-17486929D01*
X1619643Y-17501214D01*
X1591071Y-17501214D01*
X1562500Y-17486929D01*
X1548214Y-17472643D01*
X1533928Y-17444072D01*
X1519643Y-17386929D01*
X1519643Y-17315500D01*
X1533928Y-17258357D01*
X1548214Y-17229786D01*
X1562500Y-17215500D01*
X1591071Y-17201214D01*
X1819643Y-17472643D02*
X1833928Y-17486929D01*
X1819643Y-17501214D01*
X1805357Y-17486929D01*
X1819643Y-17472643D01*
X1819643Y-17501214D01*
X1933928Y-17201214D02*
X2119643Y-17201214D01*
X2019643Y-17315500D01*
X2062500Y-17315500D01*
X2091071Y-17329786D01*
X2105357Y-17344072D01*
X2119643Y-17372643D01*
X2119643Y-17444072D01*
X2105357Y-17472643D01*
X2091071Y-17486929D01*
X2062500Y-17501214D01*
X1976786Y-17501214D01*
X1948214Y-17486929D01*
X1933928Y-17472643D01*
X2305357Y-17201214D02*
X2333929Y-17201214D01*
X2362500Y-17215500D01*
X2376786Y-17229786D01*
X2391071Y-17258357D01*
X2405357Y-17315500D01*
X2405357Y-17386929D01*
X2391071Y-17444072D01*
X2376786Y-17472643D01*
X2362500Y-17486929D01*
X2333929Y-17501214D01*
X2305357Y-17501214D01*
X2276786Y-17486929D01*
X2262500Y-17472643D01*
X2248214Y-17444072D01*
X2233929Y-17386929D01*
X2233929Y-17315500D01*
X2248214Y-17258357D01*
X2262500Y-17229786D01*
X2276786Y-17215500D01*
X2305357Y-17201214D01*
X2533929Y-17501214D02*
X2533929Y-17301214D01*
X2533929Y-17329786D02*
X2548214Y-17315500D01*
X2576786Y-17301214D01*
X2619643Y-17301214D01*
X2648214Y-17315500D01*
X2662500Y-17344072D01*
X2662500Y-17501214D01*
X2662500Y-17344072D02*
X2676786Y-17315500D01*
X2705357Y-17301214D01*
X2748214Y-17301214D01*
X2776786Y-17315500D01*
X2791071Y-17344072D01*
X2791071Y-17501214D01*
X2933928Y-17501214D02*
X2933928Y-17301214D01*
X2933928Y-17329786D02*
X2948214Y-17315500D01*
X2976786Y-17301214D01*
X3019643Y-17301214D01*
X3048214Y-17315500D01*
X3062500Y-17344072D01*
X3062500Y-17501214D01*
X3062500Y-17344072D02*
X3076786Y-17315500D01*
X3105357Y-17301214D01*
X3148214Y-17301214D01*
X3176786Y-17315500D01*
X3191071Y-17344072D01*
X3191071Y-17501214D01*
X3776786Y-17186929D02*
X3519643Y-17572643D01*
X4162500Y-17201214D02*
X4191071Y-17201214D01*
X4219643Y-17215500D01*
X4233928Y-17229786D01*
X4248214Y-17258357D01*
X4262500Y-17315500D01*
X4262500Y-17386929D01*
X4248214Y-17444072D01*
X4233928Y-17472643D01*
X4219643Y-17486929D01*
X4191071Y-17501214D01*
X4162500Y-17501214D01*
X4133928Y-17486929D01*
X4119643Y-17472643D01*
X4105357Y-17444072D01*
X4091071Y-17386929D01*
X4091071Y-17315500D01*
X4105357Y-17258357D01*
X4119643Y-17229786D01*
X4133928Y-17215500D01*
X4162500Y-17201214D01*
X4391071Y-17472643D02*
X4405357Y-17486929D01*
X4391071Y-17501214D01*
X4376786Y-17486929D01*
X4391071Y-17472643D01*
X4391071Y-17501214D01*
X4591071Y-17201214D02*
X4619643Y-17201214D01*
X4648214Y-17215500D01*
X4662500Y-17229786D01*
X4676786Y-17258357D01*
X4691071Y-17315500D01*
X4691071Y-17386929D01*
X4676786Y-17444072D01*
X4662500Y-17472643D01*
X4648214Y-17486929D01*
X4619643Y-17501214D01*
X4591071Y-17501214D01*
X4562500Y-17486929D01*
X4548214Y-17472643D01*
X4533928Y-17444072D01*
X4519643Y-17386929D01*
X4519643Y-17315500D01*
X4533928Y-17258357D01*
X4548214Y-17229786D01*
X4562500Y-17215500D01*
X4591071Y-17201214D01*
X4976786Y-17501214D02*
X4805357Y-17501214D01*
X4891071Y-17501214D02*
X4891071Y-17201214D01*
X4862500Y-17244072D01*
X4833928Y-17272643D01*
X4805357Y-17286929D01*
X5091071Y-17229786D02*
X5105357Y-17215500D01*
X5133928Y-17201214D01*
X5205357Y-17201214D01*
X5233928Y-17215500D01*
X5248214Y-17229786D01*
X5262500Y-17258357D01*
X5262500Y-17286929D01*
X5248214Y-17329786D01*
X5076786Y-17501214D01*
X5262500Y-17501214D01*
X5376786Y-17201214D02*
X5376786Y-17258357D01*
X5491071Y-17201214D02*
X5491071Y-17258357D01*
X5933928Y-17615500D02*
X5919643Y-17601214D01*
X5891071Y-17558357D01*
X5876785Y-17529786D01*
X5862500Y-17486929D01*
X5848214Y-17415500D01*
X5848214Y-17358357D01*
X5862500Y-17286929D01*
X5876785Y-17244072D01*
X5891071Y-17215500D01*
X5919643Y-17172643D01*
X5933928Y-17158357D01*
X6019643Y-17201214D02*
X6205357Y-17201214D01*
X6105357Y-17315500D01*
X6148214Y-17315500D01*
X6176785Y-17329786D01*
X6191071Y-17344072D01*
X6205357Y-17372643D01*
X6205357Y-17444072D01*
X6191071Y-17472643D01*
X6176785Y-17486929D01*
X6148214Y-17501214D01*
X6062500Y-17501214D01*
X6033928Y-17486929D01*
X6019643Y-17472643D01*
X6462500Y-17301214D02*
X6462500Y-17501214D01*
X6391071Y-17186929D02*
X6319643Y-17401214D01*
X6505357Y-17401214D01*
X6848214Y-17501214D02*
X6848214Y-17201214D01*
X6976785Y-17501214D02*
X6976785Y-17344072D01*
X6962500Y-17315500D01*
X6933928Y-17301214D01*
X6891071Y-17301214D01*
X6862500Y-17315500D01*
X6848214Y-17329786D01*
X7162500Y-17501214D02*
X7133928Y-17486929D01*
X7119643Y-17472643D01*
X7105357Y-17444072D01*
X7105357Y-17358357D01*
X7119643Y-17329786D01*
X7133928Y-17315500D01*
X7162500Y-17301214D01*
X7205357Y-17301214D01*
X7233928Y-17315500D01*
X7248214Y-17329786D01*
X7262500Y-17358357D01*
X7262500Y-17444072D01*
X7248214Y-17472643D01*
X7233928Y-17486929D01*
X7205357Y-17501214D01*
X7162500Y-17501214D01*
X7433928Y-17501214D02*
X7405357Y-17486929D01*
X7391071Y-17458357D01*
X7391071Y-17201214D01*
X7662500Y-17486929D02*
X7633928Y-17501214D01*
X7576786Y-17501214D01*
X7548214Y-17486929D01*
X7533928Y-17458357D01*
X7533928Y-17344072D01*
X7548214Y-17315500D01*
X7576786Y-17301214D01*
X7633928Y-17301214D01*
X7662500Y-17315500D01*
X7676786Y-17344072D01*
X7676786Y-17372643D01*
X7533928Y-17401214D01*
X7791071Y-17486929D02*
X7819643Y-17501214D01*
X7876786Y-17501214D01*
X7905357Y-17486929D01*
X7919643Y-17458357D01*
X7919643Y-17444072D01*
X7905357Y-17415500D01*
X7876786Y-17401214D01*
X7833928Y-17401214D01*
X7805357Y-17386929D01*
X7791071Y-17358357D01*
X7791071Y-17344072D01*
X7805357Y-17315500D01*
X7833928Y-17301214D01*
X7876786Y-17301214D01*
X7905357Y-17315500D01*
X8019643Y-17615500D02*
X8033928Y-17601214D01*
X8062500Y-17558357D01*
X8076786Y-17529786D01*
X8091071Y-17486929D01*
X8105357Y-17415500D01*
X8105357Y-17358357D01*
X8091071Y-17286929D01*
X8076786Y-17244072D01*
X8062500Y-17215500D01*
X8033928Y-17172643D01*
X8019643Y-17158357D01*
X1237100Y-17736100D02*
X1237100Y-17786900D01*
X1211700Y-17761500D02*
X1262500Y-17761500D01*
X1591071Y-17597214D02*
X1619643Y-17597214D01*
X1648214Y-17611500D01*
X1662500Y-17625786D01*
X1676786Y-17654357D01*
X1691071Y-17711500D01*
X1691071Y-17782929D01*
X1676786Y-17840072D01*
X1662500Y-17868643D01*
X1648214Y-17882929D01*
X1619643Y-17897214D01*
X1591071Y-17897214D01*
X1562500Y-17882929D01*
X1548214Y-17868643D01*
X1533928Y-17840072D01*
X1519643Y-17782929D01*
X1519643Y-17711500D01*
X1533928Y-17654357D01*
X1548214Y-17625786D01*
X1562500Y-17611500D01*
X1591071Y-17597214D01*
X1819643Y-17868643D02*
X1833928Y-17882929D01*
X1819643Y-17897214D01*
X1805357Y-17882929D01*
X1819643Y-17868643D01*
X1819643Y-17897214D01*
X2105357Y-17597214D02*
X1962500Y-17597214D01*
X1948214Y-17740072D01*
X1962500Y-17725786D01*
X1991071Y-17711500D01*
X2062500Y-17711500D01*
X2091071Y-17725786D01*
X2105357Y-17740072D01*
X2119643Y-17768643D01*
X2119643Y-17840072D01*
X2105357Y-17868643D01*
X2091071Y-17882929D01*
X2062500Y-17897214D01*
X1991071Y-17897214D01*
X1962500Y-17882929D01*
X1948214Y-17868643D01*
X2405357Y-17897214D02*
X2233929Y-17897214D01*
X2319643Y-17897214D02*
X2319643Y-17597214D01*
X2291071Y-17640072D01*
X2262500Y-17668643D01*
X2233929Y-17682929D01*
X2533929Y-17897214D02*
X2533929Y-17697214D01*
X2533929Y-17725786D02*
X2548214Y-17711500D01*
X2576786Y-17697214D01*
X2619643Y-17697214D01*
X2648214Y-17711500D01*
X2662500Y-17740072D01*
X2662500Y-17897214D01*
X2662500Y-17740072D02*
X2676786Y-17711500D01*
X2705357Y-17697214D01*
X2748214Y-17697214D01*
X2776786Y-17711500D01*
X2791071Y-17740072D01*
X2791071Y-17897214D01*
X2933928Y-17897214D02*
X2933928Y-17697214D01*
X2933928Y-17725786D02*
X2948214Y-17711500D01*
X2976786Y-17697214D01*
X3019643Y-17697214D01*
X3048214Y-17711500D01*
X3062500Y-17740072D01*
X3062500Y-17897214D01*
X3062500Y-17740072D02*
X3076786Y-17711500D01*
X3105357Y-17697214D01*
X3148214Y-17697214D01*
X3176786Y-17711500D01*
X3191071Y-17740072D01*
X3191071Y-17897214D01*
X3776786Y-17582929D02*
X3519643Y-17968643D01*
X4162500Y-17597214D02*
X4191071Y-17597214D01*
X4219643Y-17611500D01*
X4233928Y-17625786D01*
X4248214Y-17654357D01*
X4262500Y-17711500D01*
X4262500Y-17782929D01*
X4248214Y-17840072D01*
X4233928Y-17868643D01*
X4219643Y-17882929D01*
X4191071Y-17897214D01*
X4162500Y-17897214D01*
X4133928Y-17882929D01*
X4119643Y-17868643D01*
X4105357Y-17840072D01*
X4091071Y-17782929D01*
X4091071Y-17711500D01*
X4105357Y-17654357D01*
X4119643Y-17625786D01*
X4133928Y-17611500D01*
X4162500Y-17597214D01*
X4391071Y-17868643D02*
X4405357Y-17882929D01*
X4391071Y-17897214D01*
X4376786Y-17882929D01*
X4391071Y-17868643D01*
X4391071Y-17897214D01*
X4591071Y-17597214D02*
X4619643Y-17597214D01*
X4648214Y-17611500D01*
X4662500Y-17625786D01*
X4676786Y-17654357D01*
X4691071Y-17711500D01*
X4691071Y-17782929D01*
X4676786Y-17840072D01*
X4662500Y-17868643D01*
X4648214Y-17882929D01*
X4619643Y-17897214D01*
X4591071Y-17897214D01*
X4562500Y-17882929D01*
X4548214Y-17868643D01*
X4533928Y-17840072D01*
X4519643Y-17782929D01*
X4519643Y-17711500D01*
X4533928Y-17654357D01*
X4548214Y-17625786D01*
X4562500Y-17611500D01*
X4591071Y-17597214D01*
X4805357Y-17625786D02*
X4819643Y-17611500D01*
X4848214Y-17597214D01*
X4919643Y-17597214D01*
X4948214Y-17611500D01*
X4962500Y-17625786D01*
X4976786Y-17654357D01*
X4976786Y-17682929D01*
X4962500Y-17725786D01*
X4791071Y-17897214D01*
X4976786Y-17897214D01*
X5162500Y-17597214D02*
X5191071Y-17597214D01*
X5219643Y-17611500D01*
X5233928Y-17625786D01*
X5248214Y-17654357D01*
X5262500Y-17711500D01*
X5262500Y-17782929D01*
X5248214Y-17840072D01*
X5233928Y-17868643D01*
X5219643Y-17882929D01*
X5191071Y-17897214D01*
X5162500Y-17897214D01*
X5133928Y-17882929D01*
X5119643Y-17868643D01*
X5105357Y-17840072D01*
X5091071Y-17782929D01*
X5091071Y-17711500D01*
X5105357Y-17654357D01*
X5119643Y-17625786D01*
X5133928Y-17611500D01*
X5162500Y-17597214D01*
X5376786Y-17597214D02*
X5376786Y-17654357D01*
X5491071Y-17597214D02*
X5491071Y-17654357D01*
X5933928Y-18011500D02*
X5919643Y-17997214D01*
X5891071Y-17954357D01*
X5876785Y-17925786D01*
X5862500Y-17882929D01*
X5848214Y-17811500D01*
X5848214Y-17754357D01*
X5862500Y-17682929D01*
X5876785Y-17640072D01*
X5891071Y-17611500D01*
X5919643Y-17568643D01*
X5933928Y-17554357D01*
X6062500Y-17897214D02*
X6119643Y-17897214D01*
X6148214Y-17882929D01*
X6162500Y-17868643D01*
X6191071Y-17825786D01*
X6205357Y-17768643D01*
X6205357Y-17654357D01*
X6191071Y-17625786D01*
X6176785Y-17611500D01*
X6148214Y-17597214D01*
X6091071Y-17597214D01*
X6062500Y-17611500D01*
X6048214Y-17625786D01*
X6033928Y-17654357D01*
X6033928Y-17725786D01*
X6048214Y-17754357D01*
X6062500Y-17768643D01*
X6091071Y-17782929D01*
X6148214Y-17782929D01*
X6176785Y-17768643D01*
X6191071Y-17754357D01*
X6205357Y-17725786D01*
X6462500Y-17597214D02*
X6405357Y-17597214D01*
X6376785Y-17611500D01*
X6362500Y-17625786D01*
X6333928Y-17668643D01*
X6319643Y-17725786D01*
X6319643Y-17840072D01*
X6333928Y-17868643D01*
X6348214Y-17882929D01*
X6376785Y-17897214D01*
X6433928Y-17897214D01*
X6462500Y-17882929D01*
X6476785Y-17868643D01*
X6491071Y-17840072D01*
X6491071Y-17768643D01*
X6476785Y-17740072D01*
X6462500Y-17725786D01*
X6433928Y-17711500D01*
X6376785Y-17711500D01*
X6348214Y-17725786D01*
X6333928Y-17740072D01*
X6319643Y-17768643D01*
X6848214Y-17897214D02*
X6848214Y-17597214D01*
X6976785Y-17897214D02*
X6976785Y-17740072D01*
X6962500Y-17711500D01*
X6933928Y-17697214D01*
X6891071Y-17697214D01*
X6862500Y-17711500D01*
X6848214Y-17725786D01*
X7162500Y-17897214D02*
X7133928Y-17882929D01*
X7119643Y-17868643D01*
X7105357Y-17840072D01*
X7105357Y-17754357D01*
X7119643Y-17725786D01*
X7133928Y-17711500D01*
X7162500Y-17697214D01*
X7205357Y-17697214D01*
X7233928Y-17711500D01*
X7248214Y-17725786D01*
X7262500Y-17754357D01*
X7262500Y-17840072D01*
X7248214Y-17868643D01*
X7233928Y-17882929D01*
X7205357Y-17897214D01*
X7162500Y-17897214D01*
X7433928Y-17897214D02*
X7405357Y-17882929D01*
X7391071Y-17854357D01*
X7391071Y-17597214D01*
X7662500Y-17882929D02*
X7633928Y-17897214D01*
X7576786Y-17897214D01*
X7548214Y-17882929D01*
X7533928Y-17854357D01*
X7533928Y-17740072D01*
X7548214Y-17711500D01*
X7576786Y-17697214D01*
X7633928Y-17697214D01*
X7662500Y-17711500D01*
X7676786Y-17740072D01*
X7676786Y-17768643D01*
X7533928Y-17797214D01*
X7791071Y-17882929D02*
X7819643Y-17897214D01*
X7876786Y-17897214D01*
X7905357Y-17882929D01*
X7919643Y-17854357D01*
X7919643Y-17840072D01*
X7905357Y-17811500D01*
X7876786Y-17797214D01*
X7833928Y-17797214D01*
X7805357Y-17782929D01*
X7791071Y-17754357D01*
X7791071Y-17740072D01*
X7805357Y-17711500D01*
X7833928Y-17697214D01*
X7876786Y-17697214D01*
X7905357Y-17711500D01*
X8019643Y-18011500D02*
X8033928Y-17997214D01*
X8062500Y-17954357D01*
X8076786Y-17925786D01*
X8091071Y-17882929D01*
X8105357Y-17811500D01*
X8105357Y-17754357D01*
X8091071Y-17682929D01*
X8076786Y-17640072D01*
X8062500Y-17611500D01*
X8033928Y-17568643D01*
X8019643Y-17554357D01*
X1253713Y-18178714D02*
X1253713Y-18136287D01*
X1211287Y-18136287D01*
X1211287Y-18178714D01*
X1253713Y-18178714D01*
X1591071Y-17993214D02*
X1619643Y-17993214D01*
X1648214Y-18007500D01*
X1662500Y-18021786D01*
X1676786Y-18050357D01*
X1691071Y-18107500D01*
X1691071Y-18178929D01*
X1676786Y-18236072D01*
X1662500Y-18264643D01*
X1648214Y-18278929D01*
X1619643Y-18293214D01*
X1591071Y-18293214D01*
X1562500Y-18278929D01*
X1548214Y-18264643D01*
X1533928Y-18236072D01*
X1519643Y-18178929D01*
X1519643Y-18107500D01*
X1533928Y-18050357D01*
X1548214Y-18021786D01*
X1562500Y-18007500D01*
X1591071Y-17993214D01*
X1819643Y-18264643D02*
X1833928Y-18278929D01*
X1819643Y-18293214D01*
X1805357Y-18278929D01*
X1819643Y-18264643D01*
X1819643Y-18293214D01*
X2091071Y-17993214D02*
X2033928Y-17993214D01*
X2005357Y-18007500D01*
X1991071Y-18021786D01*
X1962500Y-18064643D01*
X1948214Y-18121786D01*
X1948214Y-18236072D01*
X1962500Y-18264643D01*
X1976786Y-18278929D01*
X2005357Y-18293214D01*
X2062500Y-18293214D01*
X2091071Y-18278929D01*
X2105357Y-18264643D01*
X2119643Y-18236072D01*
X2119643Y-18164643D01*
X2105357Y-18136072D01*
X2091071Y-18121786D01*
X2062500Y-18107500D01*
X2005357Y-18107500D01*
X1976786Y-18121786D01*
X1962500Y-18136072D01*
X1948214Y-18164643D01*
X2305357Y-17993214D02*
X2333929Y-17993214D01*
X2362500Y-18007500D01*
X2376786Y-18021786D01*
X2391071Y-18050357D01*
X2405357Y-18107500D01*
X2405357Y-18178929D01*
X2391071Y-18236072D01*
X2376786Y-18264643D01*
X2362500Y-18278929D01*
X2333929Y-18293214D01*
X2305357Y-18293214D01*
X2276786Y-18278929D01*
X2262500Y-18264643D01*
X2248214Y-18236072D01*
X2233929Y-18178929D01*
X2233929Y-18107500D01*
X2248214Y-18050357D01*
X2262500Y-18021786D01*
X2276786Y-18007500D01*
X2305357Y-17993214D01*
X2533929Y-18293214D02*
X2533929Y-18093214D01*
X2533929Y-18121786D02*
X2548214Y-18107500D01*
X2576786Y-18093214D01*
X2619643Y-18093214D01*
X2648214Y-18107500D01*
X2662500Y-18136072D01*
X2662500Y-18293214D01*
X2662500Y-18136072D02*
X2676786Y-18107500D01*
X2705357Y-18093214D01*
X2748214Y-18093214D01*
X2776786Y-18107500D01*
X2791071Y-18136072D01*
X2791071Y-18293214D01*
X2933928Y-18293214D02*
X2933928Y-18093214D01*
X2933928Y-18121786D02*
X2948214Y-18107500D01*
X2976786Y-18093214D01*
X3019643Y-18093214D01*
X3048214Y-18107500D01*
X3062500Y-18136072D01*
X3062500Y-18293214D01*
X3062500Y-18136072D02*
X3076786Y-18107500D01*
X3105357Y-18093214D01*
X3148214Y-18093214D01*
X3176786Y-18107500D01*
X3191071Y-18136072D01*
X3191071Y-18293214D01*
X3776786Y-17978929D02*
X3519643Y-18364643D01*
X4162500Y-17993214D02*
X4191071Y-17993214D01*
X4219643Y-18007500D01*
X4233928Y-18021786D01*
X4248214Y-18050357D01*
X4262500Y-18107500D01*
X4262500Y-18178929D01*
X4248214Y-18236072D01*
X4233928Y-18264643D01*
X4219643Y-18278929D01*
X4191071Y-18293214D01*
X4162500Y-18293214D01*
X4133928Y-18278929D01*
X4119643Y-18264643D01*
X4105357Y-18236072D01*
X4091071Y-18178929D01*
X4091071Y-18107500D01*
X4105357Y-18050357D01*
X4119643Y-18021786D01*
X4133928Y-18007500D01*
X4162500Y-17993214D01*
X4391071Y-18264643D02*
X4405357Y-18278929D01*
X4391071Y-18293214D01*
X4376786Y-18278929D01*
X4391071Y-18264643D01*
X4391071Y-18293214D01*
X4591071Y-17993214D02*
X4619643Y-17993214D01*
X4648214Y-18007500D01*
X4662500Y-18021786D01*
X4676786Y-18050357D01*
X4691071Y-18107500D01*
X4691071Y-18178929D01*
X4676786Y-18236072D01*
X4662500Y-18264643D01*
X4648214Y-18278929D01*
X4619643Y-18293214D01*
X4591071Y-18293214D01*
X4562500Y-18278929D01*
X4548214Y-18264643D01*
X4533928Y-18236072D01*
X4519643Y-18178929D01*
X4519643Y-18107500D01*
X4533928Y-18050357D01*
X4548214Y-18021786D01*
X4562500Y-18007500D01*
X4591071Y-17993214D01*
X4805357Y-18021786D02*
X4819643Y-18007500D01*
X4848214Y-17993214D01*
X4919643Y-17993214D01*
X4948214Y-18007500D01*
X4962500Y-18021786D01*
X4976786Y-18050357D01*
X4976786Y-18078929D01*
X4962500Y-18121786D01*
X4791071Y-18293214D01*
X4976786Y-18293214D01*
X5233928Y-18093214D02*
X5233928Y-18293214D01*
X5162500Y-17978929D02*
X5091071Y-18193214D01*
X5276786Y-18193214D01*
X5376786Y-17993214D02*
X5376786Y-18050357D01*
X5491071Y-17993214D02*
X5491071Y-18050357D01*
X5933928Y-18407500D02*
X5919643Y-18393214D01*
X5891071Y-18350357D01*
X5876785Y-18321786D01*
X5862500Y-18278929D01*
X5848214Y-18207500D01*
X5848214Y-18150357D01*
X5862500Y-18078929D01*
X5876785Y-18036072D01*
X5891071Y-18007500D01*
X5919643Y-17964643D01*
X5933928Y-17950357D01*
X6176785Y-17993214D02*
X6119643Y-17993214D01*
X6091071Y-18007500D01*
X6076785Y-18021786D01*
X6048214Y-18064643D01*
X6033928Y-18121786D01*
X6033928Y-18236072D01*
X6048214Y-18264643D01*
X6062500Y-18278929D01*
X6091071Y-18293214D01*
X6148214Y-18293214D01*
X6176785Y-18278929D01*
X6191071Y-18264643D01*
X6205357Y-18236072D01*
X6205357Y-18164643D01*
X6191071Y-18136072D01*
X6176785Y-18121786D01*
X6148214Y-18107500D01*
X6091071Y-18107500D01*
X6062500Y-18121786D01*
X6048214Y-18136072D01*
X6033928Y-18164643D01*
X6562500Y-18293214D02*
X6562500Y-17993214D01*
X6691071Y-18293214D02*
X6691071Y-18136072D01*
X6676785Y-18107500D01*
X6648214Y-18093214D01*
X6605357Y-18093214D01*
X6576785Y-18107500D01*
X6562500Y-18121786D01*
X6876785Y-18293214D02*
X6848214Y-18278929D01*
X6833928Y-18264643D01*
X6819643Y-18236072D01*
X6819643Y-18150357D01*
X6833928Y-18121786D01*
X6848214Y-18107500D01*
X6876785Y-18093214D01*
X6919643Y-18093214D01*
X6948214Y-18107500D01*
X6962500Y-18121786D01*
X6976785Y-18150357D01*
X6976785Y-18236072D01*
X6962500Y-18264643D01*
X6948214Y-18278929D01*
X6919643Y-18293214D01*
X6876785Y-18293214D01*
X7148214Y-18293214D02*
X7119643Y-18278929D01*
X7105357Y-18250357D01*
X7105357Y-17993214D01*
X7376786Y-18278929D02*
X7348214Y-18293214D01*
X7291071Y-18293214D01*
X7262500Y-18278929D01*
X7248214Y-18250357D01*
X7248214Y-18136072D01*
X7262500Y-18107500D01*
X7291071Y-18093214D01*
X7348214Y-18093214D01*
X7376786Y-18107500D01*
X7391071Y-18136072D01*
X7391071Y-18164643D01*
X7248214Y-18193214D01*
X7505357Y-18278929D02*
X7533928Y-18293214D01*
X7591071Y-18293214D01*
X7619643Y-18278929D01*
X7633928Y-18250357D01*
X7633928Y-18236072D01*
X7619643Y-18207500D01*
X7591071Y-18193214D01*
X7548214Y-18193214D01*
X7519643Y-18178929D01*
X7505357Y-18150357D01*
X7505357Y-18136072D01*
X7519643Y-18107500D01*
X7548214Y-18093214D01*
X7591071Y-18093214D01*
X7619643Y-18107500D01*
X7733928Y-18407500D02*
X7748214Y-18393214D01*
X7776786Y-18350357D01*
X7791071Y-18321786D01*
X7805357Y-18278929D01*
X7819643Y-18207500D01*
X7819643Y-18150357D01*
X7805357Y-18078929D01*
X7791071Y-18036072D01*
X7776786Y-18007500D01*
X7748214Y-17964643D01*
X7733928Y-17950357D01*
X1223500Y-18592500D02*
X1262500Y-18553500D01*
X1223500Y-18514500D01*
X1184500Y-18553500D01*
X1223500Y-18592500D01*
X1591071Y-18389214D02*
X1619643Y-18389214D01*
X1648214Y-18403500D01*
X1662500Y-18417786D01*
X1676786Y-18446357D01*
X1691071Y-18503500D01*
X1691071Y-18574929D01*
X1676786Y-18632072D01*
X1662500Y-18660643D01*
X1648214Y-18674929D01*
X1619643Y-18689214D01*
X1591071Y-18689214D01*
X1562500Y-18674929D01*
X1548214Y-18660643D01*
X1533928Y-18632072D01*
X1519643Y-18574929D01*
X1519643Y-18503500D01*
X1533928Y-18446357D01*
X1548214Y-18417786D01*
X1562500Y-18403500D01*
X1591071Y-18389214D01*
X1819643Y-18660643D02*
X1833928Y-18674929D01*
X1819643Y-18689214D01*
X1805357Y-18674929D01*
X1819643Y-18660643D01*
X1819643Y-18689214D01*
X1933928Y-18389214D02*
X2133928Y-18389214D01*
X2005357Y-18689214D01*
X2291071Y-18517786D02*
X2262500Y-18503500D01*
X2248214Y-18489214D01*
X2233929Y-18460643D01*
X2233929Y-18446357D01*
X2248214Y-18417786D01*
X2262500Y-18403500D01*
X2291071Y-18389214D01*
X2348214Y-18389214D01*
X2376786Y-18403500D01*
X2391071Y-18417786D01*
X2405357Y-18446357D01*
X2405357Y-18460643D01*
X2391071Y-18489214D01*
X2376786Y-18503500D01*
X2348214Y-18517786D01*
X2291071Y-18517786D01*
X2262500Y-18532072D01*
X2248214Y-18546357D01*
X2233929Y-18574929D01*
X2233929Y-18632072D01*
X2248214Y-18660643D01*
X2262500Y-18674929D01*
X2291071Y-18689214D01*
X2348214Y-18689214D01*
X2376786Y-18674929D01*
X2391071Y-18660643D01*
X2405357Y-18632072D01*
X2405357Y-18574929D01*
X2391071Y-18546357D01*
X2376786Y-18532072D01*
X2348214Y-18517786D01*
X2533929Y-18689214D02*
X2533929Y-18489214D01*
X2533929Y-18517786D02*
X2548214Y-18503500D01*
X2576786Y-18489214D01*
X2619643Y-18489214D01*
X2648214Y-18503500D01*
X2662500Y-18532072D01*
X2662500Y-18689214D01*
X2662500Y-18532072D02*
X2676786Y-18503500D01*
X2705357Y-18489214D01*
X2748214Y-18489214D01*
X2776786Y-18503500D01*
X2791071Y-18532072D01*
X2791071Y-18689214D01*
X2933928Y-18689214D02*
X2933928Y-18489214D01*
X2933928Y-18517786D02*
X2948214Y-18503500D01*
X2976786Y-18489214D01*
X3019643Y-18489214D01*
X3048214Y-18503500D01*
X3062500Y-18532072D01*
X3062500Y-18689214D01*
X3062500Y-18532072D02*
X3076786Y-18503500D01*
X3105357Y-18489214D01*
X3148214Y-18489214D01*
X3176786Y-18503500D01*
X3191071Y-18532072D01*
X3191071Y-18689214D01*
X3776786Y-18374929D02*
X3519643Y-18760643D01*
X4162500Y-18389214D02*
X4191071Y-18389214D01*
X4219643Y-18403500D01*
X4233928Y-18417786D01*
X4248214Y-18446357D01*
X4262500Y-18503500D01*
X4262500Y-18574929D01*
X4248214Y-18632072D01*
X4233928Y-18660643D01*
X4219643Y-18674929D01*
X4191071Y-18689214D01*
X4162500Y-18689214D01*
X4133928Y-18674929D01*
X4119643Y-18660643D01*
X4105357Y-18632072D01*
X4091071Y-18574929D01*
X4091071Y-18503500D01*
X4105357Y-18446357D01*
X4119643Y-18417786D01*
X4133928Y-18403500D01*
X4162500Y-18389214D01*
X4391071Y-18660643D02*
X4405357Y-18674929D01*
X4391071Y-18689214D01*
X4376786Y-18674929D01*
X4391071Y-18660643D01*
X4391071Y-18689214D01*
X4591071Y-18389214D02*
X4619643Y-18389214D01*
X4648214Y-18403500D01*
X4662500Y-18417786D01*
X4676786Y-18446357D01*
X4691071Y-18503500D01*
X4691071Y-18574929D01*
X4676786Y-18632072D01*
X4662500Y-18660643D01*
X4648214Y-18674929D01*
X4619643Y-18689214D01*
X4591071Y-18689214D01*
X4562500Y-18674929D01*
X4548214Y-18660643D01*
X4533928Y-18632072D01*
X4519643Y-18574929D01*
X4519643Y-18503500D01*
X4533928Y-18446357D01*
X4548214Y-18417786D01*
X4562500Y-18403500D01*
X4591071Y-18389214D01*
X4791071Y-18389214D02*
X4976786Y-18389214D01*
X4876786Y-18503500D01*
X4919643Y-18503500D01*
X4948214Y-18517786D01*
X4962500Y-18532072D01*
X4976786Y-18560643D01*
X4976786Y-18632072D01*
X4962500Y-18660643D01*
X4948214Y-18674929D01*
X4919643Y-18689214D01*
X4833928Y-18689214D01*
X4805357Y-18674929D01*
X4791071Y-18660643D01*
X5262500Y-18689214D02*
X5091071Y-18689214D01*
X5176786Y-18689214D02*
X5176786Y-18389214D01*
X5148214Y-18432072D01*
X5119643Y-18460643D01*
X5091071Y-18474929D01*
X5376786Y-18389214D02*
X5376786Y-18446357D01*
X5491071Y-18389214D02*
X5491071Y-18446357D01*
X5933928Y-18803500D02*
X5919643Y-18789214D01*
X5891071Y-18746357D01*
X5876785Y-18717786D01*
X5862500Y-18674929D01*
X5848214Y-18603500D01*
X5848214Y-18546357D01*
X5862500Y-18474929D01*
X5876785Y-18432072D01*
X5891071Y-18403500D01*
X5919643Y-18360643D01*
X5933928Y-18346357D01*
X6205357Y-18689214D02*
X6033928Y-18689214D01*
X6119643Y-18689214D02*
X6119643Y-18389214D01*
X6091071Y-18432072D01*
X6062500Y-18460643D01*
X6033928Y-18474929D01*
X6319643Y-18417786D02*
X6333928Y-18403500D01*
X6362500Y-18389214D01*
X6433928Y-18389214D01*
X6462500Y-18403500D01*
X6476785Y-18417786D01*
X6491071Y-18446357D01*
X6491071Y-18474929D01*
X6476785Y-18517786D01*
X6305357Y-18689214D01*
X6491071Y-18689214D01*
X6848214Y-18689214D02*
X6848214Y-18389214D01*
X6976785Y-18689214D02*
X6976785Y-18532072D01*
X6962500Y-18503500D01*
X6933928Y-18489214D01*
X6891071Y-18489214D01*
X6862500Y-18503500D01*
X6848214Y-18517786D01*
X7162500Y-18689214D02*
X7133928Y-18674929D01*
X7119643Y-18660643D01*
X7105357Y-18632072D01*
X7105357Y-18546357D01*
X7119643Y-18517786D01*
X7133928Y-18503500D01*
X7162500Y-18489214D01*
X7205357Y-18489214D01*
X7233928Y-18503500D01*
X7248214Y-18517786D01*
X7262500Y-18546357D01*
X7262500Y-18632072D01*
X7248214Y-18660643D01*
X7233928Y-18674929D01*
X7205357Y-18689214D01*
X7162500Y-18689214D01*
X7433928Y-18689214D02*
X7405357Y-18674929D01*
X7391071Y-18646357D01*
X7391071Y-18389214D01*
X7662500Y-18674929D02*
X7633928Y-18689214D01*
X7576786Y-18689214D01*
X7548214Y-18674929D01*
X7533928Y-18646357D01*
X7533928Y-18532072D01*
X7548214Y-18503500D01*
X7576786Y-18489214D01*
X7633928Y-18489214D01*
X7662500Y-18503500D01*
X7676786Y-18532072D01*
X7676786Y-18560643D01*
X7533928Y-18589214D01*
X7791071Y-18674929D02*
X7819643Y-18689214D01*
X7876786Y-18689214D01*
X7905357Y-18674929D01*
X7919643Y-18646357D01*
X7919643Y-18632072D01*
X7905357Y-18603500D01*
X7876786Y-18589214D01*
X7833928Y-18589214D01*
X7805357Y-18574929D01*
X7791071Y-18546357D01*
X7791071Y-18532072D01*
X7805357Y-18503500D01*
X7833928Y-18489214D01*
X7876786Y-18489214D01*
X7905357Y-18503500D01*
X8019643Y-18803500D02*
X8033928Y-18789214D01*
X8062500Y-18746357D01*
X8076786Y-18717786D01*
X8091071Y-18674929D01*
X8105357Y-18603500D01*
X8105357Y-18546357D01*
X8091071Y-18474929D01*
X8076786Y-18432072D01*
X8062500Y-18403500D01*
X8033928Y-18360643D01*
X8019643Y-18346357D01*
X1181220Y-18908860D02*
X1262500Y-18990140D01*
X1262500Y-18908860D02*
X1181220Y-18990140D01*
X1262500Y-18949500D02*
G75*
G03X1262500Y-18949500I-40640J0D01*
G01*
X1591071Y-18785214D02*
X1619643Y-18785214D01*
X1648214Y-18799500D01*
X1662500Y-18813786D01*
X1676786Y-18842357D01*
X1691071Y-18899500D01*
X1691071Y-18970929D01*
X1676786Y-19028072D01*
X1662500Y-19056643D01*
X1648214Y-19070929D01*
X1619643Y-19085214D01*
X1591071Y-19085214D01*
X1562500Y-19070929D01*
X1548214Y-19056643D01*
X1533928Y-19028072D01*
X1519643Y-18970929D01*
X1519643Y-18899500D01*
X1533928Y-18842357D01*
X1548214Y-18813786D01*
X1562500Y-18799500D01*
X1591071Y-18785214D01*
X1819643Y-19056643D02*
X1833928Y-19070929D01*
X1819643Y-19085214D01*
X1805357Y-19070929D01*
X1819643Y-19056643D01*
X1819643Y-19085214D01*
X2005357Y-18913786D02*
X1976786Y-18899500D01*
X1962500Y-18885214D01*
X1948214Y-18856643D01*
X1948214Y-18842357D01*
X1962500Y-18813786D01*
X1976786Y-18799500D01*
X2005357Y-18785214D01*
X2062500Y-18785214D01*
X2091071Y-18799500D01*
X2105357Y-18813786D01*
X2119643Y-18842357D01*
X2119643Y-18856643D01*
X2105357Y-18885214D01*
X2091071Y-18899500D01*
X2062500Y-18913786D01*
X2005357Y-18913786D01*
X1976786Y-18928072D01*
X1962500Y-18942357D01*
X1948214Y-18970929D01*
X1948214Y-19028072D01*
X1962500Y-19056643D01*
X1976786Y-19070929D01*
X2005357Y-19085214D01*
X2062500Y-19085214D01*
X2091071Y-19070929D01*
X2105357Y-19056643D01*
X2119643Y-19028072D01*
X2119643Y-18970929D01*
X2105357Y-18942357D01*
X2091071Y-18928072D01*
X2062500Y-18913786D01*
X2405357Y-19085214D02*
X2233929Y-19085214D01*
X2319643Y-19085214D02*
X2319643Y-18785214D01*
X2291071Y-18828072D01*
X2262500Y-18856643D01*
X2233929Y-18870929D01*
X2533929Y-19085214D02*
X2533929Y-18885214D01*
X2533929Y-18913786D02*
X2548214Y-18899500D01*
X2576786Y-18885214D01*
X2619643Y-18885214D01*
X2648214Y-18899500D01*
X2662500Y-18928072D01*
X2662500Y-19085214D01*
X2662500Y-18928072D02*
X2676786Y-18899500D01*
X2705357Y-18885214D01*
X2748214Y-18885214D01*
X2776786Y-18899500D01*
X2791071Y-18928072D01*
X2791071Y-19085214D01*
X2933928Y-19085214D02*
X2933928Y-18885214D01*
X2933928Y-18913786D02*
X2948214Y-18899500D01*
X2976786Y-18885214D01*
X3019643Y-18885214D01*
X3048214Y-18899500D01*
X3062500Y-18928072D01*
X3062500Y-19085214D01*
X3062500Y-18928072D02*
X3076786Y-18899500D01*
X3105357Y-18885214D01*
X3148214Y-18885214D01*
X3176786Y-18899500D01*
X3191071Y-18928072D01*
X3191071Y-19085214D01*
X3776786Y-18770929D02*
X3519643Y-19156643D01*
X4162500Y-18785214D02*
X4191071Y-18785214D01*
X4219643Y-18799500D01*
X4233928Y-18813786D01*
X4248214Y-18842357D01*
X4262500Y-18899500D01*
X4262500Y-18970929D01*
X4248214Y-19028072D01*
X4233928Y-19056643D01*
X4219643Y-19070929D01*
X4191071Y-19085214D01*
X4162500Y-19085214D01*
X4133928Y-19070929D01*
X4119643Y-19056643D01*
X4105357Y-19028072D01*
X4091071Y-18970929D01*
X4091071Y-18899500D01*
X4105357Y-18842357D01*
X4119643Y-18813786D01*
X4133928Y-18799500D01*
X4162500Y-18785214D01*
X4391071Y-19056643D02*
X4405357Y-19070929D01*
X4391071Y-19085214D01*
X4376786Y-19070929D01*
X4391071Y-19056643D01*
X4391071Y-19085214D01*
X4591071Y-18785214D02*
X4619643Y-18785214D01*
X4648214Y-18799500D01*
X4662500Y-18813786D01*
X4676786Y-18842357D01*
X4691071Y-18899500D01*
X4691071Y-18970929D01*
X4676786Y-19028072D01*
X4662500Y-19056643D01*
X4648214Y-19070929D01*
X4619643Y-19085214D01*
X4591071Y-19085214D01*
X4562500Y-19070929D01*
X4548214Y-19056643D01*
X4533928Y-19028072D01*
X4519643Y-18970929D01*
X4519643Y-18899500D01*
X4533928Y-18842357D01*
X4548214Y-18813786D01*
X4562500Y-18799500D01*
X4591071Y-18785214D01*
X4791071Y-18785214D02*
X4976786Y-18785214D01*
X4876786Y-18899500D01*
X4919643Y-18899500D01*
X4948214Y-18913786D01*
X4962500Y-18928072D01*
X4976786Y-18956643D01*
X4976786Y-19028072D01*
X4962500Y-19056643D01*
X4948214Y-19070929D01*
X4919643Y-19085214D01*
X4833928Y-19085214D01*
X4805357Y-19070929D01*
X4791071Y-19056643D01*
X5091071Y-18813786D02*
X5105357Y-18799500D01*
X5133928Y-18785214D01*
X5205357Y-18785214D01*
X5233928Y-18799500D01*
X5248214Y-18813786D01*
X5262500Y-18842357D01*
X5262500Y-18870929D01*
X5248214Y-18913786D01*
X5076786Y-19085214D01*
X5262500Y-19085214D01*
X5376786Y-18785214D02*
X5376786Y-18842357D01*
X5491071Y-18785214D02*
X5491071Y-18842357D01*
X5933928Y-19199500D02*
X5919643Y-19185214D01*
X5891071Y-19142357D01*
X5876785Y-19113786D01*
X5862500Y-19070929D01*
X5848214Y-18999500D01*
X5848214Y-18942357D01*
X5862500Y-18870929D01*
X5876785Y-18828072D01*
X5891071Y-18799500D01*
X5919643Y-18756643D01*
X5933928Y-18742357D01*
X6033928Y-18813786D02*
X6048214Y-18799500D01*
X6076785Y-18785214D01*
X6148214Y-18785214D01*
X6176785Y-18799500D01*
X6191071Y-18813786D01*
X6205357Y-18842357D01*
X6205357Y-18870929D01*
X6191071Y-18913786D01*
X6019643Y-19085214D01*
X6205357Y-19085214D01*
X6305357Y-18785214D02*
X6491071Y-18785214D01*
X6391071Y-18899500D01*
X6433928Y-18899500D01*
X6462500Y-18913786D01*
X6476785Y-18928072D01*
X6491071Y-18956643D01*
X6491071Y-19028072D01*
X6476785Y-19056643D01*
X6462500Y-19070929D01*
X6433928Y-19085214D01*
X6348214Y-19085214D01*
X6319643Y-19070929D01*
X6305357Y-19056643D01*
X6748214Y-18885214D02*
X6748214Y-19085214D01*
X6676785Y-18770929D02*
X6605357Y-18985214D01*
X6791071Y-18985214D01*
X7133928Y-19085214D02*
X7133928Y-18785214D01*
X7262500Y-19085214D02*
X7262500Y-18928072D01*
X7248214Y-18899500D01*
X7219643Y-18885214D01*
X7176785Y-18885214D01*
X7148214Y-18899500D01*
X7133928Y-18913786D01*
X7448214Y-19085214D02*
X7419643Y-19070929D01*
X7405357Y-19056643D01*
X7391071Y-19028072D01*
X7391071Y-18942357D01*
X7405357Y-18913786D01*
X7419643Y-18899500D01*
X7448214Y-18885214D01*
X7491071Y-18885214D01*
X7519643Y-18899500D01*
X7533928Y-18913786D01*
X7548214Y-18942357D01*
X7548214Y-19028072D01*
X7533928Y-19056643D01*
X7519643Y-19070929D01*
X7491071Y-19085214D01*
X7448214Y-19085214D01*
X7719643Y-19085214D02*
X7691071Y-19070929D01*
X7676786Y-19042357D01*
X7676786Y-18785214D01*
X7948214Y-19070929D02*
X7919643Y-19085214D01*
X7862500Y-19085214D01*
X7833928Y-19070929D01*
X7819643Y-19042357D01*
X7819643Y-18928072D01*
X7833928Y-18899500D01*
X7862500Y-18885214D01*
X7919643Y-18885214D01*
X7948214Y-18899500D01*
X7962500Y-18928072D01*
X7962500Y-18956643D01*
X7819643Y-18985214D01*
X8076786Y-19070929D02*
X8105357Y-19085214D01*
X8162500Y-19085214D01*
X8191071Y-19070929D01*
X8205357Y-19042357D01*
X8205357Y-19028072D01*
X8191071Y-18999500D01*
X8162500Y-18985214D01*
X8119643Y-18985214D01*
X8091071Y-18970929D01*
X8076786Y-18942357D01*
X8076786Y-18928072D01*
X8091071Y-18899500D01*
X8119643Y-18885214D01*
X8162500Y-18885214D01*
X8191071Y-18899500D01*
X8305357Y-19199500D02*
X8319643Y-19185214D01*
X8348214Y-19142357D01*
X8362500Y-19113786D01*
X8376786Y-19070929D01*
X8391071Y-18999500D01*
X8391071Y-18942357D01*
X8376786Y-18870929D01*
X8362500Y-18828072D01*
X8348214Y-18799500D01*
X8319643Y-18756643D01*
X8305357Y-18742357D01*
X1173600Y-19301050D02*
X1262500Y-19389950D01*
X1262500Y-19301050D02*
X1173600Y-19389950D01*
X1218050Y-19301050D02*
X1218050Y-19389950D01*
X1173600Y-19345500D02*
X1262500Y-19345500D01*
X1591071Y-19181214D02*
X1619643Y-19181214D01*
X1648214Y-19195500D01*
X1662500Y-19209786D01*
X1676786Y-19238357D01*
X1691071Y-19295500D01*
X1691071Y-19366929D01*
X1676786Y-19424072D01*
X1662500Y-19452643D01*
X1648214Y-19466929D01*
X1619643Y-19481214D01*
X1591071Y-19481214D01*
X1562500Y-19466929D01*
X1548214Y-19452643D01*
X1533928Y-19424072D01*
X1519643Y-19366929D01*
X1519643Y-19295500D01*
X1533928Y-19238357D01*
X1548214Y-19209786D01*
X1562500Y-19195500D01*
X1591071Y-19181214D01*
X1819643Y-19452643D02*
X1833928Y-19466929D01*
X1819643Y-19481214D01*
X1805357Y-19466929D01*
X1819643Y-19452643D01*
X1819643Y-19481214D01*
X2005357Y-19309786D02*
X1976786Y-19295500D01*
X1962500Y-19281214D01*
X1948214Y-19252643D01*
X1948214Y-19238357D01*
X1962500Y-19209786D01*
X1976786Y-19195500D01*
X2005357Y-19181214D01*
X2062500Y-19181214D01*
X2091071Y-19195500D01*
X2105357Y-19209786D01*
X2119643Y-19238357D01*
X2119643Y-19252643D01*
X2105357Y-19281214D01*
X2091071Y-19295500D01*
X2062500Y-19309786D01*
X2005357Y-19309786D01*
X1976786Y-19324072D01*
X1962500Y-19338357D01*
X1948214Y-19366929D01*
X1948214Y-19424072D01*
X1962500Y-19452643D01*
X1976786Y-19466929D01*
X2005357Y-19481214D01*
X2062500Y-19481214D01*
X2091071Y-19466929D01*
X2105357Y-19452643D01*
X2119643Y-19424072D01*
X2119643Y-19366929D01*
X2105357Y-19338357D01*
X2091071Y-19324072D01*
X2062500Y-19309786D01*
X2262500Y-19481214D02*
X2319643Y-19481214D01*
X2348214Y-19466929D01*
X2362500Y-19452643D01*
X2391071Y-19409786D01*
X2405357Y-19352643D01*
X2405357Y-19238357D01*
X2391071Y-19209786D01*
X2376786Y-19195500D01*
X2348214Y-19181214D01*
X2291071Y-19181214D01*
X2262500Y-19195500D01*
X2248214Y-19209786D01*
X2233929Y-19238357D01*
X2233929Y-19309786D01*
X2248214Y-19338357D01*
X2262500Y-19352643D01*
X2291071Y-19366929D01*
X2348214Y-19366929D01*
X2376786Y-19352643D01*
X2391071Y-19338357D01*
X2405357Y-19309786D01*
X2533929Y-19481214D02*
X2533929Y-19281214D01*
X2533929Y-19309786D02*
X2548214Y-19295500D01*
X2576786Y-19281214D01*
X2619643Y-19281214D01*
X2648214Y-19295500D01*
X2662500Y-19324072D01*
X2662500Y-19481214D01*
X2662500Y-19324072D02*
X2676786Y-19295500D01*
X2705357Y-19281214D01*
X2748214Y-19281214D01*
X2776786Y-19295500D01*
X2791071Y-19324072D01*
X2791071Y-19481214D01*
X2933928Y-19481214D02*
X2933928Y-19281214D01*
X2933928Y-19309786D02*
X2948214Y-19295500D01*
X2976786Y-19281214D01*
X3019643Y-19281214D01*
X3048214Y-19295500D01*
X3062500Y-19324072D01*
X3062500Y-19481214D01*
X3062500Y-19324072D02*
X3076786Y-19295500D01*
X3105357Y-19281214D01*
X3148214Y-19281214D01*
X3176786Y-19295500D01*
X3191071Y-19324072D01*
X3191071Y-19481214D01*
X3776786Y-19166929D02*
X3519643Y-19552643D01*
X4162500Y-19181214D02*
X4191071Y-19181214D01*
X4219643Y-19195500D01*
X4233928Y-19209786D01*
X4248214Y-19238357D01*
X4262500Y-19295500D01*
X4262500Y-19366929D01*
X4248214Y-19424072D01*
X4233928Y-19452643D01*
X4219643Y-19466929D01*
X4191071Y-19481214D01*
X4162500Y-19481214D01*
X4133928Y-19466929D01*
X4119643Y-19452643D01*
X4105357Y-19424072D01*
X4091071Y-19366929D01*
X4091071Y-19295500D01*
X4105357Y-19238357D01*
X4119643Y-19209786D01*
X4133928Y-19195500D01*
X4162500Y-19181214D01*
X4391071Y-19452643D02*
X4405357Y-19466929D01*
X4391071Y-19481214D01*
X4376786Y-19466929D01*
X4391071Y-19452643D01*
X4391071Y-19481214D01*
X4591071Y-19181214D02*
X4619643Y-19181214D01*
X4648214Y-19195500D01*
X4662500Y-19209786D01*
X4676786Y-19238357D01*
X4691071Y-19295500D01*
X4691071Y-19366929D01*
X4676786Y-19424072D01*
X4662500Y-19452643D01*
X4648214Y-19466929D01*
X4619643Y-19481214D01*
X4591071Y-19481214D01*
X4562500Y-19466929D01*
X4548214Y-19452643D01*
X4533928Y-19424072D01*
X4519643Y-19366929D01*
X4519643Y-19295500D01*
X4533928Y-19238357D01*
X4548214Y-19209786D01*
X4562500Y-19195500D01*
X4591071Y-19181214D01*
X4791071Y-19181214D02*
X4976786Y-19181214D01*
X4876786Y-19295500D01*
X4919643Y-19295500D01*
X4948214Y-19309786D01*
X4962500Y-19324072D01*
X4976786Y-19352643D01*
X4976786Y-19424072D01*
X4962500Y-19452643D01*
X4948214Y-19466929D01*
X4919643Y-19481214D01*
X4833928Y-19481214D01*
X4805357Y-19466929D01*
X4791071Y-19452643D01*
X5248214Y-19181214D02*
X5105357Y-19181214D01*
X5091071Y-19324072D01*
X5105357Y-19309786D01*
X5133928Y-19295500D01*
X5205357Y-19295500D01*
X5233928Y-19309786D01*
X5248214Y-19324072D01*
X5262500Y-19352643D01*
X5262500Y-19424072D01*
X5248214Y-19452643D01*
X5233928Y-19466929D01*
X5205357Y-19481214D01*
X5133928Y-19481214D01*
X5105357Y-19466929D01*
X5091071Y-19452643D01*
X5376786Y-19181214D02*
X5376786Y-19238357D01*
X5491071Y-19181214D02*
X5491071Y-19238357D01*
X5933928Y-19595500D02*
X5919643Y-19581214D01*
X5891071Y-19538357D01*
X5876785Y-19509786D01*
X5862500Y-19466929D01*
X5848214Y-19395500D01*
X5848214Y-19338357D01*
X5862500Y-19266929D01*
X5876785Y-19224072D01*
X5891071Y-19195500D01*
X5919643Y-19152643D01*
X5933928Y-19138357D01*
X6176785Y-19281214D02*
X6176785Y-19481214D01*
X6105357Y-19166929D02*
X6033928Y-19381214D01*
X6219643Y-19381214D01*
X6562500Y-19481214D02*
X6562500Y-19181214D01*
X6691071Y-19481214D02*
X6691071Y-19324072D01*
X6676785Y-19295500D01*
X6648214Y-19281214D01*
X6605357Y-19281214D01*
X6576785Y-19295500D01*
X6562500Y-19309786D01*
X6876785Y-19481214D02*
X6848214Y-19466929D01*
X6833928Y-19452643D01*
X6819643Y-19424072D01*
X6819643Y-19338357D01*
X6833928Y-19309786D01*
X6848214Y-19295500D01*
X6876785Y-19281214D01*
X6919643Y-19281214D01*
X6948214Y-19295500D01*
X6962500Y-19309786D01*
X6976785Y-19338357D01*
X6976785Y-19424072D01*
X6962500Y-19452643D01*
X6948214Y-19466929D01*
X6919643Y-19481214D01*
X6876785Y-19481214D01*
X7148214Y-19481214D02*
X7119643Y-19466929D01*
X7105357Y-19438357D01*
X7105357Y-19181214D01*
X7376786Y-19466929D02*
X7348214Y-19481214D01*
X7291071Y-19481214D01*
X7262500Y-19466929D01*
X7248214Y-19438357D01*
X7248214Y-19324072D01*
X7262500Y-19295500D01*
X7291071Y-19281214D01*
X7348214Y-19281214D01*
X7376786Y-19295500D01*
X7391071Y-19324072D01*
X7391071Y-19352643D01*
X7248214Y-19381214D01*
X7505357Y-19466929D02*
X7533928Y-19481214D01*
X7591071Y-19481214D01*
X7619643Y-19466929D01*
X7633928Y-19438357D01*
X7633928Y-19424072D01*
X7619643Y-19395500D01*
X7591071Y-19381214D01*
X7548214Y-19381214D01*
X7519643Y-19366929D01*
X7505357Y-19338357D01*
X7505357Y-19324072D01*
X7519643Y-19295500D01*
X7548214Y-19281214D01*
X7591071Y-19281214D01*
X7619643Y-19295500D01*
X7733928Y-19595500D02*
X7748214Y-19581214D01*
X7776786Y-19538357D01*
X7791071Y-19509786D01*
X7805357Y-19466929D01*
X7819643Y-19395500D01*
X7819643Y-19338357D01*
X7805357Y-19266929D01*
X7791071Y-19224072D01*
X7776786Y-19195500D01*
X7748214Y-19152643D01*
X7733928Y-19138357D01*
X1160900Y-19690700D02*
X1262500Y-19792300D01*
X1262500Y-19690700D02*
X1160900Y-19792300D01*
X1247621Y-19777422D02*
X1247621Y-19705579D01*
X1175779Y-19705579D01*
X1175779Y-19777422D01*
X1247621Y-19777422D01*
X1691071Y-19877214D02*
X1519643Y-19877214D01*
X1605357Y-19877214D02*
X1605357Y-19577214D01*
X1576786Y-19620072D01*
X1548214Y-19648643D01*
X1519643Y-19662929D01*
X1819643Y-19848643D02*
X1833928Y-19862929D01*
X1819643Y-19877214D01*
X1805357Y-19862929D01*
X1819643Y-19848643D01*
X1819643Y-19877214D01*
X2019643Y-19577214D02*
X2048214Y-19577214D01*
X2076786Y-19591500D01*
X2091071Y-19605786D01*
X2105357Y-19634357D01*
X2119643Y-19691500D01*
X2119643Y-19762929D01*
X2105357Y-19820072D01*
X2091071Y-19848643D01*
X2076786Y-19862929D01*
X2048214Y-19877214D01*
X2019643Y-19877214D01*
X1991071Y-19862929D01*
X1976786Y-19848643D01*
X1962500Y-19820072D01*
X1948214Y-19762929D01*
X1948214Y-19691500D01*
X1962500Y-19634357D01*
X1976786Y-19605786D01*
X1991071Y-19591500D01*
X2019643Y-19577214D01*
X2233929Y-19605786D02*
X2248214Y-19591500D01*
X2276786Y-19577214D01*
X2348214Y-19577214D01*
X2376786Y-19591500D01*
X2391071Y-19605786D01*
X2405357Y-19634357D01*
X2405357Y-19662929D01*
X2391071Y-19705786D01*
X2219643Y-19877214D01*
X2405357Y-19877214D01*
X2533929Y-19877214D02*
X2533929Y-19677214D01*
X2533929Y-19705786D02*
X2548214Y-19691500D01*
X2576786Y-19677214D01*
X2619643Y-19677214D01*
X2648214Y-19691500D01*
X2662500Y-19720072D01*
X2662500Y-19877214D01*
X2662500Y-19720072D02*
X2676786Y-19691500D01*
X2705357Y-19677214D01*
X2748214Y-19677214D01*
X2776786Y-19691500D01*
X2791071Y-19720072D01*
X2791071Y-19877214D01*
X2933928Y-19877214D02*
X2933928Y-19677214D01*
X2933928Y-19705786D02*
X2948214Y-19691500D01*
X2976786Y-19677214D01*
X3019643Y-19677214D01*
X3048214Y-19691500D01*
X3062500Y-19720072D01*
X3062500Y-19877214D01*
X3062500Y-19720072D02*
X3076786Y-19691500D01*
X3105357Y-19677214D01*
X3148214Y-19677214D01*
X3176786Y-19691500D01*
X3191071Y-19720072D01*
X3191071Y-19877214D01*
X3776786Y-19562929D02*
X3519643Y-19948643D01*
X4162500Y-19577214D02*
X4191071Y-19577214D01*
X4219643Y-19591500D01*
X4233928Y-19605786D01*
X4248214Y-19634357D01*
X4262500Y-19691500D01*
X4262500Y-19762929D01*
X4248214Y-19820072D01*
X4233928Y-19848643D01*
X4219643Y-19862929D01*
X4191071Y-19877214D01*
X4162500Y-19877214D01*
X4133928Y-19862929D01*
X4119643Y-19848643D01*
X4105357Y-19820072D01*
X4091071Y-19762929D01*
X4091071Y-19691500D01*
X4105357Y-19634357D01*
X4119643Y-19605786D01*
X4133928Y-19591500D01*
X4162500Y-19577214D01*
X4391071Y-19848643D02*
X4405357Y-19862929D01*
X4391071Y-19877214D01*
X4376786Y-19862929D01*
X4391071Y-19848643D01*
X4391071Y-19877214D01*
X4591071Y-19577214D02*
X4619643Y-19577214D01*
X4648214Y-19591500D01*
X4662500Y-19605786D01*
X4676786Y-19634357D01*
X4691071Y-19691500D01*
X4691071Y-19762929D01*
X4676786Y-19820072D01*
X4662500Y-19848643D01*
X4648214Y-19862929D01*
X4619643Y-19877214D01*
X4591071Y-19877214D01*
X4562500Y-19862929D01*
X4548214Y-19848643D01*
X4533928Y-19820072D01*
X4519643Y-19762929D01*
X4519643Y-19691500D01*
X4533928Y-19634357D01*
X4548214Y-19605786D01*
X4562500Y-19591500D01*
X4591071Y-19577214D01*
X4948214Y-19677214D02*
X4948214Y-19877214D01*
X4876786Y-19562929D02*
X4805357Y-19777214D01*
X4991071Y-19777214D01*
X5162500Y-19577214D02*
X5191071Y-19577214D01*
X5219643Y-19591500D01*
X5233928Y-19605786D01*
X5248214Y-19634357D01*
X5262500Y-19691500D01*
X5262500Y-19762929D01*
X5248214Y-19820072D01*
X5233928Y-19848643D01*
X5219643Y-19862929D01*
X5191071Y-19877214D01*
X5162500Y-19877214D01*
X5133928Y-19862929D01*
X5119643Y-19848643D01*
X5105357Y-19820072D01*
X5091071Y-19762929D01*
X5091071Y-19691500D01*
X5105357Y-19634357D01*
X5119643Y-19605786D01*
X5133928Y-19591500D01*
X5162500Y-19577214D01*
X5376786Y-19577214D02*
X5376786Y-19634357D01*
X5491071Y-19577214D02*
X5491071Y-19634357D01*
X5933928Y-19991500D02*
X5919643Y-19977214D01*
X5891071Y-19934357D01*
X5876785Y-19905786D01*
X5862500Y-19862929D01*
X5848214Y-19791500D01*
X5848214Y-19734357D01*
X5862500Y-19662929D01*
X5876785Y-19620072D01*
X5891071Y-19591500D01*
X5919643Y-19548643D01*
X5933928Y-19534357D01*
X6205357Y-19877214D02*
X6033928Y-19877214D01*
X6119643Y-19877214D02*
X6119643Y-19577214D01*
X6091071Y-19620072D01*
X6062500Y-19648643D01*
X6033928Y-19662929D01*
X6491071Y-19877214D02*
X6319643Y-19877214D01*
X6405357Y-19877214D02*
X6405357Y-19577214D01*
X6376785Y-19620072D01*
X6348214Y-19648643D01*
X6319643Y-19662929D01*
X6748214Y-19677214D02*
X6748214Y-19877214D01*
X6676785Y-19562929D02*
X6605357Y-19777214D01*
X6791071Y-19777214D01*
X7133928Y-19877214D02*
X7133928Y-19577214D01*
X7262500Y-19877214D02*
X7262500Y-19720072D01*
X7248214Y-19691500D01*
X7219643Y-19677214D01*
X7176785Y-19677214D01*
X7148214Y-19691500D01*
X7133928Y-19705786D01*
X7448214Y-19877214D02*
X7419643Y-19862929D01*
X7405357Y-19848643D01*
X7391071Y-19820072D01*
X7391071Y-19734357D01*
X7405357Y-19705786D01*
X7419643Y-19691500D01*
X7448214Y-19677214D01*
X7491071Y-19677214D01*
X7519643Y-19691500D01*
X7533928Y-19705786D01*
X7548214Y-19734357D01*
X7548214Y-19820072D01*
X7533928Y-19848643D01*
X7519643Y-19862929D01*
X7491071Y-19877214D01*
X7448214Y-19877214D01*
X7719643Y-19877214D02*
X7691071Y-19862929D01*
X7676786Y-19834357D01*
X7676786Y-19577214D01*
X7948214Y-19862929D02*
X7919643Y-19877214D01*
X7862500Y-19877214D01*
X7833928Y-19862929D01*
X7819643Y-19834357D01*
X7819643Y-19720072D01*
X7833928Y-19691500D01*
X7862500Y-19677214D01*
X7919643Y-19677214D01*
X7948214Y-19691500D01*
X7962500Y-19720072D01*
X7962500Y-19748643D01*
X7819643Y-19777214D01*
X8076786Y-19862929D02*
X8105357Y-19877214D01*
X8162500Y-19877214D01*
X8191071Y-19862929D01*
X8205357Y-19834357D01*
X8205357Y-19820072D01*
X8191071Y-19791500D01*
X8162500Y-19777214D01*
X8119643Y-19777214D01*
X8091071Y-19762929D01*
X8076786Y-19734357D01*
X8076786Y-19720072D01*
X8091071Y-19691500D01*
X8119643Y-19677214D01*
X8162500Y-19677214D01*
X8191071Y-19691500D01*
X8305357Y-19991500D02*
X8319643Y-19977214D01*
X8348214Y-19934357D01*
X8362500Y-19905786D01*
X8376786Y-19862929D01*
X8391071Y-19791500D01*
X8391071Y-19734357D01*
X8376786Y-19662929D01*
X8362500Y-19620072D01*
X8348214Y-19591500D01*
X8319643Y-19548643D01*
X8305357Y-19534357D01*
X1122800Y-20067650D02*
X1262500Y-20207350D01*
X1262500Y-20067650D02*
X1122800Y-20207350D01*
X1192650Y-20207350D02*
X1262500Y-20137500D01*
X1192650Y-20067650D01*
X1122800Y-20137500D01*
X1192650Y-20207350D01*
X1691071Y-20273214D02*
X1519643Y-20273214D01*
X1605357Y-20273214D02*
X1605357Y-19973214D01*
X1576786Y-20016072D01*
X1548214Y-20044643D01*
X1519643Y-20058929D01*
X1819643Y-20244643D02*
X1833928Y-20258929D01*
X1819643Y-20273214D01*
X1805357Y-20258929D01*
X1819643Y-20244643D01*
X1819643Y-20273214D01*
X2091071Y-20073214D02*
X2091071Y-20273214D01*
X2019643Y-19958929D02*
X1948214Y-20173214D01*
X2133928Y-20173214D01*
X2305357Y-19973214D02*
X2333929Y-19973214D01*
X2362500Y-19987500D01*
X2376786Y-20001786D01*
X2391071Y-20030357D01*
X2405357Y-20087500D01*
X2405357Y-20158929D01*
X2391071Y-20216072D01*
X2376786Y-20244643D01*
X2362500Y-20258929D01*
X2333929Y-20273214D01*
X2305357Y-20273214D01*
X2276786Y-20258929D01*
X2262500Y-20244643D01*
X2248214Y-20216072D01*
X2233929Y-20158929D01*
X2233929Y-20087500D01*
X2248214Y-20030357D01*
X2262500Y-20001786D01*
X2276786Y-19987500D01*
X2305357Y-19973214D01*
X2533929Y-20273214D02*
X2533929Y-20073214D01*
X2533929Y-20101786D02*
X2548214Y-20087500D01*
X2576786Y-20073214D01*
X2619643Y-20073214D01*
X2648214Y-20087500D01*
X2662500Y-20116072D01*
X2662500Y-20273214D01*
X2662500Y-20116072D02*
X2676786Y-20087500D01*
X2705357Y-20073214D01*
X2748214Y-20073214D01*
X2776786Y-20087500D01*
X2791071Y-20116072D01*
X2791071Y-20273214D01*
X2933928Y-20273214D02*
X2933928Y-20073214D01*
X2933928Y-20101786D02*
X2948214Y-20087500D01*
X2976786Y-20073214D01*
X3019643Y-20073214D01*
X3048214Y-20087500D01*
X3062500Y-20116072D01*
X3062500Y-20273214D01*
X3062500Y-20116072D02*
X3076786Y-20087500D01*
X3105357Y-20073214D01*
X3148214Y-20073214D01*
X3176786Y-20087500D01*
X3191071Y-20116072D01*
X3191071Y-20273214D01*
X3776786Y-19958929D02*
X3519643Y-20344643D01*
X4162500Y-19973214D02*
X4191071Y-19973214D01*
X4219643Y-19987500D01*
X4233928Y-20001786D01*
X4248214Y-20030357D01*
X4262500Y-20087500D01*
X4262500Y-20158929D01*
X4248214Y-20216072D01*
X4233928Y-20244643D01*
X4219643Y-20258929D01*
X4191071Y-20273214D01*
X4162500Y-20273214D01*
X4133928Y-20258929D01*
X4119643Y-20244643D01*
X4105357Y-20216072D01*
X4091071Y-20158929D01*
X4091071Y-20087500D01*
X4105357Y-20030357D01*
X4119643Y-20001786D01*
X4133928Y-19987500D01*
X4162500Y-19973214D01*
X4391071Y-20244643D02*
X4405357Y-20258929D01*
X4391071Y-20273214D01*
X4376786Y-20258929D01*
X4391071Y-20244643D01*
X4391071Y-20273214D01*
X4591071Y-19973214D02*
X4619643Y-19973214D01*
X4648214Y-19987500D01*
X4662500Y-20001786D01*
X4676786Y-20030357D01*
X4691071Y-20087500D01*
X4691071Y-20158929D01*
X4676786Y-20216072D01*
X4662500Y-20244643D01*
X4648214Y-20258929D01*
X4619643Y-20273214D01*
X4591071Y-20273214D01*
X4562500Y-20258929D01*
X4548214Y-20244643D01*
X4533928Y-20216072D01*
X4519643Y-20158929D01*
X4519643Y-20087500D01*
X4533928Y-20030357D01*
X4548214Y-20001786D01*
X4562500Y-19987500D01*
X4591071Y-19973214D01*
X4962500Y-19973214D02*
X4819643Y-19973214D01*
X4805357Y-20116072D01*
X4819643Y-20101786D01*
X4848214Y-20087500D01*
X4919643Y-20087500D01*
X4948214Y-20101786D01*
X4962500Y-20116072D01*
X4976786Y-20144643D01*
X4976786Y-20216072D01*
X4962500Y-20244643D01*
X4948214Y-20258929D01*
X4919643Y-20273214D01*
X4848214Y-20273214D01*
X4819643Y-20258929D01*
X4805357Y-20244643D01*
X5248214Y-19973214D02*
X5105357Y-19973214D01*
X5091071Y-20116072D01*
X5105357Y-20101786D01*
X5133928Y-20087500D01*
X5205357Y-20087500D01*
X5233928Y-20101786D01*
X5248214Y-20116072D01*
X5262500Y-20144643D01*
X5262500Y-20216072D01*
X5248214Y-20244643D01*
X5233928Y-20258929D01*
X5205357Y-20273214D01*
X5133928Y-20273214D01*
X5105357Y-20258929D01*
X5091071Y-20244643D01*
X5376786Y-19973214D02*
X5376786Y-20030357D01*
X5491071Y-19973214D02*
X5491071Y-20030357D01*
X5933928Y-20387500D02*
X5919643Y-20373214D01*
X5891071Y-20330357D01*
X5876785Y-20301786D01*
X5862500Y-20258929D01*
X5848214Y-20187500D01*
X5848214Y-20130357D01*
X5862500Y-20058929D01*
X5876785Y-20016072D01*
X5891071Y-19987500D01*
X5919643Y-19944643D01*
X5933928Y-19930357D01*
X6019643Y-19973214D02*
X6205357Y-19973214D01*
X6105357Y-20087500D01*
X6148214Y-20087500D01*
X6176785Y-20101786D01*
X6191071Y-20116072D01*
X6205357Y-20144643D01*
X6205357Y-20216072D01*
X6191071Y-20244643D01*
X6176785Y-20258929D01*
X6148214Y-20273214D01*
X6062500Y-20273214D01*
X6033928Y-20258929D01*
X6019643Y-20244643D01*
X6562500Y-20273214D02*
X6562500Y-19973214D01*
X6691071Y-20273214D02*
X6691071Y-20116072D01*
X6676785Y-20087500D01*
X6648214Y-20073214D01*
X6605357Y-20073214D01*
X6576785Y-20087500D01*
X6562500Y-20101786D01*
X6876785Y-20273214D02*
X6848214Y-20258929D01*
X6833928Y-20244643D01*
X6819643Y-20216072D01*
X6819643Y-20130357D01*
X6833928Y-20101786D01*
X6848214Y-20087500D01*
X6876785Y-20073214D01*
X6919643Y-20073214D01*
X6948214Y-20087500D01*
X6962500Y-20101786D01*
X6976785Y-20130357D01*
X6976785Y-20216072D01*
X6962500Y-20244643D01*
X6948214Y-20258929D01*
X6919643Y-20273214D01*
X6876785Y-20273214D01*
X7148214Y-20273214D02*
X7119643Y-20258929D01*
X7105357Y-20230357D01*
X7105357Y-19973214D01*
X7376786Y-20258929D02*
X7348214Y-20273214D01*
X7291071Y-20273214D01*
X7262500Y-20258929D01*
X7248214Y-20230357D01*
X7248214Y-20116072D01*
X7262500Y-20087500D01*
X7291071Y-20073214D01*
X7348214Y-20073214D01*
X7376786Y-20087500D01*
X7391071Y-20116072D01*
X7391071Y-20144643D01*
X7248214Y-20173214D01*
X7505357Y-20258929D02*
X7533928Y-20273214D01*
X7591071Y-20273214D01*
X7619643Y-20258929D01*
X7633928Y-20230357D01*
X7633928Y-20216072D01*
X7619643Y-20187500D01*
X7591071Y-20173214D01*
X7548214Y-20173214D01*
X7519643Y-20158929D01*
X7505357Y-20130357D01*
X7505357Y-20116072D01*
X7519643Y-20087500D01*
X7548214Y-20073214D01*
X7591071Y-20073214D01*
X7619643Y-20087500D01*
X7733928Y-20387500D02*
X7748214Y-20373214D01*
X7776786Y-20330357D01*
X7791071Y-20301786D01*
X7805357Y-20258929D01*
X7819643Y-20187500D01*
X7819643Y-20130357D01*
X7805357Y-20058929D01*
X7791071Y-20016072D01*
X7776786Y-19987500D01*
X7748214Y-19944643D01*
X7733928Y-19930357D01*
X1187500Y-20458500D02*
X1187500Y-20608500D01*
X1112500Y-20533500D02*
X1262500Y-20533500D01*
X1262500Y-20533500D02*
G75*
G03X1262500Y-20533500I-75000J0D01*
G01*
X1691071Y-20669214D02*
X1519643Y-20669214D01*
X1605357Y-20669214D02*
X1605357Y-20369214D01*
X1576786Y-20412072D01*
X1548214Y-20440643D01*
X1519643Y-20454929D01*
X1819643Y-20640643D02*
X1833928Y-20654929D01*
X1819643Y-20669214D01*
X1805357Y-20654929D01*
X1819643Y-20640643D01*
X1819643Y-20669214D01*
X2105357Y-20369214D02*
X1962500Y-20369214D01*
X1948214Y-20512072D01*
X1962500Y-20497786D01*
X1991071Y-20483500D01*
X2062500Y-20483500D01*
X2091071Y-20497786D01*
X2105357Y-20512072D01*
X2119643Y-20540643D01*
X2119643Y-20612072D01*
X2105357Y-20640643D01*
X2091071Y-20654929D01*
X2062500Y-20669214D01*
X1991071Y-20669214D01*
X1962500Y-20654929D01*
X1948214Y-20640643D01*
X2305357Y-20369214D02*
X2333929Y-20369214D01*
X2362500Y-20383500D01*
X2376786Y-20397786D01*
X2391071Y-20426357D01*
X2405357Y-20483500D01*
X2405357Y-20554929D01*
X2391071Y-20612072D01*
X2376786Y-20640643D01*
X2362500Y-20654929D01*
X2333929Y-20669214D01*
X2305357Y-20669214D01*
X2276786Y-20654929D01*
X2262500Y-20640643D01*
X2248214Y-20612072D01*
X2233929Y-20554929D01*
X2233929Y-20483500D01*
X2248214Y-20426357D01*
X2262500Y-20397786D01*
X2276786Y-20383500D01*
X2305357Y-20369214D01*
X2533929Y-20669214D02*
X2533929Y-20469214D01*
X2533929Y-20497786D02*
X2548214Y-20483500D01*
X2576786Y-20469214D01*
X2619643Y-20469214D01*
X2648214Y-20483500D01*
X2662500Y-20512072D01*
X2662500Y-20669214D01*
X2662500Y-20512072D02*
X2676786Y-20483500D01*
X2705357Y-20469214D01*
X2748214Y-20469214D01*
X2776786Y-20483500D01*
X2791071Y-20512072D01*
X2791071Y-20669214D01*
X2933928Y-20669214D02*
X2933928Y-20469214D01*
X2933928Y-20497786D02*
X2948214Y-20483500D01*
X2976786Y-20469214D01*
X3019643Y-20469214D01*
X3048214Y-20483500D01*
X3062500Y-20512072D01*
X3062500Y-20669214D01*
X3062500Y-20512072D02*
X3076786Y-20483500D01*
X3105357Y-20469214D01*
X3148214Y-20469214D01*
X3176786Y-20483500D01*
X3191071Y-20512072D01*
X3191071Y-20669214D01*
X3776786Y-20354929D02*
X3519643Y-20740643D01*
X4162500Y-20369214D02*
X4191071Y-20369214D01*
X4219643Y-20383500D01*
X4233928Y-20397786D01*
X4248214Y-20426357D01*
X4262500Y-20483500D01*
X4262500Y-20554929D01*
X4248214Y-20612072D01*
X4233928Y-20640643D01*
X4219643Y-20654929D01*
X4191071Y-20669214D01*
X4162500Y-20669214D01*
X4133928Y-20654929D01*
X4119643Y-20640643D01*
X4105357Y-20612072D01*
X4091071Y-20554929D01*
X4091071Y-20483500D01*
X4105357Y-20426357D01*
X4119643Y-20397786D01*
X4133928Y-20383500D01*
X4162500Y-20369214D01*
X4391071Y-20640643D02*
X4405357Y-20654929D01*
X4391071Y-20669214D01*
X4376786Y-20654929D01*
X4391071Y-20640643D01*
X4391071Y-20669214D01*
X4591071Y-20369214D02*
X4619643Y-20369214D01*
X4648214Y-20383500D01*
X4662500Y-20397786D01*
X4676786Y-20426357D01*
X4691071Y-20483500D01*
X4691071Y-20554929D01*
X4676786Y-20612072D01*
X4662500Y-20640643D01*
X4648214Y-20654929D01*
X4619643Y-20669214D01*
X4591071Y-20669214D01*
X4562500Y-20654929D01*
X4548214Y-20640643D01*
X4533928Y-20612072D01*
X4519643Y-20554929D01*
X4519643Y-20483500D01*
X4533928Y-20426357D01*
X4548214Y-20397786D01*
X4562500Y-20383500D01*
X4591071Y-20369214D01*
X4962500Y-20369214D02*
X4819643Y-20369214D01*
X4805357Y-20512072D01*
X4819643Y-20497786D01*
X4848214Y-20483500D01*
X4919643Y-20483500D01*
X4948214Y-20497786D01*
X4962500Y-20512072D01*
X4976786Y-20540643D01*
X4976786Y-20612072D01*
X4962500Y-20640643D01*
X4948214Y-20654929D01*
X4919643Y-20669214D01*
X4848214Y-20669214D01*
X4819643Y-20654929D01*
X4805357Y-20640643D01*
X5119643Y-20669214D02*
X5176786Y-20669214D01*
X5205357Y-20654929D01*
X5219643Y-20640643D01*
X5248214Y-20597786D01*
X5262500Y-20540643D01*
X5262500Y-20426357D01*
X5248214Y-20397786D01*
X5233928Y-20383500D01*
X5205357Y-20369214D01*
X5148214Y-20369214D01*
X5119643Y-20383500D01*
X5105357Y-20397786D01*
X5091071Y-20426357D01*
X5091071Y-20497786D01*
X5105357Y-20526357D01*
X5119643Y-20540643D01*
X5148214Y-20554929D01*
X5205357Y-20554929D01*
X5233928Y-20540643D01*
X5248214Y-20526357D01*
X5262500Y-20497786D01*
X5376786Y-20369214D02*
X5376786Y-20426357D01*
X5491071Y-20369214D02*
X5491071Y-20426357D01*
X5933928Y-20783500D02*
X5919643Y-20769214D01*
X5891071Y-20726357D01*
X5876785Y-20697786D01*
X5862500Y-20654929D01*
X5848214Y-20583500D01*
X5848214Y-20526357D01*
X5862500Y-20454929D01*
X5876785Y-20412072D01*
X5891071Y-20383500D01*
X5919643Y-20340643D01*
X5933928Y-20326357D01*
X6176785Y-20469214D02*
X6176785Y-20669214D01*
X6105357Y-20354929D02*
X6033928Y-20569214D01*
X6219643Y-20569214D01*
X6562500Y-20669214D02*
X6562500Y-20369214D01*
X6691071Y-20669214D02*
X6691071Y-20512072D01*
X6676785Y-20483500D01*
X6648214Y-20469214D01*
X6605357Y-20469214D01*
X6576785Y-20483500D01*
X6562500Y-20497786D01*
X6876785Y-20669214D02*
X6848214Y-20654929D01*
X6833928Y-20640643D01*
X6819643Y-20612072D01*
X6819643Y-20526357D01*
X6833928Y-20497786D01*
X6848214Y-20483500D01*
X6876785Y-20469214D01*
X6919643Y-20469214D01*
X6948214Y-20483500D01*
X6962500Y-20497786D01*
X6976785Y-20526357D01*
X6976785Y-20612072D01*
X6962500Y-20640643D01*
X6948214Y-20654929D01*
X6919643Y-20669214D01*
X6876785Y-20669214D01*
X7148214Y-20669214D02*
X7119643Y-20654929D01*
X7105357Y-20626357D01*
X7105357Y-20369214D01*
X7376786Y-20654929D02*
X7348214Y-20669214D01*
X7291071Y-20669214D01*
X7262500Y-20654929D01*
X7248214Y-20626357D01*
X7248214Y-20512072D01*
X7262500Y-20483500D01*
X7291071Y-20469214D01*
X7348214Y-20469214D01*
X7376786Y-20483500D01*
X7391071Y-20512072D01*
X7391071Y-20540643D01*
X7248214Y-20569214D01*
X7505357Y-20654929D02*
X7533928Y-20669214D01*
X7591071Y-20669214D01*
X7619643Y-20654929D01*
X7633928Y-20626357D01*
X7633928Y-20612072D01*
X7619643Y-20583500D01*
X7591071Y-20569214D01*
X7548214Y-20569214D01*
X7519643Y-20554929D01*
X7505357Y-20526357D01*
X7505357Y-20512072D01*
X7519643Y-20483500D01*
X7548214Y-20469214D01*
X7591071Y-20469214D01*
X7619643Y-20483500D01*
X7733928Y-20783500D02*
X7748214Y-20769214D01*
X7776786Y-20726357D01*
X7791071Y-20697786D01*
X7805357Y-20654929D01*
X7819643Y-20583500D01*
X7819643Y-20526357D01*
X7805357Y-20454929D01*
X7791071Y-20412072D01*
X7776786Y-20383500D01*
X7748214Y-20340643D01*
X7733928Y-20326357D01*
X1233211Y-21000212D02*
X1233211Y-20858789D01*
X1091789Y-20858789D01*
X1091789Y-21000212D01*
X1233211Y-21000212D01*
X1262500Y-20929500D02*
G75*
G03X1262500Y-20929500I-100000J0D01*
G01*
X1519643Y-20793786D02*
X1533928Y-20779500D01*
X1562500Y-20765214D01*
X1633928Y-20765214D01*
X1662500Y-20779500D01*
X1676786Y-20793786D01*
X1691071Y-20822357D01*
X1691071Y-20850929D01*
X1676786Y-20893786D01*
X1505357Y-21065214D01*
X1691071Y-21065214D01*
X1819643Y-21036643D02*
X1833928Y-21050929D01*
X1819643Y-21065214D01*
X1805357Y-21050929D01*
X1819643Y-21036643D01*
X1819643Y-21065214D01*
X2019643Y-20765214D02*
X2048214Y-20765214D01*
X2076786Y-20779500D01*
X2091071Y-20793786D01*
X2105357Y-20822357D01*
X2119643Y-20879500D01*
X2119643Y-20950929D01*
X2105357Y-21008072D01*
X2091071Y-21036643D01*
X2076786Y-21050929D01*
X2048214Y-21065214D01*
X2019643Y-21065214D01*
X1991071Y-21050929D01*
X1976786Y-21036643D01*
X1962500Y-21008072D01*
X1948214Y-20950929D01*
X1948214Y-20879500D01*
X1962500Y-20822357D01*
X1976786Y-20793786D01*
X1991071Y-20779500D01*
X2019643Y-20765214D01*
X2305357Y-20765214D02*
X2333929Y-20765214D01*
X2362500Y-20779500D01*
X2376786Y-20793786D01*
X2391071Y-20822357D01*
X2405357Y-20879500D01*
X2405357Y-20950929D01*
X2391071Y-21008072D01*
X2376786Y-21036643D01*
X2362500Y-21050929D01*
X2333929Y-21065214D01*
X2305357Y-21065214D01*
X2276786Y-21050929D01*
X2262500Y-21036643D01*
X2248214Y-21008072D01*
X2233929Y-20950929D01*
X2233929Y-20879500D01*
X2248214Y-20822357D01*
X2262500Y-20793786D01*
X2276786Y-20779500D01*
X2305357Y-20765214D01*
X2533929Y-21065214D02*
X2533929Y-20865214D01*
X2533929Y-20893786D02*
X2548214Y-20879500D01*
X2576786Y-20865214D01*
X2619643Y-20865214D01*
X2648214Y-20879500D01*
X2662500Y-20908072D01*
X2662500Y-21065214D01*
X2662500Y-20908072D02*
X2676786Y-20879500D01*
X2705357Y-20865214D01*
X2748214Y-20865214D01*
X2776786Y-20879500D01*
X2791071Y-20908072D01*
X2791071Y-21065214D01*
X2933928Y-21065214D02*
X2933928Y-20865214D01*
X2933928Y-20893786D02*
X2948214Y-20879500D01*
X2976786Y-20865214D01*
X3019643Y-20865214D01*
X3048214Y-20879500D01*
X3062500Y-20908072D01*
X3062500Y-21065214D01*
X3062500Y-20908072D02*
X3076786Y-20879500D01*
X3105357Y-20865214D01*
X3148214Y-20865214D01*
X3176786Y-20879500D01*
X3191071Y-20908072D01*
X3191071Y-21065214D01*
X3776786Y-20750929D02*
X3519643Y-21136643D01*
X4162500Y-20765214D02*
X4191071Y-20765214D01*
X4219643Y-20779500D01*
X4233928Y-20793786D01*
X4248214Y-20822357D01*
X4262500Y-20879500D01*
X4262500Y-20950929D01*
X4248214Y-21008072D01*
X4233928Y-21036643D01*
X4219643Y-21050929D01*
X4191071Y-21065214D01*
X4162500Y-21065214D01*
X4133928Y-21050929D01*
X4119643Y-21036643D01*
X4105357Y-21008072D01*
X4091071Y-20950929D01*
X4091071Y-20879500D01*
X4105357Y-20822357D01*
X4119643Y-20793786D01*
X4133928Y-20779500D01*
X4162500Y-20765214D01*
X4391071Y-21036643D02*
X4405357Y-21050929D01*
X4391071Y-21065214D01*
X4376786Y-21050929D01*
X4391071Y-21036643D01*
X4391071Y-21065214D01*
X4591071Y-20765214D02*
X4619643Y-20765214D01*
X4648214Y-20779500D01*
X4662500Y-20793786D01*
X4676786Y-20822357D01*
X4691071Y-20879500D01*
X4691071Y-20950929D01*
X4676786Y-21008072D01*
X4662500Y-21036643D01*
X4648214Y-21050929D01*
X4619643Y-21065214D01*
X4591071Y-21065214D01*
X4562500Y-21050929D01*
X4548214Y-21036643D01*
X4533928Y-21008072D01*
X4519643Y-20950929D01*
X4519643Y-20879500D01*
X4533928Y-20822357D01*
X4548214Y-20793786D01*
X4562500Y-20779500D01*
X4591071Y-20765214D01*
X4791071Y-20765214D02*
X4991071Y-20765214D01*
X4862500Y-21065214D01*
X5119643Y-21065214D02*
X5176786Y-21065214D01*
X5205357Y-21050929D01*
X5219643Y-21036643D01*
X5248214Y-20993786D01*
X5262500Y-20936643D01*
X5262500Y-20822357D01*
X5248214Y-20793786D01*
X5233928Y-20779500D01*
X5205357Y-20765214D01*
X5148214Y-20765214D01*
X5119643Y-20779500D01*
X5105357Y-20793786D01*
X5091071Y-20822357D01*
X5091071Y-20893786D01*
X5105357Y-20922357D01*
X5119643Y-20936643D01*
X5148214Y-20950929D01*
X5205357Y-20950929D01*
X5233928Y-20936643D01*
X5248214Y-20922357D01*
X5262500Y-20893786D01*
X5376786Y-20765214D02*
X5376786Y-20822357D01*
X5491071Y-20765214D02*
X5491071Y-20822357D01*
X5933928Y-21179500D02*
X5919643Y-21165214D01*
X5891071Y-21122357D01*
X5876785Y-21093786D01*
X5862500Y-21050929D01*
X5848214Y-20979500D01*
X5848214Y-20922357D01*
X5862500Y-20850929D01*
X5876785Y-20808072D01*
X5891071Y-20779500D01*
X5919643Y-20736643D01*
X5933928Y-20722357D01*
X6176785Y-20865214D02*
X6176785Y-21065214D01*
X6105357Y-20750929D02*
X6033928Y-20965214D01*
X6219643Y-20965214D01*
X6562500Y-21065214D02*
X6562500Y-20765214D01*
X6691071Y-21065214D02*
X6691071Y-20908072D01*
X6676785Y-20879500D01*
X6648214Y-20865214D01*
X6605357Y-20865214D01*
X6576785Y-20879500D01*
X6562500Y-20893786D01*
X6876785Y-21065214D02*
X6848214Y-21050929D01*
X6833928Y-21036643D01*
X6819643Y-21008072D01*
X6819643Y-20922357D01*
X6833928Y-20893786D01*
X6848214Y-20879500D01*
X6876785Y-20865214D01*
X6919643Y-20865214D01*
X6948214Y-20879500D01*
X6962500Y-20893786D01*
X6976785Y-20922357D01*
X6976785Y-21008072D01*
X6962500Y-21036643D01*
X6948214Y-21050929D01*
X6919643Y-21065214D01*
X6876785Y-21065214D01*
X7148214Y-21065214D02*
X7119643Y-21050929D01*
X7105357Y-21022357D01*
X7105357Y-20765214D01*
X7376786Y-21050929D02*
X7348214Y-21065214D01*
X7291071Y-21065214D01*
X7262500Y-21050929D01*
X7248214Y-21022357D01*
X7248214Y-20908072D01*
X7262500Y-20879500D01*
X7291071Y-20865214D01*
X7348214Y-20865214D01*
X7376786Y-20879500D01*
X7391071Y-20908072D01*
X7391071Y-20936643D01*
X7248214Y-20965214D01*
X7505357Y-21050929D02*
X7533928Y-21065214D01*
X7591071Y-21065214D01*
X7619643Y-21050929D01*
X7633928Y-21022357D01*
X7633928Y-21008072D01*
X7619643Y-20979500D01*
X7591071Y-20965214D01*
X7548214Y-20965214D01*
X7519643Y-20950929D01*
X7505357Y-20922357D01*
X7505357Y-20908072D01*
X7519643Y-20879500D01*
X7548214Y-20865214D01*
X7591071Y-20865214D01*
X7619643Y-20879500D01*
X7733928Y-21179500D02*
X7748214Y-21165214D01*
X7776786Y-21122357D01*
X7791071Y-21093786D01*
X7805357Y-21050929D01*
X7819643Y-20979500D01*
X7819643Y-20922357D01*
X7805357Y-20850929D01*
X7791071Y-20808072D01*
X7776786Y-20779500D01*
X7748214Y-20736643D01*
X7733928Y-20722357D01*
X1110000Y-21478000D02*
X1262500Y-21325500D01*
X1110000Y-21173000D01*
X957500Y-21325500D01*
X1110000Y-21478000D01*
X1262500Y-21325500D02*
G75*
G03X1262500Y-21325500I-152500J0D01*
G01*
X1505357Y-21161214D02*
X1691071Y-21161214D01*
X1591071Y-21275500D01*
X1633928Y-21275500D01*
X1662500Y-21289786D01*
X1676786Y-21304072D01*
X1691071Y-21332643D01*
X1691071Y-21404072D01*
X1676786Y-21432643D01*
X1662500Y-21446929D01*
X1633928Y-21461214D01*
X1548214Y-21461214D01*
X1519643Y-21446929D01*
X1505357Y-21432643D01*
X1819643Y-21432643D02*
X1833928Y-21446929D01*
X1819643Y-21461214D01*
X1805357Y-21446929D01*
X1819643Y-21432643D01*
X1819643Y-21461214D01*
X2019643Y-21161214D02*
X2048214Y-21161214D01*
X2076786Y-21175500D01*
X2091071Y-21189786D01*
X2105357Y-21218357D01*
X2119643Y-21275500D01*
X2119643Y-21346929D01*
X2105357Y-21404072D01*
X2091071Y-21432643D01*
X2076786Y-21446929D01*
X2048214Y-21461214D01*
X2019643Y-21461214D01*
X1991071Y-21446929D01*
X1976786Y-21432643D01*
X1962500Y-21404072D01*
X1948214Y-21346929D01*
X1948214Y-21275500D01*
X1962500Y-21218357D01*
X1976786Y-21189786D01*
X1991071Y-21175500D01*
X2019643Y-21161214D01*
X2391071Y-21161214D02*
X2248214Y-21161214D01*
X2233929Y-21304072D01*
X2248214Y-21289786D01*
X2276786Y-21275500D01*
X2348214Y-21275500D01*
X2376786Y-21289786D01*
X2391071Y-21304072D01*
X2405357Y-21332643D01*
X2405357Y-21404072D01*
X2391071Y-21432643D01*
X2376786Y-21446929D01*
X2348214Y-21461214D01*
X2276786Y-21461214D01*
X2248214Y-21446929D01*
X2233929Y-21432643D01*
X2533929Y-21461214D02*
X2533929Y-21261214D01*
X2533929Y-21289786D02*
X2548214Y-21275500D01*
X2576786Y-21261214D01*
X2619643Y-21261214D01*
X2648214Y-21275500D01*
X2662500Y-21304072D01*
X2662500Y-21461214D01*
X2662500Y-21304072D02*
X2676786Y-21275500D01*
X2705357Y-21261214D01*
X2748214Y-21261214D01*
X2776786Y-21275500D01*
X2791071Y-21304072D01*
X2791071Y-21461214D01*
X2933928Y-21461214D02*
X2933928Y-21261214D01*
X2933928Y-21289786D02*
X2948214Y-21275500D01*
X2976786Y-21261214D01*
X3019643Y-21261214D01*
X3048214Y-21275500D01*
X3062500Y-21304072D01*
X3062500Y-21461214D01*
X3062500Y-21304072D02*
X3076786Y-21275500D01*
X3105357Y-21261214D01*
X3148214Y-21261214D01*
X3176786Y-21275500D01*
X3191071Y-21304072D01*
X3191071Y-21461214D01*
X3776786Y-21146929D02*
X3519643Y-21532643D01*
X4162500Y-21161214D02*
X4191071Y-21161214D01*
X4219643Y-21175500D01*
X4233928Y-21189786D01*
X4248214Y-21218357D01*
X4262500Y-21275500D01*
X4262500Y-21346929D01*
X4248214Y-21404072D01*
X4233928Y-21432643D01*
X4219643Y-21446929D01*
X4191071Y-21461214D01*
X4162500Y-21461214D01*
X4133928Y-21446929D01*
X4119643Y-21432643D01*
X4105357Y-21404072D01*
X4091071Y-21346929D01*
X4091071Y-21275500D01*
X4105357Y-21218357D01*
X4119643Y-21189786D01*
X4133928Y-21175500D01*
X4162500Y-21161214D01*
X4391071Y-21432643D02*
X4405357Y-21446929D01*
X4391071Y-21461214D01*
X4376786Y-21446929D01*
X4391071Y-21432643D01*
X4391071Y-21461214D01*
X4691071Y-21461214D02*
X4519643Y-21461214D01*
X4605357Y-21461214D02*
X4605357Y-21161214D01*
X4576786Y-21204072D01*
X4548214Y-21232643D01*
X4519643Y-21246929D01*
X4805357Y-21189786D02*
X4819643Y-21175500D01*
X4848214Y-21161214D01*
X4919643Y-21161214D01*
X4948214Y-21175500D01*
X4962500Y-21189786D01*
X4976786Y-21218357D01*
X4976786Y-21246929D01*
X4962500Y-21289786D01*
X4791071Y-21461214D01*
X4976786Y-21461214D01*
X5162500Y-21161214D02*
X5191071Y-21161214D01*
X5219643Y-21175500D01*
X5233928Y-21189786D01*
X5248214Y-21218357D01*
X5262500Y-21275500D01*
X5262500Y-21346929D01*
X5248214Y-21404072D01*
X5233928Y-21432643D01*
X5219643Y-21446929D01*
X5191071Y-21461214D01*
X5162500Y-21461214D01*
X5133928Y-21446929D01*
X5119643Y-21432643D01*
X5105357Y-21404072D01*
X5091071Y-21346929D01*
X5091071Y-21275500D01*
X5105357Y-21218357D01*
X5119643Y-21189786D01*
X5133928Y-21175500D01*
X5162500Y-21161214D01*
X5376786Y-21161214D02*
X5376786Y-21218357D01*
X5491071Y-21161214D02*
X5491071Y-21218357D01*
X5933928Y-21575500D02*
X5919643Y-21561214D01*
X5891071Y-21518357D01*
X5876785Y-21489786D01*
X5862500Y-21446929D01*
X5848214Y-21375500D01*
X5848214Y-21318357D01*
X5862500Y-21246929D01*
X5876785Y-21204072D01*
X5891071Y-21175500D01*
X5919643Y-21132643D01*
X5933928Y-21118357D01*
X6019643Y-21161214D02*
X6205357Y-21161214D01*
X6105357Y-21275500D01*
X6148214Y-21275500D01*
X6176785Y-21289786D01*
X6191071Y-21304072D01*
X6205357Y-21332643D01*
X6205357Y-21404072D01*
X6191071Y-21432643D01*
X6176785Y-21446929D01*
X6148214Y-21461214D01*
X6062500Y-21461214D01*
X6033928Y-21446929D01*
X6019643Y-21432643D01*
X6562500Y-21461214D02*
X6562500Y-21161214D01*
X6691071Y-21461214D02*
X6691071Y-21304072D01*
X6676785Y-21275500D01*
X6648214Y-21261214D01*
X6605357Y-21261214D01*
X6576785Y-21275500D01*
X6562500Y-21289786D01*
X6876785Y-21461214D02*
X6848214Y-21446929D01*
X6833928Y-21432643D01*
X6819643Y-21404072D01*
X6819643Y-21318357D01*
X6833928Y-21289786D01*
X6848214Y-21275500D01*
X6876785Y-21261214D01*
X6919643Y-21261214D01*
X6948214Y-21275500D01*
X6962500Y-21289786D01*
X6976785Y-21318357D01*
X6976785Y-21404072D01*
X6962500Y-21432643D01*
X6948214Y-21446929D01*
X6919643Y-21461214D01*
X6876785Y-21461214D01*
X7148214Y-21461214D02*
X7119643Y-21446929D01*
X7105357Y-21418357D01*
X7105357Y-21161214D01*
X7376786Y-21446929D02*
X7348214Y-21461214D01*
X7291071Y-21461214D01*
X7262500Y-21446929D01*
X7248214Y-21418357D01*
X7248214Y-21304072D01*
X7262500Y-21275500D01*
X7291071Y-21261214D01*
X7348214Y-21261214D01*
X7376786Y-21275500D01*
X7391071Y-21304072D01*
X7391071Y-21332643D01*
X7248214Y-21361214D01*
X7505357Y-21446929D02*
X7533928Y-21461214D01*
X7591071Y-21461214D01*
X7619643Y-21446929D01*
X7633928Y-21418357D01*
X7633928Y-21404072D01*
X7619643Y-21375500D01*
X7591071Y-21361214D01*
X7548214Y-21361214D01*
X7519643Y-21346929D01*
X7505357Y-21318357D01*
X7505357Y-21304072D01*
X7519643Y-21275500D01*
X7548214Y-21261214D01*
X7591071Y-21261214D01*
X7619643Y-21275500D01*
X7733928Y-21575500D02*
X7748214Y-21561214D01*
X7776786Y-21518357D01*
X7791071Y-21489786D01*
X7805357Y-21446929D01*
X7819643Y-21375500D01*
X7819643Y-21318357D01*
X7805357Y-21246929D01*
X7791071Y-21204072D01*
X7776786Y-21175500D01*
X7748214Y-21132643D01*
X7733928Y-21118357D01*
X1095000Y-21593000D02*
X1095000Y-21928000D01*
X927500Y-21760500D02*
X1262500Y-21760500D01*
X1213441Y-21878942D02*
X1213441Y-21642059D01*
X976558Y-21642059D01*
X976558Y-21878942D01*
X1213441Y-21878942D01*
X1505357Y-21596214D02*
X1691071Y-21596214D01*
X1591071Y-21710500D01*
X1633928Y-21710500D01*
X1662500Y-21724786D01*
X1676786Y-21739072D01*
X1691071Y-21767643D01*
X1691071Y-21839072D01*
X1676786Y-21867643D01*
X1662500Y-21881929D01*
X1633928Y-21896214D01*
X1548214Y-21896214D01*
X1519643Y-21881929D01*
X1505357Y-21867643D01*
X1819643Y-21867643D02*
X1833928Y-21881929D01*
X1819643Y-21896214D01*
X1805357Y-21881929D01*
X1819643Y-21867643D01*
X1819643Y-21896214D01*
X1933928Y-21596214D02*
X2119643Y-21596214D01*
X2019643Y-21710500D01*
X2062500Y-21710500D01*
X2091071Y-21724786D01*
X2105357Y-21739072D01*
X2119643Y-21767643D01*
X2119643Y-21839072D01*
X2105357Y-21867643D01*
X2091071Y-21881929D01*
X2062500Y-21896214D01*
X1976786Y-21896214D01*
X1948214Y-21881929D01*
X1933928Y-21867643D01*
X2391071Y-21596214D02*
X2248214Y-21596214D01*
X2233929Y-21739072D01*
X2248214Y-21724786D01*
X2276786Y-21710500D01*
X2348214Y-21710500D01*
X2376786Y-21724786D01*
X2391071Y-21739072D01*
X2405357Y-21767643D01*
X2405357Y-21839072D01*
X2391071Y-21867643D01*
X2376786Y-21881929D01*
X2348214Y-21896214D01*
X2276786Y-21896214D01*
X2248214Y-21881929D01*
X2233929Y-21867643D01*
X2533929Y-21896214D02*
X2533929Y-21696214D01*
X2533929Y-21724786D02*
X2548214Y-21710500D01*
X2576786Y-21696214D01*
X2619643Y-21696214D01*
X2648214Y-21710500D01*
X2662500Y-21739072D01*
X2662500Y-21896214D01*
X2662500Y-21739072D02*
X2676786Y-21710500D01*
X2705357Y-21696214D01*
X2748214Y-21696214D01*
X2776786Y-21710500D01*
X2791071Y-21739072D01*
X2791071Y-21896214D01*
X2933928Y-21896214D02*
X2933928Y-21696214D01*
X2933928Y-21724786D02*
X2948214Y-21710500D01*
X2976786Y-21696214D01*
X3019643Y-21696214D01*
X3048214Y-21710500D01*
X3062500Y-21739072D01*
X3062500Y-21896214D01*
X3062500Y-21739072D02*
X3076786Y-21710500D01*
X3105357Y-21696214D01*
X3148214Y-21696214D01*
X3176786Y-21710500D01*
X3191071Y-21739072D01*
X3191071Y-21896214D01*
X3776786Y-21581929D02*
X3519643Y-21967643D01*
X4162500Y-21596214D02*
X4191071Y-21596214D01*
X4219643Y-21610500D01*
X4233928Y-21624786D01*
X4248214Y-21653357D01*
X4262500Y-21710500D01*
X4262500Y-21781929D01*
X4248214Y-21839072D01*
X4233928Y-21867643D01*
X4219643Y-21881929D01*
X4191071Y-21896214D01*
X4162500Y-21896214D01*
X4133928Y-21881929D01*
X4119643Y-21867643D01*
X4105357Y-21839072D01*
X4091071Y-21781929D01*
X4091071Y-21710500D01*
X4105357Y-21653357D01*
X4119643Y-21624786D01*
X4133928Y-21610500D01*
X4162500Y-21596214D01*
X4391071Y-21867643D02*
X4405357Y-21881929D01*
X4391071Y-21896214D01*
X4376786Y-21881929D01*
X4391071Y-21867643D01*
X4391071Y-21896214D01*
X4691071Y-21896214D02*
X4519643Y-21896214D01*
X4605357Y-21896214D02*
X4605357Y-21596214D01*
X4576786Y-21639072D01*
X4548214Y-21667643D01*
X4519643Y-21681929D01*
X4791071Y-21596214D02*
X4976786Y-21596214D01*
X4876786Y-21710500D01*
X4919643Y-21710500D01*
X4948214Y-21724786D01*
X4962500Y-21739072D01*
X4976786Y-21767643D01*
X4976786Y-21839072D01*
X4962500Y-21867643D01*
X4948214Y-21881929D01*
X4919643Y-21896214D01*
X4833928Y-21896214D01*
X4805357Y-21881929D01*
X4791071Y-21867643D01*
X5091071Y-21624786D02*
X5105357Y-21610500D01*
X5133928Y-21596214D01*
X5205357Y-21596214D01*
X5233928Y-21610500D01*
X5248214Y-21624786D01*
X5262500Y-21653357D01*
X5262500Y-21681929D01*
X5248214Y-21724786D01*
X5076786Y-21896214D01*
X5262500Y-21896214D01*
X5376786Y-21596214D02*
X5376786Y-21653357D01*
X5491071Y-21596214D02*
X5491071Y-21653357D01*
X5933928Y-22010500D02*
X5919643Y-21996214D01*
X5891071Y-21953357D01*
X5876785Y-21924786D01*
X5862500Y-21881929D01*
X5848214Y-21810500D01*
X5848214Y-21753357D01*
X5862500Y-21681929D01*
X5876785Y-21639072D01*
X5891071Y-21610500D01*
X5919643Y-21567643D01*
X5933928Y-21553357D01*
X6176785Y-21696214D02*
X6176785Y-21896214D01*
X6105357Y-21581929D02*
X6033928Y-21796214D01*
X6219643Y-21796214D01*
X6562500Y-21896214D02*
X6562500Y-21596214D01*
X6691071Y-21896214D02*
X6691071Y-21739072D01*
X6676785Y-21710500D01*
X6648214Y-21696214D01*
X6605357Y-21696214D01*
X6576785Y-21710500D01*
X6562500Y-21724786D01*
X6876785Y-21896214D02*
X6848214Y-21881929D01*
X6833928Y-21867643D01*
X6819643Y-21839072D01*
X6819643Y-21753357D01*
X6833928Y-21724786D01*
X6848214Y-21710500D01*
X6876785Y-21696214D01*
X6919643Y-21696214D01*
X6948214Y-21710500D01*
X6962500Y-21724786D01*
X6976785Y-21753357D01*
X6976785Y-21839072D01*
X6962500Y-21867643D01*
X6948214Y-21881929D01*
X6919643Y-21896214D01*
X6876785Y-21896214D01*
X7148214Y-21896214D02*
X7119643Y-21881929D01*
X7105357Y-21853357D01*
X7105357Y-21596214D01*
X7376786Y-21881929D02*
X7348214Y-21896214D01*
X7291071Y-21896214D01*
X7262500Y-21881929D01*
X7248214Y-21853357D01*
X7248214Y-21739072D01*
X7262500Y-21710500D01*
X7291071Y-21696214D01*
X7348214Y-21696214D01*
X7376786Y-21710500D01*
X7391071Y-21739072D01*
X7391071Y-21767643D01*
X7248214Y-21796214D01*
X7505357Y-21881929D02*
X7533928Y-21896214D01*
X7591071Y-21896214D01*
X7619643Y-21881929D01*
X7633928Y-21853357D01*
X7633928Y-21839072D01*
X7619643Y-21810500D01*
X7591071Y-21796214D01*
X7548214Y-21796214D01*
X7519643Y-21781929D01*
X7505357Y-21753357D01*
X7505357Y-21739072D01*
X7519643Y-21710500D01*
X7548214Y-21696214D01*
X7591071Y-21696214D01*
X7619643Y-21710500D01*
X7733928Y-22010500D02*
X7748214Y-21996214D01*
X7776786Y-21953357D01*
X7791071Y-21924786D01*
X7805357Y-21881929D01*
X7819643Y-21810500D01*
X7819643Y-21753357D01*
X7805357Y-21681929D01*
X7791071Y-21639072D01*
X7776786Y-21610500D01*
X7748214Y-21567643D01*
X7733928Y-21553357D01*
X1072000Y-22035000D02*
X1072000Y-22416000D01*
X881500Y-22225500D02*
X1262500Y-22225500D01*
X1072000Y-22416000D02*
X1262500Y-22225500D01*
X1072000Y-22035000D01*
X881500Y-22225500D01*
X1072000Y-22416000D01*
X1505357Y-22061214D02*
X1691071Y-22061214D01*
X1591071Y-22175500D01*
X1633928Y-22175500D01*
X1662500Y-22189786D01*
X1676786Y-22204072D01*
X1691071Y-22232643D01*
X1691071Y-22304072D01*
X1676786Y-22332643D01*
X1662500Y-22346929D01*
X1633928Y-22361214D01*
X1548214Y-22361214D01*
X1519643Y-22346929D01*
X1505357Y-22332643D01*
X1819643Y-22332643D02*
X1833928Y-22346929D01*
X1819643Y-22361214D01*
X1805357Y-22346929D01*
X1819643Y-22332643D01*
X1819643Y-22361214D01*
X2005357Y-22189786D02*
X1976786Y-22175500D01*
X1962500Y-22161214D01*
X1948214Y-22132643D01*
X1948214Y-22118357D01*
X1962500Y-22089786D01*
X1976786Y-22075500D01*
X2005357Y-22061214D01*
X2062500Y-22061214D01*
X2091071Y-22075500D01*
X2105357Y-22089786D01*
X2119643Y-22118357D01*
X2119643Y-22132643D01*
X2105357Y-22161214D01*
X2091071Y-22175500D01*
X2062500Y-22189786D01*
X2005357Y-22189786D01*
X1976786Y-22204072D01*
X1962500Y-22218357D01*
X1948214Y-22246929D01*
X1948214Y-22304072D01*
X1962500Y-22332643D01*
X1976786Y-22346929D01*
X2005357Y-22361214D01*
X2062500Y-22361214D01*
X2091071Y-22346929D01*
X2105357Y-22332643D01*
X2119643Y-22304072D01*
X2119643Y-22246929D01*
X2105357Y-22218357D01*
X2091071Y-22204072D01*
X2062500Y-22189786D01*
X2405357Y-22361214D02*
X2233929Y-22361214D01*
X2319643Y-22361214D02*
X2319643Y-22061214D01*
X2291071Y-22104072D01*
X2262500Y-22132643D01*
X2233929Y-22146929D01*
X2533929Y-22361214D02*
X2533929Y-22161214D01*
X2533929Y-22189786D02*
X2548214Y-22175500D01*
X2576786Y-22161214D01*
X2619643Y-22161214D01*
X2648214Y-22175500D01*
X2662500Y-22204072D01*
X2662500Y-22361214D01*
X2662500Y-22204072D02*
X2676786Y-22175500D01*
X2705357Y-22161214D01*
X2748214Y-22161214D01*
X2776786Y-22175500D01*
X2791071Y-22204072D01*
X2791071Y-22361214D01*
X2933928Y-22361214D02*
X2933928Y-22161214D01*
X2933928Y-22189786D02*
X2948214Y-22175500D01*
X2976786Y-22161214D01*
X3019643Y-22161214D01*
X3048214Y-22175500D01*
X3062500Y-22204072D01*
X3062500Y-22361214D01*
X3062500Y-22204072D02*
X3076786Y-22175500D01*
X3105357Y-22161214D01*
X3148214Y-22161214D01*
X3176786Y-22175500D01*
X3191071Y-22204072D01*
X3191071Y-22361214D01*
X3776786Y-22046929D02*
X3519643Y-22432643D01*
X4162500Y-22061214D02*
X4191071Y-22061214D01*
X4219643Y-22075500D01*
X4233928Y-22089786D01*
X4248214Y-22118357D01*
X4262500Y-22175500D01*
X4262500Y-22246929D01*
X4248214Y-22304072D01*
X4233928Y-22332643D01*
X4219643Y-22346929D01*
X4191071Y-22361214D01*
X4162500Y-22361214D01*
X4133928Y-22346929D01*
X4119643Y-22332643D01*
X4105357Y-22304072D01*
X4091071Y-22246929D01*
X4091071Y-22175500D01*
X4105357Y-22118357D01*
X4119643Y-22089786D01*
X4133928Y-22075500D01*
X4162500Y-22061214D01*
X4391071Y-22332643D02*
X4405357Y-22346929D01*
X4391071Y-22361214D01*
X4376786Y-22346929D01*
X4391071Y-22332643D01*
X4391071Y-22361214D01*
X4691071Y-22361214D02*
X4519643Y-22361214D01*
X4605357Y-22361214D02*
X4605357Y-22061214D01*
X4576786Y-22104072D01*
X4548214Y-22132643D01*
X4519643Y-22146929D01*
X4962500Y-22061214D02*
X4819643Y-22061214D01*
X4805357Y-22204072D01*
X4819643Y-22189786D01*
X4848214Y-22175500D01*
X4919643Y-22175500D01*
X4948214Y-22189786D01*
X4962500Y-22204072D01*
X4976786Y-22232643D01*
X4976786Y-22304072D01*
X4962500Y-22332643D01*
X4948214Y-22346929D01*
X4919643Y-22361214D01*
X4848214Y-22361214D01*
X4819643Y-22346929D01*
X4805357Y-22332643D01*
X5162500Y-22061214D02*
X5191071Y-22061214D01*
X5219643Y-22075500D01*
X5233928Y-22089786D01*
X5248214Y-22118357D01*
X5262500Y-22175500D01*
X5262500Y-22246929D01*
X5248214Y-22304072D01*
X5233928Y-22332643D01*
X5219643Y-22346929D01*
X5191071Y-22361214D01*
X5162500Y-22361214D01*
X5133928Y-22346929D01*
X5119643Y-22332643D01*
X5105357Y-22304072D01*
X5091071Y-22246929D01*
X5091071Y-22175500D01*
X5105357Y-22118357D01*
X5119643Y-22089786D01*
X5133928Y-22075500D01*
X5162500Y-22061214D01*
X5376786Y-22061214D02*
X5376786Y-22118357D01*
X5491071Y-22061214D02*
X5491071Y-22118357D01*
X5933928Y-22475500D02*
X5919643Y-22461214D01*
X5891071Y-22418357D01*
X5876785Y-22389786D01*
X5862500Y-22346929D01*
X5848214Y-22275500D01*
X5848214Y-22218357D01*
X5862500Y-22146929D01*
X5876785Y-22104072D01*
X5891071Y-22075500D01*
X5919643Y-22032643D01*
X5933928Y-22018357D01*
X6176785Y-22061214D02*
X6119643Y-22061214D01*
X6091071Y-22075500D01*
X6076785Y-22089786D01*
X6048214Y-22132643D01*
X6033928Y-22189786D01*
X6033928Y-22304072D01*
X6048214Y-22332643D01*
X6062500Y-22346929D01*
X6091071Y-22361214D01*
X6148214Y-22361214D01*
X6176785Y-22346929D01*
X6191071Y-22332643D01*
X6205357Y-22304072D01*
X6205357Y-22232643D01*
X6191071Y-22204072D01*
X6176785Y-22189786D01*
X6148214Y-22175500D01*
X6091071Y-22175500D01*
X6062500Y-22189786D01*
X6048214Y-22204072D01*
X6033928Y-22232643D01*
X6562500Y-22361214D02*
X6562500Y-22061214D01*
X6691071Y-22361214D02*
X6691071Y-22204072D01*
X6676785Y-22175500D01*
X6648214Y-22161214D01*
X6605357Y-22161214D01*
X6576785Y-22175500D01*
X6562500Y-22189786D01*
X6876785Y-22361214D02*
X6848214Y-22346929D01*
X6833928Y-22332643D01*
X6819643Y-22304072D01*
X6819643Y-22218357D01*
X6833928Y-22189786D01*
X6848214Y-22175500D01*
X6876785Y-22161214D01*
X6919643Y-22161214D01*
X6948214Y-22175500D01*
X6962500Y-22189786D01*
X6976785Y-22218357D01*
X6976785Y-22304072D01*
X6962500Y-22332643D01*
X6948214Y-22346929D01*
X6919643Y-22361214D01*
X6876785Y-22361214D01*
X7148214Y-22361214D02*
X7119643Y-22346929D01*
X7105357Y-22318357D01*
X7105357Y-22061214D01*
X7376786Y-22346929D02*
X7348214Y-22361214D01*
X7291071Y-22361214D01*
X7262500Y-22346929D01*
X7248214Y-22318357D01*
X7248214Y-22204072D01*
X7262500Y-22175500D01*
X7291071Y-22161214D01*
X7348214Y-22161214D01*
X7376786Y-22175500D01*
X7391071Y-22204072D01*
X7391071Y-22232643D01*
X7248214Y-22261214D01*
X7505357Y-22346929D02*
X7533928Y-22361214D01*
X7591071Y-22361214D01*
X7619643Y-22346929D01*
X7633928Y-22318357D01*
X7633928Y-22304072D01*
X7619643Y-22275500D01*
X7591071Y-22261214D01*
X7548214Y-22261214D01*
X7519643Y-22246929D01*
X7505357Y-22218357D01*
X7505357Y-22204072D01*
X7519643Y-22175500D01*
X7548214Y-22161214D01*
X7591071Y-22161214D01*
X7619643Y-22175500D01*
X7733928Y-22475500D02*
X7748214Y-22461214D01*
X7776786Y-22418357D01*
X7791071Y-22389786D01*
X7805357Y-22346929D01*
X7819643Y-22275500D01*
X7819643Y-22218357D01*
X7805357Y-22146929D01*
X7791071Y-22104072D01*
X7776786Y-22075500D01*
X7748214Y-22032643D01*
X7733928Y-22018357D01*
M02*
