M48
; DRILL file {KiCad (6.0.1)} date Wed Jun 15 10:15:08 2022
; FORMAT={-:-/ absolute / inch / decimal}
; #@! TF.CreationDate,2022-06-15T10:15:08-03:00
; #@! TF.GenerationSoftware,Kicad,Pcbnew,(6.0.1)
; #@! TF.FileFunction,Plated,1,2,PTH
FMAT,2
INCH
; #@! TA.AperFunction,Plated,PTH,ViaDrill
T1C0.0060
; #@! TA.AperFunction,Plated,PTH,ViaDrill
T2C0.0120
; #@! TA.AperFunction,Plated,PTH,ComponentDrill
T3C0.0400
; #@! TA.AperFunction,Plated,PTH,ComponentDrill
T4C0.0512
%
G90
G05
T1
X4.9528Y-3.8283
X4.9543Y-3.2701
X5.0087Y-2.4551
X5.0087Y-3.3307
X5.0102Y-3.6984
X5.1043Y-3.248
X5.1445Y-3.7543
X5.1874Y-3.2421
X5.1906Y-4.1161
X5.3319Y-3.2764
X5.3445Y-3.3276
X5.5425Y-3.8835
X5.576Y-3.8673
X5.5843Y-3.9469
X5.5858Y-4.1618
X5.8516Y-3.85
X6.0496Y-3.7657
X6.0583Y-4.1303
X6.098Y-3.6681
X6.1449Y-3.7232
X6.3504Y-3.865
X6.4016Y-3.9016
X6.635Y-2.5406
X6.6382Y-2.928
X6.7374Y-3.2114
T2
X5.0972Y-3.8031
X5.6524Y-3.5933
X5.6524Y-4.1547
X5.7472Y-4.2161
X5.9476Y-4.1776
X5.9496Y-3.8047
X6.5772Y-3.1976
T3
X5.75Y-3.95
X5.75Y-4.05
X5.7957Y-2.1387
X5.8008Y-3.5903
X5.85Y-3.95
X5.85Y-4.05
X5.95Y-3.95
X5.95Y-4.05
X5.9957Y-2.1387
X6.0008Y-3.5903
X6.05Y-3.95
X6.05Y-4.05
X6.15Y-3.95
X6.15Y-4.05
X6.25Y-3.95
X6.25Y-4.05
X6.35Y-3.95
X6.35Y-4.05
X6.45Y-3.95
X6.45Y-4.05
T4
X5.0Y-3.475
X5.0Y-3.575
X5.0043Y-2.0289
X5.03Y-3.9
X5.03Y-4.0
X5.03Y-4.1
X5.03Y-4.2
X5.1043Y-2.0289
X5.175Y-2.825
X5.175Y-2.925
X6.6854Y-2.0244
X6.7823Y-2.8307
X6.7823Y-2.9307
X6.7854Y-2.0244
T0
M30
