%TF.GenerationSoftware,KiCad,Pcbnew,(6.0.1)*%
%TF.CreationDate,2022-03-10T11:24:42-03:00*%
%TF.ProjectId,Vial_Board,5669616c-5f42-46f6-9172-642e6b696361,rev?*%
%TF.SameCoordinates,Original*%
%TF.FileFunction,OtherDrawing,Comment*%
%FSLAX46Y46*%
G04 Gerber Fmt 4.6, Leading zero omitted, Abs format (unit mm)*
G04 Created by KiCad (PCBNEW (6.0.1)) date 2022-03-10 11:24:42*
%MOMM*%
%LPD*%
G01*
G04 APERTURE LIST*
%ADD10C,0.100000*%
%ADD11C,0.150000*%
%ADD12C,0.300000*%
%ADD13C,0.400000*%
%ADD14C,0.177800*%
%ADD15C,0.200000*%
%TA.AperFunction,Profile*%
%ADD16C,0.150000*%
%TD*%
G04 APERTURE END LIST*
D10*
D11*
X177002200Y-166007200D02*
X177002200Y-198007200D01*
X285002200Y-198007200D01*
X285002200Y-166007200D01*
X177002200Y-166007200D01*
D10*
D11*
X10000000Y-10000000D02*
X10000000Y-200007200D01*
X287002200Y-200007200D01*
X287002200Y-10000000D01*
X10000000Y-10000000D01*
D10*
D11*
X12000000Y-12000000D02*
X12000000Y-198007200D01*
X285002200Y-198007200D01*
X285002200Y-12000000D01*
X12000000Y-12000000D01*
D10*
D11*
X60000000Y-12000000D02*
X60000000Y-10000000D01*
D10*
D11*
X110000000Y-12000000D02*
X110000000Y-10000000D01*
D10*
D11*
X160000000Y-12000000D02*
X160000000Y-10000000D01*
D10*
D11*
X210000000Y-12000000D02*
X210000000Y-10000000D01*
D10*
D11*
X260000000Y-12000000D02*
X260000000Y-10000000D01*
D10*
D11*
X36065476Y-11588095D02*
X35322619Y-11588095D01*
X35694047Y-11588095D02*
X35694047Y-10288095D01*
X35570238Y-10473809D01*
X35446428Y-10597619D01*
X35322619Y-10659523D01*
D10*
D11*
X85322619Y-10411904D02*
X85384523Y-10350000D01*
X85508333Y-10288095D01*
X85817857Y-10288095D01*
X85941666Y-10350000D01*
X86003571Y-10411904D01*
X86065476Y-10535714D01*
X86065476Y-10659523D01*
X86003571Y-10845238D01*
X85260714Y-11588095D01*
X86065476Y-11588095D01*
D10*
D11*
X135260714Y-10288095D02*
X136065476Y-10288095D01*
X135632142Y-10783333D01*
X135817857Y-10783333D01*
X135941666Y-10845238D01*
X136003571Y-10907142D01*
X136065476Y-11030952D01*
X136065476Y-11340476D01*
X136003571Y-11464285D01*
X135941666Y-11526190D01*
X135817857Y-11588095D01*
X135446428Y-11588095D01*
X135322619Y-11526190D01*
X135260714Y-11464285D01*
D10*
D11*
X185941666Y-10721428D02*
X185941666Y-11588095D01*
X185632142Y-10226190D02*
X185322619Y-11154761D01*
X186127380Y-11154761D01*
D10*
D11*
X236003571Y-10288095D02*
X235384523Y-10288095D01*
X235322619Y-10907142D01*
X235384523Y-10845238D01*
X235508333Y-10783333D01*
X235817857Y-10783333D01*
X235941666Y-10845238D01*
X236003571Y-10907142D01*
X236065476Y-11030952D01*
X236065476Y-11340476D01*
X236003571Y-11464285D01*
X235941666Y-11526190D01*
X235817857Y-11588095D01*
X235508333Y-11588095D01*
X235384523Y-11526190D01*
X235322619Y-11464285D01*
D10*
D11*
X285941666Y-10288095D02*
X285694047Y-10288095D01*
X285570238Y-10350000D01*
X285508333Y-10411904D01*
X285384523Y-10597619D01*
X285322619Y-10845238D01*
X285322619Y-11340476D01*
X285384523Y-11464285D01*
X285446428Y-11526190D01*
X285570238Y-11588095D01*
X285817857Y-11588095D01*
X285941666Y-11526190D01*
X286003571Y-11464285D01*
X286065476Y-11340476D01*
X286065476Y-11030952D01*
X286003571Y-10907142D01*
X285941666Y-10845238D01*
X285817857Y-10783333D01*
X285570238Y-10783333D01*
X285446428Y-10845238D01*
X285384523Y-10907142D01*
X285322619Y-11030952D01*
D10*
D11*
X60000000Y-198007200D02*
X60000000Y-200007200D01*
D10*
D11*
X110000000Y-198007200D02*
X110000000Y-200007200D01*
D10*
D11*
X160000000Y-198007200D02*
X160000000Y-200007200D01*
D10*
D11*
X210000000Y-198007200D02*
X210000000Y-200007200D01*
D10*
D11*
X260000000Y-198007200D02*
X260000000Y-200007200D01*
D10*
D11*
X36065476Y-199595295D02*
X35322619Y-199595295D01*
X35694047Y-199595295D02*
X35694047Y-198295295D01*
X35570238Y-198481009D01*
X35446428Y-198604819D01*
X35322619Y-198666723D01*
D10*
D11*
X85322619Y-198419104D02*
X85384523Y-198357200D01*
X85508333Y-198295295D01*
X85817857Y-198295295D01*
X85941666Y-198357200D01*
X86003571Y-198419104D01*
X86065476Y-198542914D01*
X86065476Y-198666723D01*
X86003571Y-198852438D01*
X85260714Y-199595295D01*
X86065476Y-199595295D01*
D10*
D11*
X135260714Y-198295295D02*
X136065476Y-198295295D01*
X135632142Y-198790533D01*
X135817857Y-198790533D01*
X135941666Y-198852438D01*
X136003571Y-198914342D01*
X136065476Y-199038152D01*
X136065476Y-199347676D01*
X136003571Y-199471485D01*
X135941666Y-199533390D01*
X135817857Y-199595295D01*
X135446428Y-199595295D01*
X135322619Y-199533390D01*
X135260714Y-199471485D01*
D10*
D11*
X185941666Y-198728628D02*
X185941666Y-199595295D01*
X185632142Y-198233390D02*
X185322619Y-199161961D01*
X186127380Y-199161961D01*
D10*
D11*
X236003571Y-198295295D02*
X235384523Y-198295295D01*
X235322619Y-198914342D01*
X235384523Y-198852438D01*
X235508333Y-198790533D01*
X235817857Y-198790533D01*
X235941666Y-198852438D01*
X236003571Y-198914342D01*
X236065476Y-199038152D01*
X236065476Y-199347676D01*
X236003571Y-199471485D01*
X235941666Y-199533390D01*
X235817857Y-199595295D01*
X235508333Y-199595295D01*
X235384523Y-199533390D01*
X235322619Y-199471485D01*
D10*
D11*
X285941666Y-198295295D02*
X285694047Y-198295295D01*
X285570238Y-198357200D01*
X285508333Y-198419104D01*
X285384523Y-198604819D01*
X285322619Y-198852438D01*
X285322619Y-199347676D01*
X285384523Y-199471485D01*
X285446428Y-199533390D01*
X285570238Y-199595295D01*
X285817857Y-199595295D01*
X285941666Y-199533390D01*
X286003571Y-199471485D01*
X286065476Y-199347676D01*
X286065476Y-199038152D01*
X286003571Y-198914342D01*
X285941666Y-198852438D01*
X285817857Y-198790533D01*
X285570238Y-198790533D01*
X285446428Y-198852438D01*
X285384523Y-198914342D01*
X285322619Y-199038152D01*
D10*
D11*
X10000000Y-60000000D02*
X12000000Y-60000000D01*
D10*
D11*
X10000000Y-110000000D02*
X12000000Y-110000000D01*
D10*
D11*
X10000000Y-160000000D02*
X12000000Y-160000000D01*
D10*
D11*
X10690476Y-35216666D02*
X11309523Y-35216666D01*
X10566666Y-35588095D02*
X11000000Y-34288095D01*
X11433333Y-35588095D01*
D10*
D11*
X11092857Y-84907142D02*
X11278571Y-84969047D01*
X11340476Y-85030952D01*
X11402380Y-85154761D01*
X11402380Y-85340476D01*
X11340476Y-85464285D01*
X11278571Y-85526190D01*
X11154761Y-85588095D01*
X10659523Y-85588095D01*
X10659523Y-84288095D01*
X11092857Y-84288095D01*
X11216666Y-84350000D01*
X11278571Y-84411904D01*
X11340476Y-84535714D01*
X11340476Y-84659523D01*
X11278571Y-84783333D01*
X11216666Y-84845238D01*
X11092857Y-84907142D01*
X10659523Y-84907142D01*
D10*
D11*
X11402380Y-135464285D02*
X11340476Y-135526190D01*
X11154761Y-135588095D01*
X11030952Y-135588095D01*
X10845238Y-135526190D01*
X10721428Y-135402380D01*
X10659523Y-135278571D01*
X10597619Y-135030952D01*
X10597619Y-134845238D01*
X10659523Y-134597619D01*
X10721428Y-134473809D01*
X10845238Y-134350000D01*
X11030952Y-134288095D01*
X11154761Y-134288095D01*
X11340476Y-134350000D01*
X11402380Y-134411904D01*
D10*
D11*
X10659523Y-185588095D02*
X10659523Y-184288095D01*
X10969047Y-184288095D01*
X11154761Y-184350000D01*
X11278571Y-184473809D01*
X11340476Y-184597619D01*
X11402380Y-184845238D01*
X11402380Y-185030952D01*
X11340476Y-185278571D01*
X11278571Y-185402380D01*
X11154761Y-185526190D01*
X10969047Y-185588095D01*
X10659523Y-185588095D01*
D10*
D11*
X287002200Y-60000000D02*
X285002200Y-60000000D01*
D10*
D11*
X287002200Y-110000000D02*
X285002200Y-110000000D01*
D10*
D11*
X287002200Y-160000000D02*
X285002200Y-160000000D01*
D10*
D11*
X285692676Y-35216666D02*
X286311723Y-35216666D01*
X285568866Y-35588095D02*
X286002200Y-34288095D01*
X286435533Y-35588095D01*
D10*
D11*
X286095057Y-84907142D02*
X286280771Y-84969047D01*
X286342676Y-85030952D01*
X286404580Y-85154761D01*
X286404580Y-85340476D01*
X286342676Y-85464285D01*
X286280771Y-85526190D01*
X286156961Y-85588095D01*
X285661723Y-85588095D01*
X285661723Y-84288095D01*
X286095057Y-84288095D01*
X286218866Y-84350000D01*
X286280771Y-84411904D01*
X286342676Y-84535714D01*
X286342676Y-84659523D01*
X286280771Y-84783333D01*
X286218866Y-84845238D01*
X286095057Y-84907142D01*
X285661723Y-84907142D01*
D10*
D11*
X286404580Y-135464285D02*
X286342676Y-135526190D01*
X286156961Y-135588095D01*
X286033152Y-135588095D01*
X285847438Y-135526190D01*
X285723628Y-135402380D01*
X285661723Y-135278571D01*
X285599819Y-135030952D01*
X285599819Y-134845238D01*
X285661723Y-134597619D01*
X285723628Y-134473809D01*
X285847438Y-134350000D01*
X286033152Y-134288095D01*
X286156961Y-134288095D01*
X286342676Y-134350000D01*
X286404580Y-134411904D01*
D10*
D11*
X285661723Y-185588095D02*
X285661723Y-184288095D01*
X285971247Y-184288095D01*
X286156961Y-184350000D01*
X286280771Y-184473809D01*
X286342676Y-184597619D01*
X286404580Y-184845238D01*
X286404580Y-185030952D01*
X286342676Y-185278571D01*
X286280771Y-185402380D01*
X286156961Y-185526190D01*
X285971247Y-185588095D01*
X285661723Y-185588095D01*
D10*
D11*
X200434342Y-193785771D02*
X200434342Y-192285771D01*
X200791485Y-192285771D01*
X201005771Y-192357200D01*
X201148628Y-192500057D01*
X201220057Y-192642914D01*
X201291485Y-192928628D01*
X201291485Y-193142914D01*
X201220057Y-193428628D01*
X201148628Y-193571485D01*
X201005771Y-193714342D01*
X200791485Y-193785771D01*
X200434342Y-193785771D01*
X202577200Y-193785771D02*
X202577200Y-193000057D01*
X202505771Y-192857200D01*
X202362914Y-192785771D01*
X202077200Y-192785771D01*
X201934342Y-192857200D01*
X202577200Y-193714342D02*
X202434342Y-193785771D01*
X202077200Y-193785771D01*
X201934342Y-193714342D01*
X201862914Y-193571485D01*
X201862914Y-193428628D01*
X201934342Y-193285771D01*
X202077200Y-193214342D01*
X202434342Y-193214342D01*
X202577200Y-193142914D01*
X203077200Y-192785771D02*
X203648628Y-192785771D01*
X203291485Y-192285771D02*
X203291485Y-193571485D01*
X203362914Y-193714342D01*
X203505771Y-193785771D01*
X203648628Y-193785771D01*
X204720057Y-193714342D02*
X204577200Y-193785771D01*
X204291485Y-193785771D01*
X204148628Y-193714342D01*
X204077200Y-193571485D01*
X204077200Y-193000057D01*
X204148628Y-192857200D01*
X204291485Y-192785771D01*
X204577200Y-192785771D01*
X204720057Y-192857200D01*
X204791485Y-193000057D01*
X204791485Y-193142914D01*
X204077200Y-193285771D01*
X205434342Y-193642914D02*
X205505771Y-193714342D01*
X205434342Y-193785771D01*
X205362914Y-193714342D01*
X205434342Y-193642914D01*
X205434342Y-193785771D01*
X205434342Y-192857200D02*
X205505771Y-192928628D01*
X205434342Y-193000057D01*
X205362914Y-192928628D01*
X205434342Y-192857200D01*
X205434342Y-193000057D01*
D10*
D11*
X177002200Y-194507200D02*
X285002200Y-194507200D01*
D10*
D11*
X178434342Y-196585771D02*
X178434342Y-195085771D01*
X179291485Y-196585771D02*
X178648628Y-195728628D01*
X179291485Y-195085771D02*
X178434342Y-195942914D01*
X179934342Y-196585771D02*
X179934342Y-195585771D01*
X179934342Y-195085771D02*
X179862914Y-195157200D01*
X179934342Y-195228628D01*
X180005771Y-195157200D01*
X179934342Y-195085771D01*
X179934342Y-195228628D01*
X181505771Y-196442914D02*
X181434342Y-196514342D01*
X181220057Y-196585771D01*
X181077200Y-196585771D01*
X180862914Y-196514342D01*
X180720057Y-196371485D01*
X180648628Y-196228628D01*
X180577200Y-195942914D01*
X180577200Y-195728628D01*
X180648628Y-195442914D01*
X180720057Y-195300057D01*
X180862914Y-195157200D01*
X181077200Y-195085771D01*
X181220057Y-195085771D01*
X181434342Y-195157200D01*
X181505771Y-195228628D01*
X182791485Y-196585771D02*
X182791485Y-195800057D01*
X182720057Y-195657200D01*
X182577200Y-195585771D01*
X182291485Y-195585771D01*
X182148628Y-195657200D01*
X182791485Y-196514342D02*
X182648628Y-196585771D01*
X182291485Y-196585771D01*
X182148628Y-196514342D01*
X182077200Y-196371485D01*
X182077200Y-196228628D01*
X182148628Y-196085771D01*
X182291485Y-196014342D01*
X182648628Y-196014342D01*
X182791485Y-195942914D01*
X184148628Y-196585771D02*
X184148628Y-195085771D01*
X184148628Y-196514342D02*
X184005771Y-196585771D01*
X183720057Y-196585771D01*
X183577200Y-196514342D01*
X183505771Y-196442914D01*
X183434342Y-196300057D01*
X183434342Y-195871485D01*
X183505771Y-195728628D01*
X183577200Y-195657200D01*
X183720057Y-195585771D01*
X184005771Y-195585771D01*
X184148628Y-195657200D01*
X186005771Y-195800057D02*
X186505771Y-195800057D01*
X186720057Y-196585771D02*
X186005771Y-196585771D01*
X186005771Y-195085771D01*
X186720057Y-195085771D01*
X187362914Y-196442914D02*
X187434342Y-196514342D01*
X187362914Y-196585771D01*
X187291485Y-196514342D01*
X187362914Y-196442914D01*
X187362914Y-196585771D01*
X188077200Y-196585771D02*
X188077200Y-195085771D01*
X188434342Y-195085771D01*
X188648628Y-195157200D01*
X188791485Y-195300057D01*
X188862914Y-195442914D01*
X188934342Y-195728628D01*
X188934342Y-195942914D01*
X188862914Y-196228628D01*
X188791485Y-196371485D01*
X188648628Y-196514342D01*
X188434342Y-196585771D01*
X188077200Y-196585771D01*
X189577200Y-196442914D02*
X189648628Y-196514342D01*
X189577200Y-196585771D01*
X189505771Y-196514342D01*
X189577200Y-196442914D01*
X189577200Y-196585771D01*
X190220057Y-196157200D02*
X190934342Y-196157200D01*
X190077200Y-196585771D02*
X190577200Y-195085771D01*
X191077200Y-196585771D01*
X191577200Y-196442914D02*
X191648628Y-196514342D01*
X191577200Y-196585771D01*
X191505771Y-196514342D01*
X191577200Y-196442914D01*
X191577200Y-196585771D01*
X194577200Y-195585771D02*
X194577200Y-197085771D01*
X194577200Y-195657200D02*
X194720057Y-195585771D01*
X195005771Y-195585771D01*
X195148628Y-195657200D01*
X195220057Y-195728628D01*
X195291485Y-195871485D01*
X195291485Y-196300057D01*
X195220057Y-196442914D01*
X195148628Y-196514342D01*
X195005771Y-196585771D01*
X194720057Y-196585771D01*
X194577200Y-196514342D01*
X196577200Y-196514342D02*
X196434342Y-196585771D01*
X196148628Y-196585771D01*
X196005771Y-196514342D01*
X195934342Y-196442914D01*
X195862914Y-196300057D01*
X195862914Y-195871485D01*
X195934342Y-195728628D01*
X196005771Y-195657200D01*
X196148628Y-195585771D01*
X196434342Y-195585771D01*
X196577200Y-195657200D01*
X197220057Y-196585771D02*
X197220057Y-195085771D01*
X197220057Y-195657200D02*
X197362914Y-195585771D01*
X197648628Y-195585771D01*
X197791485Y-195657200D01*
X197862914Y-195728628D01*
X197934342Y-195871485D01*
X197934342Y-196300057D01*
X197862914Y-196442914D01*
X197791485Y-196514342D01*
X197648628Y-196585771D01*
X197362914Y-196585771D01*
X197220057Y-196514342D01*
X198577200Y-195585771D02*
X198577200Y-196585771D01*
X198577200Y-195728628D02*
X198648628Y-195657200D01*
X198791485Y-195585771D01*
X199005771Y-195585771D01*
X199148628Y-195657200D01*
X199220057Y-195800057D01*
X199220057Y-196585771D01*
X200505771Y-196514342D02*
X200362914Y-196585771D01*
X200077200Y-196585771D01*
X199934342Y-196514342D01*
X199862914Y-196371485D01*
X199862914Y-195800057D01*
X199934342Y-195657200D01*
X200077200Y-195585771D01*
X200362914Y-195585771D01*
X200505771Y-195657200D01*
X200577200Y-195800057D01*
X200577200Y-195942914D01*
X199862914Y-196085771D01*
X201077200Y-195585771D02*
X201362914Y-196585771D01*
X201648628Y-195871485D01*
X201934342Y-196585771D01*
X202220057Y-195585771D01*
X204362914Y-197157200D02*
X204291485Y-197085771D01*
X204148628Y-196871485D01*
X204077200Y-196728628D01*
X204005771Y-196514342D01*
X203934342Y-196157200D01*
X203934342Y-195871485D01*
X204005771Y-195514342D01*
X204077200Y-195300057D01*
X204148628Y-195157200D01*
X204291485Y-194942914D01*
X204362914Y-194871485D01*
X205577200Y-195085771D02*
X205291485Y-195085771D01*
X205148628Y-195157200D01*
X205077200Y-195228628D01*
X204934342Y-195442914D01*
X204862914Y-195728628D01*
X204862914Y-196300057D01*
X204934342Y-196442914D01*
X205005771Y-196514342D01*
X205148628Y-196585771D01*
X205434342Y-196585771D01*
X205577200Y-196514342D01*
X205648628Y-196442914D01*
X205720057Y-196300057D01*
X205720057Y-195942914D01*
X205648628Y-195800057D01*
X205577200Y-195728628D01*
X205434342Y-195657200D01*
X205148628Y-195657200D01*
X205005771Y-195728628D01*
X204934342Y-195800057D01*
X204862914Y-195942914D01*
X206362914Y-196442914D02*
X206434342Y-196514342D01*
X206362914Y-196585771D01*
X206291485Y-196514342D01*
X206362914Y-196442914D01*
X206362914Y-196585771D01*
X207362914Y-195085771D02*
X207505771Y-195085771D01*
X207648628Y-195157200D01*
X207720057Y-195228628D01*
X207791485Y-195371485D01*
X207862914Y-195657200D01*
X207862914Y-196014342D01*
X207791485Y-196300057D01*
X207720057Y-196442914D01*
X207648628Y-196514342D01*
X207505771Y-196585771D01*
X207362914Y-196585771D01*
X207220057Y-196514342D01*
X207148628Y-196442914D01*
X207077200Y-196300057D01*
X207005771Y-196014342D01*
X207005771Y-195657200D01*
X207077200Y-195371485D01*
X207148628Y-195228628D01*
X207220057Y-195157200D01*
X207362914Y-195085771D01*
X208505771Y-196442914D02*
X208577200Y-196514342D01*
X208505771Y-196585771D01*
X208434342Y-196514342D01*
X208505771Y-196442914D01*
X208505771Y-196585771D01*
X210005771Y-196585771D02*
X209148628Y-196585771D01*
X209577200Y-196585771D02*
X209577200Y-195085771D01*
X209434342Y-195300057D01*
X209291485Y-195442914D01*
X209148628Y-195514342D01*
X210505771Y-197157200D02*
X210577200Y-197085771D01*
X210720057Y-196871485D01*
X210791485Y-196728628D01*
X210862914Y-196514342D01*
X210934342Y-196157200D01*
X210934342Y-195871485D01*
X210862914Y-195514342D01*
X210791485Y-195300057D01*
X210720057Y-195157200D01*
X210577200Y-194942914D01*
X210505771Y-194871485D01*
D10*
D11*
X177002200Y-191507200D02*
X285002200Y-191507200D01*
D10*
D12*
X264411485Y-193785771D02*
X263911485Y-193071485D01*
X263554342Y-193785771D02*
X263554342Y-192285771D01*
X264125771Y-192285771D01*
X264268628Y-192357200D01*
X264340057Y-192428628D01*
X264411485Y-192571485D01*
X264411485Y-192785771D01*
X264340057Y-192928628D01*
X264268628Y-193000057D01*
X264125771Y-193071485D01*
X263554342Y-193071485D01*
X265625771Y-193714342D02*
X265482914Y-193785771D01*
X265197200Y-193785771D01*
X265054342Y-193714342D01*
X264982914Y-193571485D01*
X264982914Y-193000057D01*
X265054342Y-192857200D01*
X265197200Y-192785771D01*
X265482914Y-192785771D01*
X265625771Y-192857200D01*
X265697200Y-193000057D01*
X265697200Y-193142914D01*
X264982914Y-193285771D01*
X266197200Y-192785771D02*
X266554342Y-193785771D01*
X266911485Y-192785771D01*
X267482914Y-193642914D02*
X267554342Y-193714342D01*
X267482914Y-193785771D01*
X267411485Y-193714342D01*
X267482914Y-193642914D01*
X267482914Y-193785771D01*
X267482914Y-192857200D02*
X267554342Y-192928628D01*
X267482914Y-193000057D01*
X267411485Y-192928628D01*
X267482914Y-192857200D01*
X267482914Y-193000057D01*
D10*
D11*
X178362914Y-193714342D02*
X178577200Y-193785771D01*
X178934342Y-193785771D01*
X179077200Y-193714342D01*
X179148628Y-193642914D01*
X179220057Y-193500057D01*
X179220057Y-193357200D01*
X179148628Y-193214342D01*
X179077200Y-193142914D01*
X178934342Y-193071485D01*
X178648628Y-193000057D01*
X178505771Y-192928628D01*
X178434342Y-192857200D01*
X178362914Y-192714342D01*
X178362914Y-192571485D01*
X178434342Y-192428628D01*
X178505771Y-192357200D01*
X178648628Y-192285771D01*
X179005771Y-192285771D01*
X179220057Y-192357200D01*
X179862914Y-193785771D02*
X179862914Y-192785771D01*
X179862914Y-192285771D02*
X179791485Y-192357200D01*
X179862914Y-192428628D01*
X179934342Y-192357200D01*
X179862914Y-192285771D01*
X179862914Y-192428628D01*
X180434342Y-192785771D02*
X181220057Y-192785771D01*
X180434342Y-193785771D01*
X181220057Y-193785771D01*
X182362914Y-193714342D02*
X182220057Y-193785771D01*
X181934342Y-193785771D01*
X181791485Y-193714342D01*
X181720057Y-193571485D01*
X181720057Y-193000057D01*
X181791485Y-192857200D01*
X181934342Y-192785771D01*
X182220057Y-192785771D01*
X182362914Y-192857200D01*
X182434342Y-193000057D01*
X182434342Y-193142914D01*
X181720057Y-193285771D01*
X183077200Y-193642914D02*
X183148628Y-193714342D01*
X183077200Y-193785771D01*
X183005771Y-193714342D01*
X183077200Y-193642914D01*
X183077200Y-193785771D01*
X183077200Y-192857200D02*
X183148628Y-192928628D01*
X183077200Y-193000057D01*
X183005771Y-192928628D01*
X183077200Y-192857200D01*
X183077200Y-193000057D01*
X184862914Y-193357200D02*
X185577200Y-193357200D01*
X184720057Y-193785771D02*
X185220057Y-192285771D01*
X185720057Y-193785771D01*
X186862914Y-192785771D02*
X186862914Y-193785771D01*
X186505771Y-192214342D02*
X186148628Y-193285771D01*
X187077200Y-193285771D01*
D10*
D11*
X263434342Y-196585771D02*
X263434342Y-195085771D01*
X264791485Y-196585771D02*
X264791485Y-195085771D01*
X264791485Y-196514342D02*
X264648628Y-196585771D01*
X264362914Y-196585771D01*
X264220057Y-196514342D01*
X264148628Y-196442914D01*
X264077200Y-196300057D01*
X264077200Y-195871485D01*
X264148628Y-195728628D01*
X264220057Y-195657200D01*
X264362914Y-195585771D01*
X264648628Y-195585771D01*
X264791485Y-195657200D01*
X265505771Y-196442914D02*
X265577200Y-196514342D01*
X265505771Y-196585771D01*
X265434342Y-196514342D01*
X265505771Y-196442914D01*
X265505771Y-196585771D01*
X265505771Y-195657200D02*
X265577200Y-195728628D01*
X265505771Y-195800057D01*
X265434342Y-195728628D01*
X265505771Y-195657200D01*
X265505771Y-195800057D01*
X268148628Y-196585771D02*
X267291485Y-196585771D01*
X267720057Y-196585771D02*
X267720057Y-195085771D01*
X267577200Y-195300057D01*
X267434342Y-195442914D01*
X267291485Y-195514342D01*
X269862914Y-195014342D02*
X268577200Y-196942914D01*
X271148628Y-196585771D02*
X270291485Y-196585771D01*
X270720057Y-196585771D02*
X270720057Y-195085771D01*
X270577200Y-195300057D01*
X270434342Y-195442914D01*
X270291485Y-195514342D01*
D10*
D11*
X177002200Y-187507200D02*
X285002200Y-187507200D01*
D10*
D13*
X178714580Y-188211961D02*
X179857438Y-188211961D01*
X179036009Y-190211961D02*
X179286009Y-188211961D01*
X180274104Y-190211961D02*
X180440771Y-188878628D01*
X180524104Y-188211961D02*
X180416961Y-188307200D01*
X180500295Y-188402438D01*
X180607438Y-188307200D01*
X180524104Y-188211961D01*
X180500295Y-188402438D01*
X181107438Y-188878628D02*
X181869342Y-188878628D01*
X181476485Y-188211961D02*
X181262200Y-189926247D01*
X181333628Y-190116723D01*
X181512200Y-190211961D01*
X181702676Y-190211961D01*
X182655057Y-190211961D02*
X182476485Y-190116723D01*
X182405057Y-189926247D01*
X182619342Y-188211961D01*
X184190771Y-190116723D02*
X183988390Y-190211961D01*
X183607438Y-190211961D01*
X183428866Y-190116723D01*
X183357438Y-189926247D01*
X183452676Y-189164342D01*
X183571723Y-188973866D01*
X183774104Y-188878628D01*
X184155057Y-188878628D01*
X184333628Y-188973866D01*
X184405057Y-189164342D01*
X184381247Y-189354819D01*
X183405057Y-189545295D01*
X185155057Y-190021485D02*
X185238390Y-190116723D01*
X185131247Y-190211961D01*
X185047914Y-190116723D01*
X185155057Y-190021485D01*
X185131247Y-190211961D01*
X185286009Y-188973866D02*
X185369342Y-189069104D01*
X185262200Y-189164342D01*
X185178866Y-189069104D01*
X185286009Y-188973866D01*
X185262200Y-189164342D01*
D10*
D11*
X178934342Y-185600057D02*
X178434342Y-185600057D01*
X178434342Y-186385771D02*
X178434342Y-184885771D01*
X179148628Y-184885771D01*
X179720057Y-186385771D02*
X179720057Y-185385771D01*
X179720057Y-184885771D02*
X179648628Y-184957200D01*
X179720057Y-185028628D01*
X179791485Y-184957200D01*
X179720057Y-184885771D01*
X179720057Y-185028628D01*
X180648628Y-186385771D02*
X180505771Y-186314342D01*
X180434342Y-186171485D01*
X180434342Y-184885771D01*
X181791485Y-186314342D02*
X181648628Y-186385771D01*
X181362914Y-186385771D01*
X181220057Y-186314342D01*
X181148628Y-186171485D01*
X181148628Y-185600057D01*
X181220057Y-185457200D01*
X181362914Y-185385771D01*
X181648628Y-185385771D01*
X181791485Y-185457200D01*
X181862914Y-185600057D01*
X181862914Y-185742914D01*
X181148628Y-185885771D01*
X182505771Y-186242914D02*
X182577200Y-186314342D01*
X182505771Y-186385771D01*
X182434342Y-186314342D01*
X182505771Y-186242914D01*
X182505771Y-186385771D01*
X182505771Y-185457200D02*
X182577200Y-185528628D01*
X182505771Y-185600057D01*
X182434342Y-185528628D01*
X182505771Y-185457200D01*
X182505771Y-185600057D01*
X184148628Y-184885771D02*
X184648628Y-186385771D01*
X185148628Y-184885771D01*
X185648628Y-186385771D02*
X185648628Y-185385771D01*
X185648628Y-184885771D02*
X185577200Y-184957200D01*
X185648628Y-185028628D01*
X185720057Y-184957200D01*
X185648628Y-184885771D01*
X185648628Y-185028628D01*
X187005771Y-186385771D02*
X187005771Y-185600057D01*
X186934342Y-185457200D01*
X186791485Y-185385771D01*
X186505771Y-185385771D01*
X186362914Y-185457200D01*
X187005771Y-186314342D02*
X186862914Y-186385771D01*
X186505771Y-186385771D01*
X186362914Y-186314342D01*
X186291485Y-186171485D01*
X186291485Y-186028628D01*
X186362914Y-185885771D01*
X186505771Y-185814342D01*
X186862914Y-185814342D01*
X187005771Y-185742914D01*
X187934342Y-186385771D02*
X187791485Y-186314342D01*
X187720057Y-186171485D01*
X187720057Y-184885771D01*
X188148628Y-186528628D02*
X189291485Y-186528628D01*
X190148628Y-185600057D02*
X190362914Y-185671485D01*
X190434342Y-185742914D01*
X190505771Y-185885771D01*
X190505771Y-186100057D01*
X190434342Y-186242914D01*
X190362914Y-186314342D01*
X190220057Y-186385771D01*
X189648628Y-186385771D01*
X189648628Y-184885771D01*
X190148628Y-184885771D01*
X190291485Y-184957200D01*
X190362914Y-185028628D01*
X190434342Y-185171485D01*
X190434342Y-185314342D01*
X190362914Y-185457200D01*
X190291485Y-185528628D01*
X190148628Y-185600057D01*
X189648628Y-185600057D01*
X191362914Y-186385771D02*
X191220057Y-186314342D01*
X191148628Y-186242914D01*
X191077200Y-186100057D01*
X191077200Y-185671485D01*
X191148628Y-185528628D01*
X191220057Y-185457200D01*
X191362914Y-185385771D01*
X191577200Y-185385771D01*
X191720057Y-185457200D01*
X191791485Y-185528628D01*
X191862914Y-185671485D01*
X191862914Y-186100057D01*
X191791485Y-186242914D01*
X191720057Y-186314342D01*
X191577200Y-186385771D01*
X191362914Y-186385771D01*
X193148628Y-186385771D02*
X193148628Y-185600057D01*
X193077200Y-185457200D01*
X192934342Y-185385771D01*
X192648628Y-185385771D01*
X192505771Y-185457200D01*
X193148628Y-186314342D02*
X193005771Y-186385771D01*
X192648628Y-186385771D01*
X192505771Y-186314342D01*
X192434342Y-186171485D01*
X192434342Y-186028628D01*
X192505771Y-185885771D01*
X192648628Y-185814342D01*
X193005771Y-185814342D01*
X193148628Y-185742914D01*
X193862914Y-186385771D02*
X193862914Y-185385771D01*
X193862914Y-185671485D02*
X193934342Y-185528628D01*
X194005771Y-185457200D01*
X194148628Y-185385771D01*
X194291485Y-185385771D01*
X195434342Y-186385771D02*
X195434342Y-184885771D01*
X195434342Y-186314342D02*
X195291485Y-186385771D01*
X195005771Y-186385771D01*
X194862914Y-186314342D01*
X194791485Y-186242914D01*
X194720057Y-186100057D01*
X194720057Y-185671485D01*
X194791485Y-185528628D01*
X194862914Y-185457200D01*
X195005771Y-185385771D01*
X195291485Y-185385771D01*
X195434342Y-185457200D01*
X196148628Y-186242914D02*
X196220057Y-186314342D01*
X196148628Y-186385771D01*
X196077200Y-186314342D01*
X196148628Y-186242914D01*
X196148628Y-186385771D01*
X196862914Y-186385771D02*
X196862914Y-184885771D01*
X197005771Y-185814342D02*
X197434342Y-186385771D01*
X197434342Y-185385771D02*
X196862914Y-185957200D01*
X198077200Y-186385771D02*
X198077200Y-185385771D01*
X198077200Y-184885771D02*
X198005771Y-184957200D01*
X198077200Y-185028628D01*
X198148628Y-184957200D01*
X198077200Y-184885771D01*
X198077200Y-185028628D01*
X199434342Y-186314342D02*
X199291485Y-186385771D01*
X199005771Y-186385771D01*
X198862914Y-186314342D01*
X198791485Y-186242914D01*
X198720057Y-186100057D01*
X198720057Y-185671485D01*
X198791485Y-185528628D01*
X198862914Y-185457200D01*
X199005771Y-185385771D01*
X199291485Y-185385771D01*
X199434342Y-185457200D01*
X200720057Y-186385771D02*
X200720057Y-185600057D01*
X200648628Y-185457200D01*
X200505771Y-185385771D01*
X200220057Y-185385771D01*
X200077200Y-185457200D01*
X200720057Y-186314342D02*
X200577200Y-186385771D01*
X200220057Y-186385771D01*
X200077200Y-186314342D01*
X200005771Y-186171485D01*
X200005771Y-186028628D01*
X200077200Y-185885771D01*
X200220057Y-185814342D01*
X200577200Y-185814342D01*
X200720057Y-185742914D01*
X202077200Y-186385771D02*
X202077200Y-184885771D01*
X202077200Y-186314342D02*
X201934342Y-186385771D01*
X201648628Y-186385771D01*
X201505771Y-186314342D01*
X201434342Y-186242914D01*
X201362914Y-186100057D01*
X201362914Y-185671485D01*
X201434342Y-185528628D01*
X201505771Y-185457200D01*
X201648628Y-185385771D01*
X201934342Y-185385771D01*
X202077200Y-185457200D01*
X202434342Y-186528628D02*
X203577200Y-186528628D01*
X203934342Y-185385771D02*
X203934342Y-186885771D01*
X203934342Y-185457200D02*
X204077200Y-185385771D01*
X204362914Y-185385771D01*
X204505771Y-185457200D01*
X204577200Y-185528628D01*
X204648628Y-185671485D01*
X204648628Y-186100057D01*
X204577200Y-186242914D01*
X204505771Y-186314342D01*
X204362914Y-186385771D01*
X204077200Y-186385771D01*
X203934342Y-186314342D01*
X205934342Y-186314342D02*
X205791485Y-186385771D01*
X205505771Y-186385771D01*
X205362914Y-186314342D01*
X205291485Y-186242914D01*
X205220057Y-186100057D01*
X205220057Y-185671485D01*
X205291485Y-185528628D01*
X205362914Y-185457200D01*
X205505771Y-185385771D01*
X205791485Y-185385771D01*
X205934342Y-185457200D01*
X206577200Y-186385771D02*
X206577200Y-184885771D01*
X206577200Y-185457200D02*
X206720057Y-185385771D01*
X207005771Y-185385771D01*
X207148628Y-185457200D01*
X207220057Y-185528628D01*
X207291485Y-185671485D01*
X207291485Y-186100057D01*
X207220057Y-186242914D01*
X207148628Y-186314342D01*
X207005771Y-186385771D01*
X206720057Y-186385771D01*
X206577200Y-186314342D01*
D10*
D11*
X177002200Y-181507200D02*
X285002200Y-181507200D01*
D10*
D11*
X178362914Y-183614342D02*
X178577200Y-183685771D01*
X178934342Y-183685771D01*
X179077200Y-183614342D01*
X179148628Y-183542914D01*
X179220057Y-183400057D01*
X179220057Y-183257200D01*
X179148628Y-183114342D01*
X179077200Y-183042914D01*
X178934342Y-182971485D01*
X178648628Y-182900057D01*
X178505771Y-182828628D01*
X178434342Y-182757200D01*
X178362914Y-182614342D01*
X178362914Y-182471485D01*
X178434342Y-182328628D01*
X178505771Y-182257200D01*
X178648628Y-182185771D01*
X179005771Y-182185771D01*
X179220057Y-182257200D01*
X179862914Y-183685771D02*
X179862914Y-182185771D01*
X180505771Y-183685771D02*
X180505771Y-182900057D01*
X180434342Y-182757200D01*
X180291485Y-182685771D01*
X180077200Y-182685771D01*
X179934342Y-182757200D01*
X179862914Y-182828628D01*
X181791485Y-183614342D02*
X181648628Y-183685771D01*
X181362914Y-183685771D01*
X181220057Y-183614342D01*
X181148628Y-183471485D01*
X181148628Y-182900057D01*
X181220057Y-182757200D01*
X181362914Y-182685771D01*
X181648628Y-182685771D01*
X181791485Y-182757200D01*
X181862914Y-182900057D01*
X181862914Y-183042914D01*
X181148628Y-183185771D01*
X183077200Y-183614342D02*
X182934342Y-183685771D01*
X182648628Y-183685771D01*
X182505771Y-183614342D01*
X182434342Y-183471485D01*
X182434342Y-182900057D01*
X182505771Y-182757200D01*
X182648628Y-182685771D01*
X182934342Y-182685771D01*
X183077200Y-182757200D01*
X183148628Y-182900057D01*
X183148628Y-183042914D01*
X182434342Y-183185771D01*
X183577200Y-182685771D02*
X184148628Y-182685771D01*
X183791485Y-182185771D02*
X183791485Y-183471485D01*
X183862914Y-183614342D01*
X184005771Y-183685771D01*
X184148628Y-183685771D01*
X184648628Y-183542914D02*
X184720057Y-183614342D01*
X184648628Y-183685771D01*
X184577200Y-183614342D01*
X184648628Y-183542914D01*
X184648628Y-183685771D01*
X184648628Y-182757200D02*
X184720057Y-182828628D01*
X184648628Y-182900057D01*
X184577200Y-182828628D01*
X184648628Y-182757200D01*
X184648628Y-182900057D01*
D10*
D12*
D10*
D11*
D10*
D11*
D10*
D11*
D10*
D11*
D10*
D11*
X197002200Y-191507200D02*
X197002200Y-194507200D01*
D10*
D11*
X261002200Y-191507200D02*
X261002200Y-198007200D01*
D14*
X116462628Y-94823642D02*
X116462628Y-95694500D01*
X116462628Y-95259071D02*
X114938628Y-95259071D01*
X115156342Y-95404214D01*
X115301485Y-95549357D01*
X115374057Y-95694500D01*
X116317485Y-94170500D02*
X116390057Y-94097928D01*
X116462628Y-94170500D01*
X116390057Y-94243071D01*
X116317485Y-94170500D01*
X116462628Y-94170500D01*
X114938628Y-93589928D02*
X114938628Y-92646500D01*
X115519200Y-93154500D01*
X115519200Y-92936785D01*
X115591771Y-92791642D01*
X115664342Y-92719071D01*
X115809485Y-92646500D01*
X116172342Y-92646500D01*
X116317485Y-92719071D01*
X116390057Y-92791642D01*
X116462628Y-92936785D01*
X116462628Y-93372214D01*
X116390057Y-93517357D01*
X116317485Y-93589928D01*
X115591771Y-91775642D02*
X115519200Y-91920785D01*
X115446628Y-91993357D01*
X115301485Y-92065928D01*
X115228914Y-92065928D01*
X115083771Y-91993357D01*
X115011200Y-91920785D01*
X114938628Y-91775642D01*
X114938628Y-91485357D01*
X115011200Y-91340214D01*
X115083771Y-91267642D01*
X115228914Y-91195071D01*
X115301485Y-91195071D01*
X115446628Y-91267642D01*
X115519200Y-91340214D01*
X115591771Y-91485357D01*
X115591771Y-91775642D01*
X115664342Y-91920785D01*
X115736914Y-91993357D01*
X115882057Y-92065928D01*
X116172342Y-92065928D01*
X116317485Y-91993357D01*
X116390057Y-91920785D01*
X116462628Y-91775642D01*
X116462628Y-91485357D01*
X116390057Y-91340214D01*
X116317485Y-91267642D01*
X116172342Y-91195071D01*
X115882057Y-91195071D01*
X115736914Y-91267642D01*
X115664342Y-91340214D01*
X115591771Y-91485357D01*
X114938628Y-89816214D02*
X114938628Y-90541928D01*
X115664342Y-90614500D01*
X115591771Y-90541928D01*
X115519200Y-90396785D01*
X115519200Y-90033928D01*
X115591771Y-89888785D01*
X115664342Y-89816214D01*
X115809485Y-89743642D01*
X116172342Y-89743642D01*
X116317485Y-89816214D01*
X116390057Y-89888785D01*
X116462628Y-90033928D01*
X116462628Y-90396785D01*
X116390057Y-90541928D01*
X116317485Y-90614500D01*
X114938628Y-88800214D02*
X114938628Y-88655071D01*
X115011200Y-88509928D01*
X115083771Y-88437357D01*
X115228914Y-88364785D01*
X115519200Y-88292214D01*
X115882057Y-88292214D01*
X116172342Y-88364785D01*
X116317485Y-88437357D01*
X116390057Y-88509928D01*
X116462628Y-88655071D01*
X116462628Y-88800214D01*
X116390057Y-88945357D01*
X116317485Y-89017928D01*
X116172342Y-89090500D01*
X115882057Y-89163071D01*
X115519200Y-89163071D01*
X115228914Y-89090500D01*
X115083771Y-89017928D01*
X115011200Y-88945357D01*
X114938628Y-88800214D01*
X116462628Y-86477928D02*
X115446628Y-86477928D01*
X114938628Y-86477928D02*
X115011200Y-86550500D01*
X115083771Y-86477928D01*
X115011200Y-86405357D01*
X114938628Y-86477928D01*
X115083771Y-86477928D01*
X115446628Y-85752214D02*
X116462628Y-85752214D01*
X115591771Y-85752214D02*
X115519200Y-85679642D01*
X115446628Y-85534500D01*
X115446628Y-85316785D01*
X115519200Y-85171642D01*
X115664342Y-85099071D01*
X116462628Y-85099071D01*
X149860000Y-72771000D02*
X116888580Y-72771000D01*
X149860000Y-107950000D02*
X116888580Y-107950000D01*
X117475000Y-72771000D02*
X117475000Y-107950000D01*
X117475000Y-72771000D02*
X117475000Y-107950000D01*
X117475000Y-72771000D02*
X116888579Y-73897504D01*
X117475000Y-72771000D02*
X118061421Y-73897504D01*
X117475000Y-107950000D02*
X118061421Y-106823496D01*
X117475000Y-107950000D02*
X116888579Y-106823496D01*
X132696857Y-114557628D02*
X131826000Y-114557628D01*
X132261428Y-114557628D02*
X132261428Y-113033628D01*
X132116285Y-113251342D01*
X131971142Y-113396485D01*
X131826000Y-113469057D01*
X133350000Y-114412485D02*
X133422571Y-114485057D01*
X133350000Y-114557628D01*
X133277428Y-114485057D01*
X133350000Y-114412485D01*
X133350000Y-114557628D01*
X134366000Y-113033628D02*
X134511142Y-113033628D01*
X134656285Y-113106200D01*
X134728857Y-113178771D01*
X134801428Y-113323914D01*
X134874000Y-113614200D01*
X134874000Y-113977057D01*
X134801428Y-114267342D01*
X134728857Y-114412485D01*
X134656285Y-114485057D01*
X134511142Y-114557628D01*
X134366000Y-114557628D01*
X134220857Y-114485057D01*
X134148285Y-114412485D01*
X134075714Y-114267342D01*
X134003142Y-113977057D01*
X134003142Y-113614200D01*
X134075714Y-113323914D01*
X134148285Y-113178771D01*
X134220857Y-113106200D01*
X134366000Y-113033628D01*
X135817428Y-113033628D02*
X135962571Y-113033628D01*
X136107714Y-113106200D01*
X136180285Y-113178771D01*
X136252857Y-113323914D01*
X136325428Y-113614200D01*
X136325428Y-113977057D01*
X136252857Y-114267342D01*
X136180285Y-114412485D01*
X136107714Y-114485057D01*
X135962571Y-114557628D01*
X135817428Y-114557628D01*
X135672285Y-114485057D01*
X135599714Y-114412485D01*
X135527142Y-114267342D01*
X135454571Y-113977057D01*
X135454571Y-113614200D01*
X135527142Y-113323914D01*
X135599714Y-113178771D01*
X135672285Y-113106200D01*
X135817428Y-113033628D01*
X137268857Y-113033628D02*
X137414000Y-113033628D01*
X137559142Y-113106200D01*
X137631714Y-113178771D01*
X137704285Y-113323914D01*
X137776857Y-113614200D01*
X137776857Y-113977057D01*
X137704285Y-114267342D01*
X137631714Y-114412485D01*
X137559142Y-114485057D01*
X137414000Y-114557628D01*
X137268857Y-114557628D01*
X137123714Y-114485057D01*
X137051142Y-114412485D01*
X136978571Y-114267342D01*
X136906000Y-113977057D01*
X136906000Y-113614200D01*
X136978571Y-113323914D01*
X137051142Y-113178771D01*
X137123714Y-113106200D01*
X137268857Y-113033628D01*
X138720285Y-113033628D02*
X138865428Y-113033628D01*
X139010571Y-113106200D01*
X139083142Y-113178771D01*
X139155714Y-113323914D01*
X139228285Y-113614200D01*
X139228285Y-113977057D01*
X139155714Y-114267342D01*
X139083142Y-114412485D01*
X139010571Y-114485057D01*
X138865428Y-114557628D01*
X138720285Y-114557628D01*
X138575142Y-114485057D01*
X138502571Y-114412485D01*
X138430000Y-114267342D01*
X138357428Y-113977057D01*
X138357428Y-113614200D01*
X138430000Y-113323914D01*
X138502571Y-113178771D01*
X138575142Y-113106200D01*
X138720285Y-113033628D01*
X141042571Y-114557628D02*
X141042571Y-113541628D01*
X141042571Y-113033628D02*
X140970000Y-113106200D01*
X141042571Y-113178771D01*
X141115142Y-113106200D01*
X141042571Y-113033628D01*
X141042571Y-113178771D01*
X141768285Y-113541628D02*
X141768285Y-114557628D01*
X141768285Y-113686771D02*
X141840857Y-113614200D01*
X141986000Y-113541628D01*
X142203714Y-113541628D01*
X142348857Y-113614200D01*
X142421428Y-113759342D01*
X142421428Y-114557628D01*
X124460000Y-72390000D02*
X124460000Y-116156420D01*
X149860000Y-72390000D02*
X149860000Y-116156420D01*
X124460000Y-115570000D02*
X149860000Y-115570000D01*
X124460000Y-115570000D02*
X149860000Y-115570000D01*
X124460000Y-115570000D02*
X125586504Y-116156421D01*
X124460000Y-115570000D02*
X125586504Y-114983579D01*
X149860000Y-115570000D02*
X148733496Y-114983579D01*
X149860000Y-115570000D02*
X148733496Y-116156421D01*
D15*
X149860000Y-72771000D02*
X146939000Y-72771000D01*
X149860000Y-72771000D02*
X149860000Y-75946000D01*
X149860000Y-72771000D02*
X153289000Y-72771000D01*
X149860000Y-72771000D02*
X149860000Y-68707000D01*
D14*
X133409010Y-61457505D02*
X132767639Y-62046602D01*
X133088324Y-61752053D02*
X132057405Y-60629653D01*
X132097784Y-60888179D01*
X132089072Y-61093257D01*
X132031268Y-61244888D01*
X133791856Y-60908787D02*
X133894395Y-60913144D01*
X133890039Y-61015683D01*
X133787500Y-61011326D01*
X133791856Y-60908787D01*
X133890039Y-61015683D01*
X133438331Y-59558355D02*
X133442687Y-59455816D01*
X133500491Y-59304186D01*
X133767729Y-59058729D01*
X133923716Y-59013994D01*
X134026255Y-59018350D01*
X134177885Y-59076154D01*
X134276068Y-59183049D01*
X134369894Y-59392484D01*
X134317620Y-60622952D01*
X135012439Y-59984764D01*
X135546915Y-59493850D02*
X135760705Y-59297484D01*
X135818509Y-59145854D01*
X135822865Y-59043315D01*
X135782487Y-58784789D01*
X135639569Y-58521907D01*
X135246837Y-58094326D01*
X135095207Y-58036522D01*
X134992668Y-58032166D01*
X134836681Y-58076901D01*
X134622891Y-58273267D01*
X134565087Y-58424897D01*
X134560731Y-58527436D01*
X134605466Y-58683423D01*
X134850923Y-58950661D01*
X135002553Y-59008465D01*
X135105092Y-59012821D01*
X135261079Y-58968086D01*
X135474869Y-58771720D01*
X135532673Y-58620090D01*
X135537030Y-58517551D01*
X135492294Y-58361564D01*
X136615867Y-58512022D02*
X136829658Y-58315656D01*
X136887462Y-58164026D01*
X136891818Y-58061487D01*
X136851439Y-57802961D01*
X136708521Y-57540080D01*
X136315790Y-57112499D01*
X136164159Y-57054695D01*
X136061620Y-57050338D01*
X135905634Y-57095074D01*
X135691843Y-57291439D01*
X135634040Y-57443070D01*
X135629683Y-57545609D01*
X135674418Y-57701595D01*
X135919875Y-57968833D01*
X136071506Y-58026637D01*
X136174045Y-58030993D01*
X136330031Y-57986258D01*
X136543822Y-57789893D01*
X136601626Y-57638262D01*
X136605982Y-57535723D01*
X136561247Y-57379737D01*
X137425121Y-56389196D02*
X138112401Y-57137463D01*
X136765152Y-56207072D02*
X137234285Y-57254244D01*
X137929104Y-56616056D01*
X139555486Y-55811996D02*
X138868207Y-55063729D01*
X138524567Y-54689596D02*
X138520211Y-54792135D01*
X138622750Y-54796491D01*
X138627106Y-54693952D01*
X138524567Y-54689596D01*
X138622750Y-54796491D01*
X139402683Y-54572815D02*
X140089962Y-55321082D01*
X139500866Y-54679710D02*
X139505222Y-54577171D01*
X139563026Y-54425541D01*
X139723369Y-54278267D01*
X139879355Y-54233532D01*
X140030986Y-54291336D01*
X140570991Y-54879259D01*
X162306000Y-61925200D02*
X149138077Y-47588792D01*
X137998200Y-84251800D02*
X124830277Y-69915392D01*
X149534764Y-48020680D02*
X125226964Y-70347280D01*
X149534764Y-48020680D02*
X125226964Y-70347280D01*
X149534764Y-48020680D02*
X148308425Y-48350821D01*
X149534764Y-48020680D02*
X149101801Y-49214599D01*
X125226964Y-70347280D02*
X126453303Y-70017139D01*
X125226964Y-70347280D02*
X125659927Y-69153361D01*
X146195142Y-63409285D02*
X146122571Y-63481857D01*
X145904857Y-63554428D01*
X145759714Y-63554428D01*
X145542000Y-63481857D01*
X145396857Y-63336714D01*
X145324285Y-63191571D01*
X145251714Y-62901285D01*
X145251714Y-62683571D01*
X145324285Y-62393285D01*
X145396857Y-62248142D01*
X145542000Y-62103000D01*
X145759714Y-62030428D01*
X145904857Y-62030428D01*
X146122571Y-62103000D01*
X146195142Y-62175571D01*
X146848285Y-62030428D02*
X146848285Y-63264142D01*
X146920857Y-63409285D01*
X146993428Y-63481857D01*
X147138571Y-63554428D01*
X147428857Y-63554428D01*
X147574000Y-63481857D01*
X147646571Y-63409285D01*
X147719142Y-63264142D01*
X147719142Y-62030428D01*
X148227142Y-62030428D02*
X149098000Y-62030428D01*
X148662571Y-63554428D02*
X148662571Y-62030428D01*
X151057428Y-62030428D02*
X151347714Y-62030428D01*
X151492857Y-62103000D01*
X151638000Y-62248142D01*
X151710571Y-62538428D01*
X151710571Y-63046428D01*
X151638000Y-63336714D01*
X151492857Y-63481857D01*
X151347714Y-63554428D01*
X151057428Y-63554428D01*
X150912285Y-63481857D01*
X150767142Y-63336714D01*
X150694571Y-63046428D01*
X150694571Y-62538428D01*
X150767142Y-62248142D01*
X150912285Y-62103000D01*
X151057428Y-62030428D01*
X152363714Y-62030428D02*
X152363714Y-63264142D01*
X152436285Y-63409285D01*
X152508857Y-63481857D01*
X152654000Y-63554428D01*
X152944285Y-63554428D01*
X153089428Y-63481857D01*
X153162000Y-63409285D01*
X153234571Y-63264142D01*
X153234571Y-62030428D01*
X153742571Y-62030428D02*
X154613428Y-62030428D01*
X154178000Y-63554428D02*
X154178000Y-62030428D01*
X144761857Y-44199628D02*
X143891000Y-44199628D01*
X144326428Y-44199628D02*
X144326428Y-42675628D01*
X144181285Y-42893342D01*
X144036142Y-43038485D01*
X143891000Y-43111057D01*
X145415000Y-44054485D02*
X145487571Y-44127057D01*
X145415000Y-44199628D01*
X145342428Y-44127057D01*
X145415000Y-44054485D01*
X145415000Y-44199628D01*
X146213285Y-44199628D02*
X146503571Y-44199628D01*
X146648714Y-44127057D01*
X146721285Y-44054485D01*
X146866428Y-43836771D01*
X146939000Y-43546485D01*
X146939000Y-42965914D01*
X146866428Y-42820771D01*
X146793857Y-42748200D01*
X146648714Y-42675628D01*
X146358428Y-42675628D01*
X146213285Y-42748200D01*
X146140714Y-42820771D01*
X146068142Y-42965914D01*
X146068142Y-43328771D01*
X146140714Y-43473914D01*
X146213285Y-43546485D01*
X146358428Y-43619057D01*
X146648714Y-43619057D01*
X146793857Y-43546485D01*
X146866428Y-43473914D01*
X146939000Y-43328771D01*
X148317857Y-42675628D02*
X147592142Y-42675628D01*
X147519571Y-43401342D01*
X147592142Y-43328771D01*
X147737285Y-43256200D01*
X148100142Y-43256200D01*
X148245285Y-43328771D01*
X148317857Y-43401342D01*
X148390428Y-43546485D01*
X148390428Y-43909342D01*
X148317857Y-44054485D01*
X148245285Y-44127057D01*
X148100142Y-44199628D01*
X147737285Y-44199628D01*
X147592142Y-44127057D01*
X147519571Y-44054485D01*
X149333857Y-42675628D02*
X149479000Y-42675628D01*
X149624142Y-42748200D01*
X149696714Y-42820771D01*
X149769285Y-42965914D01*
X149841857Y-43256200D01*
X149841857Y-43619057D01*
X149769285Y-43909342D01*
X149696714Y-44054485D01*
X149624142Y-44127057D01*
X149479000Y-44199628D01*
X149333857Y-44199628D01*
X149188714Y-44127057D01*
X149116142Y-44054485D01*
X149043571Y-43909342D01*
X148971000Y-43619057D01*
X148971000Y-43256200D01*
X149043571Y-42965914D01*
X149116142Y-42820771D01*
X149188714Y-42748200D01*
X149333857Y-42675628D01*
X150785285Y-42675628D02*
X150930428Y-42675628D01*
X151075571Y-42748200D01*
X151148142Y-42820771D01*
X151220714Y-42965914D01*
X151293285Y-43256200D01*
X151293285Y-43619057D01*
X151220714Y-43909342D01*
X151148142Y-44054485D01*
X151075571Y-44127057D01*
X150930428Y-44199628D01*
X150785285Y-44199628D01*
X150640142Y-44127057D01*
X150567571Y-44054485D01*
X150495000Y-43909342D01*
X150422428Y-43619057D01*
X150422428Y-43256200D01*
X150495000Y-42965914D01*
X150567571Y-42820771D01*
X150640142Y-42748200D01*
X150785285Y-42675628D01*
X153107571Y-44199628D02*
X153107571Y-43183628D01*
X153107571Y-42675628D02*
X153035000Y-42748200D01*
X153107571Y-42820771D01*
X153180142Y-42748200D01*
X153107571Y-42675628D01*
X153107571Y-42820771D01*
X153833285Y-43183628D02*
X153833285Y-44199628D01*
X153833285Y-43328771D02*
X153905857Y-43256200D01*
X154051000Y-43183628D01*
X154268714Y-43183628D01*
X154413857Y-43256200D01*
X154486428Y-43401342D01*
X154486428Y-44199628D01*
X173990000Y-49530000D02*
X173990000Y-44625580D01*
X124460000Y-49530000D02*
X124460000Y-44625580D01*
X173990000Y-45212000D02*
X124460000Y-45212000D01*
X173990000Y-45212000D02*
X124460000Y-45212000D01*
X173990000Y-45212000D02*
X172863496Y-44625579D01*
X173990000Y-45212000D02*
X172863496Y-45798421D01*
X124460000Y-45212000D02*
X125586504Y-45798421D01*
X124460000Y-45212000D02*
X125586504Y-44625579D01*
X176043771Y-84074000D02*
X175971200Y-84001428D01*
X175898628Y-83856285D01*
X175898628Y-83493428D01*
X175971200Y-83348285D01*
X176043771Y-83275714D01*
X176188914Y-83203142D01*
X176334057Y-83203142D01*
X176551771Y-83275714D01*
X177422628Y-84146571D01*
X177422628Y-83203142D01*
X177277485Y-82550000D02*
X177350057Y-82477428D01*
X177422628Y-82550000D01*
X177350057Y-82622571D01*
X177277485Y-82550000D01*
X177422628Y-82550000D01*
X175898628Y-81969428D02*
X175898628Y-81026000D01*
X176479200Y-81534000D01*
X176479200Y-81316285D01*
X176551771Y-81171142D01*
X176624342Y-81098571D01*
X176769485Y-81026000D01*
X177132342Y-81026000D01*
X177277485Y-81098571D01*
X177350057Y-81171142D01*
X177422628Y-81316285D01*
X177422628Y-81751714D01*
X177350057Y-81896857D01*
X177277485Y-81969428D01*
X175898628Y-80082571D02*
X175898628Y-79937428D01*
X175971200Y-79792285D01*
X176043771Y-79719714D01*
X176188914Y-79647142D01*
X176479200Y-79574571D01*
X176842057Y-79574571D01*
X177132342Y-79647142D01*
X177277485Y-79719714D01*
X177350057Y-79792285D01*
X177422628Y-79937428D01*
X177422628Y-80082571D01*
X177350057Y-80227714D01*
X177277485Y-80300285D01*
X177132342Y-80372857D01*
X176842057Y-80445428D01*
X176479200Y-80445428D01*
X176188914Y-80372857D01*
X176043771Y-80300285D01*
X175971200Y-80227714D01*
X175898628Y-80082571D01*
X175898628Y-78631142D02*
X175898628Y-78486000D01*
X175971200Y-78340857D01*
X176043771Y-78268285D01*
X176188914Y-78195714D01*
X176479200Y-78123142D01*
X176842057Y-78123142D01*
X177132342Y-78195714D01*
X177277485Y-78268285D01*
X177350057Y-78340857D01*
X177422628Y-78486000D01*
X177422628Y-78631142D01*
X177350057Y-78776285D01*
X177277485Y-78848857D01*
X177132342Y-78921428D01*
X176842057Y-78994000D01*
X176479200Y-78994000D01*
X176188914Y-78921428D01*
X176043771Y-78848857D01*
X175971200Y-78776285D01*
X175898628Y-78631142D01*
X175898628Y-77179714D02*
X175898628Y-77034571D01*
X175971200Y-76889428D01*
X176043771Y-76816857D01*
X176188914Y-76744285D01*
X176479200Y-76671714D01*
X176842057Y-76671714D01*
X177132342Y-76744285D01*
X177277485Y-76816857D01*
X177350057Y-76889428D01*
X177422628Y-77034571D01*
X177422628Y-77179714D01*
X177350057Y-77324857D01*
X177277485Y-77397428D01*
X177132342Y-77470000D01*
X176842057Y-77542571D01*
X176479200Y-77542571D01*
X176188914Y-77470000D01*
X176043771Y-77397428D01*
X175971200Y-77324857D01*
X175898628Y-77179714D01*
X177422628Y-74857428D02*
X176406628Y-74857428D01*
X175898628Y-74857428D02*
X175971200Y-74930000D01*
X176043771Y-74857428D01*
X175971200Y-74784857D01*
X175898628Y-74857428D01*
X176043771Y-74857428D01*
X176406628Y-74131714D02*
X177422628Y-74131714D01*
X176551771Y-74131714D02*
X176479200Y-74059142D01*
X176406628Y-73914000D01*
X176406628Y-73696285D01*
X176479200Y-73551142D01*
X176624342Y-73478571D01*
X177422628Y-73478571D01*
X173990000Y-107950000D02*
X179021420Y-107950000D01*
X173990000Y-49530000D02*
X179021420Y-49530000D01*
X178435000Y-107950000D02*
X178435000Y-49530000D01*
X178435000Y-107950000D02*
X178435000Y-49530000D01*
X178435000Y-107950000D02*
X179021421Y-106823496D01*
X178435000Y-107950000D02*
X177848579Y-106823496D01*
X178435000Y-49530000D02*
X177848579Y-50656504D01*
X178435000Y-49530000D02*
X179021421Y-50656504D01*
X183866427Y-48539762D02*
X184084141Y-48612334D01*
X184156712Y-48684905D01*
X184229284Y-48830048D01*
X184229284Y-49047762D01*
X184156712Y-49192905D01*
X184084141Y-49265477D01*
X183938998Y-49338048D01*
X183358427Y-49338048D01*
X183358427Y-47814048D01*
X183866427Y-47814048D01*
X184011570Y-47886620D01*
X184084141Y-47959191D01*
X184156712Y-48104334D01*
X184156712Y-48249477D01*
X184084141Y-48394620D01*
X184011570Y-48467191D01*
X183866427Y-48539762D01*
X183358427Y-48539762D01*
X185172712Y-47814048D02*
X185462998Y-47814048D01*
X185608141Y-47886620D01*
X185753284Y-48031762D01*
X185825855Y-48322048D01*
X185825855Y-48830048D01*
X185753284Y-49120334D01*
X185608141Y-49265477D01*
X185462998Y-49338048D01*
X185172712Y-49338048D01*
X185027570Y-49265477D01*
X184882427Y-49120334D01*
X184809855Y-48830048D01*
X184809855Y-48322048D01*
X184882427Y-48031762D01*
X185027570Y-47886620D01*
X185172712Y-47814048D01*
X186406427Y-49265477D02*
X186624141Y-49338048D01*
X186986998Y-49338048D01*
X187132141Y-49265477D01*
X187204712Y-49192905D01*
X187277284Y-49047762D01*
X187277284Y-48902620D01*
X187204712Y-48757477D01*
X187132141Y-48684905D01*
X186986998Y-48612334D01*
X186696712Y-48539762D01*
X186551570Y-48467191D01*
X186478998Y-48394620D01*
X186406427Y-48249477D01*
X186406427Y-48104334D01*
X186478998Y-47959191D01*
X186551570Y-47886620D01*
X186696712Y-47814048D01*
X187059570Y-47814048D01*
X187277284Y-47886620D01*
X187712712Y-47814048D02*
X188583570Y-47814048D01*
X188148141Y-49338048D02*
X188148141Y-47814048D01*
X189381855Y-47814048D02*
X189672141Y-47814048D01*
X189817284Y-47886620D01*
X189962427Y-48031762D01*
X190034998Y-48322048D01*
X190034998Y-48830048D01*
X189962427Y-49120334D01*
X189817284Y-49265477D01*
X189672141Y-49338048D01*
X189381855Y-49338048D01*
X189236712Y-49265477D01*
X189091570Y-49120334D01*
X189018998Y-48830048D01*
X189018998Y-48322048D01*
X189091570Y-48031762D01*
X189236712Y-47886620D01*
X189381855Y-47814048D01*
X190688141Y-49338048D02*
X190688141Y-47814048D01*
X191558998Y-49338048D01*
X191558998Y-47814048D01*
X193445855Y-47814048D02*
X193445855Y-49047762D01*
X193518427Y-49192905D01*
X193590998Y-49265477D01*
X193736141Y-49338048D01*
X194026427Y-49338048D01*
X194171570Y-49265477D01*
X194244141Y-49192905D01*
X194316712Y-49047762D01*
X194316712Y-47814048D01*
X195042427Y-49338048D02*
X195042427Y-47814048D01*
X195913284Y-49338048D01*
X195913284Y-47814048D01*
X196638998Y-49338048D02*
X196638998Y-47814048D01*
X197146998Y-47814048D02*
X197654998Y-49338048D01*
X198162998Y-47814048D01*
X198670998Y-48539762D02*
X199178998Y-48539762D01*
X199396712Y-49338048D02*
X198670998Y-49338048D01*
X198670998Y-47814048D01*
X199396712Y-47814048D01*
X200920712Y-49338048D02*
X200412712Y-48612334D01*
X200049855Y-49338048D02*
X200049855Y-47814048D01*
X200630427Y-47814048D01*
X200775570Y-47886620D01*
X200848141Y-47959191D01*
X200920712Y-48104334D01*
X200920712Y-48322048D01*
X200848141Y-48467191D01*
X200775570Y-48539762D01*
X200630427Y-48612334D01*
X200049855Y-48612334D01*
X201501284Y-49265477D02*
X201718998Y-49338048D01*
X202081855Y-49338048D01*
X202226998Y-49265477D01*
X202299570Y-49192905D01*
X202372141Y-49047762D01*
X202372141Y-48902620D01*
X202299570Y-48757477D01*
X202226998Y-48684905D01*
X202081855Y-48612334D01*
X201791570Y-48539762D01*
X201646427Y-48467191D01*
X201573855Y-48394620D01*
X201501284Y-48249477D01*
X201501284Y-48104334D01*
X201573855Y-47959191D01*
X201646427Y-47886620D01*
X201791570Y-47814048D01*
X202154427Y-47814048D01*
X202372141Y-47886620D01*
X203025284Y-49338048D02*
X203025284Y-47814048D01*
X203533284Y-47814048D02*
X204404141Y-47814048D01*
X203968712Y-49338048D02*
X203968712Y-47814048D01*
X205202427Y-48612334D02*
X205202427Y-49338048D01*
X204694427Y-47814048D02*
X205202427Y-48612334D01*
X205710427Y-47814048D01*
X207379570Y-48539762D02*
X207887570Y-48539762D01*
X208105284Y-49338048D02*
X207379570Y-49338048D01*
X207379570Y-47814048D01*
X208105284Y-47814048D01*
X208758427Y-49338048D02*
X208758427Y-47814048D01*
X209121284Y-47814048D01*
X209338998Y-47886620D01*
X209484141Y-48031762D01*
X209556712Y-48176905D01*
X209629284Y-48467191D01*
X209629284Y-48684905D01*
X209556712Y-48975191D01*
X209484141Y-49120334D01*
X209338998Y-49265477D01*
X209121284Y-49338048D01*
X208758427Y-49338048D01*
X210790427Y-48539762D02*
X210282427Y-48539762D01*
X210282427Y-49338048D02*
X210282427Y-47814048D01*
X211008141Y-47814048D01*
X183938998Y-51719117D02*
X183793855Y-51791688D01*
X183503570Y-51791688D01*
X183358427Y-51719117D01*
X183285855Y-51573974D01*
X183285855Y-50993402D01*
X183358427Y-50848260D01*
X183503570Y-50775688D01*
X183793855Y-50775688D01*
X183938998Y-50848260D01*
X184011570Y-50993402D01*
X184011570Y-51138545D01*
X183285855Y-51283688D01*
X184446998Y-50267688D02*
X184954998Y-51791688D01*
X185462998Y-50267688D01*
X186261284Y-50267688D02*
X186551570Y-50267688D01*
X186696712Y-50340260D01*
X186841855Y-50485402D01*
X186914427Y-50775688D01*
X186914427Y-51283688D01*
X186841855Y-51573974D01*
X186696712Y-51719117D01*
X186551570Y-51791688D01*
X186261284Y-51791688D01*
X186116141Y-51719117D01*
X185970998Y-51573974D01*
X185898427Y-51283688D01*
X185898427Y-50775688D01*
X185970998Y-50485402D01*
X186116141Y-50340260D01*
X186261284Y-50267688D01*
X188293284Y-51791688D02*
X187567570Y-51791688D01*
X187567570Y-50267688D01*
X188583570Y-50267688D02*
X189091570Y-51791688D01*
X189599570Y-50267688D01*
X190107570Y-50993402D02*
X190615570Y-50993402D01*
X190833284Y-51791688D02*
X190107570Y-51791688D01*
X190107570Y-50267688D01*
X190833284Y-50267688D01*
X192357284Y-51791688D02*
X191849284Y-51065974D01*
X191486427Y-51791688D02*
X191486427Y-50267688D01*
X192066998Y-50267688D01*
X192212141Y-50340260D01*
X192284712Y-50412831D01*
X192357284Y-50557974D01*
X192357284Y-50775688D01*
X192284712Y-50920831D01*
X192212141Y-50993402D01*
X192066998Y-51065974D01*
X191486427Y-51065974D01*
X194098998Y-51719117D02*
X194316712Y-51791688D01*
X194679570Y-51791688D01*
X194824712Y-51719117D01*
X194897284Y-51646545D01*
X194969855Y-51501402D01*
X194969855Y-51356260D01*
X194897284Y-51211117D01*
X194824712Y-51138545D01*
X194679570Y-51065974D01*
X194389284Y-50993402D01*
X194244141Y-50920831D01*
X194171570Y-50848260D01*
X194098998Y-50703117D01*
X194098998Y-50557974D01*
X194171570Y-50412831D01*
X194244141Y-50340260D01*
X194389284Y-50267688D01*
X194752141Y-50267688D01*
X194969855Y-50340260D01*
X195477855Y-50775688D02*
X195840712Y-51791688D01*
X196203570Y-50775688D02*
X195840712Y-51791688D01*
X195695570Y-52154545D01*
X195622998Y-52227117D01*
X195477855Y-52299688D01*
X196711570Y-51719117D02*
X196856712Y-51791688D01*
X197146998Y-51791688D01*
X197292141Y-51719117D01*
X197364712Y-51573974D01*
X197364712Y-51501402D01*
X197292141Y-51356260D01*
X197146998Y-51283688D01*
X196929284Y-51283688D01*
X196784141Y-51211117D01*
X196711570Y-51065974D01*
X196711570Y-50993402D01*
X196784141Y-50848260D01*
X196929284Y-50775688D01*
X197146998Y-50775688D01*
X197292141Y-50848260D01*
X197800141Y-50775688D02*
X198380712Y-50775688D01*
X198017855Y-50267688D02*
X198017855Y-51573974D01*
X198090427Y-51719117D01*
X198235570Y-51791688D01*
X198380712Y-51791688D01*
X199469284Y-51719117D02*
X199324141Y-51791688D01*
X199033855Y-51791688D01*
X198888712Y-51719117D01*
X198816141Y-51573974D01*
X198816141Y-50993402D01*
X198888712Y-50848260D01*
X199033855Y-50775688D01*
X199324141Y-50775688D01*
X199469284Y-50848260D01*
X199541855Y-50993402D01*
X199541855Y-51138545D01*
X198816141Y-51283688D01*
X200194998Y-51791688D02*
X200194998Y-50775688D01*
X200194998Y-50920831D02*
X200267570Y-50848260D01*
X200412712Y-50775688D01*
X200630427Y-50775688D01*
X200775570Y-50848260D01*
X200848141Y-50993402D01*
X200848141Y-51791688D01*
X200848141Y-50993402D02*
X200920712Y-50848260D01*
X201065855Y-50775688D01*
X201283570Y-50775688D01*
X201428712Y-50848260D01*
X201501284Y-50993402D01*
X201501284Y-51791688D01*
X183358427Y-56698968D02*
X183358427Y-55174968D01*
X183938998Y-55174968D01*
X184084141Y-55247540D01*
X184156712Y-55320111D01*
X184229284Y-55465254D01*
X184229284Y-55682968D01*
X184156712Y-55828111D01*
X184084141Y-55900682D01*
X183938998Y-55973254D01*
X183358427Y-55973254D01*
X185970998Y-55102397D02*
X184664712Y-57061825D01*
X186478998Y-56698968D02*
X186478998Y-55174968D01*
X187349855Y-56698968D01*
X187349855Y-55174968D01*
X189236712Y-55900682D02*
X189744712Y-55900682D01*
X189962427Y-56698968D02*
X189236712Y-56698968D01*
X189236712Y-55174968D01*
X189962427Y-55174968D01*
X190397855Y-55174968D02*
X190905855Y-56698968D01*
X191413855Y-55174968D01*
X191921855Y-56118397D02*
X193082998Y-56118397D01*
X193590998Y-55174968D02*
X194098998Y-56698968D01*
X194606998Y-55174968D01*
X195114998Y-56698968D02*
X195114998Y-55682968D01*
X195114998Y-55174968D02*
X195042427Y-55247540D01*
X195114998Y-55320111D01*
X195187570Y-55247540D01*
X195114998Y-55174968D01*
X195114998Y-55320111D01*
X196493855Y-56698968D02*
X196493855Y-55900682D01*
X196421284Y-55755540D01*
X196276141Y-55682968D01*
X195985855Y-55682968D01*
X195840712Y-55755540D01*
X196493855Y-56626397D02*
X196348712Y-56698968D01*
X195985855Y-56698968D01*
X195840712Y-56626397D01*
X195768141Y-56481254D01*
X195768141Y-56336111D01*
X195840712Y-56190968D01*
X195985855Y-56118397D01*
X196348712Y-56118397D01*
X196493855Y-56045825D01*
X197437284Y-56698968D02*
X197292141Y-56626397D01*
X197219570Y-56481254D01*
X197219570Y-55174968D01*
X200049855Y-56698968D02*
X199541855Y-55973254D01*
X199178998Y-56698968D02*
X199178998Y-55174968D01*
X199759570Y-55174968D01*
X199904712Y-55247540D01*
X199977284Y-55320111D01*
X200049855Y-55465254D01*
X200049855Y-55682968D01*
X199977284Y-55828111D01*
X199904712Y-55900682D01*
X199759570Y-55973254D01*
X199178998Y-55973254D01*
X201283570Y-56626397D02*
X201138427Y-56698968D01*
X200848141Y-56698968D01*
X200702998Y-56626397D01*
X200630427Y-56481254D01*
X200630427Y-55900682D01*
X200702998Y-55755540D01*
X200848141Y-55682968D01*
X201138427Y-55682968D01*
X201283570Y-55755540D01*
X201356141Y-55900682D01*
X201356141Y-56045825D01*
X200630427Y-56190968D01*
X201864141Y-55682968D02*
X202226998Y-56698968D01*
X202589855Y-55682968D01*
X205202427Y-56553825D02*
X205129855Y-56626397D01*
X204912141Y-56698968D01*
X204766998Y-56698968D01*
X204549284Y-56626397D01*
X204404141Y-56481254D01*
X204331570Y-56336111D01*
X204258998Y-56045825D01*
X204258998Y-55828111D01*
X204331570Y-55537825D01*
X204404141Y-55392682D01*
X204549284Y-55247540D01*
X204766998Y-55174968D01*
X204912141Y-55174968D01*
X205129855Y-55247540D01*
X205202427Y-55320111D01*
X184156712Y-59152608D02*
X183285855Y-59152608D01*
X183721284Y-59152608D02*
X183721284Y-57628608D01*
X183576141Y-57846322D01*
X183430998Y-57991465D01*
X183285855Y-58064037D01*
X186188712Y-59152608D02*
X186043570Y-59080037D01*
X185970998Y-59007465D01*
X185898427Y-58862322D01*
X185898427Y-58426894D01*
X185970998Y-58281751D01*
X186043570Y-58209180D01*
X186188712Y-58136608D01*
X186406427Y-58136608D01*
X186551570Y-58209180D01*
X186624141Y-58281751D01*
X186696712Y-58426894D01*
X186696712Y-58862322D01*
X186624141Y-59007465D01*
X186551570Y-59080037D01*
X186406427Y-59152608D01*
X186188712Y-59152608D01*
X187204712Y-58136608D02*
X188002998Y-58136608D01*
X187204712Y-59152608D01*
X188002998Y-59152608D01*
X190397855Y-59080037D02*
X190252712Y-59152608D01*
X189962427Y-59152608D01*
X189817284Y-59080037D01*
X189744712Y-59007465D01*
X189672141Y-58862322D01*
X189672141Y-58426894D01*
X189744712Y-58281751D01*
X189817284Y-58209180D01*
X189962427Y-58136608D01*
X190252712Y-58136608D01*
X190397855Y-58209180D01*
X191268712Y-59152608D02*
X191123570Y-59080037D01*
X191050998Y-59007465D01*
X190978427Y-58862322D01*
X190978427Y-58426894D01*
X191050998Y-58281751D01*
X191123570Y-58209180D01*
X191268712Y-58136608D01*
X191486427Y-58136608D01*
X191631570Y-58209180D01*
X191704141Y-58281751D01*
X191776712Y-58426894D01*
X191776712Y-58862322D01*
X191704141Y-59007465D01*
X191631570Y-59080037D01*
X191486427Y-59152608D01*
X191268712Y-59152608D01*
X192429855Y-58136608D02*
X192429855Y-59660608D01*
X192429855Y-58209180D02*
X192574998Y-58136608D01*
X192865284Y-58136608D01*
X193010427Y-58209180D01*
X193082998Y-58281751D01*
X193155570Y-58426894D01*
X193155570Y-58862322D01*
X193082998Y-59007465D01*
X193010427Y-59080037D01*
X192865284Y-59152608D01*
X192574998Y-59152608D01*
X192429855Y-59080037D01*
X193808712Y-58136608D02*
X193808712Y-59660608D01*
X193808712Y-58209180D02*
X193953855Y-58136608D01*
X194244141Y-58136608D01*
X194389284Y-58209180D01*
X194461855Y-58281751D01*
X194534427Y-58426894D01*
X194534427Y-58862322D01*
X194461855Y-59007465D01*
X194389284Y-59080037D01*
X194244141Y-59152608D01*
X193953855Y-59152608D01*
X193808712Y-59080037D01*
X195768141Y-59080037D02*
X195622998Y-59152608D01*
X195332712Y-59152608D01*
X195187570Y-59080037D01*
X195114998Y-58934894D01*
X195114998Y-58354322D01*
X195187570Y-58209180D01*
X195332712Y-58136608D01*
X195622998Y-58136608D01*
X195768141Y-58209180D01*
X195840712Y-58354322D01*
X195840712Y-58499465D01*
X195114998Y-58644608D01*
X196493855Y-59152608D02*
X196493855Y-58136608D01*
X196493855Y-58426894D02*
X196566427Y-58281751D01*
X196638998Y-58209180D01*
X196784141Y-58136608D01*
X196929284Y-58136608D01*
X183285855Y-60227391D02*
X183358427Y-60154820D01*
X183503570Y-60082248D01*
X183866427Y-60082248D01*
X184011570Y-60154820D01*
X184084141Y-60227391D01*
X184156712Y-60372534D01*
X184156712Y-60517677D01*
X184084141Y-60735391D01*
X183213284Y-61606248D01*
X184156712Y-61606248D01*
X186696712Y-61606248D02*
X185970998Y-61606248D01*
X185970998Y-60082248D01*
X187857855Y-61606248D02*
X187857855Y-60807962D01*
X187785284Y-60662820D01*
X187640141Y-60590248D01*
X187349855Y-60590248D01*
X187204712Y-60662820D01*
X187857855Y-61533677D02*
X187712712Y-61606248D01*
X187349855Y-61606248D01*
X187204712Y-61533677D01*
X187132141Y-61388534D01*
X187132141Y-61243391D01*
X187204712Y-61098248D01*
X187349855Y-61025677D01*
X187712712Y-61025677D01*
X187857855Y-60953105D01*
X188438427Y-60590248D02*
X188801284Y-61606248D01*
X189164141Y-60590248D02*
X188801284Y-61606248D01*
X188656141Y-61969105D01*
X188583570Y-62041677D01*
X188438427Y-62114248D01*
X190325284Y-61533677D02*
X190180141Y-61606248D01*
X189889855Y-61606248D01*
X189744712Y-61533677D01*
X189672141Y-61388534D01*
X189672141Y-60807962D01*
X189744712Y-60662820D01*
X189889855Y-60590248D01*
X190180141Y-60590248D01*
X190325284Y-60662820D01*
X190397855Y-60807962D01*
X190397855Y-60953105D01*
X189672141Y-61098248D01*
X191050998Y-61606248D02*
X191050998Y-60590248D01*
X191050998Y-60880534D02*
X191123570Y-60735391D01*
X191196141Y-60662820D01*
X191341284Y-60590248D01*
X191486427Y-60590248D01*
X191921855Y-61533677D02*
X192066998Y-61606248D01*
X192357284Y-61606248D01*
X192502427Y-61533677D01*
X192574998Y-61388534D01*
X192574998Y-61315962D01*
X192502427Y-61170820D01*
X192357284Y-61098248D01*
X192139570Y-61098248D01*
X191994427Y-61025677D01*
X191921855Y-60880534D01*
X191921855Y-60807962D01*
X191994427Y-60662820D01*
X192139570Y-60590248D01*
X192357284Y-60590248D01*
X192502427Y-60662820D01*
X194897284Y-60807962D02*
X194389284Y-60807962D01*
X194389284Y-61606248D02*
X194389284Y-60082248D01*
X195114998Y-60082248D01*
X196566427Y-61606248D02*
X196058427Y-60880534D01*
X195695570Y-61606248D02*
X195695570Y-60082248D01*
X196276141Y-60082248D01*
X196421284Y-60154820D01*
X196493855Y-60227391D01*
X196566427Y-60372534D01*
X196566427Y-60590248D01*
X196493855Y-60735391D01*
X196421284Y-60807962D01*
X196276141Y-60880534D01*
X195695570Y-60880534D01*
X197219570Y-61025677D02*
X198380712Y-61025677D01*
X199759570Y-60590248D02*
X199759570Y-61606248D01*
X199396712Y-60009677D02*
X199033855Y-61098248D01*
X199977284Y-61098248D01*
X183648712Y-62535888D02*
X183793855Y-62535888D01*
X183938998Y-62608460D01*
X184011570Y-62681031D01*
X184084141Y-62826174D01*
X184156712Y-63116460D01*
X184156712Y-63479317D01*
X184084141Y-63769602D01*
X184011570Y-63914745D01*
X183938998Y-63987317D01*
X183793855Y-64059888D01*
X183648712Y-64059888D01*
X183503570Y-63987317D01*
X183430998Y-63914745D01*
X183358427Y-63769602D01*
X183285855Y-63479317D01*
X183285855Y-63116460D01*
X183358427Y-62826174D01*
X183430998Y-62681031D01*
X183503570Y-62608460D01*
X183648712Y-62535888D01*
X184809855Y-63914745D02*
X184882427Y-63987317D01*
X184809855Y-64059888D01*
X184737284Y-63987317D01*
X184809855Y-63914745D01*
X184809855Y-64059888D01*
X185825855Y-62535888D02*
X185970998Y-62535888D01*
X186116141Y-62608460D01*
X186188712Y-62681031D01*
X186261284Y-62826174D01*
X186333855Y-63116460D01*
X186333855Y-63479317D01*
X186261284Y-63769602D01*
X186188712Y-63914745D01*
X186116141Y-63987317D01*
X185970998Y-64059888D01*
X185825855Y-64059888D01*
X185680712Y-63987317D01*
X185608141Y-63914745D01*
X185535570Y-63769602D01*
X185462998Y-63479317D01*
X185462998Y-63116460D01*
X185535570Y-62826174D01*
X185608141Y-62681031D01*
X185680712Y-62608460D01*
X185825855Y-62535888D01*
X187640141Y-62535888D02*
X187349855Y-62535888D01*
X187204712Y-62608460D01*
X187132141Y-62681031D01*
X186986998Y-62898745D01*
X186914427Y-63189031D01*
X186914427Y-63769602D01*
X186986998Y-63914745D01*
X187059570Y-63987317D01*
X187204712Y-64059888D01*
X187494998Y-64059888D01*
X187640141Y-63987317D01*
X187712712Y-63914745D01*
X187785284Y-63769602D01*
X187785284Y-63406745D01*
X187712712Y-63261602D01*
X187640141Y-63189031D01*
X187494998Y-63116460D01*
X187204712Y-63116460D01*
X187059570Y-63189031D01*
X186986998Y-63261602D01*
X186914427Y-63406745D01*
X188293284Y-62535888D02*
X189236712Y-62535888D01*
X188728712Y-63116460D01*
X188946427Y-63116460D01*
X189091570Y-63189031D01*
X189164141Y-63261602D01*
X189236712Y-63406745D01*
X189236712Y-63769602D01*
X189164141Y-63914745D01*
X189091570Y-63987317D01*
X188946427Y-64059888D01*
X188510998Y-64059888D01*
X188365855Y-63987317D01*
X188293284Y-63914745D01*
X190833284Y-63043888D02*
X191413855Y-63043888D01*
X191050998Y-64059888D02*
X191050998Y-62753602D01*
X191123570Y-62608460D01*
X191268712Y-62535888D01*
X191413855Y-62535888D01*
X191921855Y-64059888D02*
X191921855Y-63043888D01*
X191921855Y-62535888D02*
X191849284Y-62608460D01*
X191921855Y-62681031D01*
X191994427Y-62608460D01*
X191921855Y-62535888D01*
X191921855Y-62681031D01*
X192647570Y-63043888D02*
X192647570Y-64059888D01*
X192647570Y-63189031D02*
X192720141Y-63116460D01*
X192865284Y-63043888D01*
X193082998Y-63043888D01*
X193228141Y-63116460D01*
X193300712Y-63261602D01*
X193300712Y-64059888D01*
X194679570Y-64059888D02*
X194679570Y-63261602D01*
X194606998Y-63116460D01*
X194461855Y-63043888D01*
X194171570Y-63043888D01*
X194026427Y-63116460D01*
X194679570Y-63987317D02*
X194534427Y-64059888D01*
X194171570Y-64059888D01*
X194026427Y-63987317D01*
X193953855Y-63842174D01*
X193953855Y-63697031D01*
X194026427Y-63551888D01*
X194171570Y-63479317D01*
X194534427Y-63479317D01*
X194679570Y-63406745D01*
X195622998Y-64059888D02*
X195477855Y-63987317D01*
X195405284Y-63842174D01*
X195405284Y-62535888D01*
X197146998Y-63043888D02*
X197727570Y-63043888D01*
X197364712Y-62535888D02*
X197364712Y-63842174D01*
X197437284Y-63987317D01*
X197582427Y-64059888D01*
X197727570Y-64059888D01*
X198235570Y-64059888D02*
X198235570Y-62535888D01*
X198888712Y-64059888D02*
X198888712Y-63261602D01*
X198816141Y-63116460D01*
X198670998Y-63043888D01*
X198453284Y-63043888D01*
X198308141Y-63116460D01*
X198235570Y-63189031D01*
X199614427Y-64059888D02*
X199614427Y-63043888D01*
X199614427Y-62535888D02*
X199541855Y-62608460D01*
X199614427Y-62681031D01*
X199686998Y-62608460D01*
X199614427Y-62535888D01*
X199614427Y-62681031D01*
X200993284Y-63987317D02*
X200848141Y-64059888D01*
X200557855Y-64059888D01*
X200412712Y-63987317D01*
X200340141Y-63914745D01*
X200267570Y-63769602D01*
X200267570Y-63334174D01*
X200340141Y-63189031D01*
X200412712Y-63116460D01*
X200557855Y-63043888D01*
X200848141Y-63043888D01*
X200993284Y-63116460D01*
X201646427Y-64059888D02*
X201646427Y-62535888D01*
X201791570Y-63479317D02*
X202226998Y-64059888D01*
X202226998Y-63043888D02*
X201646427Y-63624460D01*
X202880141Y-63043888D02*
X202880141Y-64059888D01*
X202880141Y-63189031D02*
X202952712Y-63116460D01*
X203097855Y-63043888D01*
X203315570Y-63043888D01*
X203460712Y-63116460D01*
X203533284Y-63261602D01*
X203533284Y-64059888D01*
X204839570Y-63987317D02*
X204694427Y-64059888D01*
X204404141Y-64059888D01*
X204258998Y-63987317D01*
X204186427Y-63842174D01*
X204186427Y-63261602D01*
X204258998Y-63116460D01*
X204404141Y-63043888D01*
X204694427Y-63043888D01*
X204839570Y-63116460D01*
X204912141Y-63261602D01*
X204912141Y-63406745D01*
X204186427Y-63551888D01*
X205492712Y-63987317D02*
X205637855Y-64059888D01*
X205928141Y-64059888D01*
X206073284Y-63987317D01*
X206145855Y-63842174D01*
X206145855Y-63769602D01*
X206073284Y-63624460D01*
X205928141Y-63551888D01*
X205710427Y-63551888D01*
X205565284Y-63479317D01*
X205492712Y-63334174D01*
X205492712Y-63261602D01*
X205565284Y-63116460D01*
X205710427Y-63043888D01*
X205928141Y-63043888D01*
X206073284Y-63116460D01*
X206726427Y-63987317D02*
X206871570Y-64059888D01*
X207161855Y-64059888D01*
X207306998Y-63987317D01*
X207379570Y-63842174D01*
X207379570Y-63769602D01*
X207306998Y-63624460D01*
X207161855Y-63551888D01*
X206944141Y-63551888D01*
X206798998Y-63479317D01*
X206726427Y-63334174D01*
X206726427Y-63261602D01*
X206798998Y-63116460D01*
X206944141Y-63043888D01*
X207161855Y-63043888D01*
X207306998Y-63116460D01*
X183285855Y-66440957D02*
X183430998Y-66513528D01*
X183721284Y-66513528D01*
X183866427Y-66440957D01*
X183938998Y-66295814D01*
X183938998Y-66223242D01*
X183866427Y-66078100D01*
X183721284Y-66005528D01*
X183503570Y-66005528D01*
X183358427Y-65932957D01*
X183285855Y-65787814D01*
X183285855Y-65715242D01*
X183358427Y-65570100D01*
X183503570Y-65497528D01*
X183721284Y-65497528D01*
X183866427Y-65570100D01*
X184809855Y-66513528D02*
X184664712Y-66440957D01*
X184592141Y-66368385D01*
X184519570Y-66223242D01*
X184519570Y-65787814D01*
X184592141Y-65642671D01*
X184664712Y-65570100D01*
X184809855Y-65497528D01*
X185027570Y-65497528D01*
X185172712Y-65570100D01*
X185245284Y-65642671D01*
X185317855Y-65787814D01*
X185317855Y-66223242D01*
X185245284Y-66368385D01*
X185172712Y-66440957D01*
X185027570Y-66513528D01*
X184809855Y-66513528D01*
X186188712Y-66513528D02*
X186043570Y-66440957D01*
X185970998Y-66295814D01*
X185970998Y-64989528D01*
X187422427Y-66513528D02*
X187422427Y-64989528D01*
X187422427Y-66440957D02*
X187277284Y-66513528D01*
X186986998Y-66513528D01*
X186841855Y-66440957D01*
X186769284Y-66368385D01*
X186696712Y-66223242D01*
X186696712Y-65787814D01*
X186769284Y-65642671D01*
X186841855Y-65570100D01*
X186986998Y-65497528D01*
X187277284Y-65497528D01*
X187422427Y-65570100D01*
X188728712Y-66440957D02*
X188583570Y-66513528D01*
X188293284Y-66513528D01*
X188148141Y-66440957D01*
X188075570Y-66295814D01*
X188075570Y-65715242D01*
X188148141Y-65570100D01*
X188293284Y-65497528D01*
X188583570Y-65497528D01*
X188728712Y-65570100D01*
X188801284Y-65715242D01*
X188801284Y-65860385D01*
X188075570Y-66005528D01*
X189454427Y-66513528D02*
X189454427Y-65497528D01*
X189454427Y-65787814D02*
X189526998Y-65642671D01*
X189599570Y-65570100D01*
X189744712Y-65497528D01*
X189889855Y-65497528D01*
X190397855Y-66513528D02*
X190397855Y-65497528D01*
X190397855Y-65642671D02*
X190470427Y-65570100D01*
X190615570Y-65497528D01*
X190833284Y-65497528D01*
X190978427Y-65570100D01*
X191050998Y-65715242D01*
X191050998Y-66513528D01*
X191050998Y-65715242D02*
X191123570Y-65570100D01*
X191268712Y-65497528D01*
X191486427Y-65497528D01*
X191631570Y-65570100D01*
X191704141Y-65715242D01*
X191704141Y-66513528D01*
X193082998Y-66513528D02*
X193082998Y-65715242D01*
X193010427Y-65570100D01*
X192865284Y-65497528D01*
X192574998Y-65497528D01*
X192429855Y-65570100D01*
X193082998Y-66440957D02*
X192937855Y-66513528D01*
X192574998Y-66513528D01*
X192429855Y-66440957D01*
X192357284Y-66295814D01*
X192357284Y-66150671D01*
X192429855Y-66005528D01*
X192574998Y-65932957D01*
X192937855Y-65932957D01*
X193082998Y-65860385D01*
X193736141Y-66440957D02*
X193881284Y-66513528D01*
X194171570Y-66513528D01*
X194316712Y-66440957D01*
X194389284Y-66295814D01*
X194389284Y-66223242D01*
X194316712Y-66078100D01*
X194171570Y-66005528D01*
X193953855Y-66005528D01*
X193808712Y-65932957D01*
X193736141Y-65787814D01*
X193736141Y-65715242D01*
X193808712Y-65570100D01*
X193953855Y-65497528D01*
X194171570Y-65497528D01*
X194316712Y-65570100D01*
X195042427Y-66513528D02*
X195042427Y-64989528D01*
X195187570Y-65932957D02*
X195622998Y-66513528D01*
X195622998Y-65497528D02*
X195042427Y-66078100D01*
X197437284Y-66513528D02*
X197437284Y-64989528D01*
X197437284Y-65570100D02*
X197582427Y-65497528D01*
X197872712Y-65497528D01*
X198017855Y-65570100D01*
X198090427Y-65642671D01*
X198162998Y-65787814D01*
X198162998Y-66223242D01*
X198090427Y-66368385D01*
X198017855Y-66440957D01*
X197872712Y-66513528D01*
X197582427Y-66513528D01*
X197437284Y-66440957D01*
X199033855Y-66513528D02*
X198888712Y-66440957D01*
X198816141Y-66368385D01*
X198743570Y-66223242D01*
X198743570Y-65787814D01*
X198816141Y-65642671D01*
X198888712Y-65570100D01*
X199033855Y-65497528D01*
X199251570Y-65497528D01*
X199396712Y-65570100D01*
X199469284Y-65642671D01*
X199541855Y-65787814D01*
X199541855Y-66223242D01*
X199469284Y-66368385D01*
X199396712Y-66440957D01*
X199251570Y-66513528D01*
X199033855Y-66513528D01*
X199977284Y-65497528D02*
X200557855Y-65497528D01*
X200194998Y-64989528D02*
X200194998Y-66295814D01*
X200267570Y-66440957D01*
X200412712Y-66513528D01*
X200557855Y-66513528D01*
X201065855Y-66513528D02*
X201065855Y-64989528D01*
X201718998Y-66513528D02*
X201718998Y-65715242D01*
X201646427Y-65570100D01*
X201501284Y-65497528D01*
X201283570Y-65497528D01*
X201138427Y-65570100D01*
X201065855Y-65642671D01*
X203533284Y-66440957D02*
X203678427Y-66513528D01*
X203968712Y-66513528D01*
X204113855Y-66440957D01*
X204186427Y-66295814D01*
X204186427Y-66223242D01*
X204113855Y-66078100D01*
X203968712Y-66005528D01*
X203750998Y-66005528D01*
X203605855Y-65932957D01*
X203533284Y-65787814D01*
X203533284Y-65715242D01*
X203605855Y-65570100D01*
X203750998Y-65497528D01*
X203968712Y-65497528D01*
X204113855Y-65570100D01*
X204839570Y-66513528D02*
X204839570Y-65497528D01*
X204839570Y-64989528D02*
X204766998Y-65062100D01*
X204839570Y-65134671D01*
X204912141Y-65062100D01*
X204839570Y-64989528D01*
X204839570Y-65134671D01*
X206218427Y-66513528D02*
X206218427Y-64989528D01*
X206218427Y-66440957D02*
X206073284Y-66513528D01*
X205782998Y-66513528D01*
X205637855Y-66440957D01*
X205565284Y-66368385D01*
X205492712Y-66223242D01*
X205492712Y-65787814D01*
X205565284Y-65642671D01*
X205637855Y-65570100D01*
X205782998Y-65497528D01*
X206073284Y-65497528D01*
X206218427Y-65570100D01*
X207524712Y-66440957D02*
X207379570Y-66513528D01*
X207089284Y-66513528D01*
X206944141Y-66440957D01*
X206871570Y-66295814D01*
X206871570Y-65715242D01*
X206944141Y-65570100D01*
X207089284Y-65497528D01*
X207379570Y-65497528D01*
X207524712Y-65570100D01*
X207597284Y-65715242D01*
X207597284Y-65860385D01*
X206871570Y-66005528D01*
X208177855Y-66440957D02*
X208322998Y-66513528D01*
X208613284Y-66513528D01*
X208758427Y-66440957D01*
X208830998Y-66295814D01*
X208830998Y-66223242D01*
X208758427Y-66078100D01*
X208613284Y-66005528D01*
X208395570Y-66005528D01*
X208250427Y-65932957D01*
X208177855Y-65787814D01*
X208177855Y-65715242D01*
X208250427Y-65570100D01*
X208395570Y-65497528D01*
X208613284Y-65497528D01*
X208758427Y-65570100D01*
X211080712Y-67094100D02*
X211008141Y-67021528D01*
X210862998Y-66803814D01*
X210790427Y-66658671D01*
X210717855Y-66440957D01*
X210645284Y-66078100D01*
X210645284Y-65787814D01*
X210717855Y-65424957D01*
X210790427Y-65207242D01*
X210862998Y-65062100D01*
X211008141Y-64844385D01*
X211080712Y-64771814D01*
X212169284Y-65715242D02*
X212386998Y-65787814D01*
X212459570Y-65860385D01*
X212532141Y-66005528D01*
X212532141Y-66223242D01*
X212459570Y-66368385D01*
X212386998Y-66440957D01*
X212241855Y-66513528D01*
X211661284Y-66513528D01*
X211661284Y-64989528D01*
X212169284Y-64989528D01*
X212314427Y-65062100D01*
X212386998Y-65134671D01*
X212459570Y-65279814D01*
X212459570Y-65424957D01*
X212386998Y-65570100D01*
X212314427Y-65642671D01*
X212169284Y-65715242D01*
X211661284Y-65715242D01*
X213910998Y-66513528D02*
X213185284Y-66513528D01*
X213185284Y-64989528D01*
X214346427Y-66078100D02*
X215072141Y-66078100D01*
X214201284Y-66513528D02*
X214709284Y-64989528D01*
X215217284Y-66513528D01*
X216596141Y-66368385D02*
X216523570Y-66440957D01*
X216305855Y-66513528D01*
X216160712Y-66513528D01*
X215942998Y-66440957D01*
X215797855Y-66295814D01*
X215725284Y-66150671D01*
X215652712Y-65860385D01*
X215652712Y-65642671D01*
X215725284Y-65352385D01*
X215797855Y-65207242D01*
X215942998Y-65062100D01*
X216160712Y-64989528D01*
X216305855Y-64989528D01*
X216523570Y-65062100D01*
X216596141Y-65134671D01*
X217249284Y-66513528D02*
X217249284Y-64989528D01*
X218120141Y-66513528D02*
X217466998Y-65642671D01*
X218120141Y-64989528D02*
X217249284Y-65860385D01*
X218628141Y-67094100D02*
X218700712Y-67021528D01*
X218845855Y-66803814D01*
X218918427Y-66658671D01*
X218990998Y-66440957D01*
X219063570Y-66078100D01*
X219063570Y-65787814D01*
X218990998Y-65424957D01*
X218918427Y-65207242D01*
X218845855Y-65062100D01*
X218700712Y-64844385D01*
X218628141Y-64771814D01*
X222111570Y-65497528D02*
X220950427Y-65932957D01*
X222111570Y-66368385D01*
X223998427Y-65497528D02*
X222837284Y-65932957D01*
X223998427Y-66368385D01*
X224724141Y-65932957D02*
X225885284Y-65932957D01*
X226610998Y-65932957D02*
X227772141Y-65932957D01*
X229658998Y-66513528D02*
X229658998Y-64989528D01*
X230529855Y-66513528D01*
X230529855Y-64989528D01*
X231545855Y-64989528D02*
X231836141Y-64989528D01*
X231981284Y-65062100D01*
X232126427Y-65207242D01*
X232198998Y-65497528D01*
X232198998Y-66005528D01*
X232126427Y-66295814D01*
X231981284Y-66440957D01*
X231836141Y-66513528D01*
X231545855Y-66513528D01*
X231400712Y-66440957D01*
X231255570Y-66295814D01*
X231182998Y-66005528D01*
X231182998Y-65497528D01*
X231255570Y-65207242D01*
X231400712Y-65062100D01*
X231545855Y-64989528D01*
X232634427Y-64989528D02*
X233505284Y-64989528D01*
X233069855Y-66513528D02*
X233069855Y-64989528D01*
X234013284Y-65715242D02*
X234521284Y-65715242D01*
X234738998Y-66513528D02*
X234013284Y-66513528D01*
X234013284Y-64989528D01*
X234738998Y-64989528D01*
X235392141Y-66368385D02*
X235464712Y-66440957D01*
X235392141Y-66513528D01*
X235319570Y-66440957D01*
X235392141Y-66368385D01*
X235392141Y-66513528D01*
X235392141Y-65570100D02*
X235464712Y-65642671D01*
X235392141Y-65715242D01*
X235319570Y-65642671D01*
X235392141Y-65570100D01*
X235392141Y-65715242D01*
X238948141Y-65715242D02*
X239165855Y-65787814D01*
X239238427Y-65860385D01*
X239310998Y-66005528D01*
X239310998Y-66223242D01*
X239238427Y-66368385D01*
X239165855Y-66440957D01*
X239020712Y-66513528D01*
X238440141Y-66513528D01*
X238440141Y-64989528D01*
X238948141Y-64989528D01*
X239093284Y-65062100D01*
X239165855Y-65134671D01*
X239238427Y-65279814D01*
X239238427Y-65424957D01*
X239165855Y-65570100D01*
X239093284Y-65642671D01*
X238948141Y-65715242D01*
X238440141Y-65715242D01*
X240181855Y-66513528D02*
X240036712Y-66440957D01*
X239964141Y-66295814D01*
X239964141Y-64989528D01*
X241415570Y-66513528D02*
X241415570Y-65715242D01*
X241342998Y-65570100D01*
X241197855Y-65497528D01*
X240907570Y-65497528D01*
X240762427Y-65570100D01*
X241415570Y-66440957D02*
X241270427Y-66513528D01*
X240907570Y-66513528D01*
X240762427Y-66440957D01*
X240689855Y-66295814D01*
X240689855Y-66150671D01*
X240762427Y-66005528D01*
X240907570Y-65932957D01*
X241270427Y-65932957D01*
X241415570Y-65860385D01*
X242794427Y-66440957D02*
X242649284Y-66513528D01*
X242358998Y-66513528D01*
X242213855Y-66440957D01*
X242141284Y-66368385D01*
X242068712Y-66223242D01*
X242068712Y-65787814D01*
X242141284Y-65642671D01*
X242213855Y-65570100D01*
X242358998Y-65497528D01*
X242649284Y-65497528D01*
X242794427Y-65570100D01*
X243447570Y-66513528D02*
X243447570Y-64989528D01*
X243592712Y-65932957D02*
X244028141Y-66513528D01*
X244028141Y-65497528D02*
X243447570Y-66078100D01*
X245769855Y-66440957D02*
X245987570Y-66513528D01*
X246350427Y-66513528D01*
X246495570Y-66440957D01*
X246568141Y-66368385D01*
X246640712Y-66223242D01*
X246640712Y-66078100D01*
X246568141Y-65932957D01*
X246495570Y-65860385D01*
X246350427Y-65787814D01*
X246060141Y-65715242D01*
X245914998Y-65642671D01*
X245842427Y-65570100D01*
X245769855Y-65424957D01*
X245769855Y-65279814D01*
X245842427Y-65134671D01*
X245914998Y-65062100D01*
X246060141Y-64989528D01*
X246422998Y-64989528D01*
X246640712Y-65062100D01*
X247511570Y-66513528D02*
X247366427Y-66440957D01*
X247293855Y-66368385D01*
X247221284Y-66223242D01*
X247221284Y-65787814D01*
X247293855Y-65642671D01*
X247366427Y-65570100D01*
X247511570Y-65497528D01*
X247729284Y-65497528D01*
X247874427Y-65570100D01*
X247946998Y-65642671D01*
X248019570Y-65787814D01*
X248019570Y-66223242D01*
X247946998Y-66368385D01*
X247874427Y-66440957D01*
X247729284Y-66513528D01*
X247511570Y-66513528D01*
X248890427Y-66513528D02*
X248745284Y-66440957D01*
X248672712Y-66295814D01*
X248672712Y-64989528D01*
X250124141Y-66513528D02*
X250124141Y-64989528D01*
X250124141Y-66440957D02*
X249978998Y-66513528D01*
X249688712Y-66513528D01*
X249543570Y-66440957D01*
X249470998Y-66368385D01*
X249398427Y-66223242D01*
X249398427Y-65787814D01*
X249470998Y-65642671D01*
X249543570Y-65570100D01*
X249688712Y-65497528D01*
X249978998Y-65497528D01*
X250124141Y-65570100D01*
X251430427Y-66440957D02*
X251285284Y-66513528D01*
X250994998Y-66513528D01*
X250849855Y-66440957D01*
X250777284Y-66295814D01*
X250777284Y-65715242D01*
X250849855Y-65570100D01*
X250994998Y-65497528D01*
X251285284Y-65497528D01*
X251430427Y-65570100D01*
X251502998Y-65715242D01*
X251502998Y-65860385D01*
X250777284Y-66005528D01*
X252156141Y-66513528D02*
X252156141Y-65497528D01*
X252156141Y-65787814D02*
X252228712Y-65642671D01*
X252301284Y-65570100D01*
X252446427Y-65497528D01*
X252591570Y-65497528D01*
X254260712Y-66513528D02*
X254260712Y-64989528D01*
X254768712Y-66078100D01*
X255276712Y-64989528D01*
X255276712Y-66513528D01*
X256655570Y-66513528D02*
X256655570Y-65715242D01*
X256582998Y-65570100D01*
X256437855Y-65497528D01*
X256147570Y-65497528D01*
X256002427Y-65570100D01*
X256655570Y-66440957D02*
X256510427Y-66513528D01*
X256147570Y-66513528D01*
X256002427Y-66440957D01*
X255929855Y-66295814D01*
X255929855Y-66150671D01*
X256002427Y-66005528D01*
X256147570Y-65932957D01*
X256510427Y-65932957D01*
X256655570Y-65860385D01*
X257308712Y-66440957D02*
X257453855Y-66513528D01*
X257744141Y-66513528D01*
X257889284Y-66440957D01*
X257961855Y-66295814D01*
X257961855Y-66223242D01*
X257889284Y-66078100D01*
X257744141Y-66005528D01*
X257526427Y-66005528D01*
X257381284Y-65932957D01*
X257308712Y-65787814D01*
X257308712Y-65715242D01*
X257381284Y-65570100D01*
X257526427Y-65497528D01*
X257744141Y-65497528D01*
X257889284Y-65570100D01*
X258614998Y-66513528D02*
X258614998Y-64989528D01*
X258760141Y-65932957D02*
X259195570Y-66513528D01*
X259195570Y-65497528D02*
X258614998Y-66078100D01*
X261009855Y-66368385D02*
X261082427Y-66440957D01*
X261009855Y-66513528D01*
X260937284Y-66440957D01*
X261009855Y-66368385D01*
X261009855Y-66513528D01*
X261009855Y-65932957D02*
X260937284Y-65062100D01*
X261009855Y-64989528D01*
X261082427Y-65062100D01*
X261009855Y-65932957D01*
X261009855Y-64989528D01*
X261735570Y-66368385D02*
X261808141Y-66440957D01*
X261735570Y-66513528D01*
X261662998Y-66440957D01*
X261735570Y-66368385D01*
X261735570Y-66513528D01*
X261735570Y-65932957D02*
X261662998Y-65062100D01*
X261735570Y-64989528D01*
X261808141Y-65062100D01*
X261735570Y-65932957D01*
X261735570Y-64989528D01*
X184156712Y-68967168D02*
X183285855Y-68967168D01*
X183721284Y-68967168D02*
X183721284Y-67443168D01*
X183576141Y-67660882D01*
X183430998Y-67806025D01*
X183285855Y-67878597D01*
X184809855Y-68822025D02*
X184882427Y-68894597D01*
X184809855Y-68967168D01*
X184737284Y-68894597D01*
X184809855Y-68822025D01*
X184809855Y-68967168D01*
X185390427Y-67443168D02*
X186333855Y-67443168D01*
X185825855Y-68023740D01*
X186043570Y-68023740D01*
X186188712Y-68096311D01*
X186261284Y-68168882D01*
X186333855Y-68314025D01*
X186333855Y-68676882D01*
X186261284Y-68822025D01*
X186188712Y-68894597D01*
X186043570Y-68967168D01*
X185608141Y-68967168D01*
X185462998Y-68894597D01*
X185390427Y-68822025D01*
X187277284Y-67443168D02*
X187422427Y-67443168D01*
X187567570Y-67515740D01*
X187640141Y-67588311D01*
X187712712Y-67733454D01*
X187785284Y-68023740D01*
X187785284Y-68386597D01*
X187712712Y-68676882D01*
X187640141Y-68822025D01*
X187567570Y-68894597D01*
X187422427Y-68967168D01*
X187277284Y-68967168D01*
X187132141Y-68894597D01*
X187059570Y-68822025D01*
X186986998Y-68676882D01*
X186914427Y-68386597D01*
X186914427Y-68023740D01*
X186986998Y-67733454D01*
X187059570Y-67588311D01*
X187132141Y-67515740D01*
X187277284Y-67443168D01*
X188728712Y-67443168D02*
X188873855Y-67443168D01*
X189018998Y-67515740D01*
X189091570Y-67588311D01*
X189164141Y-67733454D01*
X189236712Y-68023740D01*
X189236712Y-68386597D01*
X189164141Y-68676882D01*
X189091570Y-68822025D01*
X189018998Y-68894597D01*
X188873855Y-68967168D01*
X188728712Y-68967168D01*
X188583570Y-68894597D01*
X188510998Y-68822025D01*
X188438427Y-68676882D01*
X188365855Y-68386597D01*
X188365855Y-68023740D01*
X188438427Y-67733454D01*
X188510998Y-67588311D01*
X188583570Y-67515740D01*
X188728712Y-67443168D01*
X189817284Y-67443168D02*
X189817284Y-67733454D01*
X190397855Y-67443168D02*
X190397855Y-67733454D01*
X192865284Y-68894597D02*
X192720141Y-68967168D01*
X192429855Y-68967168D01*
X192284712Y-68894597D01*
X192212141Y-68822025D01*
X192139570Y-68676882D01*
X192139570Y-68241454D01*
X192212141Y-68096311D01*
X192284712Y-68023740D01*
X192429855Y-67951168D01*
X192720141Y-67951168D01*
X192865284Y-68023740D01*
X194171570Y-67951168D02*
X194171570Y-68967168D01*
X193518427Y-67951168D02*
X193518427Y-68749454D01*
X193590998Y-68894597D01*
X193736141Y-68967168D01*
X193953855Y-68967168D01*
X194098998Y-68894597D01*
X194171570Y-68822025D01*
X194679570Y-67951168D02*
X195260141Y-67951168D01*
X194897284Y-67443168D02*
X194897284Y-68749454D01*
X194969855Y-68894597D01*
X195114998Y-68967168D01*
X195260141Y-68967168D01*
X195768141Y-68386597D02*
X196929284Y-68386597D01*
X197872712Y-68967168D02*
X197727570Y-68894597D01*
X197654998Y-68822025D01*
X197582427Y-68676882D01*
X197582427Y-68241454D01*
X197654998Y-68096311D01*
X197727570Y-68023740D01*
X197872712Y-67951168D01*
X198090427Y-67951168D01*
X198235570Y-68023740D01*
X198308141Y-68096311D01*
X198380712Y-68241454D01*
X198380712Y-68676882D01*
X198308141Y-68822025D01*
X198235570Y-68894597D01*
X198090427Y-68967168D01*
X197872712Y-68967168D01*
X199686998Y-67951168D02*
X199686998Y-68967168D01*
X199033855Y-67951168D02*
X199033855Y-68749454D01*
X199106427Y-68894597D01*
X199251570Y-68967168D01*
X199469284Y-68967168D01*
X199614427Y-68894597D01*
X199686998Y-68822025D01*
X200194998Y-67951168D02*
X200775570Y-67951168D01*
X200412712Y-67443168D02*
X200412712Y-68749454D01*
X200485284Y-68894597D01*
X200630427Y-68967168D01*
X200775570Y-68967168D01*
X203388141Y-68241454D02*
X203315570Y-68168882D01*
X203170427Y-68096311D01*
X203025284Y-68096311D01*
X202880141Y-68168882D01*
X202807570Y-68241454D01*
X202734998Y-68386597D01*
X202734998Y-68531740D01*
X202807570Y-68676882D01*
X202880141Y-68749454D01*
X203025284Y-68822025D01*
X203170427Y-68822025D01*
X203315570Y-68749454D01*
X203388141Y-68676882D01*
X203388141Y-68096311D02*
X203388141Y-68676882D01*
X203460712Y-68749454D01*
X203533284Y-68749454D01*
X203678427Y-68676882D01*
X203750998Y-68531740D01*
X203750998Y-68168882D01*
X203605855Y-67951168D01*
X203388141Y-67806025D01*
X203097855Y-67733454D01*
X202807570Y-67806025D01*
X202589855Y-67951168D01*
X202444712Y-68168882D01*
X202372141Y-68459168D01*
X202444712Y-68749454D01*
X202589855Y-68967168D01*
X202807570Y-69112311D01*
X203097855Y-69184882D01*
X203388141Y-69112311D01*
X203605855Y-68967168D01*
X206000712Y-69547740D02*
X205928141Y-69475168D01*
X205782998Y-69257454D01*
X205710427Y-69112311D01*
X205637855Y-68894597D01*
X205565284Y-68531740D01*
X205565284Y-68241454D01*
X205637855Y-67878597D01*
X205710427Y-67660882D01*
X205782998Y-67515740D01*
X205928141Y-67298025D01*
X206000712Y-67225454D01*
X207379570Y-68967168D02*
X206508712Y-68967168D01*
X206944141Y-68967168D02*
X206944141Y-67443168D01*
X206798998Y-67660882D01*
X206653855Y-67806025D01*
X206508712Y-67878597D01*
X208032712Y-68822025D02*
X208105284Y-68894597D01*
X208032712Y-68967168D01*
X207960141Y-68894597D01*
X208032712Y-68822025D01*
X208032712Y-68967168D01*
X209048712Y-67443168D02*
X209193855Y-67443168D01*
X209338998Y-67515740D01*
X209411570Y-67588311D01*
X209484141Y-67733454D01*
X209556712Y-68023740D01*
X209556712Y-68386597D01*
X209484141Y-68676882D01*
X209411570Y-68822025D01*
X209338998Y-68894597D01*
X209193855Y-68967168D01*
X209048712Y-68967168D01*
X208903570Y-68894597D01*
X208830998Y-68822025D01*
X208758427Y-68676882D01*
X208685855Y-68386597D01*
X208685855Y-68023740D01*
X208758427Y-67733454D01*
X208830998Y-67588311D01*
X208903570Y-67515740D01*
X209048712Y-67443168D01*
X210500141Y-67443168D02*
X210645284Y-67443168D01*
X210790427Y-67515740D01*
X210862998Y-67588311D01*
X210935570Y-67733454D01*
X211008141Y-68023740D01*
X211008141Y-68386597D01*
X210935570Y-68676882D01*
X210862998Y-68822025D01*
X210790427Y-68894597D01*
X210645284Y-68967168D01*
X210500141Y-68967168D01*
X210354998Y-68894597D01*
X210282427Y-68822025D01*
X210209855Y-68676882D01*
X210137284Y-68386597D01*
X210137284Y-68023740D01*
X210209855Y-67733454D01*
X210282427Y-67588311D01*
X210354998Y-67515740D01*
X210500141Y-67443168D01*
X211951570Y-67443168D02*
X212096712Y-67443168D01*
X212241855Y-67515740D01*
X212314427Y-67588311D01*
X212386998Y-67733454D01*
X212459570Y-68023740D01*
X212459570Y-68386597D01*
X212386998Y-68676882D01*
X212314427Y-68822025D01*
X212241855Y-68894597D01*
X212096712Y-68967168D01*
X211951570Y-68967168D01*
X211806427Y-68894597D01*
X211733855Y-68822025D01*
X211661284Y-68676882D01*
X211588712Y-68386597D01*
X211588712Y-68023740D01*
X211661284Y-67733454D01*
X211733855Y-67588311D01*
X211806427Y-67515740D01*
X211951570Y-67443168D01*
X213040141Y-67443168D02*
X213040141Y-67733454D01*
X213620712Y-67443168D02*
X213620712Y-67733454D01*
X214346427Y-68894597D02*
X214346427Y-68967168D01*
X214273855Y-69112311D01*
X214201284Y-69184882D01*
X216958998Y-68967168D02*
X216088141Y-68967168D01*
X216523570Y-68967168D02*
X216523570Y-67443168D01*
X216378427Y-67660882D01*
X216233284Y-67806025D01*
X216088141Y-67878597D01*
X217612141Y-68822025D02*
X217684712Y-68894597D01*
X217612141Y-68967168D01*
X217539570Y-68894597D01*
X217612141Y-68822025D01*
X217612141Y-68967168D01*
X218192712Y-67443168D02*
X219136141Y-67443168D01*
X218628141Y-68023740D01*
X218845855Y-68023740D01*
X218990998Y-68096311D01*
X219063570Y-68168882D01*
X219136141Y-68314025D01*
X219136141Y-68676882D01*
X219063570Y-68822025D01*
X218990998Y-68894597D01*
X218845855Y-68967168D01*
X218410427Y-68967168D01*
X218265284Y-68894597D01*
X218192712Y-68822025D01*
X220006998Y-68096311D02*
X219861855Y-68023740D01*
X219789284Y-67951168D01*
X219716712Y-67806025D01*
X219716712Y-67733454D01*
X219789284Y-67588311D01*
X219861855Y-67515740D01*
X220006998Y-67443168D01*
X220297284Y-67443168D01*
X220442427Y-67515740D01*
X220514998Y-67588311D01*
X220587570Y-67733454D01*
X220587570Y-67806025D01*
X220514998Y-67951168D01*
X220442427Y-68023740D01*
X220297284Y-68096311D01*
X220006998Y-68096311D01*
X219861855Y-68168882D01*
X219789284Y-68241454D01*
X219716712Y-68386597D01*
X219716712Y-68676882D01*
X219789284Y-68822025D01*
X219861855Y-68894597D01*
X220006998Y-68967168D01*
X220297284Y-68967168D01*
X220442427Y-68894597D01*
X220514998Y-68822025D01*
X220587570Y-68676882D01*
X220587570Y-68386597D01*
X220514998Y-68241454D01*
X220442427Y-68168882D01*
X220297284Y-68096311D01*
X221966427Y-67443168D02*
X221240712Y-67443168D01*
X221168141Y-68168882D01*
X221240712Y-68096311D01*
X221385855Y-68023740D01*
X221748712Y-68023740D01*
X221893855Y-68096311D01*
X221966427Y-68168882D01*
X222038998Y-68314025D01*
X222038998Y-68676882D01*
X221966427Y-68822025D01*
X221893855Y-68894597D01*
X221748712Y-68967168D01*
X221385855Y-68967168D01*
X221240712Y-68894597D01*
X221168141Y-68822025D01*
X222982427Y-67443168D02*
X223127570Y-67443168D01*
X223272712Y-67515740D01*
X223345284Y-67588311D01*
X223417855Y-67733454D01*
X223490427Y-68023740D01*
X223490427Y-68386597D01*
X223417855Y-68676882D01*
X223345284Y-68822025D01*
X223272712Y-68894597D01*
X223127570Y-68967168D01*
X222982427Y-68967168D01*
X222837284Y-68894597D01*
X222764712Y-68822025D01*
X222692141Y-68676882D01*
X222619570Y-68386597D01*
X222619570Y-68023740D01*
X222692141Y-67733454D01*
X222764712Y-67588311D01*
X222837284Y-67515740D01*
X222982427Y-67443168D01*
X224070998Y-67443168D02*
X224070998Y-67733454D01*
X224651570Y-67443168D02*
X224651570Y-67733454D01*
X225159570Y-69547740D02*
X225232141Y-69475168D01*
X225377284Y-69257454D01*
X225449855Y-69112311D01*
X225522427Y-68894597D01*
X225594998Y-68531740D01*
X225594998Y-68241454D01*
X225522427Y-67878597D01*
X225449855Y-67660882D01*
X225377284Y-67515740D01*
X225232141Y-67298025D01*
X225159570Y-67225454D01*
X228642998Y-67951168D02*
X227481855Y-68386597D01*
X228642998Y-68822025D01*
X230529855Y-67951168D02*
X229368712Y-68386597D01*
X230529855Y-68822025D01*
X231255570Y-68386597D02*
X232416712Y-68386597D01*
X233142427Y-68386597D02*
X234303570Y-68386597D01*
X236190427Y-68967168D02*
X236190427Y-67443168D01*
X237061284Y-68967168D01*
X237061284Y-67443168D01*
X238077284Y-67443168D02*
X238367570Y-67443168D01*
X238512712Y-67515740D01*
X238657855Y-67660882D01*
X238730427Y-67951168D01*
X238730427Y-68459168D01*
X238657855Y-68749454D01*
X238512712Y-68894597D01*
X238367570Y-68967168D01*
X238077284Y-68967168D01*
X237932141Y-68894597D01*
X237786998Y-68749454D01*
X237714427Y-68459168D01*
X237714427Y-67951168D01*
X237786998Y-67660882D01*
X237932141Y-67515740D01*
X238077284Y-67443168D01*
X239165855Y-67443168D02*
X240036712Y-67443168D01*
X239601284Y-68967168D02*
X239601284Y-67443168D01*
X240544712Y-68168882D02*
X241052712Y-68168882D01*
X241270427Y-68967168D02*
X240544712Y-68967168D01*
X240544712Y-67443168D01*
X241270427Y-67443168D01*
X241923570Y-68822025D02*
X241996141Y-68894597D01*
X241923570Y-68967168D01*
X241850998Y-68894597D01*
X241923570Y-68822025D01*
X241923570Y-68967168D01*
X241923570Y-68023740D02*
X241996141Y-68096311D01*
X241923570Y-68168882D01*
X241850998Y-68096311D01*
X241923570Y-68023740D01*
X241923570Y-68168882D01*
X245842427Y-68822025D02*
X245769855Y-68894597D01*
X245552141Y-68967168D01*
X245406998Y-68967168D01*
X245189284Y-68894597D01*
X245044141Y-68749454D01*
X244971570Y-68604311D01*
X244898998Y-68314025D01*
X244898998Y-68096311D01*
X244971570Y-67806025D01*
X245044141Y-67660882D01*
X245189284Y-67515740D01*
X245406998Y-67443168D01*
X245552141Y-67443168D01*
X245769855Y-67515740D01*
X245842427Y-67588311D01*
X247148712Y-67951168D02*
X247148712Y-68967168D01*
X246495570Y-67951168D02*
X246495570Y-68749454D01*
X246568141Y-68894597D01*
X246713284Y-68967168D01*
X246930998Y-68967168D01*
X247076141Y-68894597D01*
X247148712Y-68822025D01*
X247656712Y-67951168D02*
X248237284Y-67951168D01*
X247874427Y-67443168D02*
X247874427Y-68749454D01*
X247946998Y-68894597D01*
X248092141Y-68967168D01*
X248237284Y-68967168D01*
X248962998Y-68967168D02*
X248817855Y-68894597D01*
X248745284Y-68822025D01*
X248672712Y-68676882D01*
X248672712Y-68241454D01*
X248745284Y-68096311D01*
X248817855Y-68023740D01*
X248962998Y-67951168D01*
X249180712Y-67951168D01*
X249325855Y-68023740D01*
X249398427Y-68096311D01*
X249470998Y-68241454D01*
X249470998Y-68676882D01*
X249398427Y-68822025D01*
X249325855Y-68894597D01*
X249180712Y-68967168D01*
X248962998Y-68967168D01*
X250777284Y-67951168D02*
X250777284Y-68967168D01*
X250124141Y-67951168D02*
X250124141Y-68749454D01*
X250196712Y-68894597D01*
X250341855Y-68967168D01*
X250559570Y-68967168D01*
X250704712Y-68894597D01*
X250777284Y-68822025D01*
X251285284Y-67951168D02*
X251865855Y-67951168D01*
X251502998Y-67443168D02*
X251502998Y-68749454D01*
X251575570Y-68894597D01*
X251720712Y-68967168D01*
X251865855Y-68967168D01*
X253534998Y-68822025D02*
X253607570Y-68894597D01*
X253534998Y-68967168D01*
X253462427Y-68894597D01*
X253534998Y-68822025D01*
X253534998Y-68967168D01*
X253534998Y-68386597D02*
X253462427Y-67515740D01*
X253534998Y-67443168D01*
X253607570Y-67515740D01*
X253534998Y-68386597D01*
X253534998Y-67443168D01*
X254260712Y-68822025D02*
X254333284Y-68894597D01*
X254260712Y-68967168D01*
X254188141Y-68894597D01*
X254260712Y-68822025D01*
X254260712Y-68967168D01*
X254260712Y-68386597D02*
X254188141Y-67515740D01*
X254260712Y-67443168D01*
X254333284Y-67515740D01*
X254260712Y-68386597D01*
X254260712Y-67443168D01*
X183285855Y-71348237D02*
X183430998Y-71420808D01*
X183721284Y-71420808D01*
X183866427Y-71348237D01*
X183938998Y-71203094D01*
X183938998Y-71130522D01*
X183866427Y-70985380D01*
X183721284Y-70912808D01*
X183503570Y-70912808D01*
X183358427Y-70840237D01*
X183285855Y-70695094D01*
X183285855Y-70622522D01*
X183358427Y-70477380D01*
X183503570Y-70404808D01*
X183721284Y-70404808D01*
X183866427Y-70477380D01*
X184592141Y-71420808D02*
X184592141Y-70404808D01*
X184592141Y-69896808D02*
X184519570Y-69969380D01*
X184592141Y-70041951D01*
X184664712Y-69969380D01*
X184592141Y-69896808D01*
X184592141Y-70041951D01*
X185535570Y-71420808D02*
X185390427Y-71348237D01*
X185317855Y-71203094D01*
X185317855Y-69896808D01*
X186116141Y-71420808D02*
X186116141Y-69896808D01*
X186261284Y-70840237D02*
X186696712Y-71420808D01*
X186696712Y-70404808D02*
X186116141Y-70985380D01*
X187277284Y-71348237D02*
X187422427Y-71420808D01*
X187712712Y-71420808D01*
X187857855Y-71348237D01*
X187930427Y-71203094D01*
X187930427Y-71130522D01*
X187857855Y-70985380D01*
X187712712Y-70912808D01*
X187494998Y-70912808D01*
X187349855Y-70840237D01*
X187277284Y-70695094D01*
X187277284Y-70622522D01*
X187349855Y-70477380D01*
X187494998Y-70404808D01*
X187712712Y-70404808D01*
X187857855Y-70477380D01*
X189236712Y-71348237D02*
X189091570Y-71420808D01*
X188801284Y-71420808D01*
X188656141Y-71348237D01*
X188583570Y-71275665D01*
X188510998Y-71130522D01*
X188510998Y-70695094D01*
X188583570Y-70549951D01*
X188656141Y-70477380D01*
X188801284Y-70404808D01*
X189091570Y-70404808D01*
X189236712Y-70477380D01*
X189889855Y-71420808D02*
X189889855Y-70404808D01*
X189889855Y-70695094D02*
X189962427Y-70549951D01*
X190034998Y-70477380D01*
X190180141Y-70404808D01*
X190325284Y-70404808D01*
X191413855Y-71348237D02*
X191268712Y-71420808D01*
X190978427Y-71420808D01*
X190833284Y-71348237D01*
X190760712Y-71203094D01*
X190760712Y-70622522D01*
X190833284Y-70477380D01*
X190978427Y-70404808D01*
X191268712Y-70404808D01*
X191413855Y-70477380D01*
X191486427Y-70622522D01*
X191486427Y-70767665D01*
X190760712Y-70912808D01*
X192720141Y-71348237D02*
X192574998Y-71420808D01*
X192284712Y-71420808D01*
X192139570Y-71348237D01*
X192066998Y-71203094D01*
X192066998Y-70622522D01*
X192139570Y-70477380D01*
X192284712Y-70404808D01*
X192574998Y-70404808D01*
X192720141Y-70477380D01*
X192792712Y-70622522D01*
X192792712Y-70767665D01*
X192066998Y-70912808D01*
X193445855Y-70404808D02*
X193445855Y-71420808D01*
X193445855Y-70549951D02*
X193518427Y-70477380D01*
X193663570Y-70404808D01*
X193881284Y-70404808D01*
X194026427Y-70477380D01*
X194098998Y-70622522D01*
X194098998Y-71420808D01*
X196203570Y-71420808D02*
X196058427Y-71348237D01*
X195985855Y-71203094D01*
X195985855Y-69896808D01*
X197364712Y-71348237D02*
X197219570Y-71420808D01*
X196929284Y-71420808D01*
X196784141Y-71348237D01*
X196711570Y-71203094D01*
X196711570Y-70622522D01*
X196784141Y-70477380D01*
X196929284Y-70404808D01*
X197219570Y-70404808D01*
X197364712Y-70477380D01*
X197437284Y-70622522D01*
X197437284Y-70767665D01*
X196711570Y-70912808D01*
X198743570Y-70404808D02*
X198743570Y-71638522D01*
X198670998Y-71783665D01*
X198598427Y-71856237D01*
X198453284Y-71928808D01*
X198235570Y-71928808D01*
X198090427Y-71856237D01*
X198743570Y-71348237D02*
X198598427Y-71420808D01*
X198308141Y-71420808D01*
X198162998Y-71348237D01*
X198090427Y-71275665D01*
X198017855Y-71130522D01*
X198017855Y-70695094D01*
X198090427Y-70549951D01*
X198162998Y-70477380D01*
X198308141Y-70404808D01*
X198598427Y-70404808D01*
X198743570Y-70477380D01*
X200049855Y-71348237D02*
X199904712Y-71420808D01*
X199614427Y-71420808D01*
X199469284Y-71348237D01*
X199396712Y-71203094D01*
X199396712Y-70622522D01*
X199469284Y-70477380D01*
X199614427Y-70404808D01*
X199904712Y-70404808D01*
X200049855Y-70477380D01*
X200122427Y-70622522D01*
X200122427Y-70767665D01*
X199396712Y-70912808D01*
X200775570Y-70404808D02*
X200775570Y-71420808D01*
X200775570Y-70549951D02*
X200848141Y-70477380D01*
X200993284Y-70404808D01*
X201210998Y-70404808D01*
X201356141Y-70477380D01*
X201428712Y-70622522D01*
X201428712Y-71420808D01*
X202807570Y-71420808D02*
X202807570Y-69896808D01*
X202807570Y-71348237D02*
X202662427Y-71420808D01*
X202372141Y-71420808D01*
X202226998Y-71348237D01*
X202154427Y-71275665D01*
X202081855Y-71130522D01*
X202081855Y-70695094D01*
X202154427Y-70549951D01*
X202226998Y-70477380D01*
X202372141Y-70404808D01*
X202662427Y-70404808D01*
X202807570Y-70477380D01*
X204476712Y-70404808D02*
X205057284Y-70404808D01*
X204694427Y-69896808D02*
X204694427Y-71203094D01*
X204766998Y-71348237D01*
X204912141Y-71420808D01*
X205057284Y-71420808D01*
X205782998Y-71420808D02*
X205637855Y-71348237D01*
X205565284Y-71275665D01*
X205492712Y-71130522D01*
X205492712Y-70695094D01*
X205565284Y-70549951D01*
X205637855Y-70477380D01*
X205782998Y-70404808D01*
X206000712Y-70404808D01*
X206145855Y-70477380D01*
X206218427Y-70549951D01*
X206290998Y-70695094D01*
X206290998Y-71130522D01*
X206218427Y-71275665D01*
X206145855Y-71348237D01*
X206000712Y-71420808D01*
X205782998Y-71420808D01*
X206944141Y-70404808D02*
X206944141Y-71928808D01*
X206944141Y-70477380D02*
X207089284Y-70404808D01*
X207379570Y-70404808D01*
X207524712Y-70477380D01*
X207597284Y-70549951D01*
X207669855Y-70695094D01*
X207669855Y-71130522D01*
X207597284Y-71275665D01*
X207524712Y-71348237D01*
X207379570Y-71420808D01*
X207089284Y-71420808D01*
X206944141Y-71348237D01*
X209701855Y-71420808D02*
X209556712Y-71348237D01*
X209484141Y-71275665D01*
X209411570Y-71130522D01*
X209411570Y-70695094D01*
X209484141Y-70549951D01*
X209556712Y-70477380D01*
X209701855Y-70404808D01*
X209919570Y-70404808D01*
X210064712Y-70477380D01*
X210137284Y-70549951D01*
X210209855Y-70695094D01*
X210209855Y-71130522D01*
X210137284Y-71275665D01*
X210064712Y-71348237D01*
X209919570Y-71420808D01*
X209701855Y-71420808D01*
X210862998Y-70404808D02*
X210862998Y-71420808D01*
X210862998Y-70549951D02*
X210935570Y-70477380D01*
X211080712Y-70404808D01*
X211298427Y-70404808D01*
X211443570Y-70477380D01*
X211516141Y-70622522D01*
X211516141Y-71420808D01*
X212459570Y-71420808D02*
X212314427Y-71348237D01*
X212241855Y-71203094D01*
X212241855Y-69896808D01*
X212894998Y-70404808D02*
X213257855Y-71420808D01*
X213620712Y-70404808D02*
X213257855Y-71420808D01*
X213112712Y-71783665D01*
X213040141Y-71856237D01*
X212894998Y-71928808D01*
X215797855Y-72001380D02*
X215725284Y-71928808D01*
X215580141Y-71711094D01*
X215507570Y-71565951D01*
X215434998Y-71348237D01*
X215362427Y-70985380D01*
X215362427Y-70695094D01*
X215434998Y-70332237D01*
X215507570Y-70114522D01*
X215580141Y-69969380D01*
X215725284Y-69751665D01*
X215797855Y-69679094D01*
X216233284Y-70404808D02*
X216523570Y-71420808D01*
X216813855Y-70695094D01*
X217104141Y-71420808D01*
X217394427Y-70404808D01*
X217974998Y-71420808D02*
X217974998Y-69896808D01*
X218628141Y-71420808D02*
X218628141Y-70622522D01*
X218555570Y-70477380D01*
X218410427Y-70404808D01*
X218192712Y-70404808D01*
X218047570Y-70477380D01*
X217974998Y-70549951D01*
X219353855Y-71420808D02*
X219353855Y-70404808D01*
X219353855Y-69896808D02*
X219281284Y-69969380D01*
X219353855Y-70041951D01*
X219426427Y-69969380D01*
X219353855Y-69896808D01*
X219353855Y-70041951D01*
X219861855Y-70404808D02*
X220442427Y-70404808D01*
X220079570Y-69896808D02*
X220079570Y-71203094D01*
X220152141Y-71348237D01*
X220297284Y-71420808D01*
X220442427Y-71420808D01*
X221530998Y-71348237D02*
X221385855Y-71420808D01*
X221095570Y-71420808D01*
X220950427Y-71348237D01*
X220877855Y-71203094D01*
X220877855Y-70622522D01*
X220950427Y-70477380D01*
X221095570Y-70404808D01*
X221385855Y-70404808D01*
X221530998Y-70477380D01*
X221603570Y-70622522D01*
X221603570Y-70767665D01*
X220877855Y-70912808D01*
X222111570Y-72001380D02*
X222184141Y-71928808D01*
X222329284Y-71711094D01*
X222401855Y-71565951D01*
X222474427Y-71348237D01*
X222546998Y-70985380D01*
X222546998Y-70695094D01*
X222474427Y-70332237D01*
X222401855Y-70114522D01*
X222329284Y-69969380D01*
X222184141Y-69751665D01*
X222111570Y-69679094D01*
D16*
X166370000Y-72760840D02*
G75*
G03*
X166370000Y-72760840I-16510000J0D01*
G01*
X124460000Y-107950000D02*
X173990000Y-107950000D01*
X124460000Y-49530000D02*
X173990000Y-49530000D01*
X173990000Y-49530000D02*
X173990000Y-107950000D01*
X124460000Y-49530000D02*
X124460000Y-107950000D01*
M02*
