%TF.GenerationSoftware,KiCad,Pcbnew,(6.0.1)*%
%TF.CreationDate,2022-03-10T11:24:42-03:00*%
%TF.ProjectId,Vial_Board,5669616c-5f42-46f6-9172-642e6b696361,rev?*%
%TF.SameCoordinates,Original*%
%TF.FileFunction,Legend,Top*%
%TF.FilePolarity,Positive*%
%FSLAX46Y46*%
G04 Gerber Fmt 4.6, Leading zero omitted, Abs format (unit mm)*
G04 Created by KiCad (PCBNEW (6.0.1)) date 2022-03-10 11:24:42*
%MOMM*%
%LPD*%
G01*
G04 APERTURE LIST*
%ADD10C,0.100000*%
%ADD11C,0.150000*%
%ADD12C,0.300000*%
%ADD13C,0.400000*%
%ADD14C,0.215900*%
%ADD15C,0.177800*%
%ADD16C,0.254000*%
%TA.AperFunction,Profile*%
%ADD17C,0.150000*%
%TD*%
%ADD18C,0.120000*%
%ADD19C,3.199994*%
%ADD20C,1.524000*%
%ADD21C,1.750000*%
G04 APERTURE END LIST*
D10*
D11*
X177002200Y-166007200D02*
X177002200Y-198007200D01*
X285002200Y-198007200D01*
X285002200Y-166007200D01*
X177002200Y-166007200D01*
D10*
D11*
X10000000Y-10000000D02*
X10000000Y-200007200D01*
X287002200Y-200007200D01*
X287002200Y-10000000D01*
X10000000Y-10000000D01*
D10*
D11*
X12000000Y-12000000D02*
X12000000Y-198007200D01*
X285002200Y-198007200D01*
X285002200Y-12000000D01*
X12000000Y-12000000D01*
D10*
D11*
X60000000Y-12000000D02*
X60000000Y-10000000D01*
D10*
D11*
X110000000Y-12000000D02*
X110000000Y-10000000D01*
D10*
D11*
X160000000Y-12000000D02*
X160000000Y-10000000D01*
D10*
D11*
X210000000Y-12000000D02*
X210000000Y-10000000D01*
D10*
D11*
X260000000Y-12000000D02*
X260000000Y-10000000D01*
D10*
D11*
X36065476Y-11588095D02*
X35322619Y-11588095D01*
X35694047Y-11588095D02*
X35694047Y-10288095D01*
X35570238Y-10473809D01*
X35446428Y-10597619D01*
X35322619Y-10659523D01*
D10*
D11*
X85322619Y-10411904D02*
X85384523Y-10350000D01*
X85508333Y-10288095D01*
X85817857Y-10288095D01*
X85941666Y-10350000D01*
X86003571Y-10411904D01*
X86065476Y-10535714D01*
X86065476Y-10659523D01*
X86003571Y-10845238D01*
X85260714Y-11588095D01*
X86065476Y-11588095D01*
D10*
D11*
X135260714Y-10288095D02*
X136065476Y-10288095D01*
X135632142Y-10783333D01*
X135817857Y-10783333D01*
X135941666Y-10845238D01*
X136003571Y-10907142D01*
X136065476Y-11030952D01*
X136065476Y-11340476D01*
X136003571Y-11464285D01*
X135941666Y-11526190D01*
X135817857Y-11588095D01*
X135446428Y-11588095D01*
X135322619Y-11526190D01*
X135260714Y-11464285D01*
D10*
D11*
X185941666Y-10721428D02*
X185941666Y-11588095D01*
X185632142Y-10226190D02*
X185322619Y-11154761D01*
X186127380Y-11154761D01*
D10*
D11*
X236003571Y-10288095D02*
X235384523Y-10288095D01*
X235322619Y-10907142D01*
X235384523Y-10845238D01*
X235508333Y-10783333D01*
X235817857Y-10783333D01*
X235941666Y-10845238D01*
X236003571Y-10907142D01*
X236065476Y-11030952D01*
X236065476Y-11340476D01*
X236003571Y-11464285D01*
X235941666Y-11526190D01*
X235817857Y-11588095D01*
X235508333Y-11588095D01*
X235384523Y-11526190D01*
X235322619Y-11464285D01*
D10*
D11*
X285941666Y-10288095D02*
X285694047Y-10288095D01*
X285570238Y-10350000D01*
X285508333Y-10411904D01*
X285384523Y-10597619D01*
X285322619Y-10845238D01*
X285322619Y-11340476D01*
X285384523Y-11464285D01*
X285446428Y-11526190D01*
X285570238Y-11588095D01*
X285817857Y-11588095D01*
X285941666Y-11526190D01*
X286003571Y-11464285D01*
X286065476Y-11340476D01*
X286065476Y-11030952D01*
X286003571Y-10907142D01*
X285941666Y-10845238D01*
X285817857Y-10783333D01*
X285570238Y-10783333D01*
X285446428Y-10845238D01*
X285384523Y-10907142D01*
X285322619Y-11030952D01*
D10*
D11*
X60000000Y-198007200D02*
X60000000Y-200007200D01*
D10*
D11*
X110000000Y-198007200D02*
X110000000Y-200007200D01*
D10*
D11*
X160000000Y-198007200D02*
X160000000Y-200007200D01*
D10*
D11*
X210000000Y-198007200D02*
X210000000Y-200007200D01*
D10*
D11*
X260000000Y-198007200D02*
X260000000Y-200007200D01*
D10*
D11*
X36065476Y-199595295D02*
X35322619Y-199595295D01*
X35694047Y-199595295D02*
X35694047Y-198295295D01*
X35570238Y-198481009D01*
X35446428Y-198604819D01*
X35322619Y-198666723D01*
D10*
D11*
X85322619Y-198419104D02*
X85384523Y-198357200D01*
X85508333Y-198295295D01*
X85817857Y-198295295D01*
X85941666Y-198357200D01*
X86003571Y-198419104D01*
X86065476Y-198542914D01*
X86065476Y-198666723D01*
X86003571Y-198852438D01*
X85260714Y-199595295D01*
X86065476Y-199595295D01*
D10*
D11*
X135260714Y-198295295D02*
X136065476Y-198295295D01*
X135632142Y-198790533D01*
X135817857Y-198790533D01*
X135941666Y-198852438D01*
X136003571Y-198914342D01*
X136065476Y-199038152D01*
X136065476Y-199347676D01*
X136003571Y-199471485D01*
X135941666Y-199533390D01*
X135817857Y-199595295D01*
X135446428Y-199595295D01*
X135322619Y-199533390D01*
X135260714Y-199471485D01*
D10*
D11*
X185941666Y-198728628D02*
X185941666Y-199595295D01*
X185632142Y-198233390D02*
X185322619Y-199161961D01*
X186127380Y-199161961D01*
D10*
D11*
X236003571Y-198295295D02*
X235384523Y-198295295D01*
X235322619Y-198914342D01*
X235384523Y-198852438D01*
X235508333Y-198790533D01*
X235817857Y-198790533D01*
X235941666Y-198852438D01*
X236003571Y-198914342D01*
X236065476Y-199038152D01*
X236065476Y-199347676D01*
X236003571Y-199471485D01*
X235941666Y-199533390D01*
X235817857Y-199595295D01*
X235508333Y-199595295D01*
X235384523Y-199533390D01*
X235322619Y-199471485D01*
D10*
D11*
X285941666Y-198295295D02*
X285694047Y-198295295D01*
X285570238Y-198357200D01*
X285508333Y-198419104D01*
X285384523Y-198604819D01*
X285322619Y-198852438D01*
X285322619Y-199347676D01*
X285384523Y-199471485D01*
X285446428Y-199533390D01*
X285570238Y-199595295D01*
X285817857Y-199595295D01*
X285941666Y-199533390D01*
X286003571Y-199471485D01*
X286065476Y-199347676D01*
X286065476Y-199038152D01*
X286003571Y-198914342D01*
X285941666Y-198852438D01*
X285817857Y-198790533D01*
X285570238Y-198790533D01*
X285446428Y-198852438D01*
X285384523Y-198914342D01*
X285322619Y-199038152D01*
D10*
D11*
X10000000Y-60000000D02*
X12000000Y-60000000D01*
D10*
D11*
X10000000Y-110000000D02*
X12000000Y-110000000D01*
D10*
D11*
X10000000Y-160000000D02*
X12000000Y-160000000D01*
D10*
D11*
X10690476Y-35216666D02*
X11309523Y-35216666D01*
X10566666Y-35588095D02*
X11000000Y-34288095D01*
X11433333Y-35588095D01*
D10*
D11*
X11092857Y-84907142D02*
X11278571Y-84969047D01*
X11340476Y-85030952D01*
X11402380Y-85154761D01*
X11402380Y-85340476D01*
X11340476Y-85464285D01*
X11278571Y-85526190D01*
X11154761Y-85588095D01*
X10659523Y-85588095D01*
X10659523Y-84288095D01*
X11092857Y-84288095D01*
X11216666Y-84350000D01*
X11278571Y-84411904D01*
X11340476Y-84535714D01*
X11340476Y-84659523D01*
X11278571Y-84783333D01*
X11216666Y-84845238D01*
X11092857Y-84907142D01*
X10659523Y-84907142D01*
D10*
D11*
X11402380Y-135464285D02*
X11340476Y-135526190D01*
X11154761Y-135588095D01*
X11030952Y-135588095D01*
X10845238Y-135526190D01*
X10721428Y-135402380D01*
X10659523Y-135278571D01*
X10597619Y-135030952D01*
X10597619Y-134845238D01*
X10659523Y-134597619D01*
X10721428Y-134473809D01*
X10845238Y-134350000D01*
X11030952Y-134288095D01*
X11154761Y-134288095D01*
X11340476Y-134350000D01*
X11402380Y-134411904D01*
D10*
D11*
X10659523Y-185588095D02*
X10659523Y-184288095D01*
X10969047Y-184288095D01*
X11154761Y-184350000D01*
X11278571Y-184473809D01*
X11340476Y-184597619D01*
X11402380Y-184845238D01*
X11402380Y-185030952D01*
X11340476Y-185278571D01*
X11278571Y-185402380D01*
X11154761Y-185526190D01*
X10969047Y-185588095D01*
X10659523Y-185588095D01*
D10*
D11*
X287002200Y-60000000D02*
X285002200Y-60000000D01*
D10*
D11*
X287002200Y-110000000D02*
X285002200Y-110000000D01*
D10*
D11*
X287002200Y-160000000D02*
X285002200Y-160000000D01*
D10*
D11*
X285692676Y-35216666D02*
X286311723Y-35216666D01*
X285568866Y-35588095D02*
X286002200Y-34288095D01*
X286435533Y-35588095D01*
D10*
D11*
X286095057Y-84907142D02*
X286280771Y-84969047D01*
X286342676Y-85030952D01*
X286404580Y-85154761D01*
X286404580Y-85340476D01*
X286342676Y-85464285D01*
X286280771Y-85526190D01*
X286156961Y-85588095D01*
X285661723Y-85588095D01*
X285661723Y-84288095D01*
X286095057Y-84288095D01*
X286218866Y-84350000D01*
X286280771Y-84411904D01*
X286342676Y-84535714D01*
X286342676Y-84659523D01*
X286280771Y-84783333D01*
X286218866Y-84845238D01*
X286095057Y-84907142D01*
X285661723Y-84907142D01*
D10*
D11*
X286404580Y-135464285D02*
X286342676Y-135526190D01*
X286156961Y-135588095D01*
X286033152Y-135588095D01*
X285847438Y-135526190D01*
X285723628Y-135402380D01*
X285661723Y-135278571D01*
X285599819Y-135030952D01*
X285599819Y-134845238D01*
X285661723Y-134597619D01*
X285723628Y-134473809D01*
X285847438Y-134350000D01*
X286033152Y-134288095D01*
X286156961Y-134288095D01*
X286342676Y-134350000D01*
X286404580Y-134411904D01*
D10*
D11*
X285661723Y-185588095D02*
X285661723Y-184288095D01*
X285971247Y-184288095D01*
X286156961Y-184350000D01*
X286280771Y-184473809D01*
X286342676Y-184597619D01*
X286404580Y-184845238D01*
X286404580Y-185030952D01*
X286342676Y-185278571D01*
X286280771Y-185402380D01*
X286156961Y-185526190D01*
X285971247Y-185588095D01*
X285661723Y-185588095D01*
D10*
D11*
X200434342Y-193785771D02*
X200434342Y-192285771D01*
X200791485Y-192285771D01*
X201005771Y-192357200D01*
X201148628Y-192500057D01*
X201220057Y-192642914D01*
X201291485Y-192928628D01*
X201291485Y-193142914D01*
X201220057Y-193428628D01*
X201148628Y-193571485D01*
X201005771Y-193714342D01*
X200791485Y-193785771D01*
X200434342Y-193785771D01*
X202577200Y-193785771D02*
X202577200Y-193000057D01*
X202505771Y-192857200D01*
X202362914Y-192785771D01*
X202077200Y-192785771D01*
X201934342Y-192857200D01*
X202577200Y-193714342D02*
X202434342Y-193785771D01*
X202077200Y-193785771D01*
X201934342Y-193714342D01*
X201862914Y-193571485D01*
X201862914Y-193428628D01*
X201934342Y-193285771D01*
X202077200Y-193214342D01*
X202434342Y-193214342D01*
X202577200Y-193142914D01*
X203077200Y-192785771D02*
X203648628Y-192785771D01*
X203291485Y-192285771D02*
X203291485Y-193571485D01*
X203362914Y-193714342D01*
X203505771Y-193785771D01*
X203648628Y-193785771D01*
X204720057Y-193714342D02*
X204577200Y-193785771D01*
X204291485Y-193785771D01*
X204148628Y-193714342D01*
X204077200Y-193571485D01*
X204077200Y-193000057D01*
X204148628Y-192857200D01*
X204291485Y-192785771D01*
X204577200Y-192785771D01*
X204720057Y-192857200D01*
X204791485Y-193000057D01*
X204791485Y-193142914D01*
X204077200Y-193285771D01*
X205434342Y-193642914D02*
X205505771Y-193714342D01*
X205434342Y-193785771D01*
X205362914Y-193714342D01*
X205434342Y-193642914D01*
X205434342Y-193785771D01*
X205434342Y-192857200D02*
X205505771Y-192928628D01*
X205434342Y-193000057D01*
X205362914Y-192928628D01*
X205434342Y-192857200D01*
X205434342Y-193000057D01*
D10*
D11*
X177002200Y-194507200D02*
X285002200Y-194507200D01*
D10*
D11*
X178434342Y-196585771D02*
X178434342Y-195085771D01*
X179291485Y-196585771D02*
X178648628Y-195728628D01*
X179291485Y-195085771D02*
X178434342Y-195942914D01*
X179934342Y-196585771D02*
X179934342Y-195585771D01*
X179934342Y-195085771D02*
X179862914Y-195157200D01*
X179934342Y-195228628D01*
X180005771Y-195157200D01*
X179934342Y-195085771D01*
X179934342Y-195228628D01*
X181505771Y-196442914D02*
X181434342Y-196514342D01*
X181220057Y-196585771D01*
X181077200Y-196585771D01*
X180862914Y-196514342D01*
X180720057Y-196371485D01*
X180648628Y-196228628D01*
X180577200Y-195942914D01*
X180577200Y-195728628D01*
X180648628Y-195442914D01*
X180720057Y-195300057D01*
X180862914Y-195157200D01*
X181077200Y-195085771D01*
X181220057Y-195085771D01*
X181434342Y-195157200D01*
X181505771Y-195228628D01*
X182791485Y-196585771D02*
X182791485Y-195800057D01*
X182720057Y-195657200D01*
X182577200Y-195585771D01*
X182291485Y-195585771D01*
X182148628Y-195657200D01*
X182791485Y-196514342D02*
X182648628Y-196585771D01*
X182291485Y-196585771D01*
X182148628Y-196514342D01*
X182077200Y-196371485D01*
X182077200Y-196228628D01*
X182148628Y-196085771D01*
X182291485Y-196014342D01*
X182648628Y-196014342D01*
X182791485Y-195942914D01*
X184148628Y-196585771D02*
X184148628Y-195085771D01*
X184148628Y-196514342D02*
X184005771Y-196585771D01*
X183720057Y-196585771D01*
X183577200Y-196514342D01*
X183505771Y-196442914D01*
X183434342Y-196300057D01*
X183434342Y-195871485D01*
X183505771Y-195728628D01*
X183577200Y-195657200D01*
X183720057Y-195585771D01*
X184005771Y-195585771D01*
X184148628Y-195657200D01*
X186005771Y-195800057D02*
X186505771Y-195800057D01*
X186720057Y-196585771D02*
X186005771Y-196585771D01*
X186005771Y-195085771D01*
X186720057Y-195085771D01*
X187362914Y-196442914D02*
X187434342Y-196514342D01*
X187362914Y-196585771D01*
X187291485Y-196514342D01*
X187362914Y-196442914D01*
X187362914Y-196585771D01*
X188077200Y-196585771D02*
X188077200Y-195085771D01*
X188434342Y-195085771D01*
X188648628Y-195157200D01*
X188791485Y-195300057D01*
X188862914Y-195442914D01*
X188934342Y-195728628D01*
X188934342Y-195942914D01*
X188862914Y-196228628D01*
X188791485Y-196371485D01*
X188648628Y-196514342D01*
X188434342Y-196585771D01*
X188077200Y-196585771D01*
X189577200Y-196442914D02*
X189648628Y-196514342D01*
X189577200Y-196585771D01*
X189505771Y-196514342D01*
X189577200Y-196442914D01*
X189577200Y-196585771D01*
X190220057Y-196157200D02*
X190934342Y-196157200D01*
X190077200Y-196585771D02*
X190577200Y-195085771D01*
X191077200Y-196585771D01*
X191577200Y-196442914D02*
X191648628Y-196514342D01*
X191577200Y-196585771D01*
X191505771Y-196514342D01*
X191577200Y-196442914D01*
X191577200Y-196585771D01*
X194577200Y-195585771D02*
X194577200Y-197085771D01*
X194577200Y-195657200D02*
X194720057Y-195585771D01*
X195005771Y-195585771D01*
X195148628Y-195657200D01*
X195220057Y-195728628D01*
X195291485Y-195871485D01*
X195291485Y-196300057D01*
X195220057Y-196442914D01*
X195148628Y-196514342D01*
X195005771Y-196585771D01*
X194720057Y-196585771D01*
X194577200Y-196514342D01*
X196577200Y-196514342D02*
X196434342Y-196585771D01*
X196148628Y-196585771D01*
X196005771Y-196514342D01*
X195934342Y-196442914D01*
X195862914Y-196300057D01*
X195862914Y-195871485D01*
X195934342Y-195728628D01*
X196005771Y-195657200D01*
X196148628Y-195585771D01*
X196434342Y-195585771D01*
X196577200Y-195657200D01*
X197220057Y-196585771D02*
X197220057Y-195085771D01*
X197220057Y-195657200D02*
X197362914Y-195585771D01*
X197648628Y-195585771D01*
X197791485Y-195657200D01*
X197862914Y-195728628D01*
X197934342Y-195871485D01*
X197934342Y-196300057D01*
X197862914Y-196442914D01*
X197791485Y-196514342D01*
X197648628Y-196585771D01*
X197362914Y-196585771D01*
X197220057Y-196514342D01*
X198577200Y-195585771D02*
X198577200Y-196585771D01*
X198577200Y-195728628D02*
X198648628Y-195657200D01*
X198791485Y-195585771D01*
X199005771Y-195585771D01*
X199148628Y-195657200D01*
X199220057Y-195800057D01*
X199220057Y-196585771D01*
X200505771Y-196514342D02*
X200362914Y-196585771D01*
X200077200Y-196585771D01*
X199934342Y-196514342D01*
X199862914Y-196371485D01*
X199862914Y-195800057D01*
X199934342Y-195657200D01*
X200077200Y-195585771D01*
X200362914Y-195585771D01*
X200505771Y-195657200D01*
X200577200Y-195800057D01*
X200577200Y-195942914D01*
X199862914Y-196085771D01*
X201077200Y-195585771D02*
X201362914Y-196585771D01*
X201648628Y-195871485D01*
X201934342Y-196585771D01*
X202220057Y-195585771D01*
X204362914Y-197157200D02*
X204291485Y-197085771D01*
X204148628Y-196871485D01*
X204077200Y-196728628D01*
X204005771Y-196514342D01*
X203934342Y-196157200D01*
X203934342Y-195871485D01*
X204005771Y-195514342D01*
X204077200Y-195300057D01*
X204148628Y-195157200D01*
X204291485Y-194942914D01*
X204362914Y-194871485D01*
X205577200Y-195085771D02*
X205291485Y-195085771D01*
X205148628Y-195157200D01*
X205077200Y-195228628D01*
X204934342Y-195442914D01*
X204862914Y-195728628D01*
X204862914Y-196300057D01*
X204934342Y-196442914D01*
X205005771Y-196514342D01*
X205148628Y-196585771D01*
X205434342Y-196585771D01*
X205577200Y-196514342D01*
X205648628Y-196442914D01*
X205720057Y-196300057D01*
X205720057Y-195942914D01*
X205648628Y-195800057D01*
X205577200Y-195728628D01*
X205434342Y-195657200D01*
X205148628Y-195657200D01*
X205005771Y-195728628D01*
X204934342Y-195800057D01*
X204862914Y-195942914D01*
X206362914Y-196442914D02*
X206434342Y-196514342D01*
X206362914Y-196585771D01*
X206291485Y-196514342D01*
X206362914Y-196442914D01*
X206362914Y-196585771D01*
X207362914Y-195085771D02*
X207505771Y-195085771D01*
X207648628Y-195157200D01*
X207720057Y-195228628D01*
X207791485Y-195371485D01*
X207862914Y-195657200D01*
X207862914Y-196014342D01*
X207791485Y-196300057D01*
X207720057Y-196442914D01*
X207648628Y-196514342D01*
X207505771Y-196585771D01*
X207362914Y-196585771D01*
X207220057Y-196514342D01*
X207148628Y-196442914D01*
X207077200Y-196300057D01*
X207005771Y-196014342D01*
X207005771Y-195657200D01*
X207077200Y-195371485D01*
X207148628Y-195228628D01*
X207220057Y-195157200D01*
X207362914Y-195085771D01*
X208505771Y-196442914D02*
X208577200Y-196514342D01*
X208505771Y-196585771D01*
X208434342Y-196514342D01*
X208505771Y-196442914D01*
X208505771Y-196585771D01*
X210005771Y-196585771D02*
X209148628Y-196585771D01*
X209577200Y-196585771D02*
X209577200Y-195085771D01*
X209434342Y-195300057D01*
X209291485Y-195442914D01*
X209148628Y-195514342D01*
X210505771Y-197157200D02*
X210577200Y-197085771D01*
X210720057Y-196871485D01*
X210791485Y-196728628D01*
X210862914Y-196514342D01*
X210934342Y-196157200D01*
X210934342Y-195871485D01*
X210862914Y-195514342D01*
X210791485Y-195300057D01*
X210720057Y-195157200D01*
X210577200Y-194942914D01*
X210505771Y-194871485D01*
D10*
D11*
X177002200Y-191507200D02*
X285002200Y-191507200D01*
D10*
D12*
X264411485Y-193785771D02*
X263911485Y-193071485D01*
X263554342Y-193785771D02*
X263554342Y-192285771D01*
X264125771Y-192285771D01*
X264268628Y-192357200D01*
X264340057Y-192428628D01*
X264411485Y-192571485D01*
X264411485Y-192785771D01*
X264340057Y-192928628D01*
X264268628Y-193000057D01*
X264125771Y-193071485D01*
X263554342Y-193071485D01*
X265625771Y-193714342D02*
X265482914Y-193785771D01*
X265197200Y-193785771D01*
X265054342Y-193714342D01*
X264982914Y-193571485D01*
X264982914Y-193000057D01*
X265054342Y-192857200D01*
X265197200Y-192785771D01*
X265482914Y-192785771D01*
X265625771Y-192857200D01*
X265697200Y-193000057D01*
X265697200Y-193142914D01*
X264982914Y-193285771D01*
X266197200Y-192785771D02*
X266554342Y-193785771D01*
X266911485Y-192785771D01*
X267482914Y-193642914D02*
X267554342Y-193714342D01*
X267482914Y-193785771D01*
X267411485Y-193714342D01*
X267482914Y-193642914D01*
X267482914Y-193785771D01*
X267482914Y-192857200D02*
X267554342Y-192928628D01*
X267482914Y-193000057D01*
X267411485Y-192928628D01*
X267482914Y-192857200D01*
X267482914Y-193000057D01*
D10*
D11*
X178362914Y-193714342D02*
X178577200Y-193785771D01*
X178934342Y-193785771D01*
X179077200Y-193714342D01*
X179148628Y-193642914D01*
X179220057Y-193500057D01*
X179220057Y-193357200D01*
X179148628Y-193214342D01*
X179077200Y-193142914D01*
X178934342Y-193071485D01*
X178648628Y-193000057D01*
X178505771Y-192928628D01*
X178434342Y-192857200D01*
X178362914Y-192714342D01*
X178362914Y-192571485D01*
X178434342Y-192428628D01*
X178505771Y-192357200D01*
X178648628Y-192285771D01*
X179005771Y-192285771D01*
X179220057Y-192357200D01*
X179862914Y-193785771D02*
X179862914Y-192785771D01*
X179862914Y-192285771D02*
X179791485Y-192357200D01*
X179862914Y-192428628D01*
X179934342Y-192357200D01*
X179862914Y-192285771D01*
X179862914Y-192428628D01*
X180434342Y-192785771D02*
X181220057Y-192785771D01*
X180434342Y-193785771D01*
X181220057Y-193785771D01*
X182362914Y-193714342D02*
X182220057Y-193785771D01*
X181934342Y-193785771D01*
X181791485Y-193714342D01*
X181720057Y-193571485D01*
X181720057Y-193000057D01*
X181791485Y-192857200D01*
X181934342Y-192785771D01*
X182220057Y-192785771D01*
X182362914Y-192857200D01*
X182434342Y-193000057D01*
X182434342Y-193142914D01*
X181720057Y-193285771D01*
X183077200Y-193642914D02*
X183148628Y-193714342D01*
X183077200Y-193785771D01*
X183005771Y-193714342D01*
X183077200Y-193642914D01*
X183077200Y-193785771D01*
X183077200Y-192857200D02*
X183148628Y-192928628D01*
X183077200Y-193000057D01*
X183005771Y-192928628D01*
X183077200Y-192857200D01*
X183077200Y-193000057D01*
X184862914Y-193357200D02*
X185577200Y-193357200D01*
X184720057Y-193785771D02*
X185220057Y-192285771D01*
X185720057Y-193785771D01*
X186862914Y-192785771D02*
X186862914Y-193785771D01*
X186505771Y-192214342D02*
X186148628Y-193285771D01*
X187077200Y-193285771D01*
D10*
D11*
X263434342Y-196585771D02*
X263434342Y-195085771D01*
X264791485Y-196585771D02*
X264791485Y-195085771D01*
X264791485Y-196514342D02*
X264648628Y-196585771D01*
X264362914Y-196585771D01*
X264220057Y-196514342D01*
X264148628Y-196442914D01*
X264077200Y-196300057D01*
X264077200Y-195871485D01*
X264148628Y-195728628D01*
X264220057Y-195657200D01*
X264362914Y-195585771D01*
X264648628Y-195585771D01*
X264791485Y-195657200D01*
X265505771Y-196442914D02*
X265577200Y-196514342D01*
X265505771Y-196585771D01*
X265434342Y-196514342D01*
X265505771Y-196442914D01*
X265505771Y-196585771D01*
X265505771Y-195657200D02*
X265577200Y-195728628D01*
X265505771Y-195800057D01*
X265434342Y-195728628D01*
X265505771Y-195657200D01*
X265505771Y-195800057D01*
X268148628Y-196585771D02*
X267291485Y-196585771D01*
X267720057Y-196585771D02*
X267720057Y-195085771D01*
X267577200Y-195300057D01*
X267434342Y-195442914D01*
X267291485Y-195514342D01*
X269862914Y-195014342D02*
X268577200Y-196942914D01*
X271148628Y-196585771D02*
X270291485Y-196585771D01*
X270720057Y-196585771D02*
X270720057Y-195085771D01*
X270577200Y-195300057D01*
X270434342Y-195442914D01*
X270291485Y-195514342D01*
D10*
D11*
X177002200Y-187507200D02*
X285002200Y-187507200D01*
D10*
D13*
X178714580Y-188211961D02*
X179857438Y-188211961D01*
X179036009Y-190211961D02*
X179286009Y-188211961D01*
X180274104Y-190211961D02*
X180440771Y-188878628D01*
X180524104Y-188211961D02*
X180416961Y-188307200D01*
X180500295Y-188402438D01*
X180607438Y-188307200D01*
X180524104Y-188211961D01*
X180500295Y-188402438D01*
X181107438Y-188878628D02*
X181869342Y-188878628D01*
X181476485Y-188211961D02*
X181262200Y-189926247D01*
X181333628Y-190116723D01*
X181512200Y-190211961D01*
X181702676Y-190211961D01*
X182655057Y-190211961D02*
X182476485Y-190116723D01*
X182405057Y-189926247D01*
X182619342Y-188211961D01*
X184190771Y-190116723D02*
X183988390Y-190211961D01*
X183607438Y-190211961D01*
X183428866Y-190116723D01*
X183357438Y-189926247D01*
X183452676Y-189164342D01*
X183571723Y-188973866D01*
X183774104Y-188878628D01*
X184155057Y-188878628D01*
X184333628Y-188973866D01*
X184405057Y-189164342D01*
X184381247Y-189354819D01*
X183405057Y-189545295D01*
X185155057Y-190021485D02*
X185238390Y-190116723D01*
X185131247Y-190211961D01*
X185047914Y-190116723D01*
X185155057Y-190021485D01*
X185131247Y-190211961D01*
X185286009Y-188973866D02*
X185369342Y-189069104D01*
X185262200Y-189164342D01*
X185178866Y-189069104D01*
X185286009Y-188973866D01*
X185262200Y-189164342D01*
D10*
D11*
X178934342Y-185600057D02*
X178434342Y-185600057D01*
X178434342Y-186385771D02*
X178434342Y-184885771D01*
X179148628Y-184885771D01*
X179720057Y-186385771D02*
X179720057Y-185385771D01*
X179720057Y-184885771D02*
X179648628Y-184957200D01*
X179720057Y-185028628D01*
X179791485Y-184957200D01*
X179720057Y-184885771D01*
X179720057Y-185028628D01*
X180648628Y-186385771D02*
X180505771Y-186314342D01*
X180434342Y-186171485D01*
X180434342Y-184885771D01*
X181791485Y-186314342D02*
X181648628Y-186385771D01*
X181362914Y-186385771D01*
X181220057Y-186314342D01*
X181148628Y-186171485D01*
X181148628Y-185600057D01*
X181220057Y-185457200D01*
X181362914Y-185385771D01*
X181648628Y-185385771D01*
X181791485Y-185457200D01*
X181862914Y-185600057D01*
X181862914Y-185742914D01*
X181148628Y-185885771D01*
X182505771Y-186242914D02*
X182577200Y-186314342D01*
X182505771Y-186385771D01*
X182434342Y-186314342D01*
X182505771Y-186242914D01*
X182505771Y-186385771D01*
X182505771Y-185457200D02*
X182577200Y-185528628D01*
X182505771Y-185600057D01*
X182434342Y-185528628D01*
X182505771Y-185457200D01*
X182505771Y-185600057D01*
X184148628Y-184885771D02*
X184648628Y-186385771D01*
X185148628Y-184885771D01*
X185648628Y-186385771D02*
X185648628Y-185385771D01*
X185648628Y-184885771D02*
X185577200Y-184957200D01*
X185648628Y-185028628D01*
X185720057Y-184957200D01*
X185648628Y-184885771D01*
X185648628Y-185028628D01*
X187005771Y-186385771D02*
X187005771Y-185600057D01*
X186934342Y-185457200D01*
X186791485Y-185385771D01*
X186505771Y-185385771D01*
X186362914Y-185457200D01*
X187005771Y-186314342D02*
X186862914Y-186385771D01*
X186505771Y-186385771D01*
X186362914Y-186314342D01*
X186291485Y-186171485D01*
X186291485Y-186028628D01*
X186362914Y-185885771D01*
X186505771Y-185814342D01*
X186862914Y-185814342D01*
X187005771Y-185742914D01*
X187934342Y-186385771D02*
X187791485Y-186314342D01*
X187720057Y-186171485D01*
X187720057Y-184885771D01*
X188148628Y-186528628D02*
X189291485Y-186528628D01*
X190148628Y-185600057D02*
X190362914Y-185671485D01*
X190434342Y-185742914D01*
X190505771Y-185885771D01*
X190505771Y-186100057D01*
X190434342Y-186242914D01*
X190362914Y-186314342D01*
X190220057Y-186385771D01*
X189648628Y-186385771D01*
X189648628Y-184885771D01*
X190148628Y-184885771D01*
X190291485Y-184957200D01*
X190362914Y-185028628D01*
X190434342Y-185171485D01*
X190434342Y-185314342D01*
X190362914Y-185457200D01*
X190291485Y-185528628D01*
X190148628Y-185600057D01*
X189648628Y-185600057D01*
X191362914Y-186385771D02*
X191220057Y-186314342D01*
X191148628Y-186242914D01*
X191077200Y-186100057D01*
X191077200Y-185671485D01*
X191148628Y-185528628D01*
X191220057Y-185457200D01*
X191362914Y-185385771D01*
X191577200Y-185385771D01*
X191720057Y-185457200D01*
X191791485Y-185528628D01*
X191862914Y-185671485D01*
X191862914Y-186100057D01*
X191791485Y-186242914D01*
X191720057Y-186314342D01*
X191577200Y-186385771D01*
X191362914Y-186385771D01*
X193148628Y-186385771D02*
X193148628Y-185600057D01*
X193077200Y-185457200D01*
X192934342Y-185385771D01*
X192648628Y-185385771D01*
X192505771Y-185457200D01*
X193148628Y-186314342D02*
X193005771Y-186385771D01*
X192648628Y-186385771D01*
X192505771Y-186314342D01*
X192434342Y-186171485D01*
X192434342Y-186028628D01*
X192505771Y-185885771D01*
X192648628Y-185814342D01*
X193005771Y-185814342D01*
X193148628Y-185742914D01*
X193862914Y-186385771D02*
X193862914Y-185385771D01*
X193862914Y-185671485D02*
X193934342Y-185528628D01*
X194005771Y-185457200D01*
X194148628Y-185385771D01*
X194291485Y-185385771D01*
X195434342Y-186385771D02*
X195434342Y-184885771D01*
X195434342Y-186314342D02*
X195291485Y-186385771D01*
X195005771Y-186385771D01*
X194862914Y-186314342D01*
X194791485Y-186242914D01*
X194720057Y-186100057D01*
X194720057Y-185671485D01*
X194791485Y-185528628D01*
X194862914Y-185457200D01*
X195005771Y-185385771D01*
X195291485Y-185385771D01*
X195434342Y-185457200D01*
X196148628Y-186242914D02*
X196220057Y-186314342D01*
X196148628Y-186385771D01*
X196077200Y-186314342D01*
X196148628Y-186242914D01*
X196148628Y-186385771D01*
X196862914Y-186385771D02*
X196862914Y-184885771D01*
X197005771Y-185814342D02*
X197434342Y-186385771D01*
X197434342Y-185385771D02*
X196862914Y-185957200D01*
X198077200Y-186385771D02*
X198077200Y-185385771D01*
X198077200Y-184885771D02*
X198005771Y-184957200D01*
X198077200Y-185028628D01*
X198148628Y-184957200D01*
X198077200Y-184885771D01*
X198077200Y-185028628D01*
X199434342Y-186314342D02*
X199291485Y-186385771D01*
X199005771Y-186385771D01*
X198862914Y-186314342D01*
X198791485Y-186242914D01*
X198720057Y-186100057D01*
X198720057Y-185671485D01*
X198791485Y-185528628D01*
X198862914Y-185457200D01*
X199005771Y-185385771D01*
X199291485Y-185385771D01*
X199434342Y-185457200D01*
X200720057Y-186385771D02*
X200720057Y-185600057D01*
X200648628Y-185457200D01*
X200505771Y-185385771D01*
X200220057Y-185385771D01*
X200077200Y-185457200D01*
X200720057Y-186314342D02*
X200577200Y-186385771D01*
X200220057Y-186385771D01*
X200077200Y-186314342D01*
X200005771Y-186171485D01*
X200005771Y-186028628D01*
X200077200Y-185885771D01*
X200220057Y-185814342D01*
X200577200Y-185814342D01*
X200720057Y-185742914D01*
X202077200Y-186385771D02*
X202077200Y-184885771D01*
X202077200Y-186314342D02*
X201934342Y-186385771D01*
X201648628Y-186385771D01*
X201505771Y-186314342D01*
X201434342Y-186242914D01*
X201362914Y-186100057D01*
X201362914Y-185671485D01*
X201434342Y-185528628D01*
X201505771Y-185457200D01*
X201648628Y-185385771D01*
X201934342Y-185385771D01*
X202077200Y-185457200D01*
X202434342Y-186528628D02*
X203577200Y-186528628D01*
X203934342Y-185385771D02*
X203934342Y-186885771D01*
X203934342Y-185457200D02*
X204077200Y-185385771D01*
X204362914Y-185385771D01*
X204505771Y-185457200D01*
X204577200Y-185528628D01*
X204648628Y-185671485D01*
X204648628Y-186100057D01*
X204577200Y-186242914D01*
X204505771Y-186314342D01*
X204362914Y-186385771D01*
X204077200Y-186385771D01*
X203934342Y-186314342D01*
X205934342Y-186314342D02*
X205791485Y-186385771D01*
X205505771Y-186385771D01*
X205362914Y-186314342D01*
X205291485Y-186242914D01*
X205220057Y-186100057D01*
X205220057Y-185671485D01*
X205291485Y-185528628D01*
X205362914Y-185457200D01*
X205505771Y-185385771D01*
X205791485Y-185385771D01*
X205934342Y-185457200D01*
X206577200Y-186385771D02*
X206577200Y-184885771D01*
X206577200Y-185457200D02*
X206720057Y-185385771D01*
X207005771Y-185385771D01*
X207148628Y-185457200D01*
X207220057Y-185528628D01*
X207291485Y-185671485D01*
X207291485Y-186100057D01*
X207220057Y-186242914D01*
X207148628Y-186314342D01*
X207005771Y-186385771D01*
X206720057Y-186385771D01*
X206577200Y-186314342D01*
D10*
D11*
X177002200Y-181507200D02*
X285002200Y-181507200D01*
D10*
D11*
X178362914Y-183614342D02*
X178577200Y-183685771D01*
X178934342Y-183685771D01*
X179077200Y-183614342D01*
X179148628Y-183542914D01*
X179220057Y-183400057D01*
X179220057Y-183257200D01*
X179148628Y-183114342D01*
X179077200Y-183042914D01*
X178934342Y-182971485D01*
X178648628Y-182900057D01*
X178505771Y-182828628D01*
X178434342Y-182757200D01*
X178362914Y-182614342D01*
X178362914Y-182471485D01*
X178434342Y-182328628D01*
X178505771Y-182257200D01*
X178648628Y-182185771D01*
X179005771Y-182185771D01*
X179220057Y-182257200D01*
X179862914Y-183685771D02*
X179862914Y-182185771D01*
X180505771Y-183685771D02*
X180505771Y-182900057D01*
X180434342Y-182757200D01*
X180291485Y-182685771D01*
X180077200Y-182685771D01*
X179934342Y-182757200D01*
X179862914Y-182828628D01*
X181791485Y-183614342D02*
X181648628Y-183685771D01*
X181362914Y-183685771D01*
X181220057Y-183614342D01*
X181148628Y-183471485D01*
X181148628Y-182900057D01*
X181220057Y-182757200D01*
X181362914Y-182685771D01*
X181648628Y-182685771D01*
X181791485Y-182757200D01*
X181862914Y-182900057D01*
X181862914Y-183042914D01*
X181148628Y-183185771D01*
X183077200Y-183614342D02*
X182934342Y-183685771D01*
X182648628Y-183685771D01*
X182505771Y-183614342D01*
X182434342Y-183471485D01*
X182434342Y-182900057D01*
X182505771Y-182757200D01*
X182648628Y-182685771D01*
X182934342Y-182685771D01*
X183077200Y-182757200D01*
X183148628Y-182900057D01*
X183148628Y-183042914D01*
X182434342Y-183185771D01*
X183577200Y-182685771D02*
X184148628Y-182685771D01*
X183791485Y-182185771D02*
X183791485Y-183471485D01*
X183862914Y-183614342D01*
X184005771Y-183685771D01*
X184148628Y-183685771D01*
X184648628Y-183542914D02*
X184720057Y-183614342D01*
X184648628Y-183685771D01*
X184577200Y-183614342D01*
X184648628Y-183542914D01*
X184648628Y-183685771D01*
X184648628Y-182757200D02*
X184720057Y-182828628D01*
X184648628Y-182900057D01*
X184577200Y-182828628D01*
X184648628Y-182757200D01*
X184648628Y-182900057D01*
D10*
D12*
D10*
D11*
D10*
D11*
D10*
D11*
D10*
D11*
D10*
D11*
X197002200Y-191507200D02*
X197002200Y-194507200D01*
D10*
D11*
X261002200Y-191507200D02*
X261002200Y-198007200D01*
D14*
X140927666Y-102997000D02*
X142282333Y-102997000D01*
X140927666Y-100457000D02*
X142282333Y-100457000D01*
X141605000Y-101134333D02*
X141605000Y-99779666D01*
D15*
X126941142Y-55469428D02*
X126941142Y-56630571D01*
X126360571Y-56050000D02*
X127521714Y-56050000D01*
X131175880Y-100765428D02*
X131974166Y-100765428D01*
X131575023Y-102289428D02*
X131575023Y-100765428D01*
X132373309Y-101854000D02*
X133038547Y-101854000D01*
X132240261Y-102289428D02*
X132705928Y-100765428D01*
X133171595Y-102289428D01*
X134435547Y-102144285D02*
X134369023Y-102216857D01*
X134169452Y-102289428D01*
X134036404Y-102289428D01*
X133836833Y-102216857D01*
X133703785Y-102071714D01*
X133637261Y-101926571D01*
X133570738Y-101636285D01*
X133570738Y-101418571D01*
X133637261Y-101128285D01*
X133703785Y-100983142D01*
X133836833Y-100838000D01*
X134036404Y-100765428D01*
X134169452Y-100765428D01*
X134369023Y-100838000D01*
X134435547Y-100910571D01*
X135034261Y-102289428D02*
X135034261Y-100765428D01*
X135034261Y-101491142D02*
X135832547Y-101491142D01*
X135832547Y-102289428D02*
X135832547Y-100765428D01*
X131499428Y-104248857D02*
X132660571Y-104248857D01*
X132080000Y-104829428D02*
X132080000Y-103668285D01*
X131209142Y-100003428D02*
X131209142Y-98479428D01*
X131789714Y-98479428D01*
X131934857Y-98552000D01*
X132007428Y-98624571D01*
X132080000Y-98769714D01*
X132080000Y-98987428D01*
X132007428Y-99132571D01*
X131934857Y-99205142D01*
X131789714Y-99277714D01*
X131209142Y-99277714D01*
X132588000Y-98479428D02*
X132950857Y-100003428D01*
X133241142Y-98914857D01*
X133531428Y-100003428D01*
X133894285Y-98479428D01*
X134474857Y-100003428D02*
X134474857Y-98479428D01*
X134982857Y-99568000D01*
X135490857Y-98479428D01*
X135490857Y-100003428D01*
D14*
X157493382Y-92418608D02*
X157959049Y-93942608D01*
X158424715Y-92418608D01*
X158890382Y-93942608D02*
X158890382Y-92926608D01*
X158890382Y-92418608D02*
X158823858Y-92491180D01*
X158890382Y-92563751D01*
X158956906Y-92491180D01*
X158890382Y-92418608D01*
X158890382Y-92563751D01*
X160154335Y-93942608D02*
X160154335Y-93144322D01*
X160087811Y-92999180D01*
X159954763Y-92926608D01*
X159688668Y-92926608D01*
X159555620Y-92999180D01*
X160154335Y-93870037D02*
X160021287Y-93942608D01*
X159688668Y-93942608D01*
X159555620Y-93870037D01*
X159489096Y-93724894D01*
X159489096Y-93579751D01*
X159555620Y-93434608D01*
X159688668Y-93362037D01*
X160021287Y-93362037D01*
X160154335Y-93289465D01*
X161019144Y-93942608D02*
X160886096Y-93870037D01*
X160819573Y-93724894D01*
X160819573Y-92418608D01*
X163081382Y-93144322D02*
X163280954Y-93216894D01*
X163347477Y-93289465D01*
X163414001Y-93434608D01*
X163414001Y-93652322D01*
X163347477Y-93797465D01*
X163280954Y-93870037D01*
X163147906Y-93942608D01*
X162615715Y-93942608D01*
X162615715Y-92418608D01*
X163081382Y-92418608D01*
X163214430Y-92491180D01*
X163280954Y-92563751D01*
X163347477Y-92708894D01*
X163347477Y-92854037D01*
X163280954Y-92999180D01*
X163214430Y-93071751D01*
X163081382Y-93144322D01*
X162615715Y-93144322D01*
X164012715Y-93942608D02*
X164012715Y-92926608D01*
X164012715Y-93216894D02*
X164079239Y-93071751D01*
X164145763Y-92999180D01*
X164278811Y-92926608D01*
X164411858Y-92926608D01*
X165476239Y-93942608D02*
X165476239Y-92418608D01*
X165476239Y-93870037D02*
X165343192Y-93942608D01*
X165077096Y-93942608D01*
X164944049Y-93870037D01*
X164877525Y-93797465D01*
X164811001Y-93652322D01*
X164811001Y-93216894D01*
X164877525Y-93071751D01*
X164944049Y-92999180D01*
X165077096Y-92926608D01*
X165343192Y-92926608D01*
X165476239Y-92999180D01*
X168004144Y-93942608D02*
X167538477Y-93216894D01*
X167205858Y-93942608D02*
X167205858Y-92418608D01*
X167738049Y-92418608D01*
X167871096Y-92491180D01*
X167937620Y-92563751D01*
X168004144Y-92708894D01*
X168004144Y-92926608D01*
X167937620Y-93071751D01*
X167871096Y-93144322D01*
X167738049Y-93216894D01*
X167205858Y-93216894D01*
X169135049Y-93870037D02*
X169002001Y-93942608D01*
X168735906Y-93942608D01*
X168602858Y-93870037D01*
X168536335Y-93724894D01*
X168536335Y-93144322D01*
X168602858Y-92999180D01*
X168735906Y-92926608D01*
X169002001Y-92926608D01*
X169135049Y-92999180D01*
X169201573Y-93144322D01*
X169201573Y-93289465D01*
X168536335Y-93434608D01*
X169667239Y-92926608D02*
X169999858Y-93942608D01*
X170332477Y-92926608D01*
X171929049Y-93942608D02*
X171929049Y-92418608D01*
X172261668Y-92418608D01*
X172461239Y-92491180D01*
X172594287Y-92636322D01*
X172660811Y-92781465D01*
X172727335Y-93071751D01*
X172727335Y-93289465D01*
X172660811Y-93579751D01*
X172594287Y-93724894D01*
X172461239Y-93870037D01*
X172261668Y-93942608D01*
X171929049Y-93942608D01*
X157692954Y-96396248D02*
X157692954Y-94872248D01*
X158158620Y-95960820D01*
X158624287Y-94872248D01*
X158624287Y-96396248D01*
X159888239Y-96396248D02*
X159888239Y-95597962D01*
X159821715Y-95452820D01*
X159688668Y-95380248D01*
X159422573Y-95380248D01*
X159289525Y-95452820D01*
X159888239Y-96323677D02*
X159755192Y-96396248D01*
X159422573Y-96396248D01*
X159289525Y-96323677D01*
X159223001Y-96178534D01*
X159223001Y-96033391D01*
X159289525Y-95888248D01*
X159422573Y-95815677D01*
X159755192Y-95815677D01*
X159888239Y-95743105D01*
X160420430Y-95380248D02*
X160753049Y-96396248D01*
X161085668Y-95380248D02*
X160753049Y-96396248D01*
X160620001Y-96759105D01*
X160553477Y-96831677D01*
X160420430Y-96904248D01*
X162615715Y-95017391D02*
X162682239Y-94944820D01*
X162815287Y-94872248D01*
X163147906Y-94872248D01*
X163280954Y-94944820D01*
X163347477Y-95017391D01*
X163414001Y-95162534D01*
X163414001Y-95307677D01*
X163347477Y-95525391D01*
X162549192Y-96396248D01*
X163414001Y-96396248D01*
X164278811Y-94872248D02*
X164411858Y-94872248D01*
X164544906Y-94944820D01*
X164611430Y-95017391D01*
X164677954Y-95162534D01*
X164744477Y-95452820D01*
X164744477Y-95815677D01*
X164677954Y-96105962D01*
X164611430Y-96251105D01*
X164544906Y-96323677D01*
X164411858Y-96396248D01*
X164278811Y-96396248D01*
X164145763Y-96323677D01*
X164079239Y-96251105D01*
X164012715Y-96105962D01*
X163946192Y-95815677D01*
X163946192Y-95452820D01*
X164012715Y-95162534D01*
X164079239Y-95017391D01*
X164145763Y-94944820D01*
X164278811Y-94872248D01*
X165276668Y-95017391D02*
X165343192Y-94944820D01*
X165476239Y-94872248D01*
X165808858Y-94872248D01*
X165941906Y-94944820D01*
X166008430Y-95017391D01*
X166074954Y-95162534D01*
X166074954Y-95307677D01*
X166008430Y-95525391D01*
X165210144Y-96396248D01*
X166074954Y-96396248D01*
X166939763Y-94872248D02*
X167072811Y-94872248D01*
X167205858Y-94944820D01*
X167272382Y-95017391D01*
X167338906Y-95162534D01*
X167405430Y-95452820D01*
X167405430Y-95815677D01*
X167338906Y-96105962D01*
X167272382Y-96251105D01*
X167205858Y-96323677D01*
X167072811Y-96396248D01*
X166939763Y-96396248D01*
X166806715Y-96323677D01*
X166740192Y-96251105D01*
X166673668Y-96105962D01*
X166607144Y-95815677D01*
X166607144Y-95452820D01*
X166673668Y-95162534D01*
X166740192Y-95017391D01*
X166806715Y-94944820D01*
X166939763Y-94872248D01*
D16*
X146231428Y-107762523D02*
X145360571Y-107762523D01*
X145796000Y-107762523D02*
X145796000Y-106492523D01*
X145650857Y-106673952D01*
X145505714Y-106794904D01*
X145360571Y-106855380D01*
X147973142Y-106613476D02*
X148045714Y-106553000D01*
X148190857Y-106492523D01*
X148553714Y-106492523D01*
X148698857Y-106553000D01*
X148771428Y-106613476D01*
X148844000Y-106734428D01*
X148844000Y-106855380D01*
X148771428Y-107036809D01*
X147900571Y-107762523D01*
X148844000Y-107762523D01*
X150513142Y-106492523D02*
X151456571Y-106492523D01*
X150948571Y-106976333D01*
X151166285Y-106976333D01*
X151311428Y-107036809D01*
X151384000Y-107097285D01*
X151456571Y-107218238D01*
X151456571Y-107520619D01*
X151384000Y-107641571D01*
X151311428Y-107702047D01*
X151166285Y-107762523D01*
X150730857Y-107762523D01*
X150585714Y-107702047D01*
X150513142Y-107641571D01*
X153924000Y-106915857D02*
X153924000Y-107762523D01*
X153561142Y-106432047D02*
X153198285Y-107339190D01*
X154141714Y-107339190D01*
X156609142Y-106492523D02*
X155883428Y-106492523D01*
X155810857Y-107097285D01*
X155883428Y-107036809D01*
X156028571Y-106976333D01*
X156391428Y-106976333D01*
X156536571Y-107036809D01*
X156609142Y-107097285D01*
X156681714Y-107218238D01*
X156681714Y-107520619D01*
X156609142Y-107641571D01*
X156536571Y-107702047D01*
X156391428Y-107762523D01*
X156028571Y-107762523D01*
X155883428Y-107702047D01*
X155810857Y-107641571D01*
X159149142Y-106492523D02*
X158858857Y-106492523D01*
X158713714Y-106553000D01*
X158641142Y-106613476D01*
X158496000Y-106794904D01*
X158423428Y-107036809D01*
X158423428Y-107520619D01*
X158496000Y-107641571D01*
X158568571Y-107702047D01*
X158713714Y-107762523D01*
X159004000Y-107762523D01*
X159149142Y-107702047D01*
X159221714Y-107641571D01*
X159294285Y-107520619D01*
X159294285Y-107218238D01*
X159221714Y-107097285D01*
X159149142Y-107036809D01*
X159004000Y-106976333D01*
X158713714Y-106976333D01*
X158568571Y-107036809D01*
X158496000Y-107097285D01*
X158423428Y-107218238D01*
X160963428Y-106492523D02*
X161979428Y-106492523D01*
X161326285Y-107762523D01*
X163938857Y-107036809D02*
X163793714Y-106976333D01*
X163721142Y-106915857D01*
X163648571Y-106794904D01*
X163648571Y-106734428D01*
X163721142Y-106613476D01*
X163793714Y-106553000D01*
X163938857Y-106492523D01*
X164229142Y-106492523D01*
X164374285Y-106553000D01*
X164446857Y-106613476D01*
X164519428Y-106734428D01*
X164519428Y-106794904D01*
X164446857Y-106915857D01*
X164374285Y-106976333D01*
X164229142Y-107036809D01*
X163938857Y-107036809D01*
X163793714Y-107097285D01*
X163721142Y-107157761D01*
X163648571Y-107278714D01*
X163648571Y-107520619D01*
X163721142Y-107641571D01*
X163793714Y-107702047D01*
X163938857Y-107762523D01*
X164229142Y-107762523D01*
X164374285Y-107702047D01*
X164446857Y-107641571D01*
X164519428Y-107520619D01*
X164519428Y-107278714D01*
X164446857Y-107157761D01*
X164374285Y-107097285D01*
X164229142Y-107036809D01*
D14*
X167597666Y-102997000D02*
X168952333Y-102997000D01*
X167597666Y-100457000D02*
X168952333Y-100457000D01*
X168275000Y-101134333D02*
X168275000Y-99779666D01*
D15*
X173200571Y-55969142D02*
X172039428Y-55969142D01*
X172620000Y-55388571D02*
X172620000Y-56549714D01*
X168691142Y-68319428D02*
X168691142Y-69480571D01*
X168908857Y-78250571D02*
X168908857Y-77089428D01*
X169489428Y-77670000D02*
X168328285Y-77670000D01*
X170660571Y-55969142D02*
X169499428Y-55969142D01*
X130340571Y-56021142D02*
X129179428Y-56021142D01*
X126419428Y-86214857D02*
X127580571Y-86214857D01*
X126419428Y-93326857D02*
X127580571Y-93326857D01*
X127000000Y-93907428D02*
X127000000Y-92746285D01*
X131499428Y-106788857D02*
X132660571Y-106788857D01*
X146267714Y-52505428D02*
X146267714Y-50981428D01*
X146267714Y-51707142D02*
X147138571Y-51707142D01*
X147138571Y-52505428D02*
X147138571Y-50981428D01*
X148444857Y-52432857D02*
X148299714Y-52505428D01*
X148009428Y-52505428D01*
X147864285Y-52432857D01*
X147791714Y-52287714D01*
X147791714Y-51707142D01*
X147864285Y-51562000D01*
X148009428Y-51489428D01*
X148299714Y-51489428D01*
X148444857Y-51562000D01*
X148517428Y-51707142D01*
X148517428Y-51852285D01*
X147791714Y-51997428D01*
X149823714Y-52505428D02*
X149823714Y-51707142D01*
X149751142Y-51562000D01*
X149606000Y-51489428D01*
X149315714Y-51489428D01*
X149170571Y-51562000D01*
X149823714Y-52432857D02*
X149678571Y-52505428D01*
X149315714Y-52505428D01*
X149170571Y-52432857D01*
X149098000Y-52287714D01*
X149098000Y-52142571D01*
X149170571Y-51997428D01*
X149315714Y-51924857D01*
X149678571Y-51924857D01*
X149823714Y-51852285D01*
X150331714Y-51489428D02*
X150912285Y-51489428D01*
X150549428Y-50981428D02*
X150549428Y-52287714D01*
X150622000Y-52432857D01*
X150767142Y-52505428D01*
X150912285Y-52505428D01*
X152000857Y-52432857D02*
X151855714Y-52505428D01*
X151565428Y-52505428D01*
X151420285Y-52432857D01*
X151347714Y-52287714D01*
X151347714Y-51707142D01*
X151420285Y-51562000D01*
X151565428Y-51489428D01*
X151855714Y-51489428D01*
X152000857Y-51562000D01*
X152073428Y-51707142D01*
X152073428Y-51852285D01*
X151347714Y-51997428D01*
X152726571Y-52505428D02*
X152726571Y-51489428D01*
X152726571Y-51779714D02*
X152799142Y-51634571D01*
X152871714Y-51562000D01*
X153016857Y-51489428D01*
X153162000Y-51489428D01*
X146521714Y-94669428D02*
X146521714Y-93145428D01*
X146521714Y-93871142D02*
X147392571Y-93871142D01*
X147392571Y-94669428D02*
X147392571Y-93145428D01*
X148698857Y-94596857D02*
X148553714Y-94669428D01*
X148263428Y-94669428D01*
X148118285Y-94596857D01*
X148045714Y-94451714D01*
X148045714Y-93871142D01*
X148118285Y-93726000D01*
X148263428Y-93653428D01*
X148553714Y-93653428D01*
X148698857Y-93726000D01*
X148771428Y-93871142D01*
X148771428Y-94016285D01*
X148045714Y-94161428D01*
X150077714Y-94669428D02*
X150077714Y-93871142D01*
X150005142Y-93726000D01*
X149860000Y-93653428D01*
X149569714Y-93653428D01*
X149424571Y-93726000D01*
X150077714Y-94596857D02*
X149932571Y-94669428D01*
X149569714Y-94669428D01*
X149424571Y-94596857D01*
X149352000Y-94451714D01*
X149352000Y-94306571D01*
X149424571Y-94161428D01*
X149569714Y-94088857D01*
X149932571Y-94088857D01*
X150077714Y-94016285D01*
X150585714Y-93653428D02*
X151166285Y-93653428D01*
X150803428Y-93145428D02*
X150803428Y-94451714D01*
X150876000Y-94596857D01*
X151021142Y-94669428D01*
X151166285Y-94669428D01*
X152254857Y-94596857D02*
X152109714Y-94669428D01*
X151819428Y-94669428D01*
X151674285Y-94596857D01*
X151601714Y-94451714D01*
X151601714Y-93871142D01*
X151674285Y-93726000D01*
X151819428Y-93653428D01*
X152109714Y-93653428D01*
X152254857Y-93726000D01*
X152327428Y-93871142D01*
X152327428Y-94016285D01*
X151601714Y-94161428D01*
X152980571Y-94669428D02*
X152980571Y-93653428D01*
X152980571Y-93943714D02*
X153053142Y-93798571D01*
X153125714Y-93726000D01*
X153270857Y-93653428D01*
X153416000Y-93653428D01*
D17*
X166370000Y-72760840D02*
G75*
G03*
X166370000Y-72760840I-16510000J0D01*
G01*
X124460000Y-107950000D02*
X173990000Y-107950000D01*
X124460000Y-49530000D02*
X173990000Y-49530000D01*
X173990000Y-49530000D02*
X173990000Y-107950000D01*
X124460000Y-49530000D02*
X124460000Y-107950000D01*
D15*
%TO.C,P9*%
X132767142Y-52346857D02*
X132984857Y-52419428D01*
X133347714Y-52419428D01*
X133492857Y-52346857D01*
X133565428Y-52274285D01*
X133638000Y-52129142D01*
X133638000Y-51984000D01*
X133565428Y-51838857D01*
X133492857Y-51766285D01*
X133347714Y-51693714D01*
X133057428Y-51621142D01*
X132912285Y-51548571D01*
X132839714Y-51476000D01*
X132767142Y-51330857D01*
X132767142Y-51185714D01*
X132839714Y-51040571D01*
X132912285Y-50968000D01*
X133057428Y-50895428D01*
X133420285Y-50895428D01*
X133638000Y-50968000D01*
X134291142Y-51403428D02*
X134291142Y-52927428D01*
X134291142Y-51476000D02*
X134436285Y-51403428D01*
X134726571Y-51403428D01*
X134871714Y-51476000D01*
X134944285Y-51548571D01*
X135016857Y-51693714D01*
X135016857Y-52129142D01*
X134944285Y-52274285D01*
X134871714Y-52346857D01*
X134726571Y-52419428D01*
X134436285Y-52419428D01*
X134291142Y-52346857D01*
X136323142Y-52419428D02*
X136323142Y-51621142D01*
X136250571Y-51476000D01*
X136105428Y-51403428D01*
X135815142Y-51403428D01*
X135670000Y-51476000D01*
X136323142Y-52346857D02*
X136178000Y-52419428D01*
X135815142Y-52419428D01*
X135670000Y-52346857D01*
X135597428Y-52201714D01*
X135597428Y-52056571D01*
X135670000Y-51911428D01*
X135815142Y-51838857D01*
X136178000Y-51838857D01*
X136323142Y-51766285D01*
X137048857Y-52419428D02*
X137048857Y-51403428D01*
X137048857Y-51693714D02*
X137121428Y-51548571D01*
X137194000Y-51476000D01*
X137339142Y-51403428D01*
X137484285Y-51403428D01*
X138572857Y-52346857D02*
X138427714Y-52419428D01*
X138137428Y-52419428D01*
X137992285Y-52346857D01*
X137919714Y-52201714D01*
X137919714Y-51621142D01*
X137992285Y-51476000D01*
X138137428Y-51403428D01*
X138427714Y-51403428D01*
X138572857Y-51476000D01*
X138645428Y-51621142D01*
X138645428Y-51766285D01*
X137919714Y-51911428D01*
X140387142Y-51984000D02*
X141112857Y-51984000D01*
X140242000Y-52419428D02*
X140750000Y-50895428D01*
X141258000Y-52419428D01*
%TO.C,P8*%
X158543285Y-53306857D02*
X158761000Y-53379428D01*
X159123857Y-53379428D01*
X159269000Y-53306857D01*
X159341571Y-53234285D01*
X159414142Y-53089142D01*
X159414142Y-52944000D01*
X159341571Y-52798857D01*
X159269000Y-52726285D01*
X159123857Y-52653714D01*
X158833571Y-52581142D01*
X158688428Y-52508571D01*
X158615857Y-52436000D01*
X158543285Y-52290857D01*
X158543285Y-52145714D01*
X158615857Y-52000571D01*
X158688428Y-51928000D01*
X158833571Y-51855428D01*
X159196428Y-51855428D01*
X159414142Y-51928000D01*
X160067285Y-52363428D02*
X160067285Y-53887428D01*
X160067285Y-52436000D02*
X160212428Y-52363428D01*
X160502714Y-52363428D01*
X160647857Y-52436000D01*
X160720428Y-52508571D01*
X160793000Y-52653714D01*
X160793000Y-53089142D01*
X160720428Y-53234285D01*
X160647857Y-53306857D01*
X160502714Y-53379428D01*
X160212428Y-53379428D01*
X160067285Y-53306857D01*
X162099285Y-53379428D02*
X162099285Y-52581142D01*
X162026714Y-52436000D01*
X161881571Y-52363428D01*
X161591285Y-52363428D01*
X161446142Y-52436000D01*
X162099285Y-53306857D02*
X161954142Y-53379428D01*
X161591285Y-53379428D01*
X161446142Y-53306857D01*
X161373571Y-53161714D01*
X161373571Y-53016571D01*
X161446142Y-52871428D01*
X161591285Y-52798857D01*
X161954142Y-52798857D01*
X162099285Y-52726285D01*
X162825000Y-53379428D02*
X162825000Y-52363428D01*
X162825000Y-52653714D02*
X162897571Y-52508571D01*
X162970142Y-52436000D01*
X163115285Y-52363428D01*
X163260428Y-52363428D01*
X164349000Y-53306857D02*
X164203857Y-53379428D01*
X163913571Y-53379428D01*
X163768428Y-53306857D01*
X163695857Y-53161714D01*
X163695857Y-52581142D01*
X163768428Y-52436000D01*
X163913571Y-52363428D01*
X164203857Y-52363428D01*
X164349000Y-52436000D01*
X164421571Y-52581142D01*
X164421571Y-52726285D01*
X163695857Y-52871428D01*
X166743857Y-52581142D02*
X166961571Y-52653714D01*
X167034142Y-52726285D01*
X167106714Y-52871428D01*
X167106714Y-53089142D01*
X167034142Y-53234285D01*
X166961571Y-53306857D01*
X166816428Y-53379428D01*
X166235857Y-53379428D01*
X166235857Y-51855428D01*
X166743857Y-51855428D01*
X166889000Y-51928000D01*
X166961571Y-52000571D01*
X167034142Y-52145714D01*
X167034142Y-52290857D01*
X166961571Y-52436000D01*
X166889000Y-52508571D01*
X166743857Y-52581142D01*
X166235857Y-52581142D01*
%TO.C,P7*%
X172839428Y-83698285D02*
X171315428Y-83698285D01*
X171315428Y-83117714D01*
X171388000Y-82972571D01*
X171460571Y-82900000D01*
X171605714Y-82827428D01*
X171823428Y-82827428D01*
X171968571Y-82900000D01*
X172041142Y-82972571D01*
X172113714Y-83117714D01*
X172113714Y-83698285D01*
X172839428Y-82174285D02*
X171315428Y-82174285D01*
X171315428Y-81811428D01*
X171388000Y-81593714D01*
X171533142Y-81448571D01*
X171678285Y-81376000D01*
X171968571Y-81303428D01*
X172186285Y-81303428D01*
X172476571Y-81376000D01*
X172621714Y-81448571D01*
X172766857Y-81593714D01*
X172839428Y-81811428D01*
X172839428Y-82174285D01*
X172839428Y-79852000D02*
X172839428Y-80722857D01*
X172839428Y-80287428D02*
X171315428Y-80287428D01*
X171533142Y-80432571D01*
X171678285Y-80577714D01*
X171750857Y-80722857D01*
X171315428Y-79344000D02*
X171315428Y-78400571D01*
X171896000Y-78908571D01*
X171896000Y-78690857D01*
X171968571Y-78545714D01*
X172041142Y-78473142D01*
X172186285Y-78400571D01*
X172549142Y-78400571D01*
X172694285Y-78473142D01*
X172766857Y-78545714D01*
X172839428Y-78690857D01*
X172839428Y-79126285D01*
X172766857Y-79271428D01*
X172694285Y-79344000D01*
X171315428Y-77021714D02*
X171315428Y-77747428D01*
X172041142Y-77820000D01*
X171968571Y-77747428D01*
X171896000Y-77602285D01*
X171896000Y-77239428D01*
X171968571Y-77094285D01*
X172041142Y-77021714D01*
X172186285Y-76949142D01*
X172549142Y-76949142D01*
X172694285Y-77021714D01*
X172766857Y-77094285D01*
X172839428Y-77239428D01*
X172839428Y-77602285D01*
X172766857Y-77747428D01*
X172694285Y-77820000D01*
%TO.C,P6*%
X125240142Y-85652428D02*
X125240142Y-84128428D01*
X126836714Y-85652428D02*
X126328714Y-84926714D01*
X125965857Y-85652428D02*
X125965857Y-84128428D01*
X126546428Y-84128428D01*
X126691571Y-84201000D01*
X126764142Y-84273571D01*
X126836714Y-84418714D01*
X126836714Y-84636428D01*
X126764142Y-84781571D01*
X126691571Y-84854142D01*
X126546428Y-84926714D01*
X125965857Y-84926714D01*
X129376714Y-85652428D02*
X128651000Y-85652428D01*
X128651000Y-84128428D01*
X129884714Y-84854142D02*
X130392714Y-84854142D01*
X130610428Y-85652428D02*
X129884714Y-85652428D01*
X129884714Y-84128428D01*
X130610428Y-84128428D01*
X131263571Y-85652428D02*
X131263571Y-84128428D01*
X131626428Y-84128428D01*
X131844142Y-84201000D01*
X131989285Y-84346142D01*
X132061857Y-84491285D01*
X132134428Y-84781571D01*
X132134428Y-84999285D01*
X132061857Y-85289571D01*
X131989285Y-85434714D01*
X131844142Y-85579857D01*
X131626428Y-85652428D01*
X131263571Y-85652428D01*
%TO.C,P5*%
X127679428Y-82603142D02*
X126155428Y-82603142D01*
X126155428Y-82240285D01*
X126228000Y-82022571D01*
X126373142Y-81877428D01*
X126518285Y-81804857D01*
X126808571Y-81732285D01*
X127026285Y-81732285D01*
X127316571Y-81804857D01*
X127461714Y-81877428D01*
X127606857Y-82022571D01*
X127679428Y-82240285D01*
X127679428Y-82603142D01*
X127679428Y-81079142D02*
X126155428Y-81079142D01*
X127679428Y-80208285D01*
X126155428Y-80208285D01*
X127679428Y-79482571D02*
X126155428Y-79482571D01*
X126155428Y-78902000D01*
X126228000Y-78756857D01*
X126300571Y-78684285D01*
X126445714Y-78611714D01*
X126663428Y-78611714D01*
X126808571Y-78684285D01*
X126881142Y-78756857D01*
X126953714Y-78902000D01*
X126953714Y-79482571D01*
X128260000Y-76362000D02*
X128187428Y-76434571D01*
X127969714Y-76579714D01*
X127824571Y-76652285D01*
X127606857Y-76724857D01*
X127244000Y-76797428D01*
X126953714Y-76797428D01*
X126590857Y-76724857D01*
X126373142Y-76652285D01*
X126228000Y-76579714D01*
X126010285Y-76434571D01*
X125937714Y-76362000D01*
X126155428Y-75999142D02*
X126155428Y-75128285D01*
X127679428Y-75563714D02*
X126155428Y-75563714D01*
X127679428Y-74620285D02*
X126155428Y-74620285D01*
X127679428Y-73967142D02*
X126881142Y-73967142D01*
X126736000Y-74039714D01*
X126663428Y-74184857D01*
X126663428Y-74402571D01*
X126736000Y-74547714D01*
X126808571Y-74620285D01*
X127606857Y-72660857D02*
X127679428Y-72806000D01*
X127679428Y-73096285D01*
X127606857Y-73241428D01*
X127461714Y-73314000D01*
X126881142Y-73314000D01*
X126736000Y-73241428D01*
X126663428Y-73096285D01*
X126663428Y-72806000D01*
X126736000Y-72660857D01*
X126881142Y-72588285D01*
X127026285Y-72588285D01*
X127171428Y-73314000D01*
X127679428Y-71935142D02*
X126663428Y-71935142D01*
X126953714Y-71935142D02*
X126808571Y-71862571D01*
X126736000Y-71790000D01*
X126663428Y-71644857D01*
X126663428Y-71499714D01*
X127679428Y-70991714D02*
X126663428Y-70991714D01*
X126808571Y-70991714D02*
X126736000Y-70919142D01*
X126663428Y-70774000D01*
X126663428Y-70556285D01*
X126736000Y-70411142D01*
X126881142Y-70338571D01*
X127679428Y-70338571D01*
X126881142Y-70338571D02*
X126736000Y-70266000D01*
X126663428Y-70120857D01*
X126663428Y-69903142D01*
X126736000Y-69758000D01*
X126881142Y-69685428D01*
X127679428Y-69685428D01*
X127679428Y-68959714D02*
X126663428Y-68959714D01*
X126155428Y-68959714D02*
X126228000Y-69032285D01*
X126300571Y-68959714D01*
X126228000Y-68887142D01*
X126155428Y-68959714D01*
X126300571Y-68959714D01*
X127606857Y-68306571D02*
X127679428Y-68161428D01*
X127679428Y-67871142D01*
X127606857Y-67726000D01*
X127461714Y-67653428D01*
X127389142Y-67653428D01*
X127244000Y-67726000D01*
X127171428Y-67871142D01*
X127171428Y-68088857D01*
X127098857Y-68234000D01*
X126953714Y-68306571D01*
X126881142Y-68306571D01*
X126736000Y-68234000D01*
X126663428Y-68088857D01*
X126663428Y-67871142D01*
X126736000Y-67726000D01*
X126663428Y-67218000D02*
X126663428Y-66637428D01*
X126155428Y-67000285D02*
X127461714Y-67000285D01*
X127606857Y-66927714D01*
X127679428Y-66782571D01*
X127679428Y-66637428D01*
X127679428Y-65911714D02*
X127606857Y-66056857D01*
X127534285Y-66129428D01*
X127389142Y-66202000D01*
X126953714Y-66202000D01*
X126808571Y-66129428D01*
X126736000Y-66056857D01*
X126663428Y-65911714D01*
X126663428Y-65694000D01*
X126736000Y-65548857D01*
X126808571Y-65476285D01*
X126953714Y-65403714D01*
X127389142Y-65403714D01*
X127534285Y-65476285D01*
X127606857Y-65548857D01*
X127679428Y-65694000D01*
X127679428Y-65911714D01*
X127679428Y-64750571D02*
X126663428Y-64750571D01*
X126953714Y-64750571D02*
X126808571Y-64678000D01*
X126736000Y-64605428D01*
X126663428Y-64460285D01*
X126663428Y-64315142D01*
X128260000Y-63952285D02*
X128187428Y-63879714D01*
X127969714Y-63734571D01*
X127824571Y-63662000D01*
X127606857Y-63589428D01*
X127244000Y-63516857D01*
X126953714Y-63516857D01*
X126590857Y-63589428D01*
X126373142Y-63662000D01*
X126228000Y-63734571D01*
X126010285Y-63879714D01*
X125937714Y-63952285D01*
D11*
%TO.C,REF\u002A\u002A*%
X168910000Y-57150000D02*
G75*
G03*
X168910000Y-57150000I-2794000J0D01*
G01*
X137414000Y-88900000D02*
G75*
G03*
X137414000Y-88900000I-2794000J0D01*
G01*
X137414000Y-57150000D02*
G75*
G03*
X137414000Y-57150000I-2794000J0D01*
G01*
X168793998Y-88950013D02*
G75*
G03*
X168793998Y-88950013I-2794000J0D01*
G01*
D16*
%TO.C,P1*%
X167184605Y-97155000D02*
G75*
G03*
X167184605Y-97155000I-179605J0D01*
G01*
D11*
X167005000Y-97155000D02*
X142875000Y-97155000D01*
X142875000Y-106045000D02*
X167005000Y-106045000D01*
X142875000Y-97155000D02*
X142875000Y-106045000D01*
X167005000Y-106045000D02*
X167005000Y-97155000D01*
%TO.C,R5*%
X145687438Y-55592650D02*
X153815438Y-55592650D01*
X153815438Y-53052650D02*
X145687438Y-53052650D01*
X145687438Y-53052650D02*
X145687438Y-55592650D01*
X153815438Y-55592650D02*
X153815438Y-53052650D01*
%TO.C,R6*%
X153944676Y-89923620D02*
X145816676Y-89923620D01*
X145816676Y-92463620D02*
X153944676Y-92463620D01*
X153944676Y-92463620D02*
X153944676Y-89923620D01*
X145816676Y-89923620D02*
X145816676Y-92463620D01*
%TO.C,P9*%
X131180000Y-54735000D02*
X131180000Y-48235000D01*
X125580000Y-54735000D02*
X131180000Y-54735000D01*
X125580000Y-48235000D02*
X125580000Y-54735000D01*
X131180000Y-48235000D02*
X125580000Y-48235000D01*
%TO.C,P8*%
X168280000Y-48220000D02*
X168280000Y-54720000D01*
X173880000Y-48220000D02*
X168280000Y-48220000D01*
X173880000Y-54720000D02*
X173880000Y-48220000D01*
X168280000Y-54720000D02*
X173880000Y-54720000D01*
%TO.C,P7*%
X175470000Y-70370000D02*
X168970000Y-70370000D01*
X175470000Y-75970000D02*
X175470000Y-70370000D01*
X168970000Y-75970000D02*
X175470000Y-75970000D01*
X168970000Y-70370000D02*
X168970000Y-75970000D01*
%TO.C,P6*%
X130200000Y-86735000D02*
X123700000Y-86735000D01*
X130200000Y-92335000D02*
X130200000Y-86735000D01*
X123700000Y-92335000D02*
X130200000Y-92335000D01*
X123700000Y-86735000D02*
X123700000Y-92335000D01*
%TO.C,P2*%
X130962000Y-108170000D02*
X130962000Y-97570000D01*
X124462000Y-97570000D02*
X130962000Y-97570000D01*
X124462000Y-108170000D02*
X124462000Y-97570000D01*
X124462000Y-108170000D02*
X130962000Y-108170000D01*
%TO.C,P5*%
X129445000Y-69025000D02*
X129445000Y-77025000D01*
X133445000Y-69025000D02*
X129445000Y-69025000D01*
X133445000Y-77025000D02*
X133445000Y-69025000D01*
X129445000Y-77025000D02*
X133445000Y-77025000D01*
D18*
%TO.C,R2*%
X172100000Y-59630000D02*
X172100000Y-60830000D01*
X170340000Y-60830000D02*
X170340000Y-59630000D01*
%TO.C,R1*%
X138970000Y-91450000D02*
X140170000Y-91450000D01*
X140170000Y-93210000D02*
X138970000Y-93210000D01*
%TO.C,R3*%
X127980000Y-61590000D02*
X127980000Y-60390000D01*
X129740000Y-60390000D02*
X129740000Y-61590000D01*
%TO.C,R4*%
X136890000Y-101030000D02*
X136890000Y-99830000D01*
X138650000Y-99830000D02*
X138650000Y-101030000D01*
%TO.C,R7*%
X172130000Y-65280000D02*
X172130000Y-66480000D01*
X170370000Y-66480000D02*
X170370000Y-65280000D01*
%TD*%
D19*
%TO.C,REF\u002A\u002A*%
X166116000Y-57150000D03*
%TD*%
%TO.C,REF\u002A\u002A*%
X134620000Y-88900000D03*
%TD*%
%TO.C,REF\u002A\u002A*%
X134620000Y-57150000D03*
%TD*%
%TO.C,REF\u002A\u002A*%
X165999998Y-88950013D03*
%TD*%
D20*
%TO.C,P1*%
X163830000Y-100330000D03*
X161290000Y-100330000D03*
X158750000Y-100330000D03*
X156210000Y-100330000D03*
X153670000Y-100330000D03*
X151130000Y-100330000D03*
X148590000Y-100330000D03*
X163830000Y-102870000D03*
X161290000Y-102870000D03*
X158750000Y-102870000D03*
X156210000Y-102870000D03*
X153670000Y-102870000D03*
X151130000Y-102870000D03*
X148590000Y-102870000D03*
X146050000Y-102870000D03*
X146050000Y-100330000D03*
%TD*%
%TO.C,R5*%
X147211438Y-54322650D03*
X152291438Y-54322650D03*
%TD*%
%TO.C,R6*%
X152420676Y-91193620D03*
X147340676Y-91193620D03*
%TD*%
D21*
%TO.C,P9*%
X127110000Y-51535000D03*
X129650000Y-51535000D03*
%TD*%
%TO.C,P8*%
X172350000Y-51420000D03*
X169810000Y-51420000D03*
%TD*%
%TO.C,P7*%
X172270000Y-74440000D03*
X172270000Y-71900000D03*
%TD*%
%TO.C,P6*%
X127000000Y-90805000D03*
X127000000Y-88265000D03*
%TD*%
%TO.C,P5*%
X131445000Y-74295000D03*
X131445000Y-71755000D03*
%TD*%
M02*
