M48
;DRILL file {KiCad 4.0.3+e1-6302~38~ubuntu14.04.1-stable} date Fri Aug 19 15:41:00 2016
;FORMAT={2:4/ absolute / inch / keep zeros}
FMAT,2
INCH,TZ
T1C0.006
T2C0.008
T3C0.040
%
G90
G05
M72
T1
X067500Y-036000
X067500Y-036900
X067500Y-038750
X067500Y-042000
X067875Y-038875
X069000Y-036200
X069300Y-038900
X069500Y-036200
X069800Y-035700
X069800Y-036800
X070000Y-039400
X070500Y-037600
X070500Y-038000
X070500Y-040300
X071400Y-039300
X071400Y-040500
X075000Y-036800
X075200Y-037600
X075500Y-036600
X075600Y-039400
X075700Y-035600
X077000Y-037100
X077100Y-038400
X077100Y-040000
X077800Y-036600
X077900Y-039400
X079400Y-036800
X079400Y-038200
T2
X071300Y-036300
X072200Y-039700
X072200Y-040200
X072250Y-037500
X072250Y-038000
X072250Y-038500
X072750Y-037500
X073250Y-040475
X073650Y-039650
X073650Y-040150
X073750Y-037500
X074125Y-035500
X074375Y-037500
X074375Y-038000
X074375Y-038500
X074900Y-039650
X074900Y-040150
X075200Y-037900
T3
X069500Y-034500
X069500Y-041500
X070500Y-034500
X070500Y-041500
X071500Y-034500
X071500Y-041500
X072500Y-034500
X072500Y-041500
X073500Y-034500
X073500Y-041500
X074500Y-034500
X074500Y-041500
X075500Y-034500
X075500Y-041500
X076500Y-034500
X076500Y-041500
X077500Y-034500
X077500Y-041500
T0
M30
